# MagicaVoxel @ Ephtracy

# group
o 

# material
mtllib heli_rotor.mtl
usemtl palette

# normals
vn -1 0 0
vn 1 0 0
vn 0 0 1
vn 0 0 -1
vn 0 -1 0
vn 0 1 0

# texcoords
vt 0.00585938 0.5
vt 0.0839844 0.5

# verts
v -1.5 0.5 0.1
v -1.5 0.5 0
v -1.5 0.6 0.1
v -1.5 0.6 0
v -1.4 0.5 0
v -1.4 0.5 -0.1
v -1.4 0.6 0
v -1.4 0.6 -0.1
v -0.1 0 0
v -0.1 0 -0.1
v -0.1 0.1 0.1
v -0.1 0.1 0
v -0.1 0.1 -0.1
v -0.1 0.2 0.1
v -0.1 0.2 0
v -0.1 0.2 -0.1
v -0.1 0.3 0.1
v -0.1 0.3 0
v -0.1 0.3 -0.1
v -0.1 0.4 0.1
v -0.1 0.4 0
v -0.1 0.4 -0.1
v -0.1 0.5 1.4
v -0.1 0.5 1
v -0.1 0.5 0
v -0.1 0.5 -0.1
v -0.1 0.5 -1.4
v -0.1 0.5 -1.5
v -0.1 0.6 1.4
v -0.1 0.6 1
v -0.1 0.6 0
v -0.1 0.6 -1.4
v -0.1 0.6 -1.5
v 0 0 0.1
v 0 0 0
v 0 0.1 0.1
v 0 0.1 0
v 0 0.1 -0.1
v 0 0.2 0.1
v 0 0.2 0
v 0 0.2 -0.1
v 0 0.3 0.1
v 0 0.3 0
v 0 0.3 -0.1
v 0 0.4 0.1
v 0 0.4 0
v 0 0.4 -0.1
v 0 0.5 1.5
v 0 0.5 1.4
v 0 0.5 1
v 0 0.5 0.1
v 0 0.5 0
v 0 0.6 1.5
v 0 0.6 1.4
v 0 0.6 1
v 0 0.6 0.1
v 1 0.5 0.1
v 1 0.5 0
v 1 0.6 0.1
v 1 0.6 0
v -1 0.5 0
v -1 0.5 -0.1
v -1 0.6 0
v -1 0.6 -0.1
v 0 0 0
v 0 0 -0.1
v 0 0.1 0.1
v 0 0.1 0
v 0 0.1 -0.1
v 0 0.2 0.1
v 0 0.2 0
v 0 0.2 -0.1
v 0 0.3 0.1
v 0 0.3 0
v 0 0.3 -0.1
v 0 0.4 0.1
v 0 0.4 0
v 0 0.4 -0.1
v 0 0.5 0
v 0 0.5 -0.1
v 0 0.5 -1
v 0 0.5 -1.4
v 0 0.5 -1.5
v 0 0.6 -0.1
v 0 0.6 -1
v 0 0.6 -1.4
v 0 0.6 -1.5
v 0.1 0 0.1
v 0.1 0 0
v 0.1 0.1 0.1
v 0.1 0.1 0
v 0.1 0.1 -0.1
v 0.1 0.2 0.1
v 0.1 0.2 0
v 0.1 0.2 -0.1
v 0.1 0.3 0.1
v 0.1 0.3 0
v 0.1 0.3 -0.1
v 0.1 0.4 0.1
v 0.1 0.4 0
v 0.1 0.4 -0.1
v 0.1 0.5 1.5
v 0.1 0.5 1.4
v 0.1 0.5 0.1
v 0.1 0.5 0
v 0.1 0.5 -1
v 0.1 0.5 -1.4
v 0.1 0.6 1.5
v 0.1 0.6 1.4
v 0.1 0.6 0
v 0.1 0.6 -1
v 0.1 0.6 -1.4
v 1.4 0.5 0.1
v 1.4 0.5 0
v 1.4 0.6 0.1
v 1.4 0.6 0
v 1.5 0.5 0
v 1.5 0.5 -0.1
v 1.5 0.6 0
v 1.5 0.6 -0.1
v 0 0.5 1.5
v 0 0.6 1.5
v 0.1 0.5 1.5
v 0.1 0.6 1.5
v -0.1 0.5 1.4
v -0.1 0.6 1.4
v 0 0.5 1.4
v 0 0.6 1.4
v -1.5 0.5 0.1
v -1.5 0.6 0.1
v -1.4 0.5 0.1
v -1.4 0.6 0.1
v -0.1 0.1 0.1
v -0.1 0.2 0.1
v -0.1 0.3 0.1
v -0.1 0.4 0.1
v 0 0 0.1
v 0 0.1 0.1
v 0 0.2 0.1
v 0 0.3 0.1
v 0 0.4 0.1
v 0 0.5 0.1
v 0 0.6 0.1
v 0.1 0 0.1
v 0.1 0.1 0.1
v 0.1 0.2 0.1
v 0.1 0.3 0.1
v 0.1 0.4 0.1
v 0.1 0.5 0.1
v 1 0.5 0.1
v 1 0.6 0.1
v 1.4 0.5 0.1
v 1.4 0.6 0.1
v -0.1 0 0
v -0.1 0.1 0
v -0.1 0.2 0
v -0.1 0.3 0
v -0.1 0.4 0
v -0.1 0.5 0
v 0 0 0
v 0 0.1 0
v 0 0.2 0
v 0 0.3 0
v 0 0.4 0
v 0 0.5 0
v 0.1 0.1 0
v 0.1 0.2 0
v 0.1 0.3 0
v 0.1 0.4 0
v 0.1 0.5 0
v 0.1 0.6 0
v 1 0.5 0
v 1 0.6 0
v 1.4 0.5 0
v 1.4 0.6 0
v 1.5 0.5 0
v 1.5 0.6 0
v 0 0.5 -1
v 0 0.6 -1
v 0.1 0.5 -1
v 0.1 0.6 -1
v -0.1 0.5 1
v -0.1 0.6 1
v 0 0.5 1
v 0 0.6 1
v -1.5 0.5 0
v -1.5 0.6 0
v -1.4 0.5 0
v -1.4 0.6 0
v -1 0.5 0
v -1 0.6 0
v -0.1 0.1 0
v -0.1 0.2 0
v -0.1 0.3 0
v -0.1 0.4 0
v -0.1 0.5 0
v -0.1 0.6 0
v 0 0 0
v 0 0.1 0
v 0 0.2 0
v 0 0.3 0
v 0 0.4 0
v 0 0.5 0
v 0.1 0 0
v 0.1 0.1 0
v 0.1 0.2 0
v 0.1 0.3 0
v 0.1 0.4 0
v 0.1 0.5 0
v -1.4 0.5 -0.1
v -1.4 0.6 -0.1
v -1 0.5 -0.1
v -1 0.6 -0.1
v -0.1 0 -0.1
v -0.1 0.1 -0.1
v -0.1 0.2 -0.1
v -0.1 0.3 -0.1
v -0.1 0.4 -0.1
v -0.1 0.5 -0.1
v 0 0 -0.1
v 0 0.1 -0.1
v 0 0.2 -0.1
v 0 0.3 -0.1
v 0 0.4 -0.1
v 0 0.5 -0.1
v 0 0.6 -0.1
v 0.1 0.1 -0.1
v 0.1 0.2 -0.1
v 0.1 0.3 -0.1
v 0.1 0.4 -0.1
v 1.4 0.5 -0.1
v 1.4 0.6 -0.1
v 1.5 0.5 -0.1
v 1.5 0.6 -0.1
v 0 0.5 -1.4
v 0 0.6 -1.4
v 0.1 0.5 -1.4
v 0.1 0.6 -1.4
v -0.1 0.5 -1.5
v -0.1 0.6 -1.5
v 0 0.5 -1.5
v 0 0.6 -1.5
v 0 0 0.1
v 0.1 0 0.1
v -0.1 0 0
v 0 0 0
v 0.1 0 0
v -0.1 0 -0.1
v 0 0 -0.1
v -0.1 0.1 0.1
v 0 0.1 0.1
v -0.1 0.1 0
v 0 0.1 0
v 0.1 0.1 0
v 0 0.1 -0.1
v 0.1 0.1 -0.1
v 0 0.2 0.1
v 0.1 0.2 0.1
v -0.1 0.2 0
v 0 0.2 0
v 0.1 0.2 0
v -0.1 0.2 -0.1
v 0 0.2 -0.1
v -0.1 0.3 0.1
v 0 0.3 0.1
v -0.1 0.3 0
v 0 0.3 0
v 0.1 0.3 0
v 0 0.3 -0.1
v 0.1 0.3 -0.1
v 0 0.4 0.1
v 0.1 0.4 0.1
v -0.1 0.4 0
v 0 0.4 0
v 0.1 0.4 0
v -0.1 0.4 -0.1
v 0 0.4 -0.1
v 0 0.5 1.5
v 0.1 0.5 1.5
v -0.1 0.5 1.4
v 0 0.5 1.4
v 0.1 0.5 1.4
v -0.1 0.5 1
v 0 0.5 1
v -1.5 0.5 0.1
v -1.4 0.5 0.1
v 0 0.5 0.1
v 0.1 0.5 0.1
v 1 0.5 0.1
v 1.4 0.5 0.1
v -1.5 0.5 0
v -1.4 0.5 0
v -1 0.5 0
v -0.1 0.5 0
v 0 0.5 0
v 0.1 0.5 0
v 1 0.5 0
v 1.4 0.5 0
v 1.5 0.5 0
v -1.4 0.5 -0.1
v -1 0.5 -0.1
v -0.1 0.5 -0.1
v 0 0.5 -0.1
v 1.4 0.5 -0.1
v 1.5 0.5 -0.1
v 0 0.5 -1
v 0.1 0.5 -1
v -0.1 0.5 -1.4
v 0 0.5 -1.4
v 0.1 0.5 -1.4
v -0.1 0.5 -1.5
v 0 0.5 -1.5
v 0 0.1 0.1
v 0.1 0.1 0.1
v -0.1 0.1 0
v 0 0.1 0
v 0.1 0.1 0
v -0.1 0.1 -0.1
v 0 0.1 -0.1
v -0.1 0.2 0.1
v 0 0.2 0.1
v -0.1 0.2 0
v 0 0.2 0
v 0.1 0.2 0
v 0 0.2 -0.1
v 0.1 0.2 -0.1
v 0 0.3 0.1
v 0.1 0.3 0.1
v -0.1 0.3 0
v 0 0.3 0
v 0.1 0.3 0
v -0.1 0.3 -0.1
v 0 0.3 -0.1
v -0.1 0.4 0.1
v 0 0.4 0.1
v -0.1 0.4 0
v 0 0.4 0
v 0.1 0.4 0
v 0 0.4 -0.1
v 0.1 0.4 -0.1
v 0 0.6 1.5
v 0.1 0.6 1.5
v -0.1 0.6 1.4
v 0 0.6 1.4
v 0.1 0.6 1.4
v -0.1 0.6 1
v 0 0.6 1
v -1.5 0.6 0.1
v -1.4 0.6 0.1
v 0 0.6 0.1
v 1 0.6 0.1
v 1.4 0.6 0.1
v -1.5 0.6 0
v -1.4 0.6 0
v -1 0.6 0
v -0.1 0.6 0
v 0.1 0.6 0
v 1 0.6 0
v 1.4 0.6 0
v 1.5 0.6 0
v -1.4 0.6 -0.1
v -1 0.6 -0.1
v 0 0.6 -0.1
v 1.4 0.6 -0.1
v 1.5 0.6 -0.1
v 0 0.6 -1
v 0.1 0.6 -1
v -0.1 0.6 -1.4
v 0 0.6 -1.4
v 0.1 0.6 -1.4
v -0.1 0.6 -1.5
v 0 0.6 -1.5

# faces
f 3/2/1 2/2/1 1/2/1
f 4/2/1 2/2/1 3/2/1
f 7/2/1 6/2/1 5/2/1
f 8/2/1 6/2/1 7/2/1
f 12/2/1 10/2/1 9/2/1
f 13/2/1 10/2/1 12/2/1
f 14/2/1 12/2/1 11/2/1
f 15/2/1 12/2/1 14/2/1
f 18/2/1 16/2/1 15/2/1
f 19/2/1 16/2/1 18/2/1
f 20/2/1 18/2/1 17/2/1
f 21/2/1 18/2/1 20/2/1
f 25/2/1 22/2/1 21/2/1
f 26/2/1 22/2/1 25/2/1
f 29/2/1 24/2/1 23/2/1
f 30/2/1 24/2/1 29/2/1
f 31/1/1 26/1/1 25/1/1
f 31/1/1 27/1/1 26/1/1
f 32/2/1 28/2/1 27/2/1
f 32/1/1 27/1/1 31/1/1
f 33/2/1 28/2/1 32/2/1
f 36/2/1 35/2/1 34/2/1
f 37/2/1 35/2/1 36/2/1
f 40/2/1 38/2/1 37/2/1
f 41/2/1 38/2/1 40/2/1
f 42/2/1 40/2/1 39/2/1
f 43/2/1 40/2/1 42/2/1
f 46/2/1 44/2/1 43/2/1
f 47/2/1 44/2/1 46/2/1
f 51/2/1 46/2/1 45/2/1
f 52/2/1 46/2/1 51/2/1
f 53/2/1 49/2/1 48/2/1
f 54/2/1 49/2/1 53/2/1
f 55/1/1 51/1/1 50/1/1
f 56/1/1 51/1/1 55/1/1
f 59/2/1 58/2/1 57/2/1
f 60/2/1 58/2/1 59/2/1
f 61/2/2 62/2/2 63/2/2
f 63/2/2 62/2/2 64/2/2
f 65/2/2 66/2/2 68/2/2
f 68/2/2 66/2/2 69/2/2
f 67/2/2 68/2/2 70/2/2
f 70/2/2 68/2/2 71/2/2
f 71/2/2 72/2/2 74/2/2
f 74/2/2 72/2/2 75/2/2
f 73/2/2 74/2/2 76/2/2
f 76/2/2 74/2/2 77/2/2
f 77/2/2 78/2/2 79/2/2
f 79/2/2 78/2/2 80/2/2
f 80/1/2 81/1/2 84/1/2
f 84/1/2 81/1/2 85/1/2
f 82/2/2 83/2/2 86/2/2
f 86/2/2 83/2/2 87/2/2
f 88/2/2 89/2/2 90/2/2
f 90/2/2 89/2/2 91/2/2
f 91/2/2 92/2/2 94/2/2
f 94/2/2 92/2/2 95/2/2
f 93/2/2 94/2/2 96/2/2
f 96/2/2 94/2/2 97/2/2
f 97/2/2 98/2/2 100/2/2
f 100/2/2 98/2/2 101/2/2
f 99/2/2 100/2/2 104/2/2
f 104/2/2 100/2/2 105/2/2
f 102/2/2 103/2/2 108/2/2
f 104/1/2 105/1/2 109/1/2
f 108/2/2 103/2/2 109/2/2
f 103/1/2 104/1/2 109/1/2
f 109/1/2 105/1/2 110/1/2
f 106/2/2 107/2/2 111/2/2
f 111/2/2 107/2/2 112/2/2
f 113/2/2 114/2/2 115/2/2
f 115/2/2 114/2/2 116/2/2
f 117/2/2 118/2/2 119/2/2
f 119/2/2 118/2/2 120/2/2
f 123/2/3 122/2/3 121/2/3
f 124/2/3 122/2/3 123/2/3
f 127/2/3 126/2/3 125/2/3
f 128/2/3 126/2/3 127/2/3
f 131/2/3 130/2/3 129/2/3
f 132/2/3 130/2/3 131/2/3
f 138/2/3 134/2/3 133/2/3
f 139/2/3 134/2/3 138/2/3
f 140/2/3 136/2/3 135/2/3
f 141/2/3 136/2/3 140/2/3
f 142/1/3 132/1/3 131/1/3
f 143/1/3 132/1/3 142/1/3
f 144/2/3 138/2/3 137/2/3
f 145/2/3 138/2/3 144/2/3
f 146/2/3 140/2/3 139/2/3
f 147/2/3 140/2/3 146/2/3
f 148/2/3 142/2/3 141/2/3
f 149/2/3 142/2/3 148/2/3
f 152/2/3 151/2/3 150/2/3
f 153/2/3 151/2/3 152/2/3
f 160/2/3 155/2/3 154/2/3
f 161/2/3 155/2/3 160/2/3
f 162/2/3 157/2/3 156/2/3
f 163/2/3 157/2/3 162/2/3
f 164/2/3 159/2/3 158/2/3
f 165/2/3 159/2/3 164/2/3
f 166/2/3 162/2/3 161/2/3
f 167/2/3 162/2/3 166/2/3
f 168/2/3 164/2/3 163/2/3
f 169/2/3 164/2/3 168/2/3
f 172/1/3 171/1/3 170/1/3
f 173/1/3 171/1/3 172/1/3
f 176/2/3 175/2/3 174/2/3
f 177/2/3 175/2/3 176/2/3
f 180/2/3 179/2/3 178/2/3
f 181/2/3 179/2/3 180/2/3
f 182/2/4 183/2/4 184/2/4
f 184/2/4 183/2/4 185/2/4
f 186/2/4 187/2/4 188/2/4
f 188/2/4 187/2/4 189/2/4
f 190/1/4 191/1/4 196/1/4
f 196/1/4 191/1/4 197/1/4
f 192/2/4 193/2/4 199/2/4
f 199/2/4 193/2/4 200/2/4
f 194/2/4 195/2/4 201/2/4
f 201/2/4 195/2/4 202/2/4
f 198/2/4 199/2/4 204/2/4
f 204/2/4 199/2/4 205/2/4
f 200/2/4 201/2/4 206/2/4
f 206/2/4 201/2/4 207/2/4
f 202/2/4 203/2/4 208/2/4
f 208/2/4 203/2/4 209/2/4
f 210/2/4 211/2/4 212/2/4
f 212/2/4 211/2/4 213/2/4
f 214/2/4 215/2/4 220/2/4
f 220/2/4 215/2/4 221/2/4
f 216/2/4 217/2/4 222/2/4
f 222/2/4 217/2/4 223/2/4
f 218/2/4 219/2/4 224/2/4
f 224/2/4 219/2/4 225/2/4
f 221/2/4 222/2/4 227/2/4
f 227/2/4 222/2/4 228/2/4
f 223/2/4 224/2/4 229/2/4
f 229/2/4 224/2/4 230/2/4
f 225/1/4 226/1/4 231/1/4
f 231/1/4 226/1/4 232/1/4
f 231/2/4 232/2/4 233/2/4
f 233/2/4 232/2/4 234/2/4
f 235/2/4 236/2/4 237/2/4
f 237/2/4 236/2/4 238/2/4
f 239/2/4 240/2/4 241/2/4
f 241/2/4 240/2/4 242/2/4
f 246/2/5 244/2/5 243/2/5
f 247/2/5 244/2/5 246/2/5
f 248/2/5 246/2/5 245/2/5
f 249/2/5 246/2/5 248/2/5
f 252/2/5 251/2/5 250/2/5
f 253/2/5 251/2/5 252/2/5
f 255/2/5 254/2/5 253/2/5
f 256/2/5 254/2/5 255/2/5
f 260/2/5 258/2/5 257/2/5
f 261/2/5 258/2/5 260/2/5
f 262/2/5 260/2/5 259/2/5
f 263/2/5 260/2/5 262/2/5
f 266/2/5 265/2/5 264/2/5
f 267/2/5 265/2/5 266/2/5
f 269/2/5 268/2/5 267/2/5
f 270/2/5 268/2/5 269/2/5
f 274/2/5 272/2/5 271/2/5
f 275/2/5 272/2/5 274/2/5
f 276/2/5 274/2/5 273/2/5
f 277/2/5 274/2/5 276/2/5
f 281/2/5 279/2/5 278/2/5
f 282/2/5 279/2/5 281/2/5
f 283/2/5 281/2/5 280/2/5
f 284/1/5 282/1/5 281/1/5
f 284/2/5 281/2/5 283/2/5
f 287/1/5 282/1/5 284/1/5
f 288/1/5 282/1/5 287/1/5
f 291/2/5 286/2/5 285/2/5
f 292/1/5 287/1/5 286/1/5
f 292/2/5 286/2/5 291/2/5
f 293/1/5 287/1/5 292/1/5
f 294/1/5 287/1/5 293/1/5
f 295/1/5 287/1/5 294/1/5
f 297/2/5 290/2/5 289/2/5
f 298/2/5 290/2/5 297/2/5
f 300/2/5 293/2/5 292/2/5
f 301/2/5 293/2/5 300/2/5
f 303/1/5 296/1/5 295/1/5
f 303/1/5 298/1/5 297/1/5
f 303/1/5 297/1/5 296/1/5
f 304/2/5 299/2/5 298/2/5
f 304/1/5 298/1/5 303/1/5
f 305/2/5 299/2/5 304/2/5
f 306/1/5 303/1/5 302/1/5
f 308/1/5 306/1/5 302/1/5
f 309/2/5 307/2/5 306/2/5
f 309/1/5 306/1/5 308/1/5
f 310/2/5 307/2/5 309/2/5
f 311/2/5 309/2/5 308/2/5
f 312/2/5 309/2/5 311/2/5
f 313/2/6 314/2/6 316/2/6
f 316/2/6 314/2/6 317/2/6
f 315/2/6 316/2/6 318/2/6
f 318/2/6 316/2/6 319/2/6
f 320/2/6 321/2/6 322/2/6
f 322/2/6 321/2/6 323/2/6
f 323/2/6 324/2/6 325/2/6
f 325/2/6 324/2/6 326/2/6
f 327/2/6 328/2/6 330/2/6
f 330/2/6 328/2/6 331/2/6
f 329/2/6 330/2/6 332/2/6
f 332/2/6 330/2/6 333/2/6
f 334/2/6 335/2/6 336/2/6
f 336/2/6 335/2/6 337/2/6
f 337/2/6 338/2/6 339/2/6
f 339/2/6 338/2/6 340/2/6
f 341/2/6 342/2/6 344/2/6
f 344/2/6 342/2/6 345/2/6
f 343/2/6 344/2/6 346/2/6
f 344/1/6 345/1/6 347/1/6
f 346/2/6 344/2/6 347/2/6
f 347/1/6 345/1/6 350/1/6
f 348/2/6 349/2/6 353/2/6
f 349/1/6 350/1/6 354/1/6
f 353/2/6 349/2/6 354/2/6
f 354/1/6 350/1/6 355/1/6
f 355/1/6 350/1/6 356/1/6
f 350/1/6 345/1/6 357/1/6
f 356/1/6 350/1/6 357/1/6
f 351/2/6 352/2/6 358/2/6
f 358/2/6 352/2/6 359/2/6
f 354/2/6 355/2/6 361/2/6
f 361/2/6 355/2/6 362/2/6
f 356/1/6 357/1/6 363/1/6
f 358/1/6 359/1/6 363/1/6
f 357/1/6 358/1/6 363/1/6
f 359/2/6 360/2/6 364/2/6
f 363/1/6 359/1/6 364/1/6
f 364/2/6 360/2/6 365/2/6
f 356/1/6 363/1/6 366/1/6
f 356/1/6 366/1/6 368/1/6
f 366/2/6 367/2/6 369/2/6
f 368/1/6 366/1/6 369/1/6
f 369/2/6 367/2/6 370/2/6
f 368/2/6 369/2/6 371/2/6
f 371/2/6 369/2/6 372/2/6
