# MagicaVoxel @ Ephtracy

# group
o 

# material
mtllib scout_heli_rotor.mtl
usemtl palette

# normals
vn -1 0 0
vn 1 0 0
vn 0 0 1
vn 0 0 -1
vn 0 -1 0
vn 0 1 0

# texcoords
vt 0.00585938 0.5
vt 0.0839844 0.5

# verts
v -1.5 0.6 0.1
v -1.5 0.6 0
v -1.5 0.7 0.1
v -1.5 0.7 0
v -1.4 0.6 0
v -1.4 0.6 -0.1
v -1.4 0.7 0
v -1.4 0.7 -0.1
v -0.1 0 0.1
v -0.1 0 0
v -0.1 0.1 0.1
v -0.1 0.1 0
v -0.1 0.1 -0.1
v -0.1 0.2 0.1
v -0.1 0.2 0
v -0.1 0.2 -0.1
v -0.1 0.3 0.1
v -0.1 0.3 0
v -0.1 0.3 -0.1
v -0.1 0.4 0.1
v -0.1 0.4 0
v -0.1 0.4 -0.1
v -0.1 0.5 0.1
v -0.1 0.5 0
v -0.1 0.5 -0.1
v -0.1 0.6 0
v -0.1 0.6 -0.1
v -0.1 0.7 0
v -0.1 0.7 -0.1
v 0 0 0
v 0 0 -0.1
v 0 0.1 0.1
v 0 0.1 0
v 0 0.1 -0.1
v 0 0.2 0.1
v 0 0.2 0
v 0 0.2 -0.1
v 0 0.3 0.1
v 0 0.3 0
v 0 0.3 -0.1
v 0 0.4 0.1
v 0 0.4 0
v 0 0.4 -0.1
v 0 0.5 0.1
v 0 0.5 0
v 0 0.5 -0.1
v 0 0.6 0.1
v 0 0.6 0
v 1 0.6 0.1
v 1 0.6 0
v 1 0.7 0.1
v 1 0.7 0
v -1 0.6 0
v -1 0.6 -0.1
v -1 0.7 0
v -1 0.7 -0.1
v 0 0 0.1
v 0 0 0
v 0 0.1 0.1
v 0 0.1 0
v 0 0.1 -0.1
v 0 0.2 0.1
v 0 0.2 0
v 0 0.2 -0.1
v 0 0.3 0.1
v 0 0.3 0
v 0 0.3 -0.1
v 0 0.4 0.1
v 0 0.4 0
v 0 0.4 -0.1
v 0 0.5 0.1
v 0 0.5 0
v 0 0.5 -0.1
v 0 0.6 0
v 0 0.6 -0.1
v 0.1 0 0
v 0.1 0 -0.1
v 0.1 0.1 0.1
v 0.1 0.1 0
v 0.1 0.1 -0.1
v 0.1 0.2 0.1
v 0.1 0.2 0
v 0.1 0.2 -0.1
v 0.1 0.3 0.1
v 0.1 0.3 0
v 0.1 0.3 -0.1
v 0.1 0.4 0.1
v 0.1 0.4 0
v 0.1 0.4 -0.1
v 0.1 0.5 0.1
v 0.1 0.5 0
v 0.1 0.5 -0.1
v 0.1 0.6 0.1
v 0.1 0.6 0
v 0.1 0.7 0.1
v 0.1 0.7 0
v 1.4 0.6 0.1
v 1.4 0.6 0
v 1.4 0.7 0.1
v 1.4 0.7 0
v 1.5 0.6 0
v 1.5 0.6 -0.1
v 1.5 0.7 0
v 1.5 0.7 -0.1
v -1.5 0.6 0.1
v -1.5 0.7 0.1
v -1.4 0.6 0.1
v -1.4 0.7 0.1
v -0.1 0 0.1
v -0.1 0.1 0.1
v -0.1 0.2 0.1
v -0.1 0.3 0.1
v -0.1 0.4 0.1
v -0.1 0.5 0.1
v 0 0 0.1
v 0 0.1 0.1
v 0 0.2 0.1
v 0 0.3 0.1
v 0 0.4 0.1
v 0 0.5 0.1
v 0 0.6 0.1
v 0.1 0.1 0.1
v 0.1 0.2 0.1
v 0.1 0.3 0.1
v 0.1 0.4 0.1
v 0.1 0.5 0.1
v 0.1 0.6 0.1
v 0.1 0.7 0.1
v 1 0.6 0.1
v 1 0.7 0.1
v 1.4 0.6 0.1
v 1.4 0.7 0.1
v -0.1 0.1 0
v -0.1 0.2 0
v -0.1 0.3 0
v -0.1 0.4 0
v -0.1 0.5 0
v -0.1 0.6 0
v 0 0 0
v 0 0.1 0
v 0 0.2 0
v 0 0.3 0
v 0 0.4 0
v 0 0.5 0
v 0 0.6 0
v 0.1 0 0
v 0.1 0.1 0
v 0.1 0.2 0
v 0.1 0.3 0
v 0.1 0.4 0
v 0.1 0.5 0
v 0.1 0.6 0
v 0.1 0.7 0
v 1 0.6 0
v 1 0.7 0
v 1.4 0.6 0
v 1.4 0.7 0
v 1.5 0.6 0
v 1.5 0.7 0
v -1.5 0.6 0
v -1.5 0.7 0
v -1.4 0.6 0
v -1.4 0.7 0
v -1 0.6 0
v -1 0.7 0
v -0.1 0 0
v -0.1 0.1 0
v -0.1 0.2 0
v -0.1 0.3 0
v -0.1 0.4 0
v -0.1 0.5 0
v -0.1 0.6 0
v -0.1 0.7 0
v 0 0 0
v 0 0.1 0
v 0 0.2 0
v 0 0.3 0
v 0 0.4 0
v 0 0.5 0
v 0 0.6 0
v 0.1 0.1 0
v 0.1 0.2 0
v 0.1 0.3 0
v 0.1 0.4 0
v 0.1 0.5 0
v 0.1 0.6 0
v -1.4 0.6 -0.1
v -1.4 0.7 -0.1
v -1 0.6 -0.1
v -1 0.7 -0.1
v -0.1 0.1 -0.1
v -0.1 0.2 -0.1
v -0.1 0.3 -0.1
v -0.1 0.4 -0.1
v -0.1 0.5 -0.1
v -0.1 0.6 -0.1
v -0.1 0.7 -0.1
v 0 0 -0.1
v 0 0.1 -0.1
v 0 0.2 -0.1
v 0 0.3 -0.1
v 0 0.4 -0.1
v 0 0.5 -0.1
v 0 0.6 -0.1
v 0.1 0 -0.1
v 0.1 0.1 -0.1
v 0.1 0.2 -0.1
v 0.1 0.3 -0.1
v 0.1 0.4 -0.1
v 0.1 0.5 -0.1
v 1.4 0.6 -0.1
v 1.4 0.7 -0.1
v 1.5 0.6 -0.1
v 1.5 0.7 -0.1
v -0.1 0 0.1
v 0 0 0.1
v -0.1 0 0
v 0 0 0
v 0.1 0 0
v 0 0 -0.1
v 0.1 0 -0.1
v 0 0.1 0.1
v 0.1 0.1 0.1
v -0.1 0.1 0
v 0 0.1 0
v 0.1 0.1 0
v -0.1 0.1 -0.1
v 0 0.1 -0.1
v -0.1 0.2 0.1
v 0 0.2 0.1
v -0.1 0.2 0
v 0 0.2 0
v 0.1 0.2 0
v 0 0.2 -0.1
v 0.1 0.2 -0.1
v 0 0.3 0.1
v 0.1 0.3 0.1
v -0.1 0.3 0
v 0 0.3 0
v 0.1 0.3 0
v -0.1 0.3 -0.1
v 0 0.3 -0.1
v -0.1 0.4 0.1
v 0 0.4 0.1
v -0.1 0.4 0
v 0 0.4 0
v 0.1 0.4 0
v 0 0.4 -0.1
v 0.1 0.4 -0.1
v 0 0.5 0.1
v 0.1 0.5 0.1
v -0.1 0.5 0
v 0 0.5 0
v 0.1 0.5 0
v -0.1 0.5 -0.1
v 0 0.5 -0.1
v -1.5 0.6 0.1
v -1.4 0.6 0.1
v 0 0.6 0.1
v 1 0.6 0.1
v 1.4 0.6 0.1
v -1.5 0.6 0
v -1.4 0.6 0
v -1 0.6 0
v -0.1 0.6 0
v 0 0.6 0
v 0.1 0.6 0
v 1 0.6 0
v 1.4 0.6 0
v 1.5 0.6 0
v -1.4 0.6 -0.1
v -1 0.6 -0.1
v 0 0.6 -0.1
v 1.4 0.6 -0.1
v 1.5 0.6 -0.1
v -0.1 0.1 0.1
v 0 0.1 0.1
v -0.1 0.1 0
v 0 0.1 0
v 0.1 0.1 0
v 0 0.1 -0.1
v 0.1 0.1 -0.1
v 0 0.2 0.1
v 0.1 0.2 0.1
v -0.1 0.2 0
v 0 0.2 0
v 0.1 0.2 0
v -0.1 0.2 -0.1
v 0 0.2 -0.1
v -0.1 0.3 0.1
v 0 0.3 0.1
v -0.1 0.3 0
v 0 0.3 0
v 0.1 0.3 0
v 0 0.3 -0.1
v 0.1 0.3 -0.1
v 0 0.4 0.1
v 0.1 0.4 0.1
v -0.1 0.4 0
v 0 0.4 0
v 0.1 0.4 0
v -0.1 0.4 -0.1
v 0 0.4 -0.1
v -0.1 0.5 0.1
v 0 0.5 0.1
v -0.1 0.5 0
v 0 0.5 0
v 0.1 0.5 0
v 0 0.5 -0.1
v 0.1 0.5 -0.1
v -1.5 0.7 0.1
v -1.4 0.7 0.1
v 0.1 0.7 0.1
v 1 0.7 0.1
v 1.4 0.7 0.1
v -1.5 0.7 0
v -1.4 0.7 0
v -1 0.7 0
v -0.1 0.7 0
v 0.1 0.7 0
v 1 0.7 0
v 1.4 0.7 0
v 1.5 0.7 0
v -1.4 0.7 -0.1
v -1 0.7 -0.1
v -0.1 0.7 -0.1
v 1.4 0.7 -0.1
v 1.5 0.7 -0.1

# faces
f 3/2/1 2/2/1 1/2/1
f 4/2/1 2/2/1 3/2/1
f 7/2/1 6/2/1 5/2/1
f 8/2/1 6/2/1 7/2/1
f 11/2/1 10/2/1 9/2/1
f 12/2/1 10/2/1 11/2/1
f 15/2/1 13/2/1 12/2/1
f 16/2/1 13/2/1 15/2/1
f 17/2/1 15/2/1 14/2/1
f 18/2/1 15/2/1 17/2/1
f 21/2/1 19/2/1 18/2/1
f 22/2/1 19/2/1 21/2/1
f 23/2/1 21/2/1 20/2/1
f 24/2/1 21/2/1 23/2/1
f 26/2/1 25/2/1 24/2/1
f 27/2/1 25/2/1 26/2/1
f 28/1/1 27/1/1 26/1/1
f 29/1/1 27/1/1 28/1/1
f 33/2/1 31/2/1 30/2/1
f 34/2/1 31/2/1 33/2/1
f 35/2/1 33/2/1 32/2/1
f 36/2/1 33/2/1 35/2/1
f 39/2/1 37/2/1 36/2/1
f 40/2/1 37/2/1 39/2/1
f 41/2/1 39/2/1 38/2/1
f 42/2/1 39/2/1 41/2/1
f 45/2/1 43/2/1 42/2/1
f 46/2/1 43/2/1 45/2/1
f 47/2/1 45/2/1 44/2/1
f 48/2/1 45/2/1 47/2/1
f 51/2/1 50/2/1 49/2/1
f 52/2/1 50/2/1 51/2/1
f 53/2/2 54/2/2 55/2/2
f 55/2/2 54/2/2 56/2/2
f 57/2/2 58/2/2 59/2/2
f 59/2/2 58/2/2 60/2/2
f 60/2/2 61/2/2 63/2/2
f 63/2/2 61/2/2 64/2/2
f 62/2/2 63/2/2 65/2/2
f 65/2/2 63/2/2 66/2/2
f 66/2/2 67/2/2 69/2/2
f 69/2/2 67/2/2 70/2/2
f 68/2/2 69/2/2 71/2/2
f 71/2/2 69/2/2 72/2/2
f 72/2/2 73/2/2 74/2/2
f 74/2/2 73/2/2 75/2/2
f 76/2/2 77/2/2 79/2/2
f 79/2/2 77/2/2 80/2/2
f 78/2/2 79/2/2 81/2/2
f 81/2/2 79/2/2 82/2/2
f 82/2/2 83/2/2 85/2/2
f 85/2/2 83/2/2 86/2/2
f 84/2/2 85/2/2 87/2/2
f 87/2/2 85/2/2 88/2/2
f 88/2/2 89/2/2 91/2/2
f 91/2/2 89/2/2 92/2/2
f 90/2/2 91/2/2 93/2/2
f 93/2/2 91/2/2 94/2/2
f 93/1/2 94/1/2 95/1/2
f 95/1/2 94/1/2 96/1/2
f 97/2/2 98/2/2 99/2/2
f 99/2/2 98/2/2 100/2/2
f 101/2/2 102/2/2 103/2/2
f 103/2/2 102/2/2 104/2/2
f 107/2/3 106/2/3 105/2/3
f 108/2/3 106/2/3 107/2/3
f 115/2/3 110/2/3 109/2/3
f 116/2/3 110/2/3 115/2/3
f 117/2/3 112/2/3 111/2/3
f 118/2/3 112/2/3 117/2/3
f 119/2/3 114/2/3 113/2/3
f 120/2/3 114/2/3 119/2/3
f 121/1/3 108/1/3 107/1/3
f 122/2/3 117/2/3 116/2/3
f 123/2/3 117/2/3 122/2/3
f 124/2/3 119/2/3 118/2/3
f 125/2/3 119/2/3 124/2/3
f 126/2/3 121/2/3 120/2/3
f 127/1/3 108/1/3 121/1/3
f 127/2/3 121/2/3 126/2/3
f 128/1/3 108/1/3 127/1/3
f 131/2/3 130/2/3 129/2/3
f 132/2/3 130/2/3 131/2/3
f 140/2/3 134/2/3 133/2/3
f 141/2/3 134/2/3 140/2/3
f 142/2/3 136/2/3 135/2/3
f 143/2/3 136/2/3 142/2/3
f 144/2/3 138/2/3 137/2/3
f 145/2/3 138/2/3 144/2/3
f 146/2/3 140/2/3 139/2/3
f 147/2/3 140/2/3 146/2/3
f 148/2/3 142/2/3 141/2/3
f 149/2/3 142/2/3 148/2/3
f 150/2/3 144/2/3 143/2/3
f 151/2/3 144/2/3 150/2/3
f 154/1/3 153/1/3 152/1/3
f 155/1/3 153/1/3 154/1/3
f 158/2/3 157/2/3 156/2/3
f 159/2/3 157/2/3 158/2/3
f 160/2/4 161/2/4 162/2/4
f 162/2/4 161/2/4 163/2/4
f 164/1/4 165/1/4 172/1/4
f 172/1/4 165/1/4 173/1/4
f 166/2/4 167/2/4 174/2/4
f 174/2/4 167/2/4 175/2/4
f 168/2/4 169/2/4 176/2/4
f 176/2/4 169/2/4 177/2/4
f 170/2/4 171/2/4 178/2/4
f 178/2/4 171/2/4 179/2/4
f 175/2/4 176/2/4 181/2/4
f 181/2/4 176/2/4 182/2/4
f 177/2/4 178/2/4 183/2/4
f 183/2/4 178/2/4 184/2/4
f 179/2/4 180/2/4 185/2/4
f 185/2/4 180/2/4 186/2/4
f 187/2/4 188/2/4 189/2/4
f 189/2/4 188/2/4 190/2/4
f 191/2/4 192/2/4 199/2/4
f 199/2/4 192/2/4 200/2/4
f 193/2/4 194/2/4 201/2/4
f 201/2/4 194/2/4 202/2/4
f 195/2/4 196/2/4 203/2/4
f 196/1/4 197/1/4 204/1/4
f 203/2/4 196/2/4 204/2/4
f 198/2/4 199/2/4 205/2/4
f 205/2/4 199/2/4 206/2/4
f 200/2/4 201/2/4 207/2/4
f 207/2/4 201/2/4 208/2/4
f 202/2/4 203/2/4 209/2/4
f 209/2/4 203/2/4 210/2/4
f 204/1/4 197/1/4 211/1/4
f 211/1/4 197/1/4 212/1/4
f 211/2/4 212/2/4 213/2/4
f 213/2/4 212/2/4 214/2/4
f 217/2/5 216/2/5 215/2/5
f 218/2/5 216/2/5 217/2/5
f 220/2/5 219/2/5 218/2/5
f 221/2/5 219/2/5 220/2/5
f 225/2/5 223/2/5 222/2/5
f 226/2/5 223/2/5 225/2/5
f 227/2/5 225/2/5 224/2/5
f 228/2/5 225/2/5 227/2/5
f 231/2/5 230/2/5 229/2/5
f 232/2/5 230/2/5 231/2/5
f 234/2/5 233/2/5 232/2/5
f 235/2/5 233/2/5 234/2/5
f 239/2/5 237/2/5 236/2/5
f 240/2/5 237/2/5 239/2/5
f 241/2/5 239/2/5 238/2/5
f 242/2/5 239/2/5 241/2/5
f 245/2/5 244/2/5 243/2/5
f 246/2/5 244/2/5 245/2/5
f 248/2/5 247/2/5 246/2/5
f 249/2/5 247/2/5 248/2/5
f 253/2/5 251/2/5 250/2/5
f 254/2/5 251/2/5 253/2/5
f 255/2/5 253/2/5 252/2/5
f 256/2/5 253/2/5 255/2/5
f 262/2/5 258/2/5 257/2/5
f 263/1/5 259/1/5 258/1/5
f 263/2/5 258/2/5 262/2/5
f 264/1/5 259/1/5 263/1/5
f 265/1/5 259/1/5 264/1/5
f 266/1/5 259/1/5 265/1/5
f 268/2/5 261/2/5 260/2/5
f 269/2/5 261/2/5 268/2/5
f 271/2/5 264/2/5 263/2/5
f 272/2/5 264/2/5 271/2/5
f 273/1/5 267/1/5 266/1/5
f 273/1/5 269/1/5 268/1/5
f 273/1/5 268/1/5 267/1/5
f 274/2/5 270/2/5 269/2/5
f 274/1/5 269/1/5 273/1/5
f 275/2/5 270/2/5 274/2/5
f 276/2/6 277/2/6 278/2/6
f 278/2/6 277/2/6 279/2/6
f 279/2/6 280/2/6 281/2/6
f 281/2/6 280/2/6 282/2/6
f 283/2/6 284/2/6 286/2/6
f 286/2/6 284/2/6 287/2/6
f 285/2/6 286/2/6 288/2/6
f 288/2/6 286/2/6 289/2/6
f 290/2/6 291/2/6 292/2/6
f 292/2/6 291/2/6 293/2/6
f 293/2/6 294/2/6 295/2/6
f 295/2/6 294/2/6 296/2/6
f 297/2/6 298/2/6 300/2/6
f 300/2/6 298/2/6 301/2/6
f 299/2/6 300/2/6 302/2/6
f 302/2/6 300/2/6 303/2/6
f 304/2/6 305/2/6 306/2/6
f 306/2/6 305/2/6 307/2/6
f 307/2/6 308/2/6 309/2/6
f 309/2/6 308/2/6 310/2/6
f 311/2/6 312/2/6 316/2/6
f 312/1/6 313/1/6 317/1/6
f 316/2/6 312/2/6 317/2/6
f 317/1/6 313/1/6 318/1/6
f 318/1/6 313/1/6 319/1/6
f 319/1/6 313/1/6 320/1/6
f 314/2/6 315/2/6 321/2/6
f 321/2/6 315/2/6 322/2/6
f 317/2/6 318/2/6 324/2/6
f 324/2/6 318/2/6 325/2/6
f 319/1/6 320/1/6 326/1/6
f 321/1/6 322/1/6 326/1/6
f 320/1/6 321/1/6 326/1/6
f 322/2/6 323/2/6 327/2/6
f 326/1/6 322/1/6 327/1/6
f 327/2/6 323/2/6 328/2/6
