# MagicaVoxel @ Ephtracy

# group
o 

# material
mtllib cactus_4.mtl
usemtl palette

# normals
vn -1 0 0
vn 1 0 0
vn 0 0 1
vn 0 0 -1
vn 0 -1 0
vn 0 1 0

# texcoords
vt 0.0488281 0.5
vt 0.0996094 0.5

# verts
v -0.5 0.4 0.1
v -0.5 0.4 -2.98023e-008
v -0.5 0.5 0.1
v -0.5 0.5 -2.98023e-008
v -0.4 0.4 -2.98023e-008
v -0.4 0.4 -0.1
v -0.4 0.5 0.1
v -0.4 0.5 -2.98023e-008
v -0.4 0.6 0.1
v -0.4 0.6 -2.98023e-008
v -0.4 0.6 -0.1
v -0.4 0.7 -2.98023e-008
v -0.4 0.7 -0.1
v -0.3 0.1 -2.98023e-008
v -0.3 0.1 -0.1
v -0.3 0.2 -2.98023e-008
v -0.3 0.2 -0.1
v -0.3 0.3 0.1
v -0.3 0.3 -0.1
v -0.3 0.4 0.2
v -0.3 0.4 0.1
v -0.3 0.4 -0.1
v -0.3 0.4 -0.2
v -0.3 0.6 0.2
v -0.3 0.6 0.1
v -0.3 0.6 -2.98023e-008
v -0.3 0.6 -0.1
v -0.3 0.6 -0.2
v -0.3 0.7 0.1
v -0.3 0.7 -2.98023e-008
v -0.3 0.8 0.1
v -0.3 0.8 -2.98023e-008
v -0.3 0.9 0.1
v -0.3 0.9 -2.98023e-008
v -0.3 1 -2.98023e-008
v -0.3 1 -0.1
v -0.3 1.1 -2.98023e-008
v -0.3 1.1 -0.1
v -0.2 0 0.1
v -0.2 0 -0.1
v -0.2 0.1 0.2
v -0.2 0.1 0.1
v -0.2 0.1 -2.98023e-008
v -0.2 0.1 -0.1
v -0.2 0.2 0.2
v -0.2 0.2 0.1
v -0.2 0.2 -2.98023e-008
v -0.2 0.2 -0.1
v -0.2 0.3 0.1
v -0.2 0.3 -0.1
v -0.2 0.5 0.3
v -0.2 0.5 0.2
v -0.2 0.5 -0.2
v -0.2 0.5 -0.3
v -0.2 0.6 0.3
v -0.2 0.6 0.2
v -0.2 0.6 -0.2
v -0.2 0.6 -0.3
v -0.2 0.7 0.1
v -0.2 0.7 -0.1
v -0.2 0.8 0.1
v -0.2 0.8 -2.98023e-008
v -0.2 0.9 0.2
v -0.2 0.9 0.1
v -0.2 0.9 -2.98023e-008
v -0.2 1 0.2
v -0.2 1 0.1
v -0.2 1 -2.98023e-008
v -0.2 1 -0.1
v -0.2 1.1 0.1
v -0.2 1.1 -2.98023e-008
v -0.1 0 0.2
v -0.1 0 0.1
v -0.1 0 -0.1
v -0.1 0 -0.2
v -0.1 0.1 0.2
v -0.1 0.1 0.1
v -0.1 0.1 -0.2
v -0.1 0.1 -0.3
v -0.1 0.2 0.2
v -0.1 0.2 0.1
v -0.1 0.2 -0.2
v -0.1 0.2 -0.3
v -0.1 0.4 0.2
v -0.1 0.4 0.1
v -0.1 0.4 -0.1
v -0.1 0.4 -0.2
v -0.1 0.6 0.2
v -0.1 0.6 0.1
v -0.1 0.6 -0.1
v -0.1 0.6 -0.2
v -0.1 0.9 0.2
v -0.1 0.9 0.1
v -0.1 0.9 -0.2
v -0.1 0.9 -0.3
v -0.1 1 0.2
v -0.1 1 0.1
v -0.1 1 -0.2
v -0.1 1 -0.3
v -0.1 1.1 0.2
v -0.1 1.1 0.1
v -0.1 1.1 -0.1
v -0.1 1.1 -0.2
v -0.1 1.2 0.1
v -0.1 1.2 -2.98023e-008
v -0.1 1.2 -0.1
v -0.1 1.3 -2.98023e-008
v -0.1 1.3 -0.1
v 0 0.3 0.3
v 0 0.3 0.2
v 0 0.4 0.3
v 0 0.4 0.2
v 0 0.4 -0.2
v 0 0.4 -0.3
v 0 0.5 -0.2
v 0 0.5 -0.3
v 0 0.7 -0.2
v 0 0.7 -0.3
v 0 0.8 0.3
v 0 0.8 0.2
v 0 0.8 -0.2
v 0 0.8 -0.3
v 0 0.9 0.3
v 0 0.9 0.2
v -0.1 0.5 0.3
v -0.1 0.5 0.2
v -0.1 0.5 -0.2
v -0.1 0.5 -0.3
v -0.1 0.6 0.3
v -0.1 0.6 0.2
v -0.1 0.6 -0.2
v -0.1 0.6 -0.3
v 0 0.1 -0.2
v 0 0.1 -0.3
v 0 0.2 -0.2
v 0 0.2 -0.3
v 0 0.9 -0.2
v 0 0.9 -0.3
v 0 1 -0.2
v 0 1 -0.3
v 0 1.2 -2.98023e-008
v 0 1.2 -0.1
v 0 1.3 -2.98023e-008
v 0 1.3 -0.1
v 0.1 0 0.2
v 0.1 0 0.1
v 0.1 0 -0.1
v 0.1 0 -0.2
v 0.1 0.1 0.2
v 0.1 0.1 0.1
v 0.1 0.2 0.2
v 0.1 0.2 0.1
v 0.1 0.2 -0.1
v 0.1 0.2 -0.2
v 0.1 0.3 0.3
v 0.1 0.3 0.2
v 0.1 0.3 -0.1
v 0.1 0.3 -0.2
v 0.1 0.4 0.3
v 0.1 0.4 0.2
v 0.1 0.4 -0.2
v 0.1 0.4 -0.3
v 0.1 0.5 -0.2
v 0.1 0.5 -0.3
v 0.1 0.6 0.2
v 0.1 0.6 0.1
v 0.1 0.7 0.2
v 0.1 0.7 0.1
v 0.1 0.7 -0.2
v 0.1 0.7 -0.3
v 0.1 0.8 0.3
v 0.1 0.8 0.2
v 0.1 0.8 -0.2
v 0.1 0.8 -0.3
v 0.1 0.9 0.3
v 0.1 0.9 0.2
v 0.1 0.9 -0.1
v 0.1 0.9 -0.2
v 0.1 1 0.2
v 0.1 1 0.1
v 0.1 1 -0.1
v 0.1 1 -0.2
v 0.1 1.1 0.1
v 0.1 1.1 -0.1
v 0.1 1.1 -0.2
v 0.1 1.2 0.1
v 0.1 1.2 -0.1
v 0.2 0 0.1
v 0.2 0 -0.1
v 0.2 0.1 0.2
v 0.2 0.1 0.1
v 0.2 0.2 0.2
v 0.2 0.2 0.1
v 0.2 0.2 -0.1
v 0.2 0.2 -0.2
v 0.2 0.3 0.1
v 0.2 0.3 -2.98023e-008
v 0.2 0.3 -0.1
v 0.2 0.3 -0.2
v 0.2 0.4 0.1
v 0.2 0.4 -2.98023e-008
v 0.2 0.6 0.2
v 0.2 0.6 0.1
v 0.2 0.7 0.2
v 0.2 0.7 0.1
v 0.2 0.7 -2.98023e-008
v 0.2 0.7 -0.1
v 0.2 0.8 0.1
v 0.2 0.8 -2.98023e-008
v 0.2 0.8 -0.1
v 0.2 0.9 0.1
v 0.2 0.9 -2.98023e-008
v 0.2 0.9 -0.1
v 0.2 0.9 -0.2
v 0.2 1 0.2
v 0.2 1 0.1
v 0.2 1 -0.1
v 0.2 1 -0.2
v 0.2 1.1 0.2
v 0.2 1.1 0.1
v 0.2 1.1 -0.1
v 0.3 0.3 0.1
v 0.3 0.3 -2.98023e-008
v 0.3 0.4 0.1
v 0.3 0.4 -2.98023e-008
v 0.3 0.7 -2.98023e-008
v 0.3 0.7 -0.1
v 0.3 0.8 0.1
v 0.3 0.8 -2.98023e-008
v 0.3 0.8 -0.1
v 0.3 0.9 0.1
v 0.3 0.9 -2.98023e-008
v -0.2 0.5 0.3
v -0.2 0.6 0.3
v -0.1 0.5 0.3
v -0.1 0.6 0.3
v 0 0.3 0.3
v 0 0.4 0.3
v 0 0.8 0.3
v 0 0.9 0.3
v 0.1 0.3 0.3
v 0.1 0.4 0.3
v 0.1 0.8 0.3
v 0.1 0.9 0.3
v -0.3 0.4 0.2
v -0.3 0.6 0.2
v -0.2 0.1 0.2
v -0.2 0.2 0.2
v -0.2 0.5 0.2
v -0.2 0.6 0.2
v -0.2 0.9 0.2
v -0.2 1 0.2
v -0.1 0 0.2
v -0.1 0.1 0.2
v -0.1 0.2 0.2
v -0.1 0.4 0.2
v -0.1 0.5 0.2
v -0.1 0.6 0.2
v -0.1 0.9 0.2
v -0.1 1 0.2
v -0.1 1.1 0.2
v 0 0.3 0.2
v 0 0.4 0.2
v 0 0.8 0.2
v 0 0.9 0.2
v 0.1 0 0.2
v 0.1 0.1 0.2
v 0.1 0.2 0.2
v 0.1 0.3 0.2
v 0.1 0.4 0.2
v 0.1 0.6 0.2
v 0.1 0.7 0.2
v 0.1 0.8 0.2
v 0.1 0.9 0.2
v 0.1 1 0.2
v 0.1 1.1 0.2
v 0.2 0.1 0.2
v 0.2 0.2 0.2
v 0.2 0.6 0.2
v 0.2 0.7 0.2
v 0.2 1 0.2
v 0.2 1.1 0.2
v -0.5 0.4 0.1
v -0.5 0.5 0.1
v -0.4 0.4 0.1
v -0.4 0.5 0.1
v -0.4 0.6 0.1
v -0.3 0.3 0.1
v -0.3 0.4 0.1
v -0.3 0.6 0.1
v -0.3 0.7 0.1
v -0.3 0.8 0.1
v -0.3 0.9 0.1
v -0.2 0 0.1
v -0.2 0.1 0.1
v -0.2 0.2 0.1
v -0.2 0.3 0.1
v -0.2 0.7 0.1
v -0.2 0.8 0.1
v -0.2 0.9 0.1
v -0.2 1 0.1
v -0.2 1.1 0.1
v -0.1 0 0.1
v -0.1 0.1 0.1
v -0.1 0.2 0.1
v -0.1 0.4 0.1
v -0.1 0.6 0.1
v -0.1 0.9 0.1
v -0.1 1 0.1
v -0.1 1.1 0.1
v -0.1 1.2 0.1
v 0.1 0 0.1
v 0.1 0.1 0.1
v 0.1 0.2 0.1
v 0.1 0.6 0.1
v 0.1 0.7 0.1
v 0.1 1 0.1
v 0.1 1.1 0.1
v 0.1 1.2 0.1
v 0.2 0 0.1
v 0.2 0.1 0.1
v 0.2 0.2 0.1
v 0.2 0.3 0.1
v 0.2 0.4 0.1
v 0.2 0.6 0.1
v 0.2 0.7 0.1
v 0.2 0.8 0.1
v 0.2 0.9 0.1
v 0.2 1 0.1
v 0.3 0.3 0.1
v 0.3 0.4 0.1
v 0.3 0.8 0.1
v 0.3 0.9 0.1
v -0.4 0.6 -2.98023e-008
v -0.4 0.7 -2.98023e-008
v -0.3 0.1 -2.98023e-008
v -0.3 0.2 -2.98023e-008
v -0.3 0.6 -2.98023e-008
v -0.3 0.7 -2.98023e-008
v -0.3 1 -2.98023e-008
v -0.3 1.1 -2.98023e-008
v -0.2 0.1 -2.98023e-008
v -0.2 0.2 -2.98023e-008
v -0.2 1 -2.98023e-008
v -0.2 1.1 -2.98023e-008
v -0.1 1.2 -2.98023e-008
v -0.1 1.3 -2.98023e-008
v 0 1.2 -2.98023e-008
v 0 1.3 -2.98023e-008
v 0.2 0.7 -2.98023e-008
v 0.2 0.8 -2.98023e-008
v 0.3 0.7 -2.98023e-008
v 0.3 0.8 -2.98023e-008
v -0.5 0.4 -2.98023e-008
v -0.5 0.5 -2.98023e-008
v -0.4 0.4 -2.98023e-008
v -0.4 0.5 -2.98023e-008
v -0.3 0.8 -2.98023e-008
v -0.3 0.9 -2.98023e-008
v -0.2 0.8 -2.98023e-008
v -0.2 0.9 -2.98023e-008
v 0.2 0.3 -2.98023e-008
v 0.2 0.4 -2.98023e-008
v 0.2 0.8 -2.98023e-008
v 0.2 0.9 -2.98023e-008
v 0.3 0.3 -2.98023e-008
v 0.3 0.4 -2.98023e-008
v 0.3 0.8 -2.98023e-008
v 0.3 0.9 -2.98023e-008
v -0.4 0.4 -0.1
v -0.4 0.6 -0.1
v -0.4 0.7 -0.1
v -0.3 0.1 -0.1
v -0.3 0.2 -0.1
v -0.3 0.3 -0.1
v -0.3 0.4 -0.1
v -0.3 0.6 -0.1
v -0.3 0.7 -0.1
v -0.3 1 -0.1
v -0.3 1.1 -0.1
v -0.2 0 -0.1
v -0.2 0.1 -0.1
v -0.2 0.2 -0.1
v -0.2 0.3 -0.1
v -0.2 0.7 -0.1
v -0.2 1 -0.1
v -0.2 1.1 -0.1
v -0.1 0 -0.1
v -0.1 0.4 -0.1
v -0.1 0.6 -0.1
v -0.1 1.1 -0.1
v -0.1 1.2 -0.1
v -0.1 1.3 -0.1
v 0 1.2 -0.1
v 0 1.3 -0.1
v 0.1 0 -0.1
v 0.1 0.2 -0.1
v 0.1 0.3 -0.1
v 0.1 0.9 -0.1
v 0.1 1 -0.1
v 0.1 1.1 -0.1
v 0.1 1.2 -0.1
v 0.2 0 -0.1
v 0.2 0.2 -0.1
v 0.2 0.3 -0.1
v 0.2 0.7 -0.1
v 0.2 0.8 -0.1
v 0.2 0.9 -0.1
v 0.2 1 -0.1
v 0.2 1.1 -0.1
v 0.3 0.7 -0.1
v 0.3 0.8 -0.1
v -0.3 0.4 -0.2
v -0.3 0.6 -0.2
v -0.2 0.5 -0.2
v -0.2 0.6 -0.2
v -0.1 0 -0.2
v -0.1 0.1 -0.2
v -0.1 0.2 -0.2
v -0.1 0.4 -0.2
v -0.1 0.5 -0.2
v -0.1 0.6 -0.2
v -0.1 0.9 -0.2
v -0.1 1 -0.2
v -0.1 1.1 -0.2
v 0 0.1 -0.2
v 0 0.2 -0.2
v 0 0.4 -0.2
v 0 0.5 -0.2
v 0 0.7 -0.2
v 0 0.8 -0.2
v 0 0.9 -0.2
v 0 1 -0.2
v 0.1 0 -0.2
v 0.1 0.2 -0.2
v 0.1 0.3 -0.2
v 0.1 0.4 -0.2
v 0.1 0.5 -0.2
v 0.1 0.7 -0.2
v 0.1 0.8 -0.2
v 0.1 0.9 -0.2
v 0.1 1 -0.2
v 0.1 1.1 -0.2
v 0.2 0.2 -0.2
v 0.2 0.3 -0.2
v 0.2 0.9 -0.2
v 0.2 1 -0.2
v -0.2 0.5 -0.3
v -0.2 0.6 -0.3
v -0.1 0.1 -0.3
v -0.1 0.2 -0.3
v -0.1 0.5 -0.3
v -0.1 0.6 -0.3
v -0.1 0.9 -0.3
v -0.1 1 -0.3
v 0 0.1 -0.3
v 0 0.2 -0.3
v 0 0.4 -0.3
v 0 0.5 -0.3
v 0 0.7 -0.3
v 0 0.8 -0.3
v 0 0.9 -0.3
v 0 1 -0.3
v 0.1 0.4 -0.3
v 0.1 0.5 -0.3
v 0.1 0.7 -0.3
v 0.1 0.8 -0.3
v -0.1 0 0.2
v 0.1 0 0.2
v -0.2 0 0.1
v -0.1 0 0.1
v 0.1 0 0.1
v 0.2 0 0.1
v -0.2 0 -0.1
v -0.1 0 -0.1
v 0.1 0 -0.1
v 0.2 0 -0.1
v -0.1 0 -0.2
v 0.1 0 -0.2
v -0.2 0.1 0.2
v -0.1 0.1 0.2
v 0.1 0.1 0.2
v 0.2 0.1 0.2
v -0.2 0.1 0.1
v -0.1 0.1 0.1
v 0.1 0.1 0.1
v 0.2 0.1 0.1
v -0.3 0.1 -2.98023e-008
v -0.2 0.1 -2.98023e-008
v -0.3 0.1 -0.1
v -0.2 0.1 -0.1
v -0.1 0.1 -0.2
v 0 0.1 -0.2
v -0.1 0.1 -0.3
v 0 0.1 -0.3
v 0.1 0.2 -0.1
v 0.2 0.2 -0.1
v 0.1 0.2 -0.2
v 0.2 0.2 -0.2
v 0 0.3 0.3
v 0.1 0.3 0.3
v 0 0.3 0.2
v 0.1 0.3 0.2
v -0.3 0.3 0.1
v -0.2 0.3 0.1
v 0.2 0.3 0.1
v 0.3 0.3 0.1
v 0.2 0.3 -2.98023e-008
v 0.3 0.3 -2.98023e-008
v -0.3 0.3 -0.1
v -0.2 0.3 -0.1
v -0.3 0.4 0.2
v -0.1 0.4 0.2
v -0.5 0.4 0.1
v -0.4 0.4 0.1
v -0.3 0.4 0.1
v -0.1 0.4 0.1
v -0.5 0.4 -2.98023e-008
v -0.4 0.4 -2.98023e-008
v -0.4 0.4 -0.1
v -0.3 0.4 -0.1
v -0.1 0.4 -0.1
v -0.3 0.4 -0.2
v -0.1 0.4 -0.2
v 0 0.4 -0.2
v 0.1 0.4 -0.2
v 0 0.4 -0.3
v 0.1 0.4 -0.3
v -0.2 0.5 0.3
v -0.1 0.5 0.3
v -0.2 0.5 0.2
v -0.1 0.5 0.2
v -0.2 0.5 -0.2
v -0.1 0.5 -0.2
v -0.2 0.5 -0.3
v -0.1 0.5 -0.3
v 0.1 0.6 0.2
v 0.2 0.6 0.2
v 0.1 0.6 0.1
v 0.2 0.6 0.1
v 0.2 0.7 -2.98023e-008
v 0.3 0.7 -2.98023e-008
v 0.2 0.7 -0.1
v 0.3 0.7 -0.1
v 0 0.7 -0.2
v 0.1 0.7 -0.2
v 0 0.7 -0.3
v 0.1 0.7 -0.3
v 0 0.8 0.3
v 0.1 0.8 0.3
v 0 0.8 0.2
v 0.1 0.8 0.2
v -0.3 0.8 0.1
v -0.2 0.8 0.1
v 0.2 0.8 0.1
v 0.3 0.8 0.1
v -0.3 0.8 -2.98023e-008
v -0.2 0.8 -2.98023e-008
v 0.2 0.8 -2.98023e-008
v 0.3 0.8 -2.98023e-008
v -0.2 0.9 0.2
v -0.1 0.9 0.2
v -0.2 0.9 0.1
v -0.1 0.9 0.1
v 0.1 0.9 -0.1
v 0.2 0.9 -0.1
v -0.1 0.9 -0.2
v 0 0.9 -0.2
v 0.1 0.9 -0.2
v 0.2 0.9 -0.2
v -0.1 0.9 -0.3
v 0 0.9 -0.3
v 0.1 1 0.2
v 0.2 1 0.2
v 0.1 1 0.1
v 0.2 1 0.1
v -0.3 1 -2.98023e-008
v -0.2 1 -2.98023e-008
v -0.3 1 -0.1
v -0.2 1 -0.1
v -0.2 0.2 0.2
v -0.1 0.2 0.2
v 0.1 0.2 0.2
v 0.2 0.2 0.2
v -0.2 0.2 0.1
v -0.1 0.2 0.1
v 0.1 0.2 0.1
v 0.2 0.2 0.1
v -0.3 0.2 -2.98023e-008
v -0.2 0.2 -2.98023e-008
v -0.3 0.2 -0.1
v -0.2 0.2 -0.1
v -0.1 0.2 -0.2
v 0 0.2 -0.2
v -0.1 0.2 -0.3
v 0 0.2 -0.3
v 0.1 0.3 -0.1
v 0.2 0.3 -0.1
v 0.1 0.3 -0.2
v 0.2 0.3 -0.2
v 0 0.4 0.3
v 0.1 0.4 0.3
v 0 0.4 0.2
v 0.1 0.4 0.2
v 0.2 0.4 0.1
v 0.3 0.4 0.1
v 0.2 0.4 -2.98023e-008
v 0.3 0.4 -2.98023e-008
v -0.5 0.5 0.1
v -0.4 0.5 0.1
v -0.5 0.5 -2.98023e-008
v -0.4 0.5 -2.98023e-008
v 0 0.5 -0.2
v 0.1 0.5 -0.2
v 0 0.5 -0.3
v 0.1 0.5 -0.3
v -0.2 0.6 0.3
v -0.1 0.6 0.3
v -0.3 0.6 0.2
v -0.2 0.6 0.2
v -0.1 0.6 0.2
v -0.4 0.6 0.1
v -0.3 0.6 0.1
v -0.1 0.6 0.1
v -0.4 0.6 -2.98023e-008
v -0.3 0.6 -2.98023e-008
v -0.3 0.6 -0.1
v -0.1 0.6 -0.1
v -0.3 0.6 -0.2
v -0.2 0.6 -0.2
v -0.1 0.6 -0.2
v -0.2 0.6 -0.3
v -0.1 0.6 -0.3
v 0.1 0.7 0.2
v 0.2 0.7 0.2
v -0.3 0.7 0.1
v -0.2 0.7 0.1
v 0.1 0.7 0.1
v 0.2 0.7 0.1
v -0.4 0.7 -2.98023e-008
v -0.3 0.7 -2.98023e-008
v -0.4 0.7 -0.1
v -0.3 0.7 -0.1
v -0.2 0.7 -0.1
v 0.2 0.8 -2.98023e-008
v 0.3 0.8 -2.98023e-008
v 0.2 0.8 -0.1
v 0.3 0.8 -0.1
v 0 0.8 -0.2
v 0.1 0.8 -0.2
v 0 0.8 -0.3
v 0.1 0.8 -0.3
v 0 0.9 0.3
v 0.1 0.9 0.3
v 0 0.9 0.2
v 0.1 0.9 0.2
v -0.3 0.9 0.1
v -0.2 0.9 0.1
v 0.2 0.9 0.1
v 0.3 0.9 0.1
v -0.3 0.9 -2.98023e-008
v -0.2 0.9 -2.98023e-008
v 0.2 0.9 -2.98023e-008
v 0.3 0.9 -2.98023e-008
v -0.2 1 0.2
v -0.1 1 0.2
v -0.2 1 0.1
v -0.1 1 0.1
v 0.1 1 -0.1
v 0.2 1 -0.1
v -0.1 1 -0.2
v 0 1 -0.2
v 0.1 1 -0.2
v 0.2 1 -0.2
v -0.1 1 -0.3
v 0 1 -0.3
v -0.1 1.1 0.2
v 0.1 1.1 0.2
v 0.2 1.1 0.2
v -0.2 1.1 0.1
v -0.1 1.1 0.1
v 0.1 1.1 0.1
v 0.2 1.1 0.1
v -0.3 1.1 -2.98023e-008
v -0.2 1.1 -2.98023e-008
v -0.3 1.1 -0.1
v -0.2 1.1 -0.1
v -0.1 1.1 -0.1
v 0.1 1.1 -0.1
v 0.2 1.1 -0.1
v -0.1 1.1 -0.2
v 0.1 1.1 -0.2
v -0.1 1.2 0.1
v 0.1 1.2 0.1
v -0.1 1.2 -2.98023e-008
v 0 1.2 -2.98023e-008
v 0 1.2 -0.1
v 0.1 1.2 -0.1
v -0.1 1.3 -2.98023e-008
v 0 1.3 -2.98023e-008
v -0.1 1.3 -0.1
v 0 1.3 -0.1

# faces
f 3/2/1 2/2/1 1/2/1
f 4/2/1 2/2/1 3/2/1
f 8/1/1 6/1/1 5/1/1
f 9/1/1 8/1/1 7/1/1
f 10/1/1 6/1/1 8/1/1
f 10/1/1 8/1/1 9/1/1
f 11/1/1 6/1/1 10/1/1
f 12/2/1 11/2/1 10/2/1
f 13/2/1 11/2/1 12/2/1
f 16/2/1 15/2/1 14/2/1
f 17/2/1 15/2/1 16/2/1
f 21/1/1 19/1/1 18/1/1
f 22/1/1 19/1/1 21/1/1
f 24/1/1 21/1/1 20/1/1
f 25/1/1 21/1/1 24/1/1
f 27/1/1 23/1/1 22/1/1
f 28/1/1 23/1/1 27/1/1
f 29/1/1 26/1/1 25/1/1
f 30/1/1 26/1/1 29/1/1
f 33/2/1 32/2/1 31/2/1
f 34/2/1 32/2/1 33/2/1
f 37/2/1 36/2/1 35/2/1
f 38/2/1 36/2/1 37/2/1
f 42/1/1 40/1/1 39/1/1
f 43/1/1 40/1/1 42/1/1
f 44/1/1 40/1/1 43/1/1
f 45/2/1 42/2/1 41/2/1
f 46/1/1 43/1/1 42/1/1
f 46/2/1 42/2/1 45/2/1
f 47/1/1 43/1/1 46/1/1
f 49/1/1 48/1/1 47/1/1
f 49/1/1 47/1/1 46/1/1
f 50/1/1 48/1/1 49/1/1
f 55/2/1 52/2/1 51/2/1
f 56/2/1 52/2/1 55/2/1
f 57/2/1 54/2/1 53/2/1
f 58/2/1 54/2/1 57/2/1
f 61/1/1 60/1/1 59/1/1
f 62/1/1 60/1/1 61/1/1
f 65/1/1 60/1/1 62/1/1
f 66/2/1 64/2/1 63/2/1
f 67/1/1 65/1/1 64/1/1
f 67/2/1 64/2/1 66/2/1
f 68/1/1 60/1/1 65/1/1
f 68/1/1 65/1/1 67/1/1
f 69/1/1 60/1/1 68/1/1
f 70/1/1 68/1/1 67/1/1
f 71/1/1 68/1/1 70/1/1
f 76/1/1 73/1/1 72/1/1
f 77/1/1 73/1/1 76/1/1
f 78/1/1 75/1/1 74/1/1
f 82/2/1 79/2/1 78/2/1
f 82/1/1 78/1/1 74/1/1
f 83/2/1 79/2/1 82/2/1
f 84/1/1 81/1/1 80/1/1
f 85/1/1 81/1/1 84/1/1
f 86/1/1 82/1/1 74/1/1
f 87/1/1 82/1/1 86/1/1
f 92/1/1 89/1/1 88/1/1
f 93/1/1 89/1/1 92/1/1
f 94/1/1 91/1/1 90/1/1
f 98/1/1 94/1/1 90/1/1
f 98/2/1 95/2/1 94/2/1
f 99/2/1 95/2/1 98/2/1
f 100/1/1 97/1/1 96/1/1
f 101/1/1 97/1/1 100/1/1
f 102/1/1 98/1/1 90/1/1
f 103/1/1 98/1/1 102/1/1
f 104/1/1 102/1/1 101/1/1
f 105/1/1 102/1/1 104/1/1
f 106/1/1 102/1/1 105/1/1
f 107/2/1 106/2/1 105/2/1
f 108/2/1 106/2/1 107/2/1
f 111/2/1 110/2/1 109/2/1
f 112/2/1 110/2/1 111/2/1
f 115/2/1 114/2/1 113/2/1
f 116/2/1 114/2/1 115/2/1
f 121/2/1 118/2/1 117/2/1
f 122/2/1 118/2/1 121/2/1
f 123/2/1 120/2/1 119/2/1
f 124/2/1 120/2/1 123/2/1
f 125/2/2 126/2/2 129/2/2
f 129/2/2 126/2/2 130/2/2
f 127/2/2 128/2/2 131/2/2
f 131/2/2 128/2/2 132/2/2
f 133/2/2 134/2/2 135/2/2
f 135/2/2 134/2/2 136/2/2
f 137/2/2 138/2/2 139/2/2
f 139/2/2 138/2/2 140/2/2
f 141/2/2 142/2/2 143/2/2
f 143/2/2 142/2/2 144/2/2
f 145/1/2 146/1/2 149/1/2
f 149/1/2 146/1/2 150/1/2
f 147/1/2 148/1/2 153/1/2
f 153/1/2 148/1/2 154/1/2
f 151/1/2 152/1/2 156/1/2
f 155/2/2 156/2/2 159/2/2
f 156/1/2 152/1/2 160/1/2
f 159/2/2 156/2/2 160/2/2
f 157/1/2 158/1/2 161/1/2
f 157/1/2 161/1/2 163/1/2
f 161/2/2 162/2/2 163/2/2
f 163/2/2 162/2/2 164/2/2
f 160/1/2 152/1/2 165/1/2
f 165/1/2 152/1/2 166/1/2
f 157/1/2 163/1/2 169/1/2
f 167/1/2 168/1/2 172/1/2
f 169/2/2 170/2/2 173/2/2
f 157/1/2 169/1/2 173/1/2
f 173/2/2 170/2/2 174/2/2
f 171/2/2 172/2/2 175/2/2
f 172/1/2 168/1/2 176/1/2
f 175/2/2 172/2/2 176/2/2
f 157/1/2 173/1/2 177/1/2
f 177/1/2 173/1/2 178/1/2
f 176/1/2 168/1/2 179/1/2
f 179/1/2 168/1/2 180/1/2
f 181/1/2 182/1/2 184/1/2
f 184/1/2 182/1/2 185/1/2
f 183/1/2 184/1/2 186/1/2
f 186/1/2 184/1/2 187/1/2
f 188/1/2 189/1/2 191/1/2
f 190/2/2 191/2/2 192/2/2
f 191/1/2 189/1/2 193/1/2
f 192/2/2 191/2/2 193/2/2
f 193/1/2 189/1/2 194/1/2
f 193/1/2 194/1/2 196/1/2
f 196/1/2 194/1/2 197/1/2
f 194/2/2 195/2/2 198/2/2
f 197/1/2 194/1/2 198/1/2
f 198/2/2 195/2/2 199/2/2
f 197/1/2 198/1/2 201/1/2
f 200/1/2 201/1/2 203/1/2
f 202/2/2 203/2/2 204/2/2
f 203/1/2 201/1/2 205/1/2
f 204/2/2 203/2/2 205/2/2
f 201/1/2 198/1/2 206/1/2
f 205/1/2 201/1/2 206/1/2
f 206/1/2 198/1/2 207/1/2
f 205/1/2 206/1/2 208/1/2
f 208/1/2 206/1/2 209/1/2
f 209/1/2 210/1/2 212/1/2
f 212/1/2 210/1/2 213/1/2
f 212/1/2 213/1/2 216/1/2
f 211/1/2 212/1/2 216/1/2
f 213/2/2 214/2/2 217/2/2
f 216/1/2 213/1/2 217/1/2
f 217/2/2 214/2/2 218/2/2
f 215/2/2 216/2/2 219/2/2
f 216/1/2 217/1/2 220/1/2
f 219/2/2 216/2/2 220/2/2
f 220/1/2 217/1/2 221/1/2
f 222/2/2 223/2/2 224/2/2
f 224/2/2 223/2/2 225/2/2
f 226/2/2 227/2/2 229/2/2
f 229/2/2 227/2/2 230/2/2
f 228/2/2 229/2/2 231/2/2
f 231/2/2 229/2/2 232/2/2
f 235/2/3 234/2/3 233/2/3
f 236/2/3 234/2/3 235/2/3
f 241/2/3 238/2/3 237/2/3
f 242/2/3 238/2/3 241/2/3
f 243/2/3 240/2/3 239/2/3
f 244/2/3 240/2/3 243/2/3
f 249/1/3 246/1/3 245/1/3
f 250/1/3 246/1/3 249/1/3
f 254/2/3 248/2/3 247/2/3
f 255/2/3 248/2/3 254/2/3
f 256/1/3 249/1/3 245/1/3
f 257/1/3 249/1/3 256/1/3
f 259/2/3 252/2/3 251/2/3
f 260/2/3 252/2/3 259/2/3
f 262/1/3 258/1/3 257/1/3
f 262/1/3 261/1/3 260/1/3
f 262/1/3 260/1/3 259/1/3
f 262/1/3 259/1/3 258/1/3
f 262/1/3 255/1/3 254/1/3
f 262/1/3 257/1/3 256/1/3
f 262/1/3 256/1/3 255/1/3
f 262/1/3 254/1/3 253/1/3
f 263/1/3 261/1/3 262/1/3
f 264/1/3 261/1/3 263/1/3
f 265/1/3 261/1/3 264/1/3
f 266/1/3 262/1/3 253/1/3
f 267/1/3 262/1/3 266/1/3
f 268/1/3 262/1/3 267/1/3
f 269/1/3 262/1/3 268/1/3
f 270/1/3 264/1/3 263/1/3
f 271/1/3 264/1/3 270/1/3
f 272/1/3 264/1/3 271/1/3
f 273/1/3 264/1/3 272/1/3
f 274/1/3 261/1/3 265/1/3
f 275/1/3 261/1/3 274/1/3
f 276/1/3 261/1/3 275/1/3
f 277/2/3 268/2/3 267/2/3
f 278/2/3 268/2/3 277/2/3
f 279/2/3 272/2/3 271/2/3
f 280/2/3 272/2/3 279/2/3
f 281/2/3 276/2/3 275/2/3
f 282/2/3 276/2/3 281/2/3
f 285/2/3 284/2/3 283/2/3
f 286/2/3 284/2/3 285/2/3
f 289/1/3 286/1/3 285/1/3
f 289/1/3 287/1/3 286/1/3
f 290/1/3 287/1/3 289/1/3
f 297/1/3 289/1/3 288/1/3
f 298/1/3 291/1/3 290/1/3
f 299/2/3 293/2/3 292/2/3
f 300/2/3 293/2/3 299/2/3
f 303/1/3 295/1/3 294/1/3
f 304/1/3 295/1/3 303/1/3
f 305/1/3 297/1/3 296/1/3
f 306/1/3 289/1/3 297/1/3
f 306/1/3 297/1/3 305/1/3
f 307/1/3 298/1/3 290/1/3
f 307/1/3 299/1/3 298/1/3
f 307/1/3 300/1/3 299/1/3
f 308/1/3 300/1/3 307/1/3
f 309/1/3 302/1/3 301/1/3
f 310/1/3 302/1/3 309/1/3
f 318/1/3 311/1/3 310/1/3
f 319/1/3 311/1/3 318/1/3
f 320/1/3 313/1/3 312/1/3
f 321/1/3 313/1/3 320/1/3
f 322/1/3 315/1/3 314/1/3
f 323/1/3 315/1/3 322/1/3
f 324/1/3 315/1/3 323/1/3
f 325/1/3 315/1/3 324/1/3
f 326/1/3 317/1/3 316/1/3
f 327/1/3 317/1/3 326/1/3
f 328/1/3 317/1/3 327/1/3
f 329/1/3 317/1/3 328/1/3
f 330/2/3 324/2/3 323/2/3
f 331/2/3 324/2/3 330/2/3
f 332/2/3 328/2/3 327/2/3
f 333/2/3 328/2/3 332/2/3
f 338/2/3 335/2/3 334/2/3
f 339/2/3 335/2/3 338/2/3
f 342/2/3 337/2/3 336/2/3
f 343/2/3 337/2/3 342/2/3
f 344/2/3 341/2/3 340/2/3
f 345/2/3 341/2/3 344/2/3
f 348/2/3 347/2/3 346/2/3
f 349/2/3 347/2/3 348/2/3
f 352/2/3 351/2/3 350/2/3
f 353/2/3 351/2/3 352/2/3
f 354/2/4 355/2/4 356/2/4
f 356/2/4 355/2/4 357/2/4
f 358/2/4 359/2/4 360/2/4
f 360/2/4 359/2/4 361/2/4
f 362/2/4 363/2/4 366/2/4
f 366/2/4 363/2/4 367/2/4
f 364/2/4 365/2/4 368/2/4
f 368/2/4 365/2/4 369/2/4
f 370/1/4 371/1/4 376/1/4
f 371/2/4 372/2/4 377/2/4
f 376/1/4 371/1/4 377/1/4
f 377/2/4 372/2/4 378/2/4
f 373/2/4 374/2/4 382/2/4
f 382/2/4 374/2/4 383/2/4
f 375/1/4 376/1/4 384/1/4
f 377/1/4 378/1/4 385/1/4
f 379/2/4 380/2/4 386/2/4
f 386/2/4 380/2/4 387/2/4
f 383/1/4 384/1/4 388/1/4
f 382/1/4 383/1/4 388/1/4
f 381/1/4 382/1/4 388/1/4
f 384/1/4 376/1/4 389/1/4
f 388/1/4 384/1/4 389/1/4
f 386/1/4 387/1/4 390/1/4
f 377/1/4 385/1/4 390/1/4
f 385/1/4 386/1/4 390/1/4
f 390/1/4 387/1/4 391/1/4
f 392/2/4 393/2/4 394/2/4
f 391/1/4 392/1/4 394/1/4
f 394/2/4 393/2/4 395/2/4
f 391/1/4 394/1/4 401/1/4
f 401/1/4 394/1/4 402/1/4
f 396/1/4 397/1/4 403/1/4
f 403/1/4 397/1/4 404/1/4
f 398/1/4 399/1/4 405/1/4
f 405/1/4 399/1/4 406/1/4
f 406/1/4 399/1/4 407/1/4
f 407/1/4 399/1/4 408/1/4
f 400/1/4 401/1/4 409/1/4
f 409/1/4 401/1/4 410/1/4
f 406/2/4 407/2/4 411/2/4
f 411/2/4 407/2/4 412/2/4
f 413/1/4 414/1/4 415/1/4
f 415/1/4 414/1/4 416/1/4
f 413/1/4 415/1/4 420/1/4
f 420/1/4 415/1/4 421/1/4
f 417/1/4 418/1/4 426/1/4
f 421/1/4 422/1/4 427/1/4
f 419/1/4 420/1/4 427/1/4
f 422/1/4 423/1/4 427/1/4
f 420/1/4 421/1/4 427/1/4
f 427/1/4 423/1/4 428/1/4
f 428/1/4 423/1/4 429/1/4
f 429/1/4 423/1/4 430/1/4
f 430/1/4 423/1/4 431/1/4
f 431/1/4 423/1/4 432/1/4
f 424/1/4 425/1/4 433/1/4
f 417/1/4 426/1/4 434/1/4
f 426/1/4 427/1/4 434/1/4
f 427/1/4 428/1/4 434/1/4
f 434/1/4 428/1/4 435/1/4
f 435/1/4 428/1/4 436/1/4
f 436/1/4 428/1/4 437/1/4
f 429/1/4 430/1/4 438/1/4
f 438/1/4 430/1/4 439/1/4
f 431/1/4 432/1/4 440/1/4
f 432/1/4 433/1/4 440/1/4
f 440/1/4 433/1/4 441/1/4
f 433/1/4 425/1/4 442/1/4
f 441/1/4 433/1/4 442/1/4
f 442/1/4 425/1/4 443/1/4
f 435/2/4 436/2/4 444/2/4
f 444/2/4 436/2/4 445/2/4
f 441/2/4 442/2/4 446/2/4
f 446/2/4 442/2/4 447/2/4
f 448/2/4 449/2/4 452/2/4
f 452/2/4 449/2/4 453/2/4
f 450/2/4 451/2/4 456/2/4
f 456/2/4 451/2/4 457/2/4
f 454/2/4 455/2/4 462/2/4
f 462/2/4 455/2/4 463/2/4
f 458/2/4 459/2/4 464/2/4
f 464/2/4 459/2/4 465/2/4
f 460/2/4 461/2/4 466/2/4
f 466/2/4 461/2/4 467/2/4
f 471/1/5 469/1/5 468/1/5
f 472/1/5 469/1/5 471/1/5
f 474/1/5 471/1/5 470/1/5
f 474/1/5 473/1/5 472/1/5
f 474/1/5 472/1/5 471/1/5
f 475/1/5 473/1/5 474/1/5
f 476/1/5 473/1/5 475/1/5
f 477/1/5 473/1/5 476/1/5
f 478/1/5 476/1/5 475/1/5
f 479/1/5 476/1/5 478/1/5
f 484/2/5 481/2/5 480/2/5
f 485/2/5 481/2/5 484/2/5
f 486/2/5 483/2/5 482/2/5
f 487/2/5 483/2/5 486/2/5
f 490/2/5 489/2/5 488/2/5
f 491/2/5 489/2/5 490/2/5
f 494/2/5 493/2/5 492/2/5
f 495/2/5 493/2/5 494/2/5
f 498/2/5 497/2/5 496/2/5
f 499/2/5 497/2/5 498/2/5
f 502/2/5 501/2/5 500/2/5
f 503/2/5 501/2/5 502/2/5
f 508/2/5 507/2/5 506/2/5
f 509/2/5 507/2/5 508/2/5
f 510/1/5 505/1/5 504/1/5
f 511/1/5 505/1/5 510/1/5
f 516/1/5 513/1/5 512/1/5
f 517/1/5 513/1/5 516/1/5
f 518/2/5 515/2/5 514/2/5
f 519/1/5 516/1/5 515/1/5
f 519/2/5 515/2/5 518/2/5
f 520/1/5 516/1/5 519/1/5
f 521/1/5 516/1/5 520/1/5
f 523/1/5 522/1/5 521/1/5
f 524/1/5 522/1/5 523/1/5
f 527/2/5 526/2/5 525/2/5
f 528/2/5 526/2/5 527/2/5
f 531/2/5 530/2/5 529/2/5
f 532/2/5 530/2/5 531/2/5
f 535/2/5 534/2/5 533/2/5
f 536/2/5 534/2/5 535/2/5
f 539/2/5 538/2/5 537/2/5
f 540/2/5 538/2/5 539/2/5
f 543/2/5 542/2/5 541/2/5
f 544/2/5 542/2/5 543/2/5
f 547/2/5 546/2/5 545/2/5
f 548/2/5 546/2/5 547/2/5
f 551/2/5 550/2/5 549/2/5
f 552/2/5 550/2/5 551/2/5
f 557/2/5 554/2/5 553/2/5
f 558/2/5 554/2/5 557/2/5
f 559/2/5 556/2/5 555/2/5
f 560/2/5 556/2/5 559/2/5
f 563/2/5 562/2/5 561/2/5
f 564/2/5 562/2/5 563/2/5
f 569/2/5 566/2/5 565/2/5
f 570/2/5 566/2/5 569/2/5
f 571/2/5 568/2/5 567/2/5
f 572/2/5 568/2/5 571/2/5
f 575/2/5 574/2/5 573/2/5
f 576/2/5 574/2/5 575/2/5
f 579/2/5 578/2/5 577/2/5
f 580/2/5 578/2/5 579/2/5
f 581/2/6 582/2/6 585/2/6
f 585/2/6 582/2/6 586/2/6
f 583/2/6 584/2/6 587/2/6
f 587/2/6 584/2/6 588/2/6
f 589/2/6 590/2/6 591/2/6
f 591/2/6 590/2/6 592/2/6
f 593/2/6 594/2/6 595/2/6
f 595/2/6 594/2/6 596/2/6
f 597/2/6 598/2/6 599/2/6
f 599/2/6 598/2/6 600/2/6
f 601/2/6 602/2/6 603/2/6
f 603/2/6 602/2/6 604/2/6
f 605/2/6 606/2/6 607/2/6
f 607/2/6 606/2/6 608/2/6
f 609/2/6 610/2/6 611/2/6
f 611/2/6 610/2/6 612/2/6
f 613/2/6 614/2/6 615/2/6
f 615/2/6 614/2/6 616/2/6
f 617/2/6 618/2/6 620/2/6
f 620/2/6 618/2/6 621/2/6
f 619/1/6 620/1/6 623/1/6
f 620/1/6 621/1/6 623/1/6
f 623/1/6 621/1/6 624/1/6
f 622/1/6 623/1/6 625/1/6
f 625/1/6 623/1/6 626/1/6
f 627/1/6 628/1/6 629/1/6
f 629/1/6 628/1/6 630/1/6
f 630/1/6 628/1/6 631/1/6
f 630/2/6 631/2/6 632/2/6
f 632/2/6 631/2/6 633/2/6
f 634/2/6 635/2/6 638/2/6
f 638/2/6 635/2/6 639/2/6
f 636/1/6 637/1/6 641/1/6
f 640/2/6 641/2/6 642/2/6
f 641/1/6 637/1/6 643/1/6
f 642/2/6 641/2/6 643/2/6
f 643/1/6 637/1/6 644/1/6
f 645/2/6 646/2/6 647/2/6
f 647/2/6 646/2/6 648/2/6
f 649/2/6 650/2/6 651/2/6
f 651/2/6 650/2/6 652/2/6
f 653/2/6 654/2/6 655/2/6
f 655/2/6 654/2/6 656/2/6
f 657/2/6 658/2/6 661/2/6
f 661/2/6 658/2/6 662/2/6
f 659/2/6 660/2/6 663/2/6
f 663/2/6 660/2/6 664/2/6
f 665/2/6 666/2/6 667/2/6
f 667/2/6 666/2/6 668/2/6
f 669/2/6 670/2/6 673/2/6
f 673/2/6 670/2/6 674/2/6
f 671/2/6 672/2/6 675/2/6
f 675/2/6 672/2/6 676/2/6
f 677/1/6 678/1/6 681/1/6
f 678/2/6 679/2/6 682/2/6
f 681/1/6 678/1/6 682/1/6
f 682/2/6 679/2/6 683/2/6
f 680/1/6 681/1/6 685/1/6
f 684/2/6 685/2/6 686/2/6
f 685/1/6 681/1/6 687/1/6
f 686/2/6 685/2/6 687/2/6
f 687/1/6 681/1/6 688/1/6
f 682/1/6 683/1/6 689/1/6
f 689/1/6 683/1/6 690/1/6
f 688/1/6 689/1/6 691/1/6
f 691/1/6 689/1/6 692/1/6
f 693/1/6 694/1/6 695/1/6
f 695/1/6 694/1/6 696/1/6
f 696/1/6 694/1/6 697/1/6
f 697/1/6 694/1/6 698/1/6
f 699/2/6 700/2/6 701/2/6
f 701/2/6 700/2/6 702/2/6
