# MagicaVoxel @ Ephtracy

# group
o 

# material
mtllib deckchair_2.mtl
usemtl palette

# normals
vn -1 0 0
vn 1 0 0
vn 0 0 1
vn 0 0 -1
vn 0 -1 0
vn 0 1 0

# texcoords
vt 0.00585938 0.5
vt 0.0605469 0.5
vt 0.0761719 0.5

# verts
v -0.4 0 0.2
v -0.4 0 0.0999999
v -0.4 0 -0.1
v -0.4 0 -0.2
v -0.4 0.3 0.2
v -0.4 0.3 0.0999999
v -0.4 0.3 -5.96046e-008
v -0.4 0.3 -0.1
v -0.4 0.3 -0.2
v -0.4 0.4 0.2
v -0.4 0.4 0.0999999
v -0.4 0.4 -5.96046e-008
v -0.4 0.4 -0.1
v -0.4 0.4 -0.2
v -0.3 0.2 0.0999999
v -0.3 0.2 -5.96046e-008
v -0.3 0.2 -0.1
v -0.3 0.3 0.0999999
v -0.3 0.3 -5.96046e-008
v -0.3 0.3 -0.1
v -0.2 0.1 0.2
v -0.2 0.1 0.0999999
v -0.2 0.1 -5.96046e-008
v -0.2 0.1 -0.1
v -0.2 0.1 -0.2
v -0.2 0.2 0.2
v -0.2 0.2 0.0999999
v -0.2 0.2 -5.96046e-008
v -0.2 0.2 -0.1
v -0.2 0.2 -0.2
v 0 0 0.2
v 0 0 0.0999999
v 0 0 -0.1
v 0 0 -0.2
v 0 0.1 0.2
v 0 0.1 0.0999999
v 0 0.1 -0.1
v 0 0.1 -0.2
v 0.4 0 0.2
v 0.4 0 0.0999999
v 0.4 0 -0.1
v 0.4 0 -0.2
v 0.4 0.1 0.2
v 0.4 0.1 0.0999999
v 0.4 0.1 -0.1
v 0.4 0.1 -0.2
v -0.3 0 0.2
v -0.3 0 0.0999999
v -0.3 0 -0.1
v -0.3 0 -0.2
v -0.3 0.2 0.2
v -0.3 0.2 0.0999999
v -0.3 0.2 -0.1
v -0.3 0.2 -0.2
v -0.3 0.3 0.2
v -0.3 0.3 0.0999999
v -0.3 0.3 -5.96046e-008
v -0.3 0.3 -0.1
v -0.3 0.3 -0.2
v -0.3 0.4 0.2
v -0.3 0.4 0.0999999
v -0.3 0.4 -5.96046e-008
v -0.3 0.4 -0.1
v -0.3 0.4 -0.2
v -0.2 0.2 0.2
v -0.2 0.2 0.0999999
v -0.2 0.2 -5.96046e-008
v -0.2 0.2 -0.1
v -0.2 0.2 -0.2
v -0.2 0.3 0.2
v -0.2 0.3 0.0999999
v -0.2 0.3 -5.96046e-008
v -0.2 0.3 -0.1
v -0.2 0.3 -0.2
v 0.1 0 0.2
v 0.1 0 0.0999999
v 0.1 0 -0.1
v 0.1 0 -0.2
v 0.1 0.1 0.2
v 0.1 0.1 0.0999999
v 0.1 0.1 -0.1
v 0.1 0.1 -0.2
v 0.5 0 0.2
v 0.5 0 0.0999999
v 0.5 0 -0.1
v 0.5 0 -0.2
v 0.5 0.1 0.2
v 0.5 0.1 0.0999999
v 0.5 0.1 -5.96046e-008
v 0.5 0.1 -0.1
v 0.5 0.1 -0.2
v 0.5 0.2 0.2
v 0.5 0.2 0.0999999
v 0.5 0.2 -5.96046e-008
v 0.5 0.2 -0.1
v 0.5 0.2 -0.2
v -0.4 0 0.2
v -0.4 0.3 0.2
v -0.4 0.4 0.2
v -0.3 0 0.2
v -0.3 0.2 0.2
v -0.3 0.3 0.2
v -0.3 0.4 0.2
v -0.2 0.1 0.2
v -0.2 0.2 0.2
v -0.2 0.3 0.2
v 0 0 0.2
v 0 0.1 0.2
v 0.1 0 0.2
v 0.1 0.1 0.2
v 0.4 0 0.2
v 0.4 0.1 0.2
v 0.5 0 0.2
v 0.5 0.1 0.2
v 0.5 0.2 0.2
v -0.4 0 -0.1
v -0.4 0.3 -0.1
v -0.3 0 -0.1
v -0.3 0.2 -0.1
v -0.3 0.3 -0.1
v 0 0 -0.1
v 0 0.1 -0.1
v 0.1 0 -0.1
v 0.1 0.1 -0.1
v 0.4 0 -0.1
v 0.4 0.1 -0.1
v 0.5 0 -0.1
v 0.5 0.1 -0.1
v -0.4 0 0.0999999
v -0.4 0.3 0.0999999
v -0.3 0 0.0999999
v -0.3 0.2 0.0999999
v -0.3 0.3 0.0999999
v 0 0 0.0999999
v 0 0.1 0.0999999
v 0.1 0 0.0999999
v 0.1 0.1 0.0999999
v 0.4 0 0.0999999
v 0.4 0.1 0.0999999
v 0.5 0 0.0999999
v 0.5 0.1 0.0999999
v -0.4 0 -0.2
v -0.4 0.3 -0.2
v -0.4 0.4 -0.2
v -0.3 0 -0.2
v -0.3 0.2 -0.2
v -0.3 0.3 -0.2
v -0.3 0.4 -0.2
v -0.2 0.1 -0.2
v -0.2 0.2 -0.2
v -0.2 0.3 -0.2
v 0 0 -0.2
v 0 0.1 -0.2
v 0.1 0 -0.2
v 0.1 0.1 -0.2
v 0.4 0 -0.2
v 0.4 0.1 -0.2
v 0.5 0 -0.2
v 0.5 0.1 -0.2
v 0.5 0.2 -0.2
v -0.4 0 0.2
v -0.3 0 0.2
v 0 0 0.2
v 0.1 0 0.2
v 0.4 0 0.2
v 0.5 0 0.2
v -0.4 0 0.0999999
v -0.3 0 0.0999999
v 0 0 0.0999999
v 0.1 0 0.0999999
v 0.4 0 0.0999999
v 0.5 0 0.0999999
v -0.4 0 -0.1
v -0.3 0 -0.1
v 0 0 -0.1
v 0.1 0 -0.1
v 0.4 0 -0.1
v 0.5 0 -0.1
v -0.4 0 -0.2
v -0.3 0 -0.2
v 0 0 -0.2
v 0.1 0 -0.2
v 0.4 0 -0.2
v 0.5 0 -0.2
v -0.2 0.1 0.2
v 0 0.1 0.2
v 0.1 0.1 0.2
v 0.4 0.1 0.2
v -0.2 0.1 0.0999999
v 0 0.1 0.0999999
v 0.1 0.1 0.0999999
v 0.4 0.1 0.0999999
v 0.5 0.1 0.0999999
v -0.2 0.1 -5.96046e-008
v 0.5 0.1 -5.96046e-008
v -0.2 0.1 -0.1
v 0 0.1 -0.1
v 0.1 0.1 -0.1
v 0.4 0.1 -0.1
v 0.5 0.1 -0.1
v -0.2 0.1 -0.2
v 0 0.1 -0.2
v 0.1 0.1 -0.2
v 0.4 0.1 -0.2
v -0.3 0.2 0.2
v -0.2 0.2 0.2
v -0.3 0.2 0.0999999
v -0.2 0.2 0.0999999
v -0.3 0.2 -5.96046e-008
v -0.2 0.2 -5.96046e-008
v -0.3 0.2 -0.1
v -0.2 0.2 -0.1
v -0.3 0.2 -0.2
v -0.2 0.2 -0.2
v -0.4 0.3 0.0999999
v -0.3 0.3 0.0999999
v -0.4 0.3 -5.96046e-008
v -0.3 0.3 -5.96046e-008
v -0.4 0.3 -0.1
v -0.3 0.3 -0.1
v -0.2 0.2 0.2
v 0.5 0.2 0.2
v -0.2 0.2 0.0999999
v 0.5 0.2 0.0999999
v -0.2 0.2 -5.96046e-008
v 0.5 0.2 -5.96046e-008
v -0.2 0.2 -0.1
v 0.5 0.2 -0.1
v -0.2 0.2 -0.2
v 0.5 0.2 -0.2
v -0.3 0.3 0.2
v -0.2 0.3 0.2
v -0.3 0.3 0.0999999
v -0.2 0.3 0.0999999
v -0.3 0.3 -5.96046e-008
v -0.2 0.3 -5.96046e-008
v -0.3 0.3 -0.1
v -0.2 0.3 -0.1
v -0.3 0.3 -0.2
v -0.2 0.3 -0.2
v -0.4 0.4 0.2
v -0.3 0.4 0.2
v -0.4 0.4 0.0999999
v -0.3 0.4 0.0999999
v -0.4 0.4 -5.96046e-008
v -0.3 0.4 -5.96046e-008
v -0.4 0.4 -0.1
v -0.3 0.4 -0.1
v -0.4 0.4 -0.2
v -0.3 0.4 -0.2

# faces
f 5/1/1 2/1/1 1/1/1
f 6/1/1 2/1/1 5/1/1
f 8/1/1 4/1/1 3/1/1
f 9/1/1 4/1/1 8/1/1
f 10/3/1 6/3/1 5/3/1
f 11/2/1 7/2/1 6/2/1
f 11/3/1 6/3/1 10/3/1
f 12/3/1 8/3/1 7/3/1
f 12/2/1 7/2/1 11/2/1
f 13/2/1 9/2/1 8/2/1
f 13/3/1 8/3/1 12/3/1
f 14/2/1 9/2/1 13/2/1
f 18/2/1 16/2/1 15/2/1
f 19/3/1 17/3/1 16/3/1
f 19/2/1 16/2/1 18/2/1
f 20/3/1 17/3/1 19/3/1
f 26/3/1 22/3/1 21/3/1
f 27/2/1 23/2/1 22/2/1
f 27/3/1 22/3/1 26/3/1
f 28/3/1 24/3/1 23/3/1
f 28/2/1 23/2/1 27/2/1
f 29/2/1 25/2/1 24/2/1
f 29/3/1 24/3/1 28/3/1
f 30/2/1 25/2/1 29/2/1
f 35/1/1 32/1/1 31/1/1
f 36/1/1 32/1/1 35/1/1
f 37/1/1 34/1/1 33/1/1
f 38/1/1 34/1/1 37/1/1
f 43/1/1 40/1/1 39/1/1
f 44/1/1 40/1/1 43/1/1
f 45/1/1 42/1/1 41/1/1
f 46/1/1 42/1/1 45/1/1
f 47/1/2 48/1/2 51/1/2
f 51/1/2 48/1/2 52/1/2
f 49/1/2 50/1/2 53/1/2
f 53/1/2 50/1/2 54/1/2
f 55/3/2 56/3/2 60/3/2
f 56/2/2 57/2/2 61/2/2
f 60/3/2 56/3/2 61/3/2
f 57/3/2 58/3/2 62/3/2
f 61/2/2 57/2/2 62/2/2
f 58/2/2 59/2/2 63/2/2
f 62/3/2 58/3/2 63/3/2
f 63/2/2 59/2/2 64/2/2
f 65/3/2 66/3/2 70/3/2
f 66/2/2 67/2/2 71/2/2
f 70/3/2 66/3/2 71/3/2
f 67/3/2 68/3/2 72/3/2
f 71/2/2 67/2/2 72/2/2
f 68/2/2 69/2/2 73/2/2
f 72/3/2 68/3/2 73/3/2
f 73/2/2 69/2/2 74/2/2
f 75/1/2 76/1/2 79/1/2
f 79/1/2 76/1/2 80/1/2
f 77/1/2 78/1/2 81/1/2
f 81/1/2 78/1/2 82/1/2
f 83/1/2 84/1/2 87/1/2
f 87/1/2 84/1/2 88/1/2
f 85/1/2 86/1/2 90/1/2
f 90/1/2 86/1/2 91/1/2
f 87/3/2 88/3/2 92/3/2
f 88/2/2 89/2/2 93/2/2
f 92/3/2 88/3/2 93/3/2
f 89/3/2 90/3/2 94/3/2
f 93/2/2 89/2/2 94/2/2
f 90/2/2 91/2/2 95/2/2
f 94/3/2 90/3/2 95/3/2
f 95/2/2 91/2/2 96/2/2
f 100/1/3 98/1/3 97/1/3
f 101/1/3 98/1/3 100/1/3
f 102/3/3 99/3/3 98/3/3
f 102/1/3 98/1/3 101/1/3
f 103/3/3 99/3/3 102/3/3
f 105/3/3 102/3/3 101/3/3
f 106/3/3 102/3/3 105/3/3
f 108/3/3 105/3/3 104/3/3
f 109/1/3 108/1/3 107/1/3
f 110/3/3 105/3/3 108/3/3
f 110/1/3 108/1/3 109/1/3
f 112/3/3 105/3/3 110/3/3
f 113/1/3 112/1/3 111/1/3
f 114/3/3 105/3/3 112/3/3
f 114/1/3 112/1/3 113/1/3
f 115/3/3 105/3/3 114/3/3
f 118/1/3 117/1/3 116/1/3
f 119/1/3 117/1/3 118/1/3
f 120/1/3 117/1/3 119/1/3
f 123/1/3 122/1/3 121/1/3
f 124/1/3 122/1/3 123/1/3
f 127/1/3 126/1/3 125/1/3
f 128/1/3 126/1/3 127/1/3
f 129/1/4 130/1/4 131/1/4
f 131/1/4 130/1/4 132/1/4
f 132/1/4 130/1/4 133/1/4
f 134/1/4 135/1/4 136/1/4
f 136/1/4 135/1/4 137/1/4
f 138/1/4 139/1/4 140/1/4
f 140/1/4 139/1/4 141/1/4
f 142/1/4 143/1/4 145/1/4
f 145/1/4 143/1/4 146/1/4
f 143/2/4 144/2/4 147/2/4
f 146/1/4 143/1/4 147/1/4
f 147/2/4 144/2/4 148/2/4
f 146/2/4 147/2/4 150/2/4
f 150/2/4 147/2/4 151/2/4
f 149/2/4 150/2/4 153/2/4
f 152/1/4 153/1/4 154/1/4
f 153/2/4 150/2/4 155/2/4
f 154/1/4 153/1/4 155/1/4
f 155/2/4 150/2/4 157/2/4
f 156/1/4 157/1/4 158/1/4
f 157/2/4 150/2/4 159/2/4
f 158/1/4 157/1/4 159/1/4
f 159/2/4 150/2/4 160/2/4
f 167/1/5 162/1/5 161/1/5
f 168/1/5 162/1/5 167/1/5
f 169/1/5 164/1/5 163/1/5
f 170/1/5 164/1/5 169/1/5
f 171/1/5 166/1/5 165/1/5
f 172/1/5 166/1/5 171/1/5
f 179/1/5 174/1/5 173/1/5
f 180/1/5 174/1/5 179/1/5
f 181/1/5 176/1/5 175/1/5
f 182/1/5 176/1/5 181/1/5
f 183/1/5 178/1/5 177/1/5
f 184/1/5 178/1/5 183/1/5
f 189/3/5 186/3/5 185/3/5
f 190/3/5 186/3/5 189/3/5
f 191/3/5 188/3/5 187/3/5
f 192/3/5 188/3/5 191/3/5
f 194/2/5 190/2/5 189/2/5
f 194/2/5 193/2/5 192/2/5
f 194/2/5 192/2/5 191/2/5
f 194/2/5 191/2/5 190/2/5
f 195/2/5 193/2/5 194/2/5
f 196/3/5 195/3/5 194/3/5
f 197/3/5 195/3/5 196/3/5
f 198/3/5 195/3/5 197/3/5
f 199/3/5 195/3/5 198/3/5
f 200/3/5 195/3/5 199/3/5
f 201/2/5 197/2/5 196/2/5
f 202/2/5 197/2/5 201/2/5
f 203/2/5 199/2/5 198/2/5
f 204/2/5 199/2/5 203/2/5
f 207/3/5 206/3/5 205/3/5
f 208/3/5 206/3/5 207/3/5
f 209/2/5 208/2/5 207/2/5
f 210/2/5 208/2/5 209/2/5
f 211/3/5 210/3/5 209/3/5
f 212/3/5 210/3/5 211/3/5
f 213/2/5 212/2/5 211/2/5
f 214/2/5 212/2/5 213/2/5
f 217/2/5 216/2/5 215/2/5
f 218/2/5 216/2/5 217/2/5
f 219/3/5 218/3/5 217/3/5
f 220/3/5 218/3/5 219/3/5
f 221/3/6 222/3/6 223/3/6
f 223/3/6 222/3/6 224/3/6
f 223/2/6 224/2/6 225/2/6
f 225/2/6 224/2/6 226/2/6
f 225/3/6 226/3/6 227/3/6
f 227/3/6 226/3/6 228/3/6
f 227/2/6 228/2/6 229/2/6
f 229/2/6 228/2/6 230/2/6
f 231/3/6 232/3/6 233/3/6
f 233/3/6 232/3/6 234/3/6
f 233/2/6 234/2/6 235/2/6
f 235/2/6 234/2/6 236/2/6
f 235/3/6 236/3/6 237/3/6
f 237/3/6 236/3/6 238/3/6
f 237/2/6 238/2/6 239/2/6
f 239/2/6 238/2/6 240/2/6
f 241/3/6 242/3/6 243/3/6
f 243/3/6 242/3/6 244/3/6
f 243/2/6 244/2/6 245/2/6
f 245/2/6 244/2/6 246/2/6
f 245/3/6 246/3/6 247/3/6
f 247/3/6 246/3/6 248/3/6
f 247/2/6 248/2/6 249/2/6
f 249/2/6 248/2/6 250/2/6
