# MagicaVoxel @ Ephtracy

# group
o 

# material
mtllib chancellor.mtl
usemtl palette

# normals
vn -1 0 0
vn 1 0 0
vn 0 0 1
vn 0 0 -1
vn 0 -1 0
vn 0 1 0

# texcoords
vt 0.00585938 0.5
vt 0.0136719 0.5
vt 0.0488281 0.5
vt 0.0683594 0.5
vt 0.123047 0.5
vt 0.158203 0.5
vt 0.162109 0.5
vt 0.166016 0.5

# verts
v -0.4 0 0.2
v -0.4 0 -0.1
v -0.4 0.1 0.2
v -0.4 0.1 -0.1
v -0.4 0.4 0.1
v -0.4 0.4 0
v -0.4 0.6 0.1
v -0.4 0.6 0
v -0.3 0 0.3
v -0.3 0 0.2
v -0.3 0 -0.1
v -0.3 0 -0.2
v -0.3 0.1 0.3
v -0.3 0.1 0.2
v -0.3 0.1 -0.1
v -0.3 0.1 -0.2
v -0.3 0.3 0.2
v -0.3 0.3 0.1
v -0.3 0.3 0
v -0.3 0.3 -0.1
v -0.3 0.4 0.1
v -0.3 0.4 0
v -0.3 0.6 0.1
v -0.3 0.6 0
v -0.3 0.7 0.1
v -0.3 0.7 0
v -0.3 0.7 -0.1
v -0.3 0.8 0.1
v -0.3 0.8 0
v -0.3 1 0.1
v -0.3 1 0
v -0.3 1 -0.1
v -0.3 1.1 0.1
v -0.3 1.1 0
v -0.2 0 0.4
v -0.2 0 0.3
v -0.2 0 0.1
v -0.2 0 0
v -0.2 0 -0.2
v -0.2 0 -0.3
v -0.2 0.1 0.4
v -0.2 0.1 0.3
v -0.2 0.1 0.2
v -0.2 0.1 0.1
v -0.2 0.1 0
v -0.2 0.1 -0.1
v -0.2 0.1 -0.2
v -0.2 0.1 -0.3
v -0.2 0.3 0.3
v -0.2 0.3 0.2
v -0.2 0.3 0.1
v -0.2 0.3 0
v -0.2 0.3 -0.1
v -0.2 0.3 -0.2
v -0.2 0.4 0.2
v -0.2 0.4 0.1
v -0.2 0.4 0
v -0.2 0.4 -0.1
v -0.2 0.6 0.2
v -0.2 0.6 0.1
v -0.2 0.6 0
v -0.2 0.6 -0.1
v -0.2 0.6 -0.2
v -0.2 0.7 0.2
v -0.2 0.7 0.1
v -0.2 0.7 0
v -0.2 0.7 -0.1
v -0.2 0.8 0.2
v -0.2 0.8 0.1
v -0.2 0.8 0
v -0.2 0.9 0.2
v -0.2 0.9 0.1
v -0.2 1 0.2
v -0.2 1 0.1
v -0.2 1 0
v -0.2 1 -0.1
v -0.2 1 -0.2
v -0.2 1.1 0
v -0.2 1.1 -0.1
v -0.1 0.3 -0.1
v -0.1 0.3 -0.2
v -0.1 0.4 0.2
v -0.1 0.4 0.1
v -0.1 0.4 0
v -0.1 0.4 -0.1
v -0.1 0.6 0.2
v -0.1 0.6 0.1
v -0.1 0.6 0
v -0.1 0.6 -0.1
v -0.1 0.6 -0.2
v -0.1 0.6 -0.3
v -0.1 1 0.2
v -0.1 1 0.1
v -0.1 1 -0.1
v -0.1 1 -0.2
v -0.1 1 -0.3
v -0.1 1.1 0.2
v -0.1 1.1 0.1
v -0.1 1.1 -0.1
v -0.1 1.1 -0.2
v 0.1 0 0.1
v 0.1 0 0
v 0.1 0.1 0.1
v 0.1 0.1 0
v 0.1 0.3 0.1
v 0.1 0.3 0
v 0.1 0.6 0.2
v 0.1 0.6 0.1
v 0.1 0.7 0.2
v 0.1 0.7 0.1
v 0.2 0 0.3
v 0.2 0 0.2
v 0.2 0 -0.1
v 0.2 0 -0.2
v 0.2 0.1 0.3
v 0.2 0.1 0.2
v 0.2 0.1 0.1
v 0.2 0.1 0
v 0.2 0.1 -0.1
v 0.2 0.1 -0.2
v 0.2 0.3 0.2
v 0.2 0.3 0.1
v 0.2 0.3 0
v 0.2 0.3 -0.1
v 0.3 0 0.2
v 0.3 0 -0.1
v 0.3 0.1 0.2
v 0.3 0.1 -0.1
v 0.3 0.4 0.1
v 0.3 0.4 0
v 0.3 0.6 0.1
v 0.3 0.6 0
v -0.3 0 0.2
v -0.3 0 -0.1
v -0.3 0.1 0.2
v -0.3 0.1 -0.1
v -0.3 0.4 0.1
v -0.3 0.4 0
v -0.3 0.6 0.1
v -0.3 0.6 0
v -0.2 0 0.3
v -0.2 0 0.2
v -0.2 0 -0.1
v -0.2 0 -0.2
v -0.2 0.1 0.3
v -0.2 0.1 0.2
v -0.2 0.1 0.1
v -0.2 0.1 0
v -0.2 0.1 -0.1
v -0.2 0.1 -0.2
v -0.2 0.3 0.2
v -0.2 0.3 0.1
v -0.2 0.3 0
v -0.2 0.3 -0.1
v -0.1 0 0.1
v -0.1 0 0
v -0.1 0.1 0.1
v -0.1 0.1 0
v -0.1 0.3 0.1
v -0.1 0.3 0
v -0.1 0.6 0.2
v -0.1 0.6 0.1
v -0.1 0.7 0.2
v -0.1 0.7 0.1
v 0 0.3 -0.1
v 0 0.3 -0.2
v 0 0.4 -0.1
v 0 0.4 -0.2
v 0.1 0.4 0.2
v 0.1 0.4 0.1
v 0.1 0.4 0
v 0.1 0.4 -0.1
v 0.1 0.4 -0.2
v 0.1 0.6 0.2
v 0.1 0.6 0.1
v 0.1 0.6 0
v 0.1 0.6 -0.1
v 0.1 0.6 -0.2
v 0.1 0.6 -0.3
v 0.1 1 0.2
v 0.1 1 0.1
v 0.1 1 -0.1
v 0.1 1 -0.2
v 0.1 1 -0.3
v 0.1 1.1 0.2
v 0.1 1.1 0.1
v 0.1 1.1 -0.1
v 0.1 1.1 -0.2
v 0.2 0 0.4
v 0.2 0 0.3
v 0.2 0 0.1
v 0.2 0 0
v 0.2 0 -0.2
v 0.2 0 -0.3
v 0.2 0.1 0.4
v 0.2 0.1 0.3
v 0.2 0.1 0.2
v 0.2 0.1 0.1
v 0.2 0.1 0
v 0.2 0.1 -0.1
v 0.2 0.1 -0.2
v 0.2 0.1 -0.3
v 0.2 0.3 0.3
v 0.2 0.3 0.2
v 0.2 0.3 0.1
v 0.2 0.3 0
v 0.2 0.3 -0.1
v 0.2 0.3 -0.2
v 0.2 0.4 0.2
v 0.2 0.4 0.1
v 0.2 0.4 0
v 0.2 0.4 -0.1
v 0.2 0.6 0.2
v 0.2 0.6 0.1
v 0.2 0.6 0
v 0.2 0.6 -0.1
v 0.2 0.6 -0.2
v 0.2 0.7 0.2
v 0.2 0.7 0.1
v 0.2 0.7 0
v 0.2 0.7 -0.1
v 0.2 0.8 0.2
v 0.2 0.8 0.1
v 0.2 0.8 0
v 0.2 0.9 0.2
v 0.2 0.9 0.1
v 0.2 1 0.2
v 0.2 1 0.1
v 0.2 1 -0.1
v 0.2 1 -0.2
v 0.2 1.1 0.1
v 0.2 1.1 -0.1
v 0.3 0 0.3
v 0.3 0 0.2
v 0.3 0 -0.1
v 0.3 0 -0.2
v 0.3 0.1 0.3
v 0.3 0.1 0.2
v 0.3 0.1 -0.1
v 0.3 0.1 -0.2
v 0.3 0.3 0.2
v 0.3 0.3 0.1
v 0.3 0.3 0
v 0.3 0.3 -0.1
v 0.3 0.4 0.1
v 0.3 0.4 0
v 0.3 0.6 0.1
v 0.3 0.6 0
v 0.3 0.7 0.1
v 0.3 0.7 0
v 0.3 0.7 -0.1
v 0.3 0.8 0.1
v 0.3 0.8 0
v 0.3 1 0.1
v 0.3 1 -0.1
v 0.4 0 0.2
v 0.4 0 -0.1
v 0.4 0.1 0.2
v 0.4 0.1 -0.1
v 0.4 0.4 0.1
v 0.4 0.4 0
v 0.4 0.6 0.1
v 0.4 0.6 0
v -0.2 0 0.4
v -0.2 0.1 0.4
v 0.2 0 0.4
v 0.2 0.1 0.4
v -0.3 0 0.3
v -0.3 0.1 0.3
v -0.2 0 0.3
v -0.2 0.1 0.3
v -0.2 0.3 0.3
v 0.2 0 0.3
v 0.2 0.1 0.3
v 0.2 0.3 0.3
v 0.3 0 0.3
v 0.3 0.1 0.3
v -0.4 0 0.2
v -0.4 0.1 0.2
v -0.3 0 0.2
v -0.3 0.1 0.2
v -0.3 0.3 0.2
v -0.2 0.1 0.2
v -0.2 0.3 0.2
v -0.2 0.4 0.2
v -0.2 0.6 0.2
v -0.2 0.7 0.2
v -0.2 0.8 0.2
v -0.2 0.9 0.2
v -0.2 1 0.2
v -0.1 0.3 0.2
v -0.1 0.4 0.2
v -0.1 0.6 0.2
v -0.1 0.7 0.2
v -0.1 0.8 0.2
v -0.1 0.9 0.2
v -0.1 1 0.2
v -0.1 1.1 0.2
v 0 0.7 0.2
v 0 0.8 0.2
v 0.1 0.3 0.2
v 0.1 0.4 0.2
v 0.1 0.6 0.2
v 0.1 0.7 0.2
v 0.1 0.8 0.2
v 0.1 0.9 0.2
v 0.1 1 0.2
v 0.1 1.1 0.2
v 0.2 0.1 0.2
v 0.2 0.3 0.2
v 0.2 0.4 0.2
v 0.2 0.6 0.2
v 0.2 0.7 0.2
v 0.2 0.8 0.2
v 0.2 0.9 0.2
v 0.2 1 0.2
v 0.3 0 0.2
v 0.3 0.1 0.2
v 0.3 0.3 0.2
v 0.4 0 0.2
v 0.4 0.1 0.2
v -0.4 0.4 0.1
v -0.4 0.6 0.1
v -0.3 0.3 0.1
v -0.3 0.4 0.1
v -0.3 0.6 0.1
v -0.3 0.7 0.1
v -0.3 0.8 0.1
v -0.3 1 0.1
v -0.3 1.1 0.1
v -0.2 0 0.1
v -0.2 0.1 0.1
v -0.2 0.3 0.1
v -0.2 0.4 0.1
v -0.2 0.6 0.1
v -0.2 0.7 0.1
v -0.2 0.8 0.1
v -0.2 0.9 0.1
v -0.2 1 0.1
v -0.2 1.1 0.1
v -0.1 0 0.1
v -0.1 0.1 0.1
v -0.1 0.3 0.1
v -0.1 0.4 0.1
v -0.1 0.6 0.1
v -0.1 0.7 0.1
v -0.1 1 0.1
v -0.1 1.1 0.1
v 0 0.7 0.1
v 0.1 0 0.1
v 0.1 0.1 0.1
v 0.1 0.3 0.1
v 0.1 0.4 0.1
v 0.1 0.6 0.1
v 0.1 0.7 0.1
v 0.1 1 0.1
v 0.1 1.1 0.1
v 0.2 0 0.1
v 0.2 0.1 0.1
v 0.2 0.3 0.1
v 0.2 0.4 0.1
v 0.2 0.6 0.1
v 0.2 0.7 0.1
v 0.2 0.8 0.1
v 0.2 0.9 0.1
v 0.2 1 0.1
v 0.2 1.1 0.1
v 0.3 0.3 0.1
v 0.3 0.4 0.1
v 0.3 0.6 0.1
v 0.3 0.7 0.1
v 0.3 0.8 0.1
v 0.3 1 0.1
v 0.4 0.4 0.1
v 0.4 0.6 0.1
v -0.3 0.7 0
v -0.3 0.8 0
v -0.2 0.7 0
v -0.2 0.8 0
v 0.2 0.7 0
v 0.2 0.8 0
v 0.3 0.7 0
v 0.3 0.8 0
v -0.3 0 -0.1
v -0.3 0.1 -0.1
v -0.2 0 -0.1
v -0.2 0.1 -0.1
v -0.2 0.3 -0.1
v -0.1 0.3 -0.1
v 0.1 0.3 -0.1
v 0.2 0 -0.1
v 0.2 0.1 -0.1
v 0.2 0.3 -0.1
v 0.3 0 -0.1
v 0.3 0.1 -0.1
v -0.2 0 -0.2
v -0.2 0.1 -0.2
v 0.2 0 -0.2
v 0.2 0.1 -0.2
v -0.2 0 0.3
v -0.2 0.1 0.3
v 0.2 0 0.3
v 0.2 0.1 0.3
v -0.3 0 0.2
v -0.3 0.1 0.2
v -0.2 0 0.2
v -0.2 0.1 0.2
v -0.2 0.3 0.2
v -0.1 0.3 0.2
v 0.1 0.3 0.2
v 0.2 0 0.2
v 0.2 0.1 0.2
v 0.2 0.3 0.2
v 0.3 0 0.2
v 0.3 0.1 0.2
v -0.4 0.4 0
v -0.4 0.6 0
v -0.3 0.3 0
v -0.3 0.4 0
v -0.3 0.6 0
v -0.3 0.7 0
v -0.3 1 0
v -0.3 1.1 0
v -0.2 0 0
v -0.2 0.1 0
v -0.2 0.3 0
v -0.2 0.4 0
v -0.2 0.6 0
v -0.2 0.7 0
v -0.2 1 0
v -0.2 1.1 0
v -0.1 0 0
v -0.1 0.1 0
v -0.1 0.3 0
v -0.1 0.4 0
v -0.1 0.6 0
v 0.1 0 0
v 0.1 0.1 0
v 0.1 0.3 0
v 0.1 0.4 0
v 0.1 0.6 0
v 0.2 0 0
v 0.2 0.1 0
v 0.2 0.3 0
v 0.2 0.4 0
v 0.2 0.6 0
v 0.2 0.7 0
v 0.3 0.3 0
v 0.3 0.4 0
v 0.3 0.6 0
v 0.3 0.7 0
v 0.4 0.4 0
v 0.4 0.6 0
v -0.4 0 -0.1
v -0.4 0.1 -0.1
v -0.3 0 -0.1
v -0.3 0.1 -0.1
v -0.3 0.3 -0.1
v -0.3 0.7 -0.1
v -0.3 1 -0.1
v -0.2 0.1 -0.1
v -0.2 0.3 -0.1
v -0.2 0.4 -0.1
v -0.2 0.7 -0.1
v -0.2 1 -0.1
v -0.2 1.1 -0.1
v -0.1 0.3 -0.1
v -0.1 0.4 -0.1
v -0.1 1 -0.1
v -0.1 1.1 -0.1
v 0 0.3 -0.1
v 0 0.4 -0.1
v 0.1 0.3 -0.1
v 0.1 0.4 -0.1
v 0.1 1 -0.1
v 0.1 1.1 -0.1
v 0.2 0.1 -0.1
v 0.2 0.3 -0.1
v 0.2 0.4 -0.1
v 0.2 0.7 -0.1
v 0.2 1 -0.1
v 0.2 1.1 -0.1
v 0.3 0 -0.1
v 0.3 0.1 -0.1
v 0.3 0.3 -0.1
v 0.3 0.7 -0.1
v 0.3 1 -0.1
v 0.4 0 -0.1
v 0.4 0.1 -0.1
v -0.3 0 -0.2
v -0.3 0.1 -0.2
v -0.2 0 -0.2
v -0.2 0.1 -0.2
v -0.2 0.3 -0.2
v -0.2 0.6 -0.2
v -0.2 1 -0.2
v -0.1 0.3 -0.2
v -0.1 0.6 -0.2
v -0.1 1 -0.2
v -0.1 1.1 -0.2
v 0 0.3 -0.2
v 0 0.4 -0.2
v 0.1 0.4 -0.2
v 0.1 0.6 -0.2
v 0.1 1 -0.2
v 0.1 1.1 -0.2
v 0.2 0 -0.2
v 0.2 0.1 -0.2
v 0.2 0.3 -0.2
v 0.2 0.6 -0.2
v 0.2 1 -0.2
v 0.3 0 -0.2
v 0.3 0.1 -0.2
v -0.2 0 -0.3
v -0.2 0.1 -0.3
v -0.1 0.6 -0.3
v -0.1 1 -0.3
v 0.1 0.6 -0.3
v 0.1 1 -0.3
v 0.2 0 -0.3
v 0.2 0.1 -0.3
v -0.2 0 0.4
v 0.2 0 0.4
v -0.3 0 0.3
v -0.2 0 0.3
v 0.2 0 0.3
v 0.3 0 0.3
v -0.4 0 0.2
v -0.3 0 0.2
v -0.2 0 0.2
v 0.2 0 0.2
v 0.3 0 0.2
v 0.4 0 0.2
v -0.2 0 0.1
v -0.1 0 0.1
v 0.1 0 0.1
v 0.2 0 0.1
v -0.2 0 0
v -0.1 0 0
v 0.1 0 0
v 0.2 0 0
v -0.4 0 -0.1
v -0.3 0 -0.1
v -0.2 0 -0.1
v 0.2 0 -0.1
v 0.3 0 -0.1
v 0.4 0 -0.1
v -0.3 0 -0.2
v -0.2 0 -0.2
v 0.2 0 -0.2
v 0.3 0 -0.2
v -0.2 0 -0.3
v 0.2 0 -0.3
v -0.2 0.1 0.3
v 0.2 0.1 0.3
v -0.3 0.1 0.2
v -0.2 0.1 0.2
v 0.2 0.1 0.2
v 0.3 0.1 0.2
v -0.2 0.1 0.1
v 0.2 0.1 0.1
v -0.2 0.1 0
v 0.2 0.1 0
v -0.3 0.1 -0.1
v -0.2 0.1 -0.1
v 0.2 0.1 -0.1
v 0.3 0.1 -0.1
v -0.2 0.1 -0.2
v 0.2 0.1 -0.2
v -0.2 0.3 0.2
v -0.1 0.3 0.2
v 0.1 0.3 0.2
v 0.2 0.3 0.2
v -0.2 0.3 0.1
v -0.1 0.3 0.1
v 0.1 0.3 0.1
v 0.2 0.3 0.1
v -0.2 0.3 0
v -0.1 0.3 0
v 0.1 0.3 0
v 0.2 0.3 0
v -0.2 0.3 -0.1
v -0.1 0.3 -0.1
v 0.1 0.3 -0.1
v 0.2 0.3 -0.1
v -0.4 0.4 0.1
v -0.3 0.4 0.1
v 0.3 0.4 0.1
v 0.4 0.4 0.1
v -0.4 0.4 0
v -0.3 0.4 0
v 0.3 0.4 0
v 0.4 0.4 0
v 0 0.4 -0.1
v 0.1 0.4 -0.1
v 0 0.4 -0.2
v 0.1 0.4 -0.2
v -0.2 0.6 0.2
v -0.1 0.6 0.2
v 0.1 0.6 0.2
v 0.2 0.6 0.2
v -0.3 0.6 0.1
v -0.2 0.6 0.1
v -0.1 0.6 0.1
v 0.1 0.6 0.1
v 0.2 0.6 0.1
v 0.3 0.6 0.1
v -0.3 0.6 0
v -0.2 0.6 0
v -0.1 0.6 0
v 0.1 0.6 0
v 0.2 0.6 0
v 0.3 0.6 0
v -0.2 0.6 -0.1
v -0.1 0.6 -0.1
v 0.1 0.6 -0.1
v 0.2 0.6 -0.1
v -0.2 0.6 -0.2
v -0.1 0.6 -0.2
v 0.1 0.6 -0.2
v 0.2 0.6 -0.2
v -0.1 0.6 -0.3
v 0.1 0.6 -0.3
v -0.1 0.7 0.2
v 0 0.7 0.2
v 0.1 0.7 0.2
v -0.1 0.7 0.1
v 0 0.7 0.1
v 0.1 0.7 0.1
v -0.3 0.7 0
v -0.2 0.7 0
v 0.2 0.7 0
v 0.3 0.7 0
v -0.3 0.7 -0.1
v -0.2 0.7 -0.1
v 0.2 0.7 -0.1
v 0.3 0.7 -0.1
v -0.3 0.8 0.1
v -0.2 0.8 0.1
v 0.2 0.8 0.1
v 0.3 0.8 0.1
v -0.3 0.8 0
v -0.2 0.8 0
v 0.2 0.8 0
v 0.3 0.8 0
v -0.2 0.1 0.4
v 0.2 0.1 0.4
v -0.3 0.1 0.3
v -0.2 0.1 0.3
v 0.2 0.1 0.3
v 0.3 0.1 0.3
v -0.4 0.1 0.2
v -0.3 0.1 0.2
v -0.2 0.1 0.2
v 0.2 0.1 0.2
v 0.3 0.1 0.2
v 0.4 0.1 0.2
v -0.4 0.1 -0.1
v -0.3 0.1 -0.1
v -0.2 0.1 -0.1
v 0.2 0.1 -0.1
v 0.3 0.1 -0.1
v 0.4 0.1 -0.1
v -0.3 0.1 -0.2
v -0.2 0.1 -0.2
v 0.2 0.1 -0.2
v 0.3 0.1 -0.2
v -0.2 0.1 -0.3
v 0.2 0.1 -0.3
v -0.2 0.3 0.3
v 0.2 0.3 0.3
v -0.3 0.3 0.2
v -0.2 0.3 0.2
v -0.1 0.3 0.2
v 0.1 0.3 0.2
v 0.2 0.3 0.2
v 0.3 0.3 0.2
v -0.3 0.3 0.1
v -0.2 0.3 0.1
v 0.2 0.3 0.1
v 0.3 0.3 0.1
v -0.3 0.3 0
v -0.2 0.3 0
v 0.2 0.3 0
v 0.3 0.3 0
v -0.3 0.3 -0.1
v -0.2 0.3 -0.1
v -0.1 0.3 -0.1
v 0 0.3 -0.1
v 0.1 0.3 -0.1
v 0.2 0.3 -0.1
v 0.3 0.3 -0.1
v -0.2 0.3 -0.2
v -0.1 0.3 -0.2
v 0 0.3 -0.2
v 0.2 0.3 -0.2
v -0.2 0.4 0.2
v -0.1 0.4 0.2
v 0.1 0.4 0.2
v 0.2 0.4 0.2
v -0.3 0.4 0.1
v -0.2 0.4 0.1
v -0.1 0.4 0.1
v 0.1 0.4 0.1
v 0.2 0.4 0.1
v 0.3 0.4 0.1
v -0.3 0.4 0
v -0.2 0.4 0
v -0.1 0.4 0
v 0.1 0.4 0
v 0.2 0.4 0
v 0.3 0.4 0
v -0.2 0.4 -0.1
v -0.1 0.4 -0.1
v 0.1 0.4 -0.1
v 0.2 0.4 -0.1
v -0.1 0.6 0.2
v 0.1 0.6 0.2
v -0.4 0.6 0.1
v -0.3 0.6 0.1
v -0.1 0.6 0.1
v 0.1 0.6 0.1
v 0.3 0.6 0.1
v 0.4 0.6 0.1
v -0.4 0.6 0
v -0.3 0.6 0
v 0.3 0.6 0
v 0.4 0.6 0
v -0.3 0.7 0.1
v -0.2 0.7 0.1
v 0.2 0.7 0.1
v 0.3 0.7 0.1
v -0.3 0.7 0
v -0.2 0.7 0
v 0.2 0.7 0
v 0.3 0.7 0
v -0.2 1 0.2
v -0.1 1 0.2
v 0.1 1 0.2
v 0.2 1 0.2
v -0.2 1 0.1
v -0.1 1 0.1
v 0.1 1 0.1
v 0.2 1 0.1
v 0.3 1 0.1
v -0.3 1 0
v -0.2 1 0
v -0.3 1 -0.1
v -0.2 1 -0.1
v -0.1 1 -0.1
v 0.1 1 -0.1
v 0.2 1 -0.1
v 0.3 1 -0.1
v -0.2 1 -0.2
v -0.1 1 -0.2
v 0.1 1 -0.2
v 0.2 1 -0.2
v -0.1 1 -0.3
v 0.1 1 -0.3
v -0.1 1.1 0.2
v 0.1 1.1 0.2
v -0.3 1.1 0.1
v -0.2 1.1 0.1
v -0.1 1.1 0.1
v 0.1 1.1 0.1
v 0.2 1.1 0.1
v -0.3 1.1 0
v -0.2 1.1 0
v -0.2 1.1 -0.1
v -0.1 1.1 -0.1
v 0.1 1.1 -0.1
v 0.2 1.1 -0.1
v -0.1 1.1 -0.2
v 0.1 1.1 -0.2

# faces
f 3/8/1 2/8/1 1/8/1
f 4/8/1 2/8/1 3/8/1
f 7/6/1 6/6/1 5/6/1
f 8/6/1 6/6/1 7/6/1
f 13/6/1 10/6/1 9/6/1
f 14/6/1 10/6/1 13/6/1
f 15/6/1 12/6/1 11/6/1
f 16/6/1 12/6/1 15/6/1
f 17/8/1 15/8/1 14/8/1
f 18/8/1 15/8/1 17/8/1
f 19/8/1 15/8/1 18/8/1
f 20/8/1 15/8/1 19/8/1
f 21/5/1 19/5/1 18/5/1
f 22/5/1 19/5/1 21/5/1
f 25/8/1 24/8/1 23/8/1
f 26/8/1 24/8/1 25/8/1
f 29/4/1 27/4/1 26/4/1
f 30/4/1 29/4/1 28/4/1
f 31/4/1 27/4/1 29/4/1
f 31/4/1 29/4/1 30/4/1
f 32/4/1 27/4/1 31/4/1
f 33/6/1 31/6/1 30/6/1
f 34/6/1 31/6/1 33/6/1
f 41/8/1 36/8/1 35/8/1
f 42/8/1 36/8/1 41/8/1
f 44/6/1 38/6/1 37/6/1
f 45/6/1 38/6/1 44/6/1
f 47/8/1 40/8/1 39/8/1
f 48/8/1 40/8/1 47/8/1
f 49/8/1 43/8/1 42/8/1
f 50/8/1 43/8/1 49/8/1
f 53/8/1 47/8/1 46/8/1
f 54/8/1 47/8/1 53/8/1
f 55/6/1 51/6/1 50/6/1
f 56/6/1 51/6/1 55/6/1
f 57/6/1 53/6/1 52/6/1
f 58/6/1 53/6/1 57/6/1
f 60/7/1 57/7/1 56/7/1
f 61/7/1 57/7/1 60/7/1
f 64/6/1 60/6/1 59/6/1
f 65/6/1 60/6/1 64/6/1
f 66/6/1 62/6/1 61/6/1
f 67/4/1 63/4/1 62/4/1
f 67/6/1 62/6/1 66/6/1
f 68/5/1 65/5/1 64/5/1
f 68/5/1 66/5/1 65/5/1
f 69/5/1 66/5/1 68/5/1
f 70/5/1 66/5/1 69/5/1
f 71/3/1 69/3/1 68/3/1
f 72/3/1 69/3/1 71/3/1
f 73/4/1 72/4/1 71/4/1
f 74/4/1 72/4/1 73/4/1
f 76/4/1 63/4/1 67/4/1
f 77/4/1 63/4/1 76/4/1
f 78/4/1 76/4/1 75/4/1
f 79/4/1 76/4/1 78/4/1
f 85/4/1 81/4/1 80/4/1
f 86/7/1 83/7/1 82/7/1
f 87/7/1 83/7/1 86/7/1
f 88/7/1 85/7/1 84/7/1
f 89/4/1 81/4/1 85/4/1
f 89/7/1 85/7/1 88/7/1
f 90/4/1 81/4/1 89/4/1
f 95/4/1 91/4/1 90/4/1
f 96/4/1 91/4/1 95/4/1
f 97/4/1 93/4/1 92/4/1
f 98/4/1 93/4/1 97/4/1
f 99/4/1 95/4/1 94/4/1
f 100/4/1 95/4/1 99/4/1
f 103/6/1 102/6/1 101/6/1
f 104/6/1 102/6/1 103/6/1
f 105/5/1 104/5/1 103/5/1
f 106/5/1 104/5/1 105/5/1
f 109/6/1 108/6/1 107/6/1
f 110/6/1 108/6/1 109/6/1
f 115/6/1 112/6/1 111/6/1
f 116/6/1 112/6/1 115/6/1
f 119/6/1 114/6/1 113/6/1
f 120/6/1 114/6/1 119/6/1
f 121/8/1 117/8/1 116/8/1
f 122/8/1 117/8/1 121/8/1
f 123/8/1 119/8/1 118/8/1
f 124/8/1 119/8/1 123/8/1
f 127/8/1 126/8/1 125/8/1
f 128/8/1 126/8/1 127/8/1
f 131/6/1 130/6/1 129/6/1
f 132/6/1 130/6/1 131/6/1
f 133/8/2 134/8/2 135/8/2
f 135/8/2 134/8/2 136/8/2
f 137/6/2 138/6/2 139/6/2
f 139/6/2 138/6/2 140/6/2
f 141/6/2 142/6/2 145/6/2
f 145/6/2 142/6/2 146/6/2
f 143/6/2 144/6/2 149/6/2
f 149/6/2 144/6/2 150/6/2
f 146/8/2 147/8/2 151/8/2
f 151/8/2 147/8/2 152/8/2
f 148/8/2 149/8/2 153/8/2
f 153/8/2 149/8/2 154/8/2
f 155/6/2 156/6/2 157/6/2
f 157/6/2 156/6/2 158/6/2
f 157/5/2 158/5/2 159/5/2
f 159/5/2 158/5/2 160/5/2
f 161/6/2 162/6/2 163/6/2
f 163/6/2 162/6/2 164/6/2
f 165/4/2 166/4/2 167/4/2
f 167/4/2 166/4/2 168/4/2
f 169/7/2 170/7/2 174/7/2
f 174/7/2 170/7/2 175/7/2
f 171/7/2 172/7/2 176/7/2
f 172/4/2 173/4/2 177/4/2
f 176/7/2 172/7/2 177/7/2
f 177/4/2 173/4/2 178/4/2
f 178/4/2 179/4/2 183/4/2
f 183/4/2 179/4/2 184/4/2
f 180/4/2 181/4/2 185/4/2
f 185/4/2 181/4/2 186/4/2
f 182/4/2 183/4/2 187/4/2
f 187/4/2 183/4/2 188/4/2
f 189/8/2 190/8/2 195/8/2
f 195/8/2 190/8/2 196/8/2
f 191/6/2 192/6/2 198/6/2
f 198/6/2 192/6/2 199/6/2
f 193/8/2 194/8/2 201/8/2
f 201/8/2 194/8/2 202/8/2
f 196/8/2 197/8/2 203/8/2
f 203/8/2 197/8/2 204/8/2
f 200/8/2 201/8/2 207/8/2
f 207/8/2 201/8/2 208/8/2
f 204/6/2 205/6/2 209/6/2
f 209/6/2 205/6/2 210/6/2
f 206/6/2 207/6/2 211/6/2
f 211/6/2 207/6/2 212/6/2
f 210/7/2 211/7/2 214/7/2
f 214/7/2 211/7/2 215/7/2
f 213/6/2 214/6/2 218/6/2
f 218/6/2 214/6/2 219/6/2
f 215/6/2 216/6/2 220/6/2
f 216/4/2 217/4/2 221/4/2
f 220/6/2 216/6/2 221/6/2
f 218/5/2 219/5/2 222/5/2
f 219/5/2 220/5/2 222/5/2
f 222/5/2 220/5/2 223/5/2
f 223/5/2 220/5/2 224/5/2
f 222/3/2 223/3/2 225/3/2
f 225/3/2 223/3/2 226/3/2
f 225/4/2 226/4/2 227/4/2
f 227/4/2 226/4/2 228/4/2
f 221/4/2 217/4/2 229/4/2
f 229/4/2 217/4/2 230/4/2
f 228/4/2 229/4/2 231/4/2
f 231/4/2 229/4/2 232/4/2
f 233/6/2 234/6/2 237/6/2
f 237/6/2 234/6/2 238/6/2
f 235/6/2 236/6/2 239/6/2
f 239/6/2 236/6/2 240/6/2
f 238/8/2 239/8/2 241/8/2
f 241/8/2 239/8/2 242/8/2
f 242/8/2 239/8/2 243/8/2
f 243/8/2 239/8/2 244/8/2
f 242/5/2 243/5/2 245/5/2
f 245/5/2 243/5/2 246/5/2
f 247/8/2 248/8/2 249/8/2
f 249/8/2 248/8/2 250/8/2
f 250/4/2 251/4/2 253/4/2
f 252/4/2 253/4/2 254/4/2
f 253/4/2 251/4/2 255/4/2
f 254/4/2 253/4/2 255/4/2
f 256/8/2 257/8/2 258/8/2
f 258/8/2 257/8/2 259/8/2
f 260/6/2 261/6/2 262/6/2
f 262/6/2 261/6/2 263/6/2
f 266/8/3 265/8/3 264/8/3
f 267/8/3 265/8/3 266/8/3
f 270/6/3 269/6/3 268/6/3
f 271/6/3 269/6/3 270/6/3
f 274/8/3 272/8/3 271/8/3
f 275/8/3 272/8/3 274/8/3
f 276/6/3 274/6/3 273/6/3
f 277/6/3 274/6/3 276/6/3
f 280/8/3 279/8/3 278/8/3
f 281/8/3 279/8/3 280/8/3
f 283/8/3 282/8/3 281/8/3
f 284/8/3 282/8/3 283/8/3
f 291/6/3 285/6/3 284/6/3
f 292/6/3 285/6/3 291/6/3
f 293/6/3 287/6/3 286/6/3
f 294/5/3 288/5/3 287/5/3
f 294/6/3 287/6/3 293/6/3
f 295/3/3 289/3/3 288/3/3
f 295/5/3 288/5/3 294/5/3
f 296/4/3 290/4/3 289/4/3
f 296/3/3 289/3/3 295/3/3
f 297/4/3 290/4/3 296/4/3
f 299/2/3 295/2/3 294/2/3
f 300/5/3 296/5/3 295/5/3
f 300/2/3 295/2/3 299/2/3
f 301/8/3 292/8/3 291/8/3
f 302/7/3 293/7/3 292/7/3
f 302/8/3 292/8/3 301/8/3
f 303/7/3 293/7/3 302/7/3
f 304/5/3 300/5/3 299/5/3
f 305/5/3 296/5/3 300/5/3
f 305/5/3 300/5/3 304/5/3
f 306/4/3 298/4/3 297/4/3
f 306/5/3 296/5/3 305/5/3
f 306/4/3 297/4/3 296/4/3
f 307/4/3 298/4/3 306/4/3
f 308/4/3 298/4/3 307/4/3
f 310/6/3 302/6/3 301/6/3
f 311/6/3 302/6/3 310/6/3
f 312/6/3 304/6/3 303/6/3
f 313/5/3 305/5/3 304/5/3
f 313/6/3 304/6/3 312/6/3
f 314/3/3 306/3/3 305/3/3
f 314/5/3 305/5/3 313/5/3
f 315/4/3 307/4/3 306/4/3
f 315/3/3 306/3/3 314/3/3
f 316/4/3 307/4/3 315/4/3
f 318/8/3 310/8/3 309/8/3
f 319/8/3 310/8/3 318/8/3
f 320/8/3 318/8/3 317/8/3
f 321/8/3 318/8/3 320/8/3
f 325/6/3 323/6/3 322/6/3
f 326/6/3 323/6/3 325/6/3
f 333/5/3 325/5/3 324/5/3
f 334/5/3 325/5/3 333/5/3
f 335/8/3 327/8/3 326/8/3
f 336/8/3 327/8/3 335/8/3
f 337/4/3 329/4/3 328/4/3
f 338/4/3 329/4/3 337/4/3
f 339/6/3 330/6/3 329/6/3
f 339/4/3 329/4/3 338/4/3
f 340/6/3 330/6/3 339/6/3
f 341/6/3 332/6/3 331/6/3
f 342/5/3 333/5/3 332/5/3
f 342/6/3 332/6/3 341/6/3
f 343/5/3 333/5/3 342/5/3
f 344/7/3 335/7/3 334/7/3
f 345/7/3 335/7/3 344/7/3
f 347/4/3 340/4/3 339/4/3
f 348/4/3 340/4/3 347/4/3
f 349/5/3 346/5/3 345/5/3
f 354/5/3 349/5/3 345/5/3
f 355/5/3 349/5/3 354/5/3
f 358/6/3 351/6/3 350/6/3
f 359/5/3 352/5/3 351/5/3
f 359/6/3 351/6/3 358/6/3
f 360/5/3 352/5/3 359/5/3
f 361/7/3 354/7/3 353/7/3
f 362/7/3 354/7/3 361/7/3
f 366/4/3 357/4/3 356/4/3
f 367/4/3 357/4/3 366/4/3
f 368/5/3 361/5/3 360/5/3
f 369/5/3 361/5/3 368/5/3
f 370/8/3 363/8/3 362/8/3
f 371/8/3 363/8/3 370/8/3
f 372/4/3 365/4/3 364/4/3
f 372/4/3 366/4/3 365/4/3
f 373/4/3 366/4/3 372/4/3
f 374/6/3 370/6/3 369/6/3
f 375/6/3 370/6/3 374/6/3
f 378/4/3 377/4/3 376/4/3
f 379/4/3 377/4/3 378/4/3
f 382/4/3 381/4/3 380/4/3
f 383/4/3 381/4/3 382/4/3
f 386/6/3 385/6/3 384/6/3
f 387/6/3 385/6/3 386/6/3
f 389/8/3 388/8/3 387/8/3
f 390/8/3 389/8/3 387/8/3
f 392/8/3 390/8/3 387/8/3
f 393/8/3 390/8/3 392/8/3
f 394/6/3 392/6/3 391/6/3
f 395/6/3 392/6/3 394/6/3
f 398/8/3 397/8/3 396/8/3
f 399/8/3 397/8/3 398/8/3
f 400/8/4 401/8/4 402/8/4
f 402/8/4 401/8/4 403/8/4
f 404/6/4 405/6/4 406/6/4
f 406/6/4 405/6/4 407/6/4
f 407/8/4 408/8/4 409/8/4
f 407/8/4 409/8/4 410/8/4
f 407/8/4 410/8/4 412/8/4
f 412/8/4 410/8/4 413/8/4
f 411/6/4 412/6/4 414/6/4
f 414/6/4 412/6/4 415/6/4
f 416/6/4 417/6/4 419/6/4
f 419/6/4 417/6/4 420/6/4
f 418/5/4 419/5/4 426/5/4
f 426/5/4 419/5/4 427/5/4
f 420/8/4 421/8/4 428/8/4
f 428/8/4 421/8/4 429/8/4
f 422/6/4 423/6/4 430/6/4
f 430/6/4 423/6/4 431/6/4
f 424/6/4 425/6/4 432/6/4
f 425/5/4 426/5/4 433/5/4
f 432/6/4 425/6/4 433/6/4
f 433/5/4 426/5/4 434/5/4
f 427/7/4 428/7/4 435/7/4
f 435/7/4 428/7/4 436/7/4
f 437/6/4 438/6/4 442/6/4
f 438/5/4 439/5/4 443/5/4
f 442/6/4 438/6/4 443/6/4
f 443/5/4 439/5/4 444/5/4
f 440/7/4 441/7/4 445/7/4
f 445/7/4 441/7/4 446/7/4
f 444/5/4 445/5/4 448/5/4
f 448/5/4 445/5/4 449/5/4
f 446/8/4 447/8/4 450/8/4
f 450/8/4 447/8/4 451/8/4
f 449/6/4 450/6/4 452/6/4
f 452/6/4 450/6/4 453/6/4
f 454/8/4 455/8/4 456/8/4
f 456/8/4 455/8/4 457/8/4
f 457/8/4 458/8/4 461/8/4
f 461/8/4 458/8/4 462/8/4
f 459/4/4 460/4/4 464/4/4
f 464/4/4 460/4/4 465/4/4
f 462/6/4 463/6/4 467/6/4
f 467/6/4 463/6/4 468/6/4
f 465/4/4 466/4/4 469/4/4
f 469/4/4 466/4/4 470/4/4
f 471/8/4 472/8/4 473/8/4
f 473/8/4 472/8/4 474/8/4
f 473/6/4 474/6/4 478/6/4
f 478/6/4 474/6/4 479/6/4
f 475/4/4 476/4/4 481/4/4
f 481/4/4 476/4/4 482/4/4
f 477/8/4 478/8/4 484/8/4
f 484/8/4 478/8/4 485/8/4
f 480/4/4 481/4/4 486/4/4
f 486/4/4 481/4/4 487/4/4
f 483/8/4 484/8/4 488/8/4
f 488/8/4 484/8/4 489/8/4
f 490/6/4 491/6/4 492/6/4
f 492/6/4 491/6/4 493/6/4
f 493/8/4 494/8/4 497/8/4
f 495/4/4 496/4/4 498/4/4
f 498/4/4 496/4/4 499/4/4
f 493/8/4 497/8/4 501/8/4
f 497/4/4 498/4/4 501/4/4
f 501/4/4 498/4/4 502/4/4
f 502/4/4 498/4/4 503/4/4
f 503/4/4 498/4/4 504/4/4
f 499/4/4 500/4/4 505/4/4
f 505/4/4 500/4/4 506/4/4
f 493/8/4 501/8/4 508/8/4
f 508/8/4 501/8/4 509/8/4
f 504/4/4 505/4/4 510/4/4
f 510/4/4 505/4/4 511/4/4
f 507/6/4 508/6/4 512/6/4
f 512/6/4 508/6/4 513/6/4
f 516/4/4 517/4/4 518/4/4
f 518/4/4 517/4/4 519/4/4
f 514/8/4 515/8/4 520/8/4
f 520/8/4 515/8/4 521/8/4
f 525/8/5 523/8/5 522/8/5
f 526/8/5 523/8/5 525/8/5
f 529/6/5 525/6/5 524/6/5
f 530/6/5 525/6/5 529/6/5
f 531/6/5 527/6/5 526/6/5
f 532/6/5 527/6/5 531/6/5
f 538/6/5 535/6/5 534/6/5
f 539/6/5 535/6/5 538/6/5
f 540/6/5 537/6/5 536/6/5
f 541/6/5 537/6/5 540/6/5
f 542/8/5 529/8/5 528/8/5
f 543/8/5 529/8/5 542/8/5
f 546/8/5 533/8/5 532/8/5
f 547/8/5 533/8/5 546/8/5
f 548/6/5 544/6/5 543/6/5
f 549/6/5 544/6/5 548/6/5
f 550/6/5 546/6/5 545/6/5
f 551/6/5 546/6/5 550/6/5
f 552/8/5 550/8/5 549/8/5
f 553/8/5 550/8/5 552/8/5
f 557/8/5 555/8/5 554/8/5
f 558/8/5 555/8/5 557/8/5
f 560/8/5 557/8/5 556/8/5
f 561/8/5 559/8/5 558/8/5
f 562/8/5 560/8/5 556/8/5
f 563/8/5 559/8/5 561/8/5
f 564/8/5 562/8/5 556/8/5
f 565/8/5 562/8/5 564/8/5
f 566/8/5 559/8/5 563/8/5
f 567/8/5 559/8/5 566/8/5
f 568/8/5 566/8/5 565/8/5
f 569/8/5 566/8/5 568/8/5
f 574/6/5 571/6/5 570/6/5
f 575/8/5 572/8/5 571/8/5
f 575/6/5 571/6/5 574/6/5
f 576/6/5 573/6/5 572/6/5
f 576/8/5 572/8/5 575/8/5
f 577/6/5 573/6/5 576/6/5
f 579/8/5 576/8/5 575/8/5
f 580/8/5 576/8/5 579/8/5
f 582/6/5 579/6/5 578/6/5
f 583/8/5 580/8/5 579/8/5
f 583/6/5 579/6/5 582/6/5
f 584/6/5 581/6/5 580/6/5
f 584/8/5 580/8/5 583/8/5
f 585/6/5 581/6/5 584/6/5
f 590/6/5 587/6/5 586/6/5
f 591/6/5 587/6/5 590/6/5
f 592/6/5 589/6/5 588/6/5
f 593/6/5 589/6/5 592/6/5
f 596/4/5 595/4/5 594/4/5
f 597/4/5 595/4/5 596/4/5
f 603/6/5 599/6/5 598/6/5
f 604/6/5 599/6/5 603/6/5
f 605/6/5 601/6/5 600/6/5
f 606/6/5 601/6/5 605/6/5
f 608/8/5 603/8/5 602/8/5
f 609/8/5 603/8/5 608/8/5
f 612/8/5 607/8/5 606/8/5
f 613/8/5 607/8/5 612/8/5
f 614/6/5 610/6/5 609/6/5
f 615/6/5 610/6/5 614/6/5
f 616/6/5 612/6/5 611/6/5
f 617/6/5 612/6/5 616/6/5
f 618/4/5 615/4/5 614/4/5
f 619/4/5 615/4/5 618/4/5
f 620/4/5 617/4/5 616/4/5
f 621/4/5 617/4/5 620/4/5
f 622/4/5 620/4/5 619/4/5
f 623/4/5 620/4/5 622/4/5
f 627/2/5 625/2/5 624/2/5
f 628/5/5 626/5/5 625/5/5
f 628/2/5 625/2/5 627/2/5
f 629/5/5 626/5/5 628/5/5
f 634/4/5 631/4/5 630/4/5
f 635/4/5 631/4/5 634/4/5
f 636/4/5 633/4/5 632/4/5
f 637/4/5 633/4/5 636/4/5
f 642/4/5 639/4/5 638/4/5
f 643/4/5 639/4/5 642/4/5
f 644/4/5 641/4/5 640/4/5
f 645/4/5 641/4/5 644/4/5
f 646/8/6 647/8/6 649/8/6
f 649/8/6 647/8/6 650/8/6
f 648/6/6 649/6/6 653/6/6
f 653/6/6 649/6/6 654/6/6
f 650/6/6 651/6/6 655/6/6
f 655/6/6 651/6/6 656/6/6
f 652/8/6 653/8/6 658/8/6
f 658/8/6 653/8/6 659/8/6
f 656/8/6 657/8/6 662/8/6
f 662/8/6 657/8/6 663/8/6
f 659/6/6 660/6/6 664/6/6
f 664/6/6 660/6/6 665/6/6
f 661/6/6 662/6/6 666/6/6
f 666/6/6 662/6/6 667/6/6
f 665/8/6 666/8/6 668/8/6
f 668/8/6 666/8/6 669/8/6
f 670/8/6 671/8/6 673/8/6
f 673/8/6 671/8/6 674/8/6
f 674/8/6 671/8/6 675/8/6
f 675/8/6 671/8/6 676/8/6
f 672/8/6 673/8/6 678/8/6
f 678/8/6 673/8/6 679/8/6
f 676/8/6 677/8/6 680/8/6
f 680/8/6 677/8/6 681/8/6
f 682/8/6 683/8/6 686/8/6
f 686/8/6 683/8/6 687/8/6
f 684/8/6 685/8/6 691/8/6
f 691/8/6 685/8/6 692/8/6
f 687/8/6 688/8/6 693/8/6
f 693/8/6 688/8/6 694/8/6
f 689/8/6 690/8/6 695/8/6
f 690/8/6 691/8/6 695/8/6
f 695/8/6 691/8/6 696/8/6
f 697/6/6 698/6/6 702/6/6
f 702/6/6 698/6/6 703/6/6
f 699/6/6 700/6/6 704/6/6
f 704/6/6 700/6/6 705/6/6
f 701/5/6 702/5/6 707/5/6
f 707/5/6 702/5/6 708/5/6
f 705/5/6 706/5/6 711/5/6
f 711/5/6 706/5/6 712/5/6
f 708/6/6 709/6/6 713/6/6
f 713/6/6 709/6/6 714/6/6
f 710/6/6 711/6/6 715/6/6
f 715/6/6 711/6/6 716/6/6
f 717/7/6 718/7/6 721/7/6
f 721/7/6 718/7/6 722/7/6
f 719/6/6 720/6/6 725/6/6
f 725/6/6 720/6/6 726/6/6
f 723/6/6 724/6/6 727/6/6
f 727/6/6 724/6/6 728/6/6
f 729/8/6 730/8/6 733/8/6
f 733/8/6 730/8/6 734/8/6
f 731/8/6 732/8/6 735/8/6
f 735/8/6 732/8/6 736/8/6
f 737/4/6 738/4/6 741/4/6
f 741/4/6 738/4/6 742/4/6
f 739/4/6 740/4/6 743/4/6
f 743/4/6 740/4/6 744/4/6
f 746/4/6 747/4/6 748/4/6
f 748/4/6 747/4/6 749/4/6
f 744/4/6 745/4/6 752/4/6
f 752/4/6 745/4/6 753/4/6
f 749/4/6 750/4/6 754/4/6
f 754/4/6 750/4/6 755/4/6
f 751/4/6 752/4/6 756/4/6
f 756/4/6 752/4/6 757/4/6
f 755/4/6 756/4/6 758/4/6
f 758/4/6 756/4/6 759/4/6
f 760/4/6 761/4/6 764/4/6
f 764/4/6 761/4/6 765/4/6
f 762/6/6 763/6/6 767/6/6
f 765/4/6 766/4/6 768/4/6
f 767/6/6 763/6/6 768/6/6
f 763/4/6 764/4/6 768/4/6
f 764/4/6 765/4/6 768/4/6
f 768/4/6 766/4/6 769/4/6
f 769/4/6 766/4/6 770/4/6
f 770/4/6 766/4/6 771/4/6
f 771/4/6 766/4/6 772/4/6
f 770/4/6 771/4/6 773/4/6
f 773/4/6 771/4/6 774/4/6
