# MagicaVoxel @ Ephtracy

# group
o 

# material
mtllib tree_stump_big_1.mtl
usemtl palette

# normals
vn -1 0 0
vn 1 0 0
vn 0 0 1
vn 0 0 -1
vn 0 -1 0
vn 0 1 0

# texcoords
vt 0.00585938 0.5
vt 0.0839844 0.5

# verts
v -0.6 0 0.3
v -0.6 0 0.2
v -0.6 0.1 0.3
v -0.6 0.1 0.2
v -0.5 0 0.2
v -0.5 0 0.0999999
v -0.5 0 -0.2
v -0.5 0 -0.4
v -0.5 0.1 0.2
v -0.5 0.1 0.0999999
v -0.5 0.1 -0.2
v -0.5 0.1 -0.4
v -0.4 0 0.0999999
v -0.4 0 -0.1
v -0.4 0.1 0.0999999
v -0.4 0.1 -0.1
v -0.3 0 0.3
v -0.3 0 0.2
v -0.3 0 -0.1
v -0.3 0 -0.2
v -0.3 0.1 0.3
v -0.3 0.1 0.2
v -0.3 0.1 0.0999999
v -0.3 0.1 -0.1
v -0.3 0.1 -0.2
v -0.3 0.2 0.0999999
v -0.3 0.2 -0.1
v -0.2 0 -0.2
v -0.2 0 -0.3
v -0.2 0.1 0.2
v -0.2 0.1 0.0999999
v -0.2 0.1 -0.1
v -0.2 0.1 -0.2
v -0.2 0.1 -0.3
v -0.2 0.2 0.2
v -0.2 0.2 0.0999999
v -0.2 0.2 -5.96046e-008
v -0.2 0.2 -0.1
v -0.2 0.2 -0.2
v -0.2 0.5 0.0999999
v -0.2 0.5 -5.96046e-008
v -0.2 0.5 -0.1
v -0.0999999 0 0.4
v -0.0999999 0 0.3
v -0.0999999 0 -0.3
v -0.0999999 0 -0.5
v -0.0999999 0.1 0.4
v -0.0999999 0.1 0.3
v -0.0999999 0.1 0.2
v -0.0999999 0.1 -0.2
v -0.0999999 0.1 -0.3
v -0.0999999 0.1 -0.5
v -0.0999999 0.2 0.3
v -0.0999999 0.2 0.2
v -0.0999999 0.2 0.0999999
v -0.0999999 0.2 -0.1
v -0.0999999 0.2 -0.2
v -0.0999999 0.2 -0.3
v -0.0999999 0.5 0.2
v -0.0999999 0.5 0.0999999
v -0.0999999 0.5 -0.1
v -0.0999999 0.5 -0.2
v 5.96046e-008 0 0.6
v 5.96046e-008 0 0.4
v 5.96046e-008 0 -0.5
v 5.96046e-008 0 -0.6
v 5.96046e-008 0.1 0.6
v 5.96046e-008 0.1 0.4
v 5.96046e-008 0.1 -0.5
v 5.96046e-008 0.1 -0.6
v 0.2 0 -0.3
v 0.2 0 -0.5
v 0.2 0.1 -0.3
v 0.2 0.1 -0.5
v 0.4 0 -0.2
v 0.4 0 -0.3
v 0.4 0.1 -0.2
v 0.4 0.1 -0.3
v -0.5 0 0.3
v -0.5 0 0.2
v -0.5 0.1 0.3
v -0.5 0.1 0.2
v -0.4 0 -0.3
v -0.4 0 -0.4
v -0.4 0.1 -0.3
v -0.4 0.1 -0.4
v -0.3 0 -0.2
v -0.3 0 -0.3
v -0.3 0.1 -0.2
v -0.3 0.1 -0.3
v 0.1 0 0.6
v 0.1 0 0.4
v 0.1 0 -0.3
v 0.1 0 -0.6
v 0.1 0.1 0.6
v 0.1 0.1 0.4
v 0.1 0.1 0.3
v 0.1 0.1 0.2
v 0.1 0.1 -0.2
v 0.1 0.1 -0.3
v 0.1 0.1 -0.6
v 0.1 0.2 0.3
v 0.1 0.2 0.2
v 0.1 0.2 0.0999999
v 0.1 0.2 -0.1
v 0.1 0.2 -0.2
v 0.1 0.2 -0.3
v 0.1 0.4 0.2
v 0.1 0.4 0.0999999
v 0.1 0.5 0.2
v 0.1 0.5 0.0999999
v 0.1 0.5 -0.1
v 0.1 0.5 -0.2
v 0.2 0 0.4
v 0.2 0 0.3
v 0.2 0 -0.2
v 0.2 0 -0.3
v 0.2 0.1 0.4
v 0.2 0.1 0.3
v 0.2 0.1 0.2
v 0.2 0.1 0.0999999
v 0.2 0.1 -0.1
v 0.2 0.1 -0.2
v 0.2 0.1 -0.3
v 0.2 0.2 0.2
v 0.2 0.2 0.0999999
v 0.2 0.2 -0.1
v 0.2 0.2 -0.2
v 0.2 0.4 0.0999999
v 0.2 0.4 -5.96046e-008
v 0.2 0.5 0.0999999
v 0.2 0.5 -5.96046e-008
v 0.2 0.5 -0.1
v 0.3 0 0.3
v 0.3 0 0.0999999
v 0.3 0 -0.3
v 0.3 0 -0.5
v 0.3 0.1 0.3
v 0.3 0.1 0.0999999
v 0.3 0.1 -5.96046e-008
v 0.3 0.1 -0.1
v 0.3 0.1 -0.3
v 0.3 0.1 -0.5
v 0.3 0.2 0.0999999
v 0.3 0.2 -0.1
v 0.4 0 0.0999999
v 0.4 0 -5.96046e-008
v 0.4 0 -0.1
v 0.4 0 -0.2
v 0.4 0.1 0.0999999
v 0.4 0.1 -5.96046e-008
v 0.4 0.1 -0.1
v 0.4 0.1 -0.2
v 0.5 0 -0.2
v 0.5 0 -0.3
v 0.5 0.1 -0.2
v 0.5 0.1 -0.3
v 0.6 0 -5.96046e-008
v 0.6 0 -0.1
v 0.6 0.1 -5.96046e-008
v 0.6 0.1 -0.1
v 5.96046e-008 0 0.6
v 5.96046e-008 0.1 0.6
v 0.1 0 0.6
v 0.1 0.1 0.6
v -0.0999999 0 0.4
v -0.0999999 0.1 0.4
v 5.96046e-008 0 0.4
v 5.96046e-008 0.1 0.4
v 0.1 0 0.4
v 0.1 0.1 0.4
v 0.2 0 0.4
v 0.2 0.1 0.4
v -0.6 0 0.3
v -0.6 0.1 0.3
v -0.5 0 0.3
v -0.5 0.1 0.3
v -0.3 0 0.3
v -0.3 0.1 0.3
v -0.0999999 0 0.3
v -0.0999999 0.1 0.3
v -0.0999999 0.2 0.3
v 5.96046e-008 0.1 0.3
v 0.1 0.1 0.3
v 0.1 0.2 0.3
v 0.2 0 0.3
v 0.2 0.1 0.3
v 0.3 0 0.3
v 0.3 0.1 0.3
v -0.5 0 0.2
v -0.5 0.1 0.2
v -0.3 0 0.2
v -0.3 0.1 0.2
v -0.2 0.1 0.2
v -0.2 0.2 0.2
v -0.0999999 0.1 0.2
v -0.0999999 0.2 0.2
v -0.0999999 0.5 0.2
v 5.96046e-008 0.4 0.2
v 5.96046e-008 0.5 0.2
v 0.1 0.1 0.2
v 0.1 0.2 0.2
v 0.1 0.4 0.2
v 0.1 0.5 0.2
v 0.2 0.1 0.2
v 0.2 0.2 0.2
v -0.3 0.1 0.0999999
v -0.3 0.2 0.0999999
v -0.2 0.1 0.0999999
v -0.2 0.2 0.0999999
v -0.2 0.5 0.0999999
v -0.0999999 0.2 0.0999999
v -0.0999999 0.5 0.0999999
v 0.1 0.2 0.0999999
v 0.1 0.4 0.0999999
v 0.1 0.5 0.0999999
v 0.2 0.1 0.0999999
v 0.2 0.2 0.0999999
v 0.2 0.4 0.0999999
v 0.2 0.5 0.0999999
v 0.3 0 0.0999999
v 0.3 0.1 0.0999999
v 0.3 0.2 0.0999999
v 0.4 0 0.0999999
v 0.4 0.1 0.0999999
v 0.4 0 -5.96046e-008
v 0.4 0.1 -5.96046e-008
v 0.6 0 -5.96046e-008
v 0.6 0.1 -5.96046e-008
v -0.5 0 -0.2
v -0.5 0.1 -0.2
v -0.3 0 -0.2
v -0.3 0.1 -0.2
v 0.4 0 -0.2
v 0.4 0.1 -0.2
v 0.5 0 -0.2
v 0.5 0.1 -0.2
v 0.2 0 -0.3
v 0.2 0.1 -0.3
v 0.3 0 -0.3
v 0.3 0.1 -0.3
v -0.6 0 0.2
v -0.6 0.1 0.2
v -0.5 0 0.2
v -0.5 0.1 0.2
v -0.5 0 0.0999999
v -0.5 0.1 0.0999999
v -0.4 0 0.0999999
v -0.4 0.1 0.0999999
v -0.4 0 -0.1
v -0.4 0.1 -0.1
v -0.3 0 -0.1
v -0.3 0.1 -0.1
v -0.3 0.2 -0.1
v -0.2 0.1 -0.1
v -0.2 0.2 -0.1
v -0.2 0.5 -0.1
v -0.0999999 0.2 -0.1
v -0.0999999 0.5 -0.1
v 0.1 0.2 -0.1
v 0.1 0.5 -0.1
v 0.2 0.1 -0.1
v 0.2 0.2 -0.1
v 0.2 0.5 -0.1
v 0.3 0.1 -0.1
v 0.3 0.2 -0.1
v 0.4 0 -0.1
v 0.4 0.1 -0.1
v 0.6 0 -0.1
v 0.6 0.1 -0.1
v -0.3 0 -0.2
v -0.3 0.1 -0.2
v -0.2 0 -0.2
v -0.2 0.1 -0.2
v -0.2 0.2 -0.2
v -0.0999999 0.1 -0.2
v -0.0999999 0.2 -0.2
v -0.0999999 0.5 -0.2
v 5.96046e-008 0.2 -0.2
v 5.96046e-008 0.5 -0.2
v 0.1 0.1 -0.2
v 0.1 0.2 -0.2
v 0.1 0.5 -0.2
v 0.2 0 -0.2
v 0.2 0.1 -0.2
v 0.2 0.2 -0.2
v 0.4 0 -0.2
v 0.4 0.1 -0.2
v -0.4 0 -0.3
v -0.4 0.1 -0.3
v -0.3 0 -0.3
v -0.3 0.1 -0.3
v -0.2 0 -0.3
v -0.2 0.1 -0.3
v -0.0999999 0 -0.3
v -0.0999999 0.1 -0.3
v -0.0999999 0.2 -0.3
v 5.96046e-008 0.1 -0.3
v 0.1 0 -0.3
v 0.1 0.1 -0.3
v 0.1 0.2 -0.3
v 0.2 0 -0.3
v 0.2 0.1 -0.3
v 0.4 0 -0.3
v 0.4 0.1 -0.3
v 0.5 0 -0.3
v 0.5 0.1 -0.3
v -0.5 0 -0.4
v -0.5 0.1 -0.4
v -0.4 0 -0.4
v -0.4 0.1 -0.4
v -0.0999999 0 -0.5
v -0.0999999 0.1 -0.5
v 5.96046e-008 0 -0.5
v 5.96046e-008 0.1 -0.5
v 0.2 0 -0.5
v 0.2 0.1 -0.5
v 0.3 0 -0.5
v 0.3 0.1 -0.5
v 5.96046e-008 0 -0.6
v 5.96046e-008 0.1 -0.6
v 0.1 0 -0.6
v 0.1 0.1 -0.6
v 5.96046e-008 0 0.6
v 0.1 0 0.6
v -0.0999999 0 0.4
v 5.96046e-008 0 0.4
v 0.1 0 0.4
v 0.2 0 0.4
v -0.6 0 0.3
v -0.5 0 0.3
v -0.3 0 0.3
v -0.0999999 0 0.3
v 5.96046e-008 0 0.3
v 0.1 0 0.3
v 0.2 0 0.3
v 0.3 0 0.3
v -0.6 0 0.2
v -0.5 0 0.2
v -0.3 0 0.2
v 0.1 0 0.2
v 0.2 0 0.2
v -0.5 0 0.0999999
v -0.4 0 0.0999999
v -0.3 0 0.0999999
v 0.3 0 0.0999999
v 0.4 0 0.0999999
v 0.3 0 -5.96046e-008
v 0.4 0 -5.96046e-008
v 0.6 0 -5.96046e-008
v -0.4 0 -0.1
v -0.3 0 -0.1
v 0.3 0 -0.1
v 0.4 0 -0.1
v 0.6 0 -0.1
v -0.5 0 -0.2
v -0.3 0 -0.2
v -0.2 0 -0.2
v 0.1 0 -0.2
v 0.2 0 -0.2
v 0.4 0 -0.2
v 0.5 0 -0.2
v -0.4 0 -0.3
v -0.3 0 -0.3
v -0.2 0 -0.3
v -0.0999999 0 -0.3
v 5.96046e-008 0 -0.3
v 0.1 0 -0.3
v 0.2 0 -0.3
v 0.3 0 -0.3
v 0.4 0 -0.3
v 0.5 0 -0.3
v -0.5 0 -0.4
v -0.4 0 -0.4
v -0.0999999 0 -0.5
v 5.96046e-008 0 -0.5
v 0.2 0 -0.5
v 0.3 0 -0.5
v 5.96046e-008 0 -0.6
v 0.1 0 -0.6
v 5.96046e-008 0.1 0.6
v 0.1 0.1 0.6
v -0.0999999 0.1 0.4
v 5.96046e-008 0.1 0.4
v 0.1 0.1 0.4
v 0.2 0.1 0.4
v -0.6 0.1 0.3
v -0.5 0.1 0.3
v -0.3 0.1 0.3
v -0.0999999 0.1 0.3
v 5.96046e-008 0.1 0.3
v 0.1 0.1 0.3
v 0.2 0.1 0.3
v 0.3 0.1 0.3
v -0.6 0.1 0.2
v -0.5 0.1 0.2
v -0.3 0.1 0.2
v -0.2 0.1 0.2
v -0.0999999 0.1 0.2
v 0.1 0.1 0.2
v 0.2 0.1 0.2
v -0.5 0.1 0.0999999
v -0.4 0.1 0.0999999
v -0.3 0.1 0.0999999
v -0.2 0.1 0.0999999
v 0.2 0.1 0.0999999
v 0.3 0.1 0.0999999
v 0.4 0.1 0.0999999
v 0.3 0.1 -5.96046e-008
v 0.4 0.1 -5.96046e-008
v 0.6 0.1 -5.96046e-008
v -0.4 0.1 -0.1
v -0.3 0.1 -0.1
v -0.2 0.1 -0.1
v 0.2 0.1 -0.1
v 0.3 0.1 -0.1
v 0.4 0.1 -0.1
v 0.6 0.1 -0.1
v -0.5 0.1 -0.2
v -0.3 0.1 -0.2
v -0.2 0.1 -0.2
v -0.0999999 0.1 -0.2
v 0.1 0.1 -0.2
v 0.2 0.1 -0.2
v 0.4 0.1 -0.2
v 0.5 0.1 -0.2
v -0.4 0.1 -0.3
v -0.3 0.1 -0.3
v -0.2 0.1 -0.3
v -0.0999999 0.1 -0.3
v 5.96046e-008 0.1 -0.3
v 0.1 0.1 -0.3
v 0.2 0.1 -0.3
v 0.3 0.1 -0.3
v 0.4 0.1 -0.3
v 0.5 0.1 -0.3
v -0.5 0.1 -0.4
v -0.4 0.1 -0.4
v -0.0999999 0.1 -0.5
v 5.96046e-008 0.1 -0.5
v 0.2 0.1 -0.5
v 0.3 0.1 -0.5
v 5.96046e-008 0.1 -0.6
v 0.1 0.1 -0.6
v -0.0999999 0.2 0.3
v 0.1 0.2 0.3
v -0.2 0.2 0.2
v -0.0999999 0.2 0.2
v 0.1 0.2 0.2
v 0.2 0.2 0.2
v -0.3 0.2 0.0999999
v -0.2 0.2 0.0999999
v -0.0999999 0.2 0.0999999
v 0.1 0.2 0.0999999
v 0.2 0.2 0.0999999
v 0.3 0.2 0.0999999
v -0.2 0.2 -5.96046e-008
v -0.3 0.2 -0.1
v -0.2 0.2 -0.1
v -0.0999999 0.2 -0.1
v 0.1 0.2 -0.1
v 0.2 0.2 -0.1
v 0.3 0.2 -0.1
v -0.2 0.2 -0.2
v -0.0999999 0.2 -0.2
v 5.96046e-008 0.2 -0.2
v 0.1 0.2 -0.2
v 0.2 0.2 -0.2
v -0.0999999 0.2 -0.3
v 0.1 0.2 -0.3
v -0.0999999 0.5 0.2
v 5.96046e-008 0.5 0.2
v 0.1 0.5 0.2
v -0.2 0.5 0.0999999
v -0.0999999 0.5 0.0999999
v 5.96046e-008 0.5 0.0999999
v 0.1 0.5 0.0999999
v 0.2 0.5 0.0999999
v -0.2 0.5 -5.96046e-008
v -0.0999999 0.5 -5.96046e-008
v 0.1 0.5 -5.96046e-008
v 0.2 0.5 -5.96046e-008
v -0.2 0.5 -0.1
v -0.0999999 0.5 -0.1
v 5.96046e-008 0.5 -0.1
v 0.1 0.5 -0.1
v 0.2 0.5 -0.1
v -0.0999999 0.5 -0.2
v 5.96046e-008 0.5 -0.2
v 0.1 0.5 -0.2

# faces
f 3/2/1 2/2/1 1/2/1
f 4/2/1 2/2/1 3/2/1
f 9/2/1 6/2/1 5/2/1
f 10/2/1 6/2/1 9/2/1
f 11/1/1 8/1/1 7/1/1
f 12/1/1 8/1/1 11/1/1
f 15/1/1 14/1/1 13/1/1
f 16/1/1 14/1/1 15/1/1
f 21/1/1 18/1/1 17/1/1
f 22/1/1 18/1/1 21/1/1
f 24/1/1 20/1/1 19/1/1
f 25/1/1 20/1/1 24/1/1
f 26/1/1 24/1/1 23/1/1
f 27/1/1 24/1/1 26/1/1
f 33/1/1 29/1/1 28/1/1
f 34/1/1 29/1/1 33/1/1
f 35/2/1 31/2/1 30/2/1
f 36/2/1 31/2/1 35/2/1
f 38/1/1 33/1/1 32/1/1
f 39/1/1 33/1/1 38/1/1
f 40/2/1 37/2/1 36/2/1
f 41/1/1 38/1/1 37/1/1
f 41/2/1 37/2/1 40/2/1
f 42/1/1 38/1/1 41/1/1
f 47/1/1 44/1/1 43/1/1
f 48/1/1 44/1/1 47/1/1
f 51/2/1 46/2/1 45/2/1
f 52/2/1 46/2/1 51/2/1
f 53/1/1 49/1/1 48/1/1
f 54/1/1 49/1/1 53/1/1
f 57/1/1 51/1/1 50/1/1
f 58/1/1 51/1/1 57/1/1
f 59/1/1 55/1/1 54/1/1
f 60/1/1 55/1/1 59/1/1
f 61/2/1 57/2/1 56/2/1
f 62/2/1 57/2/1 61/2/1
f 67/2/1 64/2/1 63/2/1
f 68/2/1 64/2/1 67/2/1
f 69/1/1 66/1/1 65/1/1
f 70/1/1 66/1/1 69/1/1
f 73/2/1 72/2/1 71/2/1
f 74/2/1 72/2/1 73/2/1
f 77/1/1 76/1/1 75/1/1
f 78/1/1 76/1/1 77/1/1
f 79/2/2 80/2/2 81/2/2
f 81/2/2 80/2/2 82/2/2
f 83/1/2 84/1/2 85/1/2
f 85/1/2 84/1/2 86/1/2
f 87/1/2 88/1/2 89/1/2
f 89/1/2 88/1/2 90/1/2
f 91/2/2 92/2/2 95/2/2
f 95/2/2 92/2/2 96/2/2
f 93/1/2 94/1/2 100/1/2
f 100/1/2 94/1/2 101/1/2
f 97/1/2 98/1/2 102/1/2
f 102/1/2 98/1/2 103/1/2
f 99/1/2 100/1/2 106/1/2
f 106/1/2 100/1/2 107/1/2
f 103/1/2 104/1/2 108/1/2
f 108/1/2 104/1/2 109/1/2
f 108/2/2 109/2/2 110/2/2
f 110/2/2 109/2/2 111/2/2
f 105/1/2 106/1/2 112/1/2
f 112/1/2 106/1/2 113/1/2
f 114/1/2 115/1/2 118/1/2
f 118/1/2 115/1/2 119/1/2
f 116/2/2 117/2/2 123/2/2
f 123/2/2 117/2/2 124/2/2
f 120/2/2 121/2/2 125/2/2
f 125/2/2 121/2/2 126/2/2
f 122/1/2 123/1/2 127/1/2
f 127/1/2 123/1/2 128/1/2
f 126/1/2 127/1/2 129/1/2
f 129/1/2 127/1/2 130/1/2
f 129/2/2 130/2/2 131/2/2
f 130/1/2 127/1/2 132/1/2
f 131/2/2 130/2/2 132/2/2
f 132/1/2 127/1/2 133/1/2
f 134/1/2 135/1/2 138/1/2
f 138/1/2 135/1/2 139/1/2
f 136/2/2 137/2/2 142/2/2
f 142/2/2 137/2/2 143/2/2
f 140/1/2 141/1/2 144/1/2
f 139/1/2 140/1/2 144/1/2
f 144/1/2 141/1/2 145/1/2
f 146/1/2 147/1/2 150/1/2
f 150/1/2 147/1/2 151/1/2
f 148/1/2 149/1/2 152/1/2
f 152/1/2 149/1/2 153/1/2
f 154/1/2 155/1/2 156/1/2
f 156/1/2 155/1/2 157/1/2
f 158/2/2 159/2/2 160/2/2
f 160/2/2 159/2/2 161/2/2
f 164/2/3 163/2/3 162/2/3
f 165/2/3 163/2/3 164/2/3
f 168/1/3 167/1/3 166/1/3
f 169/1/3 167/1/3 168/1/3
f 172/1/3 171/1/3 170/1/3
f 173/1/3 171/1/3 172/1/3
f 176/2/3 175/2/3 174/2/3
f 177/2/3 175/2/3 176/2/3
f 180/1/3 179/1/3 178/1/3
f 181/1/3 179/1/3 180/1/3
f 183/1/3 182/1/3 181/1/3
f 184/1/3 182/1/3 183/1/3
f 185/1/3 182/1/3 184/1/3
f 188/1/3 187/1/3 186/1/3
f 189/1/3 187/1/3 188/1/3
f 192/2/3 191/2/3 190/2/3
f 193/2/3 191/2/3 192/2/3
f 196/2/3 195/2/3 194/2/3
f 197/2/3 195/2/3 196/2/3
f 199/1/3 198/1/3 197/1/3
f 200/1/3 198/1/3 199/1/3
f 202/1/3 199/1/3 197/1/3
f 203/2/3 200/2/3 199/2/3
f 203/1/3 199/1/3 202/1/3
f 204/2/3 200/2/3 203/2/3
f 205/2/3 202/2/3 201/2/3
f 206/2/3 202/2/3 205/2/3
f 209/1/3 208/1/3 207/1/3
f 210/1/3 208/1/3 209/1/3
f 212/2/3 211/2/3 210/2/3
f 213/2/3 211/2/3 212/2/3
f 218/1/3 215/1/3 214/1/3
f 219/2/3 216/2/3 215/2/3
f 219/1/3 215/1/3 218/1/3
f 220/2/3 216/2/3 219/2/3
f 222/1/3 218/1/3 217/1/3
f 223/1/3 218/1/3 222/1/3
f 224/1/3 222/1/3 221/1/3
f 225/1/3 222/1/3 224/1/3
f 228/2/3 227/2/3 226/2/3
f 229/2/3 227/2/3 228/2/3
f 232/1/3 231/1/3 230/1/3
f 233/1/3 231/1/3 232/1/3
f 236/1/3 235/1/3 234/1/3
f 237/1/3 235/1/3 236/1/3
f 240/2/3 239/2/3 238/2/3
f 241/2/3 239/2/3 240/2/3
f 242/2/4 243/2/4 244/2/4
f 244/2/4 243/2/4 245/2/4
f 246/2/4 247/2/4 248/2/4
f 248/2/4 247/2/4 249/2/4
f 250/1/4 251/1/4 252/1/4
f 252/1/4 251/1/4 253/1/4
f 253/1/4 254/1/4 255/1/4
f 255/1/4 254/1/4 256/1/4
f 256/1/4 257/1/4 258/1/4
f 258/1/4 257/1/4 259/1/4
f 260/1/4 261/1/4 263/1/4
f 263/1/4 261/1/4 264/1/4
f 262/1/4 263/1/4 265/1/4
f 265/1/4 263/1/4 266/1/4
f 267/2/4 268/2/4 269/2/4
f 269/2/4 268/2/4 270/2/4
f 271/1/4 272/1/4 273/1/4
f 273/1/4 272/1/4 274/1/4
f 274/1/4 275/1/4 276/1/4
f 276/1/4 275/1/4 277/1/4
f 277/2/4 278/2/4 279/2/4
f 279/2/4 278/2/4 280/2/4
f 279/1/4 280/1/4 282/1/4
f 282/1/4 280/1/4 283/1/4
f 281/1/4 282/1/4 285/1/4
f 285/1/4 282/1/4 286/1/4
f 284/1/4 285/1/4 287/1/4
f 287/1/4 285/1/4 288/1/4
f 289/1/4 290/1/4 291/1/4
f 291/1/4 290/1/4 292/1/4
f 293/1/4 294/1/4 295/1/4
f 295/1/4 294/1/4 296/1/4
f 296/1/4 297/1/4 298/1/4
f 298/1/4 297/1/4 300/1/4
f 300/1/4 297/1/4 301/1/4
f 299/2/4 300/2/4 302/2/4
f 302/2/4 300/2/4 303/2/4
f 304/1/4 305/1/4 306/1/4
f 306/1/4 305/1/4 307/1/4
f 308/1/4 309/1/4 310/1/4
f 310/1/4 309/1/4 311/1/4
f 312/2/4 313/2/4 314/2/4
f 314/2/4 313/2/4 315/2/4
f 316/2/4 317/2/4 318/2/4
f 318/2/4 317/2/4 319/2/4
f 320/1/4 321/1/4 322/1/4
f 322/1/4 321/1/4 323/1/4
f 327/2/5 325/2/5 324/2/5
f 328/2/5 325/2/5 327/2/5
f 333/1/5 327/1/5 326/1/5
f 334/2/5 328/2/5 327/2/5
f 334/1/5 327/1/5 333/1/5
f 335/1/5 329/1/5 328/1/5
f 335/2/5 328/2/5 334/2/5
f 336/1/5 329/1/5 335/1/5
f 338/2/5 331/2/5 330/2/5
f 339/2/5 331/2/5 338/2/5
f 340/1/5 333/1/5 332/1/5
f 340/1/5 334/1/5 333/1/5
f 340/1/5 335/1/5 334/1/5
f 341/2/5 336/2/5 335/2/5
f 341/1/5 335/1/5 340/1/5
f 342/1/5 337/1/5 336/1/5
f 342/2/5 336/2/5 341/2/5
f 343/2/5 340/2/5 339/2/5
f 344/2/5 340/2/5 343/2/5
f 345/1/5 341/1/5 340/1/5
f 345/2/5 340/2/5 344/2/5
f 345/1/5 342/1/5 341/1/5
f 346/1/5 337/1/5 342/1/5
f 346/1/5 342/1/5 345/1/5
f 348/1/5 347/1/5 346/1/5
f 348/1/5 346/1/5 345/1/5
f 348/1/5 345/1/5 344/1/5
f 349/1/5 347/1/5 348/1/5
f 351/1/5 348/1/5 344/1/5
f 352/1/5 348/1/5 351/1/5
f 353/2/5 350/2/5 349/2/5
f 353/1/5 348/1/5 352/1/5
f 353/2/5 349/2/5 348/2/5
f 354/2/5 350/2/5 353/2/5
f 355/2/5 350/2/5 354/2/5
f 357/1/5 353/1/5 352/1/5
f 357/1/5 354/1/5 353/1/5
f 358/1/5 354/1/5 357/1/5
f 359/1/5 354/1/5 358/1/5
f 360/1/5 354/1/5 359/1/5
f 361/1/5 354/1/5 360/1/5
f 363/1/5 357/1/5 356/1/5
f 364/1/5 357/1/5 363/1/5
f 365/1/5 359/1/5 358/1/5
f 366/1/5 359/1/5 365/1/5
f 367/1/5 359/1/5 366/1/5
f 368/2/5 360/2/5 359/2/5
f 368/1/5 359/1/5 367/1/5
f 369/2/5 360/2/5 368/2/5
f 371/1/5 362/1/5 361/1/5
f 372/1/5 362/1/5 371/1/5
f 373/1/5 363/1/5 356/1/5
f 374/1/5 363/1/5 373/1/5
f 375/2/5 367/2/5 366/2/5
f 376/1/5 368/1/5 367/1/5
f 376/2/5 367/2/5 375/2/5
f 377/2/5 370/2/5 369/2/5
f 378/2/5 370/2/5 377/2/5
f 379/1/5 368/1/5 376/1/5
f 380/1/5 368/1/5 379/1/5
f 381/2/6 382/2/6 384/2/6
f 384/2/6 382/2/6 385/2/6
f 383/1/6 384/1/6 390/1/6
f 384/2/6 385/2/6 391/2/6
f 390/1/6 384/1/6 391/1/6
f 385/1/6 386/1/6 392/1/6
f 391/2/6 385/2/6 392/2/6
f 392/1/6 386/1/6 393/1/6
f 387/2/6 388/2/6 395/2/6
f 395/2/6 388/2/6 396/2/6
f 389/1/6 390/1/6 397/1/6
f 397/1/6 390/1/6 398/1/6
f 398/1/6 390/1/6 399/1/6
f 392/2/6 393/2/6 400/2/6
f 393/1/6 394/1/6 401/1/6
f 400/2/6 393/2/6 401/2/6
f 396/2/6 397/2/6 402/2/6
f 402/2/6 397/2/6 403/2/6
f 397/1/6 398/1/6 404/1/6
f 403/2/6 397/2/6 404/2/6
f 404/1/6 398/1/6 405/1/6
f 401/1/6 394/1/6 406/1/6
f 406/1/6 394/1/6 407/1/6
f 407/1/6 408/1/6 409/1/6
f 409/1/6 408/1/6 410/1/6
f 403/1/6 404/1/6 412/1/6
f 412/1/6 404/1/6 413/1/6
f 410/2/6 411/2/6 416/2/6
f 409/2/6 410/2/6 416/2/6
f 416/2/6 411/2/6 417/2/6
f 417/2/6 411/2/6 418/2/6
f 413/1/6 414/1/6 420/1/6
f 420/1/6 414/1/6 421/1/6
f 416/1/6 417/1/6 424/1/6
f 415/1/6 416/1/6 424/1/6
f 424/1/6 417/1/6 425/1/6
f 419/1/6 420/1/6 427/1/6
f 427/1/6 420/1/6 428/1/6
f 421/1/6 422/1/6 429/1/6
f 429/1/6 422/1/6 430/1/6
f 423/2/6 424/2/6 432/2/6
f 432/2/6 424/2/6 433/2/6
f 425/1/6 426/1/6 435/1/6
f 435/1/6 426/1/6 436/1/6
f 419/1/6 427/1/6 437/1/6
f 437/1/6 427/1/6 438/1/6
f 430/2/6 431/2/6 439/2/6
f 431/1/6 432/1/6 440/1/6
f 439/2/6 431/2/6 440/2/6
f 433/2/6 434/2/6 441/2/6
f 441/2/6 434/2/6 442/2/6
f 440/1/6 432/1/6 443/1/6
f 443/1/6 432/1/6 444/1/6
f 445/1/6 446/1/6 448/1/6
f 448/1/6 446/1/6 449/1/6
f 447/2/6 448/2/6 452/2/6
f 452/2/6 448/2/6 453/2/6
f 449/2/6 450/2/6 454/2/6
f 454/2/6 450/2/6 455/2/6
f 451/1/6 452/1/6 457/1/6
f 451/1/6 457/1/6 458/1/6
f 458/1/6 457/1/6 459/1/6
f 455/1/6 456/1/6 462/1/6
f 462/1/6 456/1/6 463/1/6
f 459/1/6 460/1/6 464/1/6
f 464/1/6 460/1/6 465/1/6
f 461/1/6 462/1/6 467/1/6
f 467/1/6 462/1/6 468/1/6
f 465/1/6 466/1/6 469/1/6
f 466/1/6 467/1/6 469/1/6
f 469/1/6 467/1/6 470/1/6
f 471/1/6 472/1/6 475/1/6
f 472/2/6 473/2/6 476/2/6
f 475/1/6 472/1/6 476/1/6
f 476/2/6 473/2/6 477/2/6
f 474/2/6 475/2/6 479/2/6
f 475/1/6 476/1/6 480/1/6
f 479/2/6 475/2/6 480/2/6
f 476/1/6 477/1/6 480/1/6
f 477/2/6 478/2/6 481/2/6
f 480/1/6 477/1/6 481/1/6
f 481/2/6 478/2/6 482/2/6
f 479/1/6 480/1/6 483/1/6
f 480/1/6 481/1/6 483/1/6
f 481/1/6 482/1/6 483/1/6
f 483/1/6 482/1/6 484/1/6
f 484/1/6 482/1/6 485/1/6
f 485/1/6 482/1/6 486/1/6
f 486/1/6 482/1/6 487/1/6
f 484/2/6 485/2/6 488/2/6
f 485/1/6 486/1/6 489/1/6
f 488/2/6 485/2/6 489/2/6
f 489/1/6 486/1/6 490/1/6
