# MagicaVoxel @ Ephtracy

# group
o 

# material
mtllib tree_stump_big_2.mtl
usemtl palette

# normals
vn -1 0 0
vn 1 0 0
vn 0 0 1
vn 0 0 -1
vn 0 -1 0
vn 0 1 0

# texcoords
vt 0.00585938 0.5
vt 0.0839844 0.5

# verts
v -0.3 0 0.2
v -0.3 0 -2.98023e-008
v -0.3 0 -0.1
v -0.3 0.1 0.2
v -0.3 0.1 0.1
v -0.3 0.1 -2.98023e-008
v -0.3 0.1 -0.1
v -0.3 0.2 -2.98023e-008
v -0.3 0.2 -0.1
v -0.3 0.4 0.1
v -0.3 0.4 -2.98023e-008
v -0.2 0 -0.1
v -0.2 0 -0.2
v -0.2 0.1 0.2
v -0.2 0.1 0.1
v -0.2 0.1 -0.1
v -0.2 0.1 -0.2
v -0.2 0.2 -2.98023e-008
v -0.2 0.2 -0.1
v -0.2 0.3 0.2
v -0.2 0.3 0.1
v -0.2 0.3 -0.1
v -0.2 0.3 -0.2
v -0.2 0.4 -2.98023e-008
v -0.2 0.4 -0.1
v -0.1 0 0.3
v -0.1 0 0.2
v -0.1 0 -0.2
v -0.1 0 -0.3
v -0.1 0.1 0.3
v -0.1 0.1 0.2
v -0.1 0.1 -0.2
v -0.1 0.1 -0.3
v -0.1 0.2 0.3
v -0.1 0.2 0.2
v -0.1 0.2 -0.2
v -0.1 0.2 -0.3
v -0.1 0.3 0.2
v -0.1 0.3 0.1
v -0.1 0.3 -0.1
v -0.1 0.3 -0.2
v -0.1 0.4 0.2
v -0.1 0.4 0.1
v -0.1 0.4 -0.1
v -0.1 0.4 -0.2
v 2.98023e-008 0.2 -0.2
v 2.98023e-008 0.2 -0.3
v 2.98023e-008 0.3 -0.2
v 2.98023e-008 0.3 -0.3
v 2.98023e-008 0.1 0.3
v 2.98023e-008 0.1 0.2
v 2.98023e-008 0.2 0.3
v 2.98023e-008 0.2 0.2
v 0.1 0 0.3
v 0.1 0 0.2
v 0.1 0.1 0.3
v 0.1 0.1 0.2
v 0.1 0.1 -0.2
v 0.1 0.1 -0.3
v 0.1 0.3 0.2
v 0.1 0.3 0.1
v 0.1 0.3 -0.1
v 0.1 0.3 -0.2
v 0.1 0.3 -0.3
v 0.1 0.4 0.2
v 0.1 0.4 0.1
v 0.1 0.4 -0.1
v 0.1 0.4 -0.2
v 0.2 0 0.2
v 0.2 0 0.1
v 0.2 0 -0.2
v 0.2 0 -0.3
v 0.2 0.1 0.2
v 0.2 0.1 0.1
v 0.2 0.1 -2.98023e-008
v 0.2 0.1 -0.1
v 0.2 0.1 -0.2
v 0.2 0.1 -0.3
v 0.2 0.3 0.2
v 0.2 0.3 0.1
v 0.2 0.3 -2.98023e-008
v 0.2 0.3 -0.1
v 0.2 0.3 -0.2
v 0.2 0.4 0.1
v 0.2 0.4 -0.1
v 0.3 0 0.1
v 0.3 0 -0.2
v 0.3 0.1 0.1
v 0.3 0.1 -2.98023e-008
v 0.3 0.1 -0.1
v 0.3 0.1 -0.2
v 0.3 0.3 -2.98023e-008
v 0.3 0.3 -0.1
v -0.1 0 0.3
v -0.1 0.1 0.3
v -0.1 0.2 0.3
v 2.98023e-008 0 0.3
v 2.98023e-008 0.1 0.3
v 2.98023e-008 0.2 0.3
v 0.1 0 0.3
v 0.1 0.1 0.3
v -0.3 0 0.2
v -0.3 0.1 0.2
v -0.2 0 0.2
v -0.2 0.1 0.2
v -0.2 0.3 0.2
v -0.1 0 0.2
v -0.1 0.1 0.2
v -0.1 0.2 0.2
v -0.1 0.3 0.2
v -0.1 0.4 0.2
v 2.98023e-008 0.1 0.2
v 2.98023e-008 0.2 0.2
v 0.1 0 0.2
v 0.1 0.1 0.2
v 0.1 0.3 0.2
v 0.1 0.4 0.2
v 0.2 0 0.2
v 0.2 0.1 0.2
v 0.2 0.3 0.2
v -0.3 0.1 0.1
v -0.3 0.4 0.1
v -0.2 0.1 0.1
v -0.2 0.3 0.1
v -0.1 0.3 0.1
v -0.1 0.4 0.1
v 0.1 0.3 0.1
v 0.1 0.4 0.1
v 0.2 0 0.1
v 0.2 0.1 0.1
v 0.2 0.3 0.1
v 0.2 0.4 0.1
v 0.3 0 0.1
v 0.3 0.1 0.1
v 0.2 0.1 -2.98023e-008
v 0.2 0.3 -2.98023e-008
v 0.3 0.1 -2.98023e-008
v 0.3 0.3 -2.98023e-008
v -0.3 0.2 -2.98023e-008
v -0.3 0.4 -2.98023e-008
v -0.2 0.2 -2.98023e-008
v -0.2 0.4 -2.98023e-008
v -0.3 0 -0.1
v -0.3 0.1 -0.1
v -0.3 0.2 -0.1
v -0.2 0 -0.1
v -0.2 0.1 -0.1
v -0.2 0.2 -0.1
v -0.2 0.3 -0.1
v -0.2 0.4 -0.1
v -0.1 0.3 -0.1
v -0.1 0.4 -0.1
v 0.1 0.3 -0.1
v 0.1 0.4 -0.1
v 0.2 0.1 -0.1
v 0.2 0.3 -0.1
v 0.2 0.4 -0.1
v 0.3 0.1 -0.1
v 0.3 0.3 -0.1
v -0.2 0 -0.2
v -0.2 0.1 -0.2
v -0.2 0.3 -0.2
v -0.1 0 -0.2
v -0.1 0.1 -0.2
v -0.1 0.2 -0.2
v -0.1 0.3 -0.2
v -0.1 0.4 -0.2
v 2.98023e-008 0.2 -0.2
v 2.98023e-008 0.3 -0.2
v 0.1 0.1 -0.2
v 0.1 0.3 -0.2
v 0.1 0.4 -0.2
v 0.2 0 -0.2
v 0.2 0.1 -0.2
v 0.2 0.3 -0.2
v 0.3 0 -0.2
v 0.3 0.1 -0.2
v -0.1 0 -0.3
v -0.1 0.1 -0.3
v -0.1 0.2 -0.3
v 2.98023e-008 0 -0.3
v 2.98023e-008 0.1 -0.3
v 2.98023e-008 0.2 -0.3
v 2.98023e-008 0.3 -0.3
v 0.1 0.1 -0.3
v 0.1 0.3 -0.3
v 0.2 0 -0.3
v 0.2 0.1 -0.3
v -0.1 0 0.3
v 2.98023e-008 0 0.3
v 0.1 0 0.3
v -0.3 0 0.2
v -0.2 0 0.2
v -0.1 0 0.2
v 2.98023e-008 0 0.2
v 0.1 0 0.2
v 0.2 0 0.2
v 0.1 0 0.1
v 0.2 0 0.1
v 0.3 0 0.1
v -0.3 0 -2.98023e-008
v -0.2 0 -2.98023e-008
v -0.3 0 -0.1
v -0.2 0 -0.1
v -0.1 0 -0.1
v -0.2 0 -0.2
v -0.1 0 -0.2
v 2.98023e-008 0 -0.2
v 0.2 0 -0.2
v 0.3 0 -0.2
v -0.1 0 -0.3
v 2.98023e-008 0 -0.3
v 0.2 0 -0.3
v 2.98023e-008 0.1 0.3
v 0.1 0.1 0.3
v -0.3 0.1 0.2
v -0.2 0.1 0.2
v 2.98023e-008 0.1 0.2
v 0.1 0.1 0.2
v -0.3 0.1 0.1
v -0.2 0.1 0.1
v 0.2 0.1 0.1
v 0.3 0.1 0.1
v 0.2 0.1 -2.98023e-008
v 0.3 0.1 -2.98023e-008
v 0.2 0.1 -0.1
v 0.3 0.1 -0.1
v 0.1 0.1 -0.2
v 0.2 0.1 -0.2
v 0.3 0.1 -0.2
v 0.1 0.1 -0.3
v 0.2 0.1 -0.3
v -0.1 0.2 0.3
v 2.98023e-008 0.2 0.3
v -0.1 0.2 0.2
v 2.98023e-008 0.2 0.2
v -0.3 0.2 -2.98023e-008
v -0.2 0.2 -2.98023e-008
v -0.3 0.2 -0.1
v -0.2 0.2 -0.1
v -0.1 0.2 -0.2
v 2.98023e-008 0.2 -0.2
v -0.1 0.2 -0.3
v 2.98023e-008 0.2 -0.3
v -0.2 0.3 0.2
v -0.1 0.3 0.2
v 0.1 0.3 0.2
v 0.2 0.3 0.2
v -0.2 0.3 0.1
v -0.1 0.3 0.1
v 0.1 0.3 0.1
v 0.2 0.3 0.1
v 0.2 0.3 -2.98023e-008
v 0.3 0.3 -2.98023e-008
v -0.2 0.3 -0.1
v -0.1 0.3 -0.1
v 0.1 0.3 -0.1
v 0.2 0.3 -0.1
v 0.3 0.3 -0.1
v -0.2 0.3 -0.2
v -0.1 0.3 -0.2
v 2.98023e-008 0.3 -0.2
v 0.1 0.3 -0.2
v 0.2 0.3 -0.2
v 2.98023e-008 0.3 -0.3
v 0.1 0.3 -0.3
v -0.1 0.4 0.2
v 0.1 0.4 0.2
v -0.3 0.4 0.1
v -0.1 0.4 0.1
v 0.1 0.4 0.1
v 0.2 0.4 0.1
v -0.3 0.4 -2.98023e-008
v -0.2 0.4 -2.98023e-008
v -0.2 0.4 -0.1
v -0.1 0.4 -0.1
v 0.1 0.4 -0.1
v 0.2 0.4 -0.1
v -0.1 0.4 -0.2
v 0.1 0.4 -0.2

# faces
f 4/1/1 2/1/1 1/1/1
f 5/1/1 2/1/1 4/1/1
f 6/2/1 3/2/1 2/2/1
f 6/1/1 2/1/1 5/1/1
f 7/2/1 3/2/1 6/2/1
f 8/2/1 6/2/1 5/2/1
f 8/1/1 7/1/1 6/1/1
f 9/1/1 7/1/1 8/1/1
f 10/2/1 8/2/1 5/2/1
f 11/2/1 8/2/1 10/2/1
f 16/1/1 13/1/1 12/1/1
f 17/1/1 13/1/1 16/1/1
f 19/2/1 17/2/1 16/2/1
f 20/2/1 15/2/1 14/2/1
f 21/2/1 15/2/1 20/2/1
f 22/2/1 19/2/1 18/2/1
f 22/2/1 17/2/1 19/2/1
f 23/2/1 17/2/1 22/2/1
f 24/2/1 22/2/1 18/2/1
f 25/2/1 22/2/1 24/2/1
f 30/1/1 27/1/1 26/1/1
f 31/1/1 27/1/1 30/1/1
f 32/1/1 29/1/1 28/1/1
f 33/1/1 29/1/1 32/1/1
f 34/2/1 31/2/1 30/2/1
f 35/2/1 31/2/1 34/2/1
f 36/2/1 33/2/1 32/2/1
f 37/2/1 33/2/1 36/2/1
f 42/2/1 39/2/1 38/2/1
f 43/2/1 39/2/1 42/2/1
f 44/2/1 41/2/1 40/2/1
f 45/2/1 41/2/1 44/2/1
f 48/2/1 47/2/1 46/2/1
f 49/2/1 47/2/1 48/2/1
f 50/2/2 51/2/2 52/2/2
f 52/2/2 51/2/2 53/2/2
f 54/2/2 55/2/2 56/2/2
f 56/2/2 55/2/2 57/2/2
f 58/2/2 59/2/2 63/2/2
f 63/2/2 59/2/2 64/2/2
f 60/2/2 61/2/2 65/2/2
f 65/2/2 61/2/2 66/2/2
f 62/2/2 63/2/2 67/2/2
f 67/2/2 63/2/2 68/2/2
f 69/1/2 70/1/2 73/1/2
f 73/1/2 70/1/2 74/1/2
f 71/2/2 72/2/2 77/2/2
f 77/2/2 72/2/2 78/2/2
f 74/2/2 75/2/2 79/2/2
f 73/2/2 74/2/2 79/2/2
f 79/2/2 75/2/2 80/2/2
f 80/2/2 75/2/2 81/2/2
f 76/1/2 77/1/2 82/1/2
f 82/1/2 77/1/2 83/1/2
f 80/2/2 81/2/2 84/2/2
f 81/2/2 82/2/2 84/2/2
f 84/2/2 82/2/2 85/2/2
f 86/2/2 87/2/2 88/2/2
f 88/2/2 87/2/2 89/2/2
f 89/2/2 87/2/2 90/2/2
f 90/2/2 87/2/2 91/2/2
f 89/2/2 90/2/2 92/2/2
f 92/2/2 90/2/2 93/2/2
f 97/1/3 95/1/3 94/1/3
f 98/2/3 96/2/3 95/2/3
f 98/1/3 95/1/3 97/1/3
f 99/2/3 96/2/3 98/2/3
f 100/2/3 98/2/3 97/2/3
f 101/2/3 98/2/3 100/2/3
f 104/1/3 103/1/3 102/1/3
f 105/1/3 103/1/3 104/1/3
f 107/2/3 105/2/3 104/2/3
f 107/2/3 106/2/3 105/2/3
f 108/2/3 106/2/3 107/2/3
f 109/2/3 106/2/3 108/2/3
f 110/2/3 106/2/3 109/2/3
f 113/2/3 111/2/3 110/2/3
f 113/2/3 110/2/3 109/2/3
f 115/2/3 113/2/3 112/2/3
f 116/2/3 111/2/3 113/2/3
f 116/2/3 113/2/3 115/2/3
f 117/2/3 111/2/3 116/2/3
f 118/1/3 115/1/3 114/1/3
f 119/2/3 116/2/3 115/2/3
f 119/1/3 115/1/3 118/1/3
f 120/2/3 116/2/3 119/2/3
f 123/2/3 122/2/3 121/2/3
f 124/2/3 122/2/3 123/2/3
f 125/2/3 122/2/3 124/2/3
f 126/2/3 122/2/3 125/2/3
f 131/2/3 128/2/3 127/2/3
f 132/2/3 128/2/3 131/2/3
f 133/2/3 130/2/3 129/2/3
f 134/2/3 130/2/3 133/2/3
f 137/2/3 136/2/3 135/2/3
f 138/2/3 136/2/3 137/2/3
f 139/2/4 140/2/4 141/2/4
f 141/2/4 140/2/4 142/2/4
f 143/2/4 144/2/4 146/2/4
f 144/1/4 145/1/4 147/1/4
f 146/2/4 144/2/4 147/2/4
f 147/1/4 145/1/4 148/1/4
f 149/2/4 150/2/4 151/2/4
f 151/2/4 150/2/4 152/2/4
f 153/2/4 154/2/4 156/2/4
f 156/2/4 154/2/4 157/2/4
f 155/2/4 156/2/4 158/2/4
f 158/2/4 156/2/4 159/2/4
f 160/1/4 161/1/4 163/1/4
f 161/2/4 162/2/4 164/2/4
f 163/1/4 161/1/4 164/1/4
f 164/2/4 162/2/4 165/2/4
f 165/2/4 162/2/4 166/2/4
f 166/2/4 167/2/4 168/2/4
f 165/2/4 166/2/4 168/2/4
f 168/2/4 167/2/4 169/2/4
f 169/2/4 167/2/4 171/2/4
f 171/2/4 167/2/4 172/2/4
f 170/1/4 171/1/4 174/1/4
f 174/1/4 171/1/4 175/1/4
f 173/2/4 174/2/4 176/2/4
f 176/2/4 174/2/4 177/2/4
f 178/1/4 179/1/4 181/1/4
f 179/2/4 180/2/4 182/2/4
f 181/1/4 179/1/4 182/1/4
f 182/2/4 180/2/4 183/2/4
f 181/2/4 182/2/4 185/2/4
f 183/2/4 184/2/4 185/2/4
f 182/2/4 183/2/4 185/2/4
f 185/2/4 184/2/4 186/2/4
f 181/2/4 185/2/4 187/2/4
f 187/2/4 185/2/4 188/2/4
f 194/1/5 190/1/5 189/1/5
f 195/2/5 191/2/5 190/2/5
f 195/1/5 190/1/5 194/1/5
f 196/2/5 191/2/5 195/2/5
f 198/2/5 194/2/5 193/2/5
f 198/1/5 197/1/5 196/1/5
f 198/2/5 196/2/5 195/2/5
f 198/2/5 195/2/5 194/2/5
f 199/1/5 197/1/5 198/1/5
f 201/1/5 193/1/5 192/1/5
f 202/2/5 200/2/5 199/2/5
f 202/1/5 193/1/5 201/1/5
f 202/2/5 198/2/5 193/2/5
f 202/2/5 199/2/5 198/2/5
f 203/2/5 202/2/5 201/2/5
f 204/2/5 200/2/5 202/2/5
f 204/2/5 202/2/5 203/2/5
f 205/2/5 200/2/5 204/2/5
f 206/1/5 205/1/5 204/1/5
f 207/2/5 200/2/5 205/2/5
f 207/1/5 205/1/5 206/1/5
f 208/2/5 200/2/5 207/2/5
f 209/2/5 200/2/5 208/2/5
f 210/2/5 200/2/5 209/2/5
f 211/1/5 208/1/5 207/1/5
f 212/2/5 209/2/5 208/2/5
f 212/1/5 208/1/5 211/1/5
f 213/2/5 209/2/5 212/2/5
f 214/2/6 215/2/6 218/2/6
f 218/2/6 215/2/6 219/2/6
f 216/1/6 217/1/6 220/1/6
f 220/1/6 217/1/6 221/1/6
f 222/2/6 223/2/6 224/2/6
f 224/2/6 223/2/6 225/2/6
f 226/2/6 227/2/6 229/2/6
f 229/2/6 227/2/6 230/2/6
f 228/2/6 229/2/6 231/2/6
f 231/2/6 229/2/6 232/2/6
f 233/2/6 234/2/6 235/2/6
f 235/2/6 234/2/6 236/2/6
f 237/1/6 238/1/6 239/1/6
f 239/1/6 238/1/6 240/1/6
f 241/2/6 242/2/6 243/2/6
f 243/2/6 242/2/6 244/2/6
f 245/2/6 246/2/6 249/2/6
f 249/2/6 246/2/6 250/2/6
f 247/2/6 248/2/6 251/2/6
f 251/2/6 248/2/6 252/2/6
f 253/2/6 254/2/6 258/2/6
f 258/2/6 254/2/6 259/2/6
f 255/2/6 256/2/6 260/2/6
f 260/2/6 256/2/6 261/2/6
f 257/1/6 258/1/6 263/1/6
f 263/1/6 258/1/6 264/1/6
f 262/2/6 263/2/6 265/2/6
f 265/2/6 263/2/6 266/2/6
f 267/2/6 268/2/6 270/2/6
f 270/2/6 268/2/6 271/2/6
f 269/2/6 270/2/6 273/2/6
f 271/2/6 272/2/6 273/2/6
f 270/2/6 271/2/6 273/2/6
f 273/2/6 272/2/6 274/2/6
f 274/2/6 272/2/6 275/2/6
f 275/2/6 272/2/6 276/2/6
f 276/2/6 272/2/6 277/2/6
f 277/2/6 272/2/6 278/2/6
f 276/2/6 277/2/6 279/2/6
f 279/2/6 277/2/6 280/2/6
