# MagicaVoxel @ Ephtracy

# group
o 

# material
mtllib sandbag.mtl
usemtl palette

# normals
vn -1 0 0
vn 1 0 0
vn 0 0 1
vn 0 0 -1
vn 0 -1 0
vn 0 1 0

# texcoords
vt 0.00585938 0.5
vt 0.0839844 0.5

# verts
v -0.8 0.1 0.3
v -0.8 0.1 0.2
v -0.8 0.1 0.1
v -0.8 0.1 0
v -0.8 0.1 -0.1
v -0.8 0.1 -0.2
v -0.8 0.1 -0.3
v -0.8 0.2 0.3
v -0.8 0.2 0.2
v -0.8 0.2 0.1
v -0.8 0.2 0
v -0.8 0.2 -0.1
v -0.8 0.2 -0.2
v -0.8 0.2 -0.3
v -0.8 0.3 0.3
v -0.8 0.3 0.2
v -0.8 0.3 0.1
v -0.8 0.3 0
v -0.8 0.3 -0.1
v -0.8 0.3 -0.2
v -0.8 0.3 -0.3
v -0.7 0 0.3
v -0.7 0 -0.3
v -0.7 0.1 0.4
v -0.7 0.1 0.3
v -0.7 0.1 0.2
v -0.7 0.1 0.1
v -0.7 0.1 0
v -0.7 0.1 -0.1
v -0.7 0.1 -0.2
v -0.7 0.1 -0.3
v -0.7 0.1 -0.4
v -0.7 0.2 0.4
v -0.7 0.2 0.3
v -0.7 0.2 -0.3
v -0.7 0.2 -0.4
v -0.7 0.3 0.4
v -0.7 0.3 0.3
v -0.7 0.3 0.2
v -0.7 0.3 0.1
v -0.7 0.3 0
v -0.7 0.3 -0.1
v -0.7 0.3 -0.2
v -0.7 0.3 -0.3
v -0.7 0.3 -0.4
v -0.7 0.4 0.3
v -0.7 0.4 -0.3
v 0.7 0 0.3
v 0.7 0 -0.3
v 0.7 0.1 0.4
v 0.7 0.1 0.3
v 0.7 0.1 0.2
v 0.7 0.1 0.1
v 0.7 0.1 0
v 0.7 0.1 -0.1
v 0.7 0.1 -0.2
v 0.7 0.1 -0.3
v 0.7 0.1 -0.4
v 0.7 0.2 0.4
v 0.7 0.2 0.3
v 0.7 0.2 -0.3
v 0.7 0.2 -0.4
v 0.7 0.3 0.4
v 0.7 0.3 0.3
v 0.7 0.3 0.2
v 0.7 0.3 0.1
v 0.7 0.3 0
v 0.7 0.3 -0.1
v 0.7 0.3 -0.2
v 0.7 0.3 -0.3
v 0.7 0.3 -0.4
v 0.7 0.4 0.3
v 0.7 0.4 -0.3
v 0.8 0.1 0.3
v 0.8 0.1 0.2
v 0.8 0.1 0.1
v 0.8 0.1 0
v 0.8 0.1 -0.1
v 0.8 0.1 -0.2
v 0.8 0.1 -0.3
v 0.8 0.2 0.3
v 0.8 0.2 0.2
v 0.8 0.2 0.1
v 0.8 0.2 0
v 0.8 0.2 -0.1
v 0.8 0.2 -0.2
v 0.8 0.2 -0.3
v 0.8 0.3 0.3
v 0.8 0.3 0.2
v 0.8 0.3 0.1
v 0.8 0.3 0
v 0.8 0.3 -0.1
v 0.8 0.3 -0.2
v 0.8 0.3 -0.3
v -0.7 0.1 0.4
v -0.7 0.2 0.4
v -0.7 0.3 0.4
v -0.6 0.1 0.4
v -0.6 0.2 0.4
v -0.6 0.3 0.4
v -0.5 0.1 0.4
v -0.5 0.2 0.4
v -0.5 0.3 0.4
v -0.4 0.1 0.4
v -0.4 0.2 0.4
v -0.4 0.3 0.4
v -0.3 0.1 0.4
v -0.3 0.2 0.4
v -0.3 0.3 0.4
v -0.2 0.1 0.4
v -0.2 0.2 0.4
v -0.2 0.3 0.4
v -0.1 0.1 0.4
v -0.1 0.2 0.4
v -0.1 0.3 0.4
v 5.96046e-008 0.1 0.4
v 5.96046e-008 0.2 0.4
v 5.96046e-008 0.3 0.4
v 0.1 0.1 0.4
v 0.1 0.2 0.4
v 0.1 0.3 0.4
v 0.2 0.1 0.4
v 0.2 0.2 0.4
v 0.2 0.3 0.4
v 0.3 0.1 0.4
v 0.3 0.2 0.4
v 0.3 0.3 0.4
v 0.4 0.1 0.4
v 0.4 0.2 0.4
v 0.4 0.3 0.4
v 0.5 0.1 0.4
v 0.5 0.2 0.4
v 0.5 0.3 0.4
v 0.6 0.1 0.4
v 0.6 0.2 0.4
v 0.6 0.3 0.4
v 0.7 0.1 0.4
v 0.7 0.2 0.4
v 0.7 0.3 0.4
v -0.8 0.1 0.3
v -0.8 0.2 0.3
v -0.8 0.3 0.3
v -0.7 0 0.3
v -0.7 0.1 0.3
v -0.7 0.2 0.3
v -0.7 0.3 0.3
v -0.7 0.4 0.3
v -0.6 0.1 0.3
v -0.6 0.3 0.3
v -0.5 0.1 0.3
v -0.5 0.3 0.3
v -0.4 0.1 0.3
v -0.4 0.3 0.3
v -0.3 0.1 0.3
v -0.3 0.3 0.3
v -0.2 0.1 0.3
v -0.2 0.3 0.3
v -0.1 0.1 0.3
v -0.1 0.3 0.3
v 5.96046e-008 0.1 0.3
v 5.96046e-008 0.3 0.3
v 0.1 0.1 0.3
v 0.1 0.3 0.3
v 0.2 0.1 0.3
v 0.2 0.3 0.3
v 0.3 0.1 0.3
v 0.3 0.3 0.3
v 0.4 0.1 0.3
v 0.4 0.3 0.3
v 0.5 0.1 0.3
v 0.5 0.3 0.3
v 0.6 0.1 0.3
v 0.6 0.3 0.3
v 0.7 0 0.3
v 0.7 0.1 0.3
v 0.7 0.2 0.3
v 0.7 0.3 0.3
v 0.7 0.4 0.3
v 0.8 0.1 0.3
v 0.8 0.2 0.3
v 0.8 0.3 0.3
v -0.8 0.1 -0.3
v -0.8 0.2 -0.3
v -0.8 0.3 -0.3
v -0.7 0 -0.3
v -0.7 0.1 -0.3
v -0.7 0.2 -0.3
v -0.7 0.3 -0.3
v -0.7 0.4 -0.3
v -0.6 0.1 -0.3
v -0.6 0.3 -0.3
v -0.5 0.1 -0.3
v -0.5 0.3 -0.3
v -0.4 0.1 -0.3
v -0.4 0.3 -0.3
v -0.3 0.1 -0.3
v -0.3 0.3 -0.3
v -0.2 0.1 -0.3
v -0.2 0.3 -0.3
v -0.1 0.1 -0.3
v -0.1 0.3 -0.3
v 5.96046e-008 0.1 -0.3
v 5.96046e-008 0.3 -0.3
v 0.1 0.1 -0.3
v 0.1 0.3 -0.3
v 0.2 0.1 -0.3
v 0.2 0.3 -0.3
v 0.3 0.1 -0.3
v 0.3 0.3 -0.3
v 0.4 0.1 -0.3
v 0.4 0.3 -0.3
v 0.5 0.1 -0.3
v 0.5 0.3 -0.3
v 0.6 0.1 -0.3
v 0.6 0.3 -0.3
v 0.7 0 -0.3
v 0.7 0.1 -0.3
v 0.7 0.2 -0.3
v 0.7 0.3 -0.3
v 0.7 0.4 -0.3
v 0.8 0.1 -0.3
v 0.8 0.2 -0.3
v 0.8 0.3 -0.3
v -0.7 0.1 -0.4
v -0.7 0.2 -0.4
v -0.7 0.3 -0.4
v -0.6 0.1 -0.4
v -0.6 0.2 -0.4
v -0.6 0.3 -0.4
v -0.5 0.1 -0.4
v -0.5 0.2 -0.4
v -0.5 0.3 -0.4
v -0.4 0.1 -0.4
v -0.4 0.2 -0.4
v -0.4 0.3 -0.4
v -0.3 0.1 -0.4
v -0.3 0.2 -0.4
v -0.3 0.3 -0.4
v -0.2 0.1 -0.4
v -0.2 0.2 -0.4
v -0.2 0.3 -0.4
v -0.1 0.1 -0.4
v -0.1 0.2 -0.4
v -0.1 0.3 -0.4
v 5.96046e-008 0.1 -0.4
v 5.96046e-008 0.2 -0.4
v 5.96046e-008 0.3 -0.4
v 0.1 0.1 -0.4
v 0.1 0.2 -0.4
v 0.1 0.3 -0.4
v 0.2 0.1 -0.4
v 0.2 0.2 -0.4
v 0.2 0.3 -0.4
v 0.3 0.1 -0.4
v 0.3 0.2 -0.4
v 0.3 0.3 -0.4
v 0.4 0.1 -0.4
v 0.4 0.2 -0.4
v 0.4 0.3 -0.4
v 0.5 0.1 -0.4
v 0.5 0.2 -0.4
v 0.5 0.3 -0.4
v 0.6 0.1 -0.4
v 0.6 0.2 -0.4
v 0.6 0.3 -0.4
v 0.7 0.1 -0.4
v 0.7 0.2 -0.4
v 0.7 0.3 -0.4
v -0.7 0 0.3
v 0.7 0 0.3
v -0.7 0 -0.3
v 0.7 0 -0.3
v -0.7 0.1 0.4
v -0.6 0.1 0.4
v -0.5 0.1 0.4
v -0.4 0.1 0.4
v -0.3 0.1 0.4
v -0.2 0.1 0.4
v -0.1 0.1 0.4
v 5.96046e-008 0.1 0.4
v 0.1 0.1 0.4
v 0.2 0.1 0.4
v 0.3 0.1 0.4
v 0.4 0.1 0.4
v 0.5 0.1 0.4
v 0.6 0.1 0.4
v 0.7 0.1 0.4
v -0.8 0.1 0.3
v -0.7 0.1 0.3
v -0.6 0.1 0.3
v -0.5 0.1 0.3
v -0.4 0.1 0.3
v -0.3 0.1 0.3
v -0.2 0.1 0.3
v -0.1 0.1 0.3
v 5.96046e-008 0.1 0.3
v 0.1 0.1 0.3
v 0.2 0.1 0.3
v 0.3 0.1 0.3
v 0.4 0.1 0.3
v 0.5 0.1 0.3
v 0.6 0.1 0.3
v 0.7 0.1 0.3
v 0.8 0.1 0.3
v -0.8 0.1 0.2
v -0.7 0.1 0.2
v 0.7 0.1 0.2
v 0.8 0.1 0.2
v -0.8 0.1 0.1
v -0.7 0.1 0.1
v 0.7 0.1 0.1
v 0.8 0.1 0.1
v -0.8 0.1 0
v -0.7 0.1 0
v 0.7 0.1 0
v 0.8 0.1 0
v -0.8 0.1 -0.1
v -0.7 0.1 -0.1
v 0.7 0.1 -0.1
v 0.8 0.1 -0.1
v -0.8 0.1 -0.2
v -0.7 0.1 -0.2
v 0.7 0.1 -0.2
v 0.8 0.1 -0.2
v -0.8 0.1 -0.3
v -0.7 0.1 -0.3
v -0.6 0.1 -0.3
v -0.5 0.1 -0.3
v -0.4 0.1 -0.3
v -0.3 0.1 -0.3
v -0.2 0.1 -0.3
v -0.1 0.1 -0.3
v 5.96046e-008 0.1 -0.3
v 0.1 0.1 -0.3
v 0.2 0.1 -0.3
v 0.3 0.1 -0.3
v 0.4 0.1 -0.3
v 0.5 0.1 -0.3
v 0.6 0.1 -0.3
v 0.7 0.1 -0.3
v 0.8 0.1 -0.3
v -0.7 0.1 -0.4
v -0.6 0.1 -0.4
v -0.5 0.1 -0.4
v -0.4 0.1 -0.4
v -0.3 0.1 -0.4
v -0.2 0.1 -0.4
v -0.1 0.1 -0.4
v 5.96046e-008 0.1 -0.4
v 0.1 0.1 -0.4
v 0.2 0.1 -0.4
v 0.3 0.1 -0.4
v 0.4 0.1 -0.4
v 0.5 0.1 -0.4
v 0.6 0.1 -0.4
v 0.7 0.1 -0.4
v -0.7 0.3 0.4
v -0.6 0.3 0.4
v -0.5 0.3 0.4
v -0.4 0.3 0.4
v -0.3 0.3 0.4
v -0.2 0.3 0.4
v -0.1 0.3 0.4
v 5.96046e-008 0.3 0.4
v 0.1 0.3 0.4
v 0.2 0.3 0.4
v 0.3 0.3 0.4
v 0.4 0.3 0.4
v 0.5 0.3 0.4
v 0.6 0.3 0.4
v 0.7 0.3 0.4
v -0.8 0.3 0.3
v -0.7 0.3 0.3
v -0.6 0.3 0.3
v -0.5 0.3 0.3
v -0.4 0.3 0.3
v -0.3 0.3 0.3
v -0.2 0.3 0.3
v -0.1 0.3 0.3
v 5.96046e-008 0.3 0.3
v 0.1 0.3 0.3
v 0.2 0.3 0.3
v 0.3 0.3 0.3
v 0.4 0.3 0.3
v 0.5 0.3 0.3
v 0.6 0.3 0.3
v 0.7 0.3 0.3
v 0.8 0.3 0.3
v -0.8 0.3 0.2
v -0.7 0.3 0.2
v 0.7 0.3 0.2
v 0.8 0.3 0.2
v -0.8 0.3 0.1
v -0.7 0.3 0.1
v 0.7 0.3 0.1
v 0.8 0.3 0.1
v -0.8 0.3 0
v -0.7 0.3 0
v 0.7 0.3 0
v 0.8 0.3 0
v -0.8 0.3 -0.1
v -0.7 0.3 -0.1
v 0.7 0.3 -0.1
v 0.8 0.3 -0.1
v -0.8 0.3 -0.2
v -0.7 0.3 -0.2
v 0.7 0.3 -0.2
v 0.8 0.3 -0.2
v -0.8 0.3 -0.3
v -0.7 0.3 -0.3
v -0.6 0.3 -0.3
v -0.5 0.3 -0.3
v -0.4 0.3 -0.3
v -0.3 0.3 -0.3
v -0.2 0.3 -0.3
v -0.1 0.3 -0.3
v 5.96046e-008 0.3 -0.3
v 0.1 0.3 -0.3
v 0.2 0.3 -0.3
v 0.3 0.3 -0.3
v 0.4 0.3 -0.3
v 0.5 0.3 -0.3
v 0.6 0.3 -0.3
v 0.7 0.3 -0.3
v 0.8 0.3 -0.3
v -0.7 0.3 -0.4
v -0.6 0.3 -0.4
v -0.5 0.3 -0.4
v -0.4 0.3 -0.4
v -0.3 0.3 -0.4
v -0.2 0.3 -0.4
v -0.1 0.3 -0.4
v 5.96046e-008 0.3 -0.4
v 0.1 0.3 -0.4
v 0.2 0.3 -0.4
v 0.3 0.3 -0.4
v 0.4 0.3 -0.4
v 0.5 0.3 -0.4
v 0.6 0.3 -0.4
v 0.7 0.3 -0.4
v -0.7 0.4 0.3
v 0.7 0.4 0.3
v -0.4 0.4 0.2
v -0.3 0.4 0.2
v 0.5 0.4 0.2
v 0.6 0.4 0.2
v -0.4 0.4 0.1
v -0.3 0.4 0.1
v -0.1 0.4 0.1
v 5.96046e-008 0.4 0.1
v 0.1 0.4 0.1
v 0.2 0.4 0.1
v 0.5 0.4 0.1
v 0.6 0.4 0.1
v -0.4 0.4 0
v -0.3 0.4 0
v -0.1 0.4 0
v 5.96046e-008 0.4 0
v 0.1 0.4 0
v 0.2 0.4 0
v 0.3 0.4 0
v 0.4 0.4 0
v -0.6 0.4 -0.1
v -0.5 0.4 -0.1
v -0.4 0.4 -0.1
v -0.3 0.4 -0.1
v 5.96046e-008 0.4 -0.1
v 0.1 0.4 -0.1
v 0.3 0.4 -0.1
v 0.4 0.4 -0.1
v -0.6 0.4 -0.2
v -0.5 0.4 -0.2
v 5.96046e-008 0.4 -0.2
v 0.1 0.4 -0.2
v -0.7 0.4 -0.3
v 0.7 0.4 -0.3

# faces
f 8/2/1 2/2/1 1/2/1
f 9/1/1 3/1/1 2/1/1
f 9/2/1 2/2/1 8/2/1
f 10/2/1 4/2/1 3/2/1
f 10/1/1 3/1/1 9/1/1
f 11/1/1 5/1/1 4/1/1
f 11/2/1 4/2/1 10/2/1
f 12/2/1 6/2/1 5/2/1
f 12/1/1 5/1/1 11/1/1
f 13/1/1 7/1/1 6/1/1
f 13/2/1 6/2/1 12/2/1
f 14/1/1 7/1/1 13/1/1
f 15/1/1 9/1/1 8/1/1
f 16/2/1 10/2/1 9/2/1
f 16/1/1 9/1/1 15/1/1
f 17/1/1 11/1/1 10/1/1
f 17/2/1 10/2/1 16/2/1
f 18/2/1 12/2/1 11/2/1
f 18/1/1 11/1/1 17/1/1
f 19/1/1 13/1/1 12/1/1
f 19/2/1 12/2/1 18/2/1
f 20/2/1 14/2/1 13/2/1
f 20/1/1 13/1/1 19/1/1
f 21/2/1 14/2/1 20/2/1
f 25/2/1 23/2/1 22/2/1
f 26/2/1 23/2/1 25/2/1
f 27/2/1 23/2/1 26/2/1
f 28/2/1 23/2/1 27/2/1
f 29/2/1 23/2/1 28/2/1
f 30/2/1 23/2/1 29/2/1
f 31/2/1 23/2/1 30/2/1
f 33/1/1 25/1/1 24/1/1
f 34/1/1 25/1/1 33/1/1
f 35/2/1 32/2/1 31/2/1
f 36/2/1 32/2/1 35/2/1
f 37/2/1 34/2/1 33/2/1
f 38/2/1 34/2/1 37/2/1
f 44/1/1 36/1/1 35/1/1
f 45/1/1 36/1/1 44/1/1
f 46/2/1 43/2/1 42/2/1
f 46/2/1 44/2/1 43/2/1
f 46/2/1 39/2/1 38/2/1
f 46/2/1 42/2/1 41/2/1
f 46/2/1 41/2/1 40/2/1
f 46/2/1 40/2/1 39/2/1
f 47/2/1 44/2/1 46/2/1
f 48/2/2 49/2/2 51/2/2
f 51/2/2 49/2/2 52/2/2
f 52/2/2 49/2/2 53/2/2
f 53/2/2 49/2/2 54/2/2
f 54/2/2 49/2/2 55/2/2
f 55/2/2 49/2/2 56/2/2
f 56/2/2 49/2/2 57/2/2
f 50/2/2 51/2/2 59/2/2
f 59/2/2 51/2/2 60/2/2
f 57/1/2 58/1/2 61/1/2
f 61/1/2 58/1/2 62/1/2
f 59/1/2 60/1/2 63/1/2
f 63/1/2 60/1/2 64/1/2
f 61/2/2 62/2/2 70/2/2
f 70/2/2 62/2/2 71/2/2
f 68/2/2 69/2/2 72/2/2
f 69/2/2 70/2/2 72/2/2
f 64/2/2 65/2/2 72/2/2
f 67/2/2 68/2/2 72/2/2
f 66/2/2 67/2/2 72/2/2
f 65/2/2 66/2/2 72/2/2
f 72/2/2 70/2/2 73/2/2
f 74/1/2 75/1/2 81/1/2
f 75/2/2 76/2/2 82/2/2
f 81/1/2 75/1/2 82/1/2
f 76/1/2 77/1/2 83/1/2
f 82/2/2 76/2/2 83/2/2
f 77/2/2 78/2/2 84/2/2
f 83/1/2 77/1/2 84/1/2
f 78/1/2 79/1/2 85/1/2
f 84/2/2 78/2/2 85/2/2
f 79/2/2 80/2/2 86/2/2
f 85/1/2 79/1/2 86/1/2
f 86/2/2 80/2/2 87/2/2
f 81/2/2 82/2/2 88/2/2
f 82/1/2 83/1/2 89/1/2
f 88/2/2 82/2/2 89/2/2
f 83/2/2 84/2/2 90/2/2
f 89/1/2 83/1/2 90/1/2
f 84/1/2 85/1/2 91/1/2
f 90/2/2 84/2/2 91/2/2
f 85/2/2 86/2/2 92/2/2
f 91/1/2 85/1/2 92/1/2
f 86/1/2 87/1/2 93/1/2
f 92/2/2 86/2/2 93/2/2
f 93/1/2 87/1/2 94/1/2
f 98/1/3 96/1/3 95/1/3
f 99/2/3 97/2/3 96/2/3
f 99/1/3 96/1/3 98/1/3
f 100/2/3 97/2/3 99/2/3
f 101/2/3 99/2/3 98/2/3
f 102/1/3 100/1/3 99/1/3
f 102/2/3 99/2/3 101/2/3
f 103/1/3 100/1/3 102/1/3
f 104/1/3 102/1/3 101/1/3
f 105/2/3 103/2/3 102/2/3
f 105/1/3 102/1/3 104/1/3
f 106/2/3 103/2/3 105/2/3
f 107/2/3 105/2/3 104/2/3
f 108/1/3 106/1/3 105/1/3
f 108/2/3 105/2/3 107/2/3
f 109/1/3 106/1/3 108/1/3
f 110/1/3 108/1/3 107/1/3
f 111/2/3 109/2/3 108/2/3
f 111/1/3 108/1/3 110/1/3
f 112/2/3 109/2/3 111/2/3
f 113/2/3 111/2/3 110/2/3
f 114/1/3 112/1/3 111/1/3
f 114/2/3 111/2/3 113/2/3
f 115/1/3 112/1/3 114/1/3
f 116/1/3 114/1/3 113/1/3
f 117/2/3 115/2/3 114/2/3
f 117/1/3 114/1/3 116/1/3
f 118/2/3 115/2/3 117/2/3
f 119/2/3 117/2/3 116/2/3
f 120/1/3 118/1/3 117/1/3
f 120/2/3 117/2/3 119/2/3
f 121/1/3 118/1/3 120/1/3
f 122/1/3 120/1/3 119/1/3
f 123/2/3 121/2/3 120/2/3
f 123/1/3 120/1/3 122/1/3
f 124/2/3 121/2/3 123/2/3
f 125/2/3 123/2/3 122/2/3
f 126/1/3 124/1/3 123/1/3
f 126/2/3 123/2/3 125/2/3
f 127/1/3 124/1/3 126/1/3
f 128/1/3 126/1/3 125/1/3
f 129/2/3 127/2/3 126/2/3
f 129/1/3 126/1/3 128/1/3
f 130/2/3 127/2/3 129/2/3
f 131/2/3 129/2/3 128/2/3
f 132/1/3 130/1/3 129/1/3
f 132/2/3 129/2/3 131/2/3
f 133/1/3 130/1/3 132/1/3
f 134/1/3 132/1/3 131/1/3
f 135/2/3 133/2/3 132/2/3
f 135/1/3 132/1/3 134/1/3
f 136/2/3 133/2/3 135/2/3
f 137/2/3 135/2/3 134/2/3
f 138/1/3 136/1/3 135/1/3
f 138/2/3 135/2/3 137/2/3
f 139/1/3 136/1/3 138/1/3
f 144/2/3 141/2/3 140/2/3
f 145/1/3 142/1/3 141/1/3
f 145/2/3 141/2/3 144/2/3
f 146/1/3 142/1/3 145/1/3
f 148/2/3 144/2/3 143/2/3
f 149/2/3 147/2/3 146/2/3
f 150/2/3 148/2/3 143/2/3
f 151/2/3 147/2/3 149/2/3
f 152/2/3 150/2/3 143/2/3
f 153/2/3 147/2/3 151/2/3
f 154/2/3 152/2/3 143/2/3
f 155/2/3 147/2/3 153/2/3
f 156/2/3 154/2/3 143/2/3
f 157/2/3 147/2/3 155/2/3
f 158/2/3 156/2/3 143/2/3
f 159/2/3 147/2/3 157/2/3
f 160/2/3 158/2/3 143/2/3
f 161/2/3 147/2/3 159/2/3
f 162/2/3 160/2/3 143/2/3
f 163/2/3 147/2/3 161/2/3
f 164/2/3 162/2/3 143/2/3
f 165/2/3 147/2/3 163/2/3
f 166/2/3 164/2/3 143/2/3
f 167/2/3 147/2/3 165/2/3
f 168/2/3 166/2/3 143/2/3
f 169/2/3 147/2/3 167/2/3
f 170/2/3 168/2/3 143/2/3
f 171/2/3 147/2/3 169/2/3
f 172/2/3 170/2/3 143/2/3
f 173/2/3 147/2/3 171/2/3
f 174/2/3 172/2/3 143/2/3
f 175/2/3 172/2/3 174/2/3
f 177/2/3 147/2/3 173/2/3
f 178/2/3 147/2/3 177/2/3
f 179/1/3 176/1/3 175/1/3
f 180/2/3 177/2/3 176/2/3
f 180/1/3 176/1/3 179/1/3
f 181/2/3 177/2/3 180/2/3
f 182/1/4 183/1/4 186/1/4
f 183/2/4 184/2/4 187/2/4
f 186/1/4 183/1/4 187/1/4
f 187/2/4 184/2/4 188/2/4
f 185/2/4 186/2/4 190/2/4
f 188/2/4 189/2/4 191/2/4
f 185/2/4 190/2/4 192/2/4
f 191/2/4 189/2/4 193/2/4
f 185/2/4 192/2/4 194/2/4
f 193/2/4 189/2/4 195/2/4
f 185/2/4 194/2/4 196/2/4
f 195/2/4 189/2/4 197/2/4
f 185/2/4 196/2/4 198/2/4
f 197/2/4 189/2/4 199/2/4
f 185/2/4 198/2/4 200/2/4
f 199/2/4 189/2/4 201/2/4
f 185/2/4 200/2/4 202/2/4
f 201/2/4 189/2/4 203/2/4
f 185/2/4 202/2/4 204/2/4
f 203/2/4 189/2/4 205/2/4
f 185/2/4 204/2/4 206/2/4
f 205/2/4 189/2/4 207/2/4
f 185/2/4 206/2/4 208/2/4
f 207/2/4 189/2/4 209/2/4
f 185/2/4 208/2/4 210/2/4
f 209/2/4 189/2/4 211/2/4
f 185/2/4 210/2/4 212/2/4
f 211/2/4 189/2/4 213/2/4
f 185/2/4 212/2/4 214/2/4
f 213/2/4 189/2/4 215/2/4
f 185/2/4 214/2/4 216/2/4
f 216/2/4 214/2/4 217/2/4
f 215/2/4 189/2/4 219/2/4
f 219/2/4 189/2/4 220/2/4
f 217/2/4 218/2/4 221/2/4
f 218/1/4 219/1/4 222/1/4
f 221/2/4 218/2/4 222/2/4
f 222/1/4 219/1/4 223/1/4
f 224/2/4 225/2/4 227/2/4
f 225/1/4 226/1/4 228/1/4
f 227/2/4 225/2/4 228/2/4
f 228/1/4 226/1/4 229/1/4
f 227/1/4 228/1/4 230/1/4
f 228/2/4 229/2/4 231/2/4
f 230/1/4 228/1/4 231/1/4
f 231/2/4 229/2/4 232/2/4
f 230/2/4 231/2/4 233/2/4
f 231/1/4 232/1/4 234/1/4
f 233/2/4 231/2/4 234/2/4
f 234/1/4 232/1/4 235/1/4
f 233/1/4 234/1/4 236/1/4
f 234/2/4 235/2/4 237/2/4
f 236/1/4 234/1/4 237/1/4
f 237/2/4 235/2/4 238/2/4
f 236/2/4 237/2/4 239/2/4
f 237/1/4 238/1/4 240/1/4
f 239/2/4 237/2/4 240/2/4
f 240/1/4 238/1/4 241/1/4
f 239/1/4 240/1/4 242/1/4
f 240/2/4 241/2/4 243/2/4
f 242/1/4 240/1/4 243/1/4
f 243/2/4 241/2/4 244/2/4
f 242/2/4 243/2/4 245/2/4
f 243/1/4 244/1/4 246/1/4
f 245/2/4 243/2/4 246/2/4
f 246/1/4 244/1/4 247/1/4
f 245/1/4 246/1/4 248/1/4
f 246/2/4 247/2/4 249/2/4
f 248/1/4 246/1/4 249/1/4
f 249/2/4 247/2/4 250/2/4
f 248/2/4 249/2/4 251/2/4
f 249/1/4 250/1/4 252/1/4
f 251/2/4 249/2/4 252/2/4
f 252/1/4 250/1/4 253/1/4
f 251/1/4 252/1/4 254/1/4
f 252/2/4 253/2/4 255/2/4
f 254/1/4 252/1/4 255/1/4
f 255/2/4 253/2/4 256/2/4
f 254/2/4 255/2/4 257/2/4
f 255/1/4 256/1/4 258/1/4
f 257/2/4 255/2/4 258/2/4
f 258/1/4 256/1/4 259/1/4
f 257/1/4 258/1/4 260/1/4
f 258/2/4 259/2/4 261/2/4
f 260/1/4 258/1/4 261/1/4
f 261/2/4 259/2/4 262/2/4
f 260/2/4 261/2/4 263/2/4
f 261/1/4 262/1/4 264/1/4
f 263/2/4 261/2/4 264/2/4
f 264/1/4 262/1/4 265/1/4
f 263/1/4 264/1/4 266/1/4
f 264/2/4 265/2/4 267/2/4
f 266/1/4 264/1/4 267/1/4
f 267/2/4 265/2/4 268/2/4
f 271/2/5 270/2/5 269/2/5
f 272/2/5 270/2/5 271/2/5
f 289/1/5 274/1/5 273/1/5
f 290/2/5 275/2/5 274/2/5
f 290/1/5 274/1/5 289/1/5
f 291/1/5 276/1/5 275/1/5
f 291/2/5 275/2/5 290/2/5
f 292/2/5 277/2/5 276/2/5
f 292/1/5 276/1/5 291/1/5
f 293/1/5 278/1/5 277/1/5
f 293/2/5 277/2/5 292/2/5
f 294/2/5 279/2/5 278/2/5
f 294/1/5 278/1/5 293/1/5
f 295/1/5 280/1/5 279/1/5
f 295/2/5 279/2/5 294/2/5
f 296/2/5 281/2/5 280/2/5
f 296/1/5 280/1/5 295/1/5
f 297/1/5 282/1/5 281/1/5
f 297/2/5 281/2/5 296/2/5
f 298/2/5 283/2/5 282/2/5
f 298/1/5 282/1/5 297/1/5
f 299/1/5 284/1/5 283/1/5
f 299/2/5 283/2/5 298/2/5
f 300/2/5 285/2/5 284/2/5
f 300/1/5 284/1/5 299/1/5
f 301/1/5 286/1/5 285/1/5
f 301/2/5 285/2/5 300/2/5
f 302/2/5 287/2/5 286/2/5
f 302/1/5 286/1/5 301/1/5
f 303/2/5 287/2/5 302/2/5
f 305/2/5 289/2/5 288/2/5
f 306/2/5 289/2/5 305/2/5
f 307/1/5 304/1/5 303/1/5
f 308/1/5 304/1/5 307/1/5
f 309/1/5 306/1/5 305/1/5
f 310/1/5 306/1/5 309/1/5
f 311/2/5 308/2/5 307/2/5
f 312/2/5 308/2/5 311/2/5
f 313/2/5 310/2/5 309/2/5
f 314/2/5 310/2/5 313/2/5
f 315/1/5 312/1/5 311/1/5
f 316/1/5 312/1/5 315/1/5
f 317/1/5 314/1/5 313/1/5
f 318/1/5 314/1/5 317/1/5
f 319/2/5 316/2/5 315/2/5
f 320/2/5 316/2/5 319/2/5
f 321/2/5 318/2/5 317/2/5
f 322/2/5 318/2/5 321/2/5
f 323/1/5 320/1/5 319/1/5
f 324/1/5 320/1/5 323/1/5
f 325/1/5 322/1/5 321/1/5
f 326/1/5 322/1/5 325/1/5
f 340/2/5 324/2/5 323/2/5
f 341/2/5 324/2/5 340/2/5
f 342/2/5 327/2/5 326/2/5
f 343/1/5 328/1/5 327/1/5
f 343/2/5 327/2/5 342/2/5
f 344/2/5 329/2/5 328/2/5
f 344/1/5 328/1/5 343/1/5
f 345/1/5 330/1/5 329/1/5
f 345/2/5 329/2/5 344/2/5
f 346/2/5 331/2/5 330/2/5
f 346/1/5 330/1/5 345/1/5
f 347/1/5 332/1/5 331/1/5
f 347/2/5 331/2/5 346/2/5
f 348/2/5 333/2/5 332/2/5
f 348/1/5 332/1/5 347/1/5
f 349/1/5 334/1/5 333/1/5
f 349/2/5 333/2/5 348/2/5
f 350/2/5 335/2/5 334/2/5
f 350/1/5 334/1/5 349/1/5
f 351/1/5 336/1/5 335/1/5
f 351/2/5 335/2/5 350/2/5
f 352/2/5 337/2/5 336/2/5
f 352/1/5 336/1/5 351/1/5
f 353/1/5 338/1/5 337/1/5
f 353/2/5 337/2/5 352/2/5
f 354/2/5 339/2/5 338/2/5
f 354/1/5 338/1/5 353/1/5
f 355/1/5 340/1/5 339/1/5
f 355/2/5 339/2/5 354/2/5
f 356/1/5 340/1/5 355/1/5
f 357/2/6 358/2/6 373/2/6
f 358/1/6 359/1/6 374/1/6
f 373/2/6 358/2/6 374/2/6
f 359/2/6 360/2/6 375/2/6
f 374/1/6 359/1/6 375/1/6
f 360/1/6 361/1/6 376/1/6
f 375/2/6 360/2/6 376/2/6
f 361/2/6 362/2/6 377/2/6
f 376/1/6 361/1/6 377/1/6
f 362/1/6 363/1/6 378/1/6
f 377/2/6 362/2/6 378/2/6
f 363/2/6 364/2/6 379/2/6
f 378/1/6 363/1/6 379/1/6
f 364/1/6 365/1/6 380/1/6
f 379/2/6 364/2/6 380/2/6
f 365/2/6 366/2/6 381/2/6
f 380/1/6 365/1/6 381/1/6
f 366/1/6 367/1/6 382/1/6
f 381/2/6 366/2/6 382/2/6
f 367/2/6 368/2/6 383/2/6
f 382/1/6 367/1/6 383/1/6
f 368/1/6 369/1/6 384/1/6
f 383/2/6 368/2/6 384/2/6
f 369/2/6 370/2/6 385/2/6
f 384/1/6 369/1/6 385/1/6
f 370/1/6 371/1/6 386/1/6
f 385/2/6 370/2/6 386/2/6
f 386/1/6 371/1/6 387/1/6
f 372/1/6 373/1/6 389/1/6
f 389/1/6 373/1/6 390/1/6
f 387/2/6 388/2/6 391/2/6
f 391/2/6 388/2/6 392/2/6
f 389/2/6 390/2/6 393/2/6
f 393/2/6 390/2/6 394/2/6
f 391/1/6 392/1/6 395/1/6
f 395/1/6 392/1/6 396/1/6
f 393/1/6 394/1/6 397/1/6
f 397/1/6 394/1/6 398/1/6
f 395/2/6 396/2/6 399/2/6
f 399/2/6 396/2/6 400/2/6
f 397/2/6 398/2/6 401/2/6
f 401/2/6 398/2/6 402/2/6
f 399/1/6 400/1/6 403/1/6
f 403/1/6 400/1/6 404/1/6
f 401/1/6 402/1/6 405/1/6
f 405/1/6 402/1/6 406/1/6
f 403/2/6 404/2/6 407/2/6
f 407/2/6 404/2/6 408/2/6
f 405/2/6 406/2/6 409/2/6
f 409/2/6 406/2/6 410/2/6
f 407/1/6 408/1/6 424/1/6
f 424/1/6 408/1/6 425/1/6
f 410/1/6 411/1/6 426/1/6
f 411/2/6 412/2/6 427/2/6
f 426/1/6 411/1/6 427/1/6
f 412/1/6 413/1/6 428/1/6
f 427/2/6 412/2/6 428/2/6
f 413/2/6 414/2/6 429/2/6
f 428/1/6 413/1/6 429/1/6
f 414/1/6 415/1/6 430/1/6
f 429/2/6 414/2/6 430/2/6
f 415/2/6 416/2/6 431/2/6
f 430/1/6 415/1/6 431/1/6
f 416/1/6 417/1/6 432/1/6
f 431/2/6 416/2/6 432/2/6
f 417/2/6 418/2/6 433/2/6
f 432/1/6 417/1/6 433/1/6
f 418/1/6 419/1/6 434/1/6
f 433/2/6 418/2/6 434/2/6
f 419/2/6 420/2/6 435/2/6
f 434/1/6 419/1/6 435/1/6
f 420/1/6 421/1/6 436/1/6
f 435/2/6 420/2/6 436/2/6
f 421/2/6 422/2/6 437/2/6
f 436/1/6 421/1/6 437/1/6
f 422/1/6 423/1/6 438/1/6
f 437/2/6 422/2/6 438/2/6
f 423/2/6 424/2/6 439/2/6
f 438/1/6 423/1/6 439/1/6
f 439/2/6 424/2/6 440/2/6
f 441/2/6 442/2/6 443/2/6
f 443/2/6 442/2/6 444/2/6
f 444/2/6 442/2/6 445/2/6
f 445/2/6 442/2/6 446/2/6
f 441/2/6 443/2/6 447/2/6
f 443/1/6 444/1/6 447/1/6
f 444/2/6 445/2/6 448/2/6
f 447/1/6 444/1/6 448/1/6
f 448/2/6 445/2/6 449/2/6
f 449/2/6 445/2/6 450/2/6
f 450/2/6 445/2/6 451/2/6
f 451/2/6 445/2/6 452/2/6
f 445/1/6 446/1/6 453/1/6
f 452/2/6 445/2/6 453/2/6
f 446/2/6 442/2/6 454/2/6
f 453/1/6 446/1/6 454/1/6
f 441/2/6 447/2/6 455/2/6
f 447/2/6 448/2/6 455/2/6
f 448/2/6 449/2/6 455/2/6
f 455/2/6 449/2/6 456/2/6
f 449/1/6 450/1/6 457/1/6
f 456/2/6 449/2/6 457/2/6
f 450/2/6 451/2/6 458/2/6
f 457/1/6 450/1/6 458/1/6
f 451/1/6 452/1/6 459/1/6
f 458/2/6 451/2/6 459/2/6
f 452/2/6 453/2/6 460/2/6
f 459/1/6 452/1/6 460/1/6
f 453/2/6 454/2/6 460/2/6
f 460/2/6 454/2/6 461/2/6
f 461/2/6 454/2/6 462/2/6
f 441/2/6 455/2/6 463/2/6
f 463/2/6 455/2/6 464/2/6
f 455/1/6 456/1/6 465/1/6
f 464/2/6 455/2/6 465/2/6
f 458/2/6 459/2/6 466/2/6
f 465/1/6 456/1/6 466/1/6
f 457/2/6 458/2/6 466/2/6
f 456/2/6 457/2/6 466/2/6
f 459/2/6 460/2/6 466/2/6
f 460/2/6 461/2/6 466/2/6
f 466/2/6 461/2/6 467/2/6
f 467/2/6 461/2/6 468/2/6
f 461/1/6 462/1/6 469/1/6
f 468/2/6 461/2/6 469/2/6
f 462/2/6 454/2/6 470/2/6
f 469/1/6 462/1/6 470/1/6
f 441/2/6 463/2/6 471/2/6
f 463/1/6 464/1/6 471/1/6
f 464/2/6 465/2/6 472/2/6
f 471/1/6 464/1/6 472/1/6
f 465/2/6 466/2/6 472/2/6
f 466/2/6 467/2/6 472/2/6
f 467/1/6 468/1/6 473/1/6
f 472/2/6 467/2/6 473/2/6
f 468/2/6 469/2/6 474/2/6
f 473/1/6 468/1/6 474/1/6
f 469/2/6 470/2/6 474/2/6
f 441/2/6 471/2/6 475/2/6
f 472/2/6 473/2/6 475/2/6
f 473/2/6 474/2/6 475/2/6
f 471/2/6 472/2/6 475/2/6
f 474/2/6 470/2/6 476/2/6
f 475/2/6 474/2/6 476/2/6
f 470/2/6 454/2/6 476/2/6
f 454/2/6 442/2/6 476/2/6
