# MagicaVoxel @ Ephtracy

# group
o 

# material
mtllib admiral.mtl
usemtl palette

# normals
vn -1 0 0
vn 1 0 0
vn 0 0 1
vn 0 0 -1
vn 0 -1 0
vn 0 1 0

# texcoords
vt 0.00585938 0.5
vt 0.0136719 0.5
vt 0.0253906 0.5
vt 0.0292969 0.5
vt 0.0605469 0.5
vt 0.0683594 0.5
vt 0.0722656 0.5
vt 0.103516 0.5
vt 0.123047 0.5
vt 0.158203 0.5
vt 0.162109 0.5
vt 0.166016 0.5

# verts
v -0.4 0.6 0.1
v -0.4 0.6 -2.98023e-008
v -0.4 0.7 0.1
v -0.4 0.7 -2.98023e-008
v -0.4 0.9 0.1
v -0.4 0.9 -2.98023e-008
v -0.4 1 0.1
v -0.4 1 -2.98023e-008
v -0.3 0.2 0.3
v -0.3 0.2 0.2
v -0.3 0.2 -0.1
v -0.3 0.3 0.3
v -0.3 0.3 0.2
v -0.3 0.3 0.1
v -0.3 0.3 -2.98023e-008
v -0.3 0.3 -0.1
v -0.3 0.4 0.1
v -0.3 0.4 -2.98023e-008
v -0.3 0.6 0.1
v -0.3 0.6 -2.98023e-008
v -0.3 0.7 0.1
v -0.3 0.7 -2.98023e-008
v -0.3 0.8 0.1
v -0.3 0.8 -2.98023e-008
v -0.3 1 0.1
v -0.3 1 -2.98023e-008
v -0.3 1.1 0.1
v -0.3 1.1 -2.98023e-008
v -0.2 0 0.1
v -0.2 0 -2.98023e-008
v -0.2 0.1 0.1
v -0.2 0.1 -2.98023e-008
v -0.2 0.2 0.1
v -0.2 0.2 -2.98023e-008
v -0.2 0.3 0.2
v -0.2 0.3 0.1
v -0.2 0.3 -2.98023e-008
v -0.2 0.3 -0.1
v -0.2 0.4 0.2
v -0.2 0.4 0.1
v -0.2 0.4 -2.98023e-008
v -0.2 0.4 -0.1
v -0.2 0.5 0.2
v -0.2 0.5 0.1
v -0.2 0.6 0.1
v -0.2 0.6 -2.98023e-008
v -0.2 0.7 0.2
v -0.2 0.7 0.1
v -0.2 0.7 -2.98023e-008
v -0.2 0.7 -0.1
v -0.2 0.8 0.2
v -0.2 0.8 0.1
v -0.2 0.8 -2.98023e-008
v -0.2 0.8 -0.1
v -0.2 0.9 0.2
v -0.2 0.9 0.1
v -0.2 0.9 -2.98023e-008
v -0.2 0.9 -0.1
v -0.2 1 0.2
v -0.2 1 0.1
v -0.2 1 -2.98023e-008
v -0.2 1 -0.1
v -0.2 1.1 0.1
v -0.2 1.1 -2.98023e-008
v -0.2 1.2 0.1
v -0.2 1.2 -2.98023e-008
v -0.1 1 0.2
v -0.1 1 0.1
v -0.1 1 -2.98023e-008
v -0.1 1 -0.1
v -0.1 1.1 0.2
v -0.1 1.1 0.1
v -0.1 1.1 -2.98023e-008
v -0.1 1.1 -0.1
v -0.1 1.2 0.1
v -0.1 1.2 -2.98023e-008
v -0.1 1.3 0.1
v -0.1 1.3 -2.98023e-008
v 0.1 0 0.1
v 0.1 0 -2.98023e-008
v 0.1 0.1 0.1
v 0.1 0.1 -2.98023e-008
v 0.1 0.3 0.1
v 0.1 0.3 -2.98023e-008
v 0.3 0.4 0.1
v 0.3 0.4 -2.98023e-008
v 0.3 0.6 0.1
v 0.3 0.6 -2.98023e-008
v -0.2 0.2 0.3
v -0.2 0.2 0.2
v -0.2 0.2 0.1
v -0.2 0.2 -2.98023e-008
v -0.2 0.2 -0.1
v -0.2 0.3 0.3
v -0.2 0.3 0.2
v -0.2 0.3 0.1
v -0.2 0.3 -2.98023e-008
v -0.2 0.3 -0.1
v -0.1 0 0.1
v -0.1 0 -2.98023e-008
v -0.1 0.1 0.1
v -0.1 0.1 -2.98023e-008
v -0.1 0.3 0.1
v -0.1 0.3 -2.98023e-008
v 0.1 1 0.2
v 0.1 1 0.1
v 0.1 1 -2.98023e-008
v 0.1 1 -0.1
v 0.1 1.1 0.2
v 0.1 1.1 0.1
v 0.1 1.1 -2.98023e-008
v 0.1 1.1 -0.1
v 0.1 1.2 0.1
v 0.1 1.2 -2.98023e-008
v 0.1 1.3 0.1
v 0.1 1.3 -2.98023e-008
v 0.2 0 0.1
v 0.2 0 -2.98023e-008
v 0.2 0.1 0.1
v 0.2 0.1 -2.98023e-008
v 0.2 0.3 0.2
v 0.2 0.3 0.1
v 0.2 0.3 -2.98023e-008
v 0.2 0.3 -0.1
v 0.2 0.4 0.2
v 0.2 0.4 0.1
v 0.2 0.4 -2.98023e-008
v 0.2 0.4 -0.1
v 0.2 0.6 0.1
v 0.2 0.6 -2.98023e-008
v 0.2 0.7 0.2
v 0.2 0.7 0.1
v 0.2 0.7 -2.98023e-008
v 0.2 0.7 -0.1
v 0.2 0.8 0.2
v 0.2 0.8 0.1
v 0.2 0.8 -2.98023e-008
v 0.2 0.8 -0.1
v 0.2 0.9 0.2
v 0.2 0.9 0.1
v 0.2 0.9 -2.98023e-008
v 0.2 0.9 -0.1
v 0.2 1 0.2
v 0.2 1 0.1
v 0.2 1 -2.98023e-008
v 0.2 1 -0.1
v 0.2 1.1 0.1
v 0.2 1.1 -2.98023e-008
v 0.2 1.2 0.1
v 0.2 1.2 -2.98023e-008
v 0.3 0.3 0.1
v 0.3 0.3 -2.98023e-008
v 0.3 0.4 0.1
v 0.3 0.4 -2.98023e-008
v 0.3 0.7 0.1
v 0.3 0.7 -2.98023e-008
v 0.3 0.8 0.1
v 0.3 0.8 -2.98023e-008
v 0.3 1 0.1
v 0.3 1 -2.98023e-008
v 0.3 1.1 0.1
v 0.3 1.1 -2.98023e-008
v 0.4 0.4 0.1
v 0.4 0.4 -2.98023e-008
v 0.4 0.6 0.1
v 0.4 0.6 -2.98023e-008
v 0.4 0.7 0.1
v 0.4 0.7 -2.98023e-008
v 0.4 0.9 0.1
v 0.4 0.9 -2.98023e-008
v 0.4 1 0.1
v 0.4 1 -2.98023e-008
v -0.3 0.2 0.3
v -0.3 0.3 0.3
v -0.2 0.2 0.3
v -0.2 0.3 0.3
v -0.2 0.3 0.2
v -0.2 0.4 0.2
v -0.2 0.5 0.2
v -0.2 0.7 0.2
v -0.2 0.8 0.2
v -0.2 0.9 0.2
v -0.2 1 0.2
v -0.1 0.4 0.2
v -0.1 0.5 0.2
v -0.1 0.7 0.2
v -0.1 0.8 0.2
v -0.1 0.9 0.2
v -0.1 1 0.2
v -0.1 1.1 0.2
v 0 0.4 0.2
v 0 0.5 0.2
v 0.1 0.7 0.2
v 0.1 0.8 0.2
v 0.1 0.9 0.2
v 0.1 1 0.2
v 0.1 1.1 0.2
v 0.2 0.3 0.2
v 0.2 0.4 0.2
v 0.2 0.7 0.2
v 0.2 0.8 0.2
v 0.2 0.9 0.2
v 0.2 1 0.2
v -0.4 0.6 0.1
v -0.4 0.7 0.1
v -0.4 0.9 0.1
v -0.4 1 0.1
v -0.3 0.3 0.1
v -0.3 0.4 0.1
v -0.3 0.6 0.1
v -0.3 0.7 0.1
v -0.3 0.8 0.1
v -0.3 0.9 0.1
v -0.3 1 0.1
v -0.3 1.1 0.1
v -0.2 0 0.1
v -0.2 0.1 0.1
v -0.2 0.2 0.1
v -0.2 0.3 0.1
v -0.2 0.4 0.1
v -0.2 0.5 0.1
v -0.2 0.6 0.1
v -0.2 0.7 0.1
v -0.2 0.8 0.1
v -0.2 0.9 0.1
v -0.2 1 0.1
v -0.2 1.1 0.1
v -0.2 1.2 0.1
v -0.1 0 0.1
v -0.1 0.1 0.1
v -0.1 0.3 0.1
v -0.1 1 0.1
v -0.1 1.1 0.1
v -0.1 1.2 0.1
v -0.1 1.3 0.1
v 0.1 0 0.1
v 0.1 0.1 0.1
v 0.1 0.3 0.1
v 0.1 1 0.1
v 0.1 1.1 0.1
v 0.1 1.2 0.1
v 0.1 1.3 0.1
v 0.2 0 0.1
v 0.2 0.1 0.1
v 0.2 0.3 0.1
v 0.2 0.4 0.1
v 0.2 0.6 0.1
v 0.2 0.7 0.1
v 0.2 0.8 0.1
v 0.2 0.9 0.1
v 0.2 1 0.1
v 0.2 1.1 0.1
v 0.2 1.2 0.1
v 0.3 0.3 0.1
v 0.3 0.4 0.1
v 0.3 0.6 0.1
v 0.3 0.7 0.1
v 0.3 0.8 0.1
v 0.3 0.9 0.1
v 0.3 1 0.1
v 0.3 1.1 0.1
v 0.4 0.4 0.1
v 0.4 0.6 0.1
v 0.4 0.7 0.1
v 0.4 0.9 0.1
v 0.4 1 0.1
v -0.4 0.6 -2.98023e-008
v -0.4 0.7 -2.98023e-008
v -0.4 0.9 -2.98023e-008
v -0.4 1 -2.98023e-008
v -0.3 0.3 -2.98023e-008
v -0.3 0.4 -2.98023e-008
v -0.3 0.6 -2.98023e-008
v -0.3 0.7 -2.98023e-008
v -0.3 0.8 -2.98023e-008
v -0.3 0.9 -2.98023e-008
v -0.3 1 -2.98023e-008
v -0.3 1.1 -2.98023e-008
v -0.2 0 -2.98023e-008
v -0.2 0.1 -2.98023e-008
v -0.2 0.2 -2.98023e-008
v -0.2 0.3 -2.98023e-008
v -0.2 0.4 -2.98023e-008
v -0.2 0.6 -2.98023e-008
v -0.2 0.7 -2.98023e-008
v -0.2 0.8 -2.98023e-008
v -0.2 0.9 -2.98023e-008
v -0.2 1 -2.98023e-008
v -0.2 1.1 -2.98023e-008
v -0.2 1.2 -2.98023e-008
v -0.1 0 -2.98023e-008
v -0.1 0.1 -2.98023e-008
v -0.1 0.3 -2.98023e-008
v -0.1 1 -2.98023e-008
v -0.1 1.1 -2.98023e-008
v -0.1 1.2 -2.98023e-008
v -0.1 1.3 -2.98023e-008
v 0.1 0 -2.98023e-008
v 0.1 0.1 -2.98023e-008
v 0.1 0.3 -2.98023e-008
v 0.1 1 -2.98023e-008
v 0.1 1.1 -2.98023e-008
v 0.1 1.2 -2.98023e-008
v 0.1 1.3 -2.98023e-008
v 0.2 0 -2.98023e-008
v 0.2 0.1 -2.98023e-008
v 0.2 0.3 -2.98023e-008
v 0.2 0.4 -2.98023e-008
v 0.2 0.6 -2.98023e-008
v 0.2 0.7 -2.98023e-008
v 0.2 0.8 -2.98023e-008
v 0.2 0.9 -2.98023e-008
v 0.2 1 -2.98023e-008
v 0.2 1.1 -2.98023e-008
v 0.2 1.2 -2.98023e-008
v 0.3 0.3 -2.98023e-008
v 0.3 0.4 -2.98023e-008
v 0.3 0.6 -2.98023e-008
v 0.3 0.7 -2.98023e-008
v 0.3 0.8 -2.98023e-008
v 0.3 0.9 -2.98023e-008
v 0.3 1 -2.98023e-008
v 0.3 1.1 -2.98023e-008
v 0.4 0.4 -2.98023e-008
v 0.4 0.6 -2.98023e-008
v 0.4 0.7 -2.98023e-008
v 0.4 0.9 -2.98023e-008
v 0.4 1 -2.98023e-008
v -0.3 0.2 -0.1
v -0.3 0.3 -0.1
v -0.2 0.2 -0.1
v -0.2 0.3 -0.1
v -0.2 0.4 -0.1
v -0.2 0.7 -0.1
v -0.2 0.8 -0.1
v -0.2 0.9 -0.1
v -0.2 1 -0.1
v -0.1 1 -0.1
v -0.1 1.1 -0.1
v 0.1 1 -0.1
v 0.1 1.1 -0.1
v 0.2 0.3 -0.1
v 0.2 0.4 -0.1
v 0.2 0.7 -0.1
v 0.2 0.8 -0.1
v 0.2 0.9 -0.1
v 0.2 1 -0.1
v -0.2 0 0.1
v -0.1 0 0.1
v 0.1 0 0.1
v 0.2 0 0.1
v -0.2 0 -2.98023e-008
v -0.1 0 -2.98023e-008
v 0.1 0 -2.98023e-008
v 0.2 0 -2.98023e-008
v -0.3 0.2 0.3
v -0.2 0.2 0.3
v -0.3 0.2 0.2
v -0.2 0.2 0.2
v -0.2 0.2 0.1
v -0.2 0.2 -2.98023e-008
v -0.3 0.2 -0.1
v -0.2 0.2 -0.1
v -0.2 0.3 0.2
v 0.2 0.3 0.2
v -0.2 0.3 0.1
v -0.1 0.3 0.1
v 0.1 0.3 0.1
v 0.2 0.3 0.1
v 0.3 0.3 0.1
v -0.2 0.3 -2.98023e-008
v -0.1 0.3 -2.98023e-008
v 0.1 0.3 -2.98023e-008
v 0.2 0.3 -2.98023e-008
v 0.3 0.3 -2.98023e-008
v -0.2 0.3 -0.1
v 0.2 0.3 -0.1
v 0.3 0.4 0.1
v 0.4 0.4 0.1
v 0.3 0.4 -2.98023e-008
v 0.4 0.4 -2.98023e-008
v -0.4 0.6 0.1
v -0.3 0.6 0.1
v 0.2 0.6 0.1
v 0.3 0.6 0.1
v -0.4 0.6 -2.98023e-008
v -0.3 0.6 -2.98023e-008
v 0.2 0.6 -2.98023e-008
v 0.3 0.6 -2.98023e-008
v -0.4 0.9 0.1
v -0.3 0.9 0.1
v -0.2 0.9 0.1
v 0.2 0.9 0.1
v 0.3 0.9 0.1
v 0.4 0.9 0.1
v -0.4 0.9 -2.98023e-008
v -0.3 0.9 -2.98023e-008
v -0.2 0.9 -2.98023e-008
v 0.2 0.9 -2.98023e-008
v 0.3 0.9 -2.98023e-008
v 0.4 0.9 -2.98023e-008
v -0.3 0.3 0.3
v -0.2 0.3 0.3
v -0.3 0.3 0.2
v -0.2 0.3 0.2
v -0.3 0.3 0.1
v -0.2 0.3 0.1
v -0.3 0.3 -2.98023e-008
v -0.2 0.3 -2.98023e-008
v -0.3 0.3 -0.1
v -0.2 0.3 -0.1
v 0.2 0.4 0.1
v 0.3 0.4 0.1
v 0.2 0.4 -2.98023e-008
v 0.3 0.4 -2.98023e-008
v -0.4 0.7 0.1
v -0.3 0.7 0.1
v 0.3 0.7 0.1
v 0.4 0.7 0.1
v -0.4 0.7 -2.98023e-008
v -0.3 0.7 -2.98023e-008
v 0.3 0.7 -2.98023e-008
v 0.4 0.7 -2.98023e-008
v -0.3 0.8 0.1
v -0.2 0.8 0.1
v 0.2 0.8 0.1
v 0.3 0.8 0.1
v -0.3 0.8 -2.98023e-008
v -0.2 0.8 -2.98023e-008
v 0.2 0.8 -2.98023e-008
v 0.3 0.8 -2.98023e-008
v -0.2 1 0.2
v -0.1 1 0.2
v 0.1 1 0.2
v 0.2 1 0.2
v -0.4 1 0.1
v -0.3 1 0.1
v -0.2 1 0.1
v -0.1 1 0.1
v 0.1 1 0.1
v 0.2 1 0.1
v 0.3 1 0.1
v 0.4 1 0.1
v -0.4 1 -2.98023e-008
v -0.3 1 -2.98023e-008
v -0.2 1 -2.98023e-008
v -0.1 1 -2.98023e-008
v 0.1 1 -2.98023e-008
v 0.2 1 -2.98023e-008
v 0.3 1 -2.98023e-008
v 0.4 1 -2.98023e-008
v -0.2 1 -0.1
v -0.1 1 -0.1
v 0.1 1 -0.1
v 0.2 1 -0.1
v -0.1 1.1 0.2
v 0.1 1.1 0.2
v -0.3 1.1 0.1
v -0.2 1.1 0.1
v -0.1 1.1 0.1
v 0.1 1.1 0.1
v 0.2 1.1 0.1
v 0.3 1.1 0.1
v -0.3 1.1 -2.98023e-008
v -0.2 1.1 -2.98023e-008
v -0.1 1.1 -2.98023e-008
v 0.1 1.1 -2.98023e-008
v 0.2 1.1 -2.98023e-008
v 0.3 1.1 -2.98023e-008
v -0.1 1.1 -0.1
v 0.1 1.1 -0.1
v -0.2 1.2 0.1
v -0.1 1.2 0.1
v 0.1 1.2 0.1
v 0.2 1.2 0.1
v -0.2 1.2 -2.98023e-008
v -0.1 1.2 -2.98023e-008
v 0.1 1.2 -2.98023e-008
v 0.2 1.2 -2.98023e-008
v -0.1 1.3 0.1
v 0.1 1.3 0.1
v -0.1 1.3 -2.98023e-008
v 0.1 1.3 -2.98023e-008

# faces
f 3/3/1 2/3/1 1/3/1
f 4/3/1 2/3/1 3/3/1
f 7/3/1 6/3/1 5/3/1
f 8/3/1 6/3/1 7/3/1
f 12/5/1 10/5/1 9/5/1
f 13/6/1 11/6/1 10/6/1
f 13/5/1 10/5/1 12/5/1
f 14/6/1 11/6/1 13/6/1
f 15/6/1 11/6/1 14/6/1
f 16/6/1 11/6/1 15/6/1
f 17/4/1 15/4/1 14/4/1
f 18/4/1 15/4/1 17/4/1
f 19/12/1 18/12/1 17/12/1
f 20/12/1 18/12/1 19/12/1
f 23/3/1 22/3/1 21/3/1
f 24/3/1 22/3/1 23/3/1
f 27/3/1 26/3/1 25/3/1
f 28/3/1 26/3/1 27/3/1
f 31/10/1 30/10/1 29/10/1
f 32/10/1 30/10/1 31/10/1
f 33/4/1 32/4/1 31/4/1
f 34/4/1 32/4/1 33/4/1
f 39/4/1 36/4/1 35/4/1
f 40/4/1 36/4/1 39/4/1
f 41/4/1 38/4/1 37/4/1
f 42/4/1 38/4/1 41/4/1
f 43/11/1 40/11/1 39/11/1
f 44/11/1 40/11/1 43/11/1
f 45/3/1 44/3/1 43/3/1
f 46/11/1 42/11/1 41/11/1
f 47/3/1 45/3/1 43/3/1
f 48/3/1 45/3/1 47/3/1
f 49/11/1 42/11/1 46/11/1
f 50/11/1 42/11/1 49/11/1
f 51/9/1 48/9/1 47/9/1
f 52/9/1 48/9/1 51/9/1
f 53/9/1 50/9/1 49/9/1
f 54/9/1 50/9/1 53/9/1
f 55/8/1 52/8/1 51/8/1
f 56/7/1 53/7/1 52/7/1
f 56/8/1 52/8/1 55/8/1
f 56/7/1 54/7/1 53/7/1
f 57/7/1 54/7/1 56/7/1
f 58/7/1 54/7/1 57/7/1
f 59/10/1 56/10/1 55/10/1
f 60/10/1 56/10/1 59/10/1
f 61/10/1 58/10/1 57/10/1
f 62/10/1 58/10/1 61/10/1
f 65/3/1 64/3/1 63/3/1
f 66/3/1 64/3/1 65/3/1
f 71/10/1 68/10/1 67/10/1
f 72/10/1 68/10/1 71/10/1
f 73/10/1 70/10/1 69/10/1
f 74/10/1 70/10/1 73/10/1
f 77/3/1 76/3/1 75/3/1
f 78/3/1 76/3/1 77/3/1
f 81/10/1 80/10/1 79/10/1
f 82/10/1 80/10/1 81/10/1
f 83/4/1 82/4/1 81/4/1
f 84/4/1 82/4/1 83/4/1
f 87/12/1 86/12/1 85/12/1
f 88/12/1 86/12/1 87/12/1
f 89/5/2 90/5/2 94/5/2
f 90/6/2 91/6/2 95/6/2
f 94/5/2 90/5/2 95/5/2
f 95/6/2 91/6/2 96/6/2
f 92/6/2 93/6/2 97/6/2
f 97/6/2 93/6/2 98/6/2
f 99/10/2 100/10/2 101/10/2
f 101/10/2 100/10/2 102/10/2
f 101/4/2 102/4/2 103/4/2
f 103/4/2 102/4/2 104/4/2
f 105/10/2 106/10/2 109/10/2
f 109/10/2 106/10/2 110/10/2
f 107/10/2 108/10/2 111/10/2
f 111/10/2 108/10/2 112/10/2
f 113/3/2 114/3/2 115/3/2
f 115/3/2 114/3/2 116/3/2
f 117/10/2 118/10/2 119/10/2
f 119/10/2 118/10/2 120/10/2
f 119/4/2 120/4/2 122/4/2
f 122/4/2 120/4/2 123/4/2
f 121/4/2 122/4/2 125/4/2
f 125/4/2 122/4/2 126/4/2
f 123/4/2 124/4/2 127/4/2
f 127/4/2 124/4/2 128/4/2
f 125/11/2 126/11/2 129/11/2
f 126/11/2 127/11/2 129/11/2
f 127/11/2 128/11/2 129/11/2
f 129/11/2 128/11/2 130/11/2
f 125/11/2 129/11/2 131/11/2
f 131/11/2 129/11/2 132/11/2
f 130/11/2 128/11/2 133/11/2
f 133/11/2 128/11/2 134/11/2
f 131/9/2 132/9/2 135/9/2
f 135/9/2 132/9/2 136/9/2
f 133/9/2 134/9/2 137/9/2
f 137/9/2 134/9/2 138/9/2
f 135/8/2 136/8/2 139/8/2
f 136/7/2 137/7/2 140/7/2
f 139/8/2 136/8/2 140/8/2
f 137/7/2 138/7/2 140/7/2
f 140/7/2 138/7/2 141/7/2
f 141/7/2 138/7/2 142/7/2
f 139/10/2 140/10/2 143/10/2
f 143/10/2 140/10/2 144/10/2
f 141/10/2 142/10/2 145/10/2
f 145/10/2 142/10/2 146/10/2
f 147/3/2 148/3/2 149/3/2
f 149/3/2 148/3/2 150/3/2
f 151/4/2 152/4/2 153/4/2
f 153/4/2 152/4/2 154/4/2
f 155/3/2 156/3/2 157/3/2
f 157/3/2 156/3/2 158/3/2
f 159/3/2 160/3/2 161/3/2
f 161/3/2 160/3/2 162/3/2
f 163/12/2 164/12/2 165/12/2
f 165/12/2 164/12/2 166/12/2
f 165/3/2 166/3/2 167/3/2
f 167/3/2 166/3/2 168/3/2
f 169/3/2 170/3/2 171/3/2
f 171/3/2 170/3/2 172/3/2
f 175/5/3 174/5/3 173/5/3
f 176/5/3 174/5/3 175/5/3
f 184/4/3 178/4/3 177/4/3
f 184/11/3 179/11/3 178/11/3
f 185/3/3 180/3/3 179/3/3
f 185/11/3 179/11/3 184/11/3
f 186/9/3 181/9/3 180/9/3
f 186/3/3 180/3/3 185/3/3
f 187/8/3 182/8/3 181/8/3
f 187/9/3 181/9/3 186/9/3
f 188/10/3 183/10/3 182/10/3
f 188/8/3 182/8/3 187/8/3
f 189/10/3 183/10/3 188/10/3
f 191/4/3 184/4/3 177/4/3
f 191/3/3 185/3/3 184/3/3
f 192/11/3 186/11/3 185/11/3
f 192/3/3 185/3/3 191/3/3
f 193/2/3 187/2/3 186/2/3
f 193/11/3 186/11/3 192/11/3
f 193/11/3 192/11/3 191/11/3
f 194/9/3 188/9/3 187/9/3
f 194/2/3 187/2/3 193/2/3
f 195/10/3 190/10/3 189/10/3
f 195/9/3 188/9/3 194/9/3
f 195/10/3 189/10/3 188/10/3
f 196/10/3 190/10/3 195/10/3
f 197/10/3 190/10/3 196/10/3
f 198/4/3 191/4/3 177/4/3
f 199/11/3 193/11/3 191/11/3
f 199/4/3 191/4/3 198/4/3
f 200/9/3 194/9/3 193/9/3
f 200/11/3 193/11/3 199/11/3
f 201/8/3 195/8/3 194/8/3
f 201/9/3 194/9/3 200/9/3
f 202/10/3 196/10/3 195/10/3
f 202/8/3 195/8/3 201/8/3
f 203/10/3 196/10/3 202/10/3
f 210/3/3 205/3/3 204/3/3
f 211/3/3 205/3/3 210/3/3
f 213/3/3 207/3/3 206/3/3
f 214/3/3 207/3/3 213/3/3
f 219/4/3 209/4/3 208/4/3
f 220/12/3 210/12/3 209/12/3
f 220/4/3 209/4/3 219/4/3
f 221/12/3 210/12/3 220/12/3
f 222/4/3 211/4/3 210/4/3
f 222/12/3 210/12/3 221/12/3
f 223/3/3 212/3/3 211/3/3
f 223/4/3 211/4/3 222/4/3
f 224/3/3 212/3/3 223/3/3
f 225/10/3 214/10/3 213/10/3
f 226/3/3 215/3/3 214/3/3
f 226/10/3 214/10/3 225/10/3
f 227/3/3 215/3/3 226/3/3
f 229/10/3 217/10/3 216/10/3
f 230/4/3 218/4/3 217/4/3
f 230/10/3 217/10/3 229/10/3
f 230/4/3 219/4/3 218/4/3
f 231/4/3 219/4/3 230/4/3
f 232/10/3 227/10/3 226/10/3
f 233/3/3 228/3/3 227/3/3
f 233/10/3 227/10/3 232/10/3
f 234/3/3 228/3/3 233/3/3
f 240/10/3 234/10/3 233/10/3
f 241/3/3 235/3/3 234/3/3
f 241/10/3 234/10/3 240/10/3
f 242/3/3 235/3/3 241/3/3
f 243/10/3 237/10/3 236/10/3
f 244/4/3 238/4/3 237/4/3
f 244/10/3 237/10/3 243/10/3
f 245/4/3 238/4/3 244/4/3
f 251/10/3 240/10/3 239/10/3
f 252/3/3 241/3/3 240/3/3
f 252/10/3 240/10/3 251/10/3
f 253/3/3 241/3/3 252/3/3
f 254/4/3 246/4/3 245/4/3
f 255/4/3 246/4/3 254/4/3
f 256/4/3 248/4/3 247/4/3
f 257/3/3 249/3/3 248/3/3
f 257/4/3 248/4/3 256/4/3
f 258/3/3 249/3/3 257/3/3
f 259/10/3 251/10/3 250/10/3
f 260/3/3 252/3/3 251/3/3
f 260/10/3 251/10/3 259/10/3
f 261/3/3 252/3/3 260/3/3
f 262/12/3 256/12/3 255/12/3
f 263/3/3 257/3/3 256/3/3
f 263/12/3 256/12/3 262/12/3
f 264/3/3 257/3/3 263/3/3
f 265/3/3 260/3/3 259/3/3
f 266/3/3 260/3/3 265/3/3
f 267/3/4 268/3/4 273/3/4
f 273/3/4 268/3/4 274/3/4
f 269/3/4 270/3/4 276/3/4
f 276/3/4 270/3/4 277/3/4
f 271/4/4 272/4/4 282/4/4
f 272/12/4 273/12/4 283/12/4
f 282/4/4 272/4/4 283/4/4
f 273/4/4 274/4/4 284/4/4
f 283/12/4 273/12/4 284/12/4
f 274/3/4 275/3/4 285/3/4
f 284/4/4 274/4/4 285/4/4
f 285/3/4 275/3/4 286/3/4
f 276/10/4 277/10/4 287/10/4
f 277/3/4 278/3/4 288/3/4
f 287/10/4 277/10/4 288/10/4
f 288/3/4 278/3/4 289/3/4
f 279/10/4 280/10/4 291/10/4
f 280/4/4 281/4/4 292/4/4
f 291/10/4 280/10/4 292/10/4
f 281/4/4 282/4/4 292/4/4
f 292/4/4 282/4/4 293/4/4
f 288/10/4 289/10/4 294/10/4
f 289/3/4 290/3/4 295/3/4
f 294/10/4 289/10/4 295/10/4
f 295/3/4 290/3/4 296/3/4
f 295/10/4 296/10/4 302/10/4
f 296/3/4 297/3/4 303/3/4
f 302/10/4 296/10/4 303/10/4
f 303/3/4 297/3/4 304/3/4
f 298/10/4 299/10/4 305/10/4
f 299/4/4 300/4/4 306/4/4
f 305/10/4 299/10/4 306/10/4
f 306/4/4 300/4/4 307/4/4
f 301/10/4 302/10/4 313/10/4
f 302/3/4 303/3/4 314/3/4
f 313/10/4 302/10/4 314/10/4
f 314/3/4 303/3/4 315/3/4
f 307/4/4 308/4/4 316/4/4
f 316/4/4 308/4/4 317/4/4
f 309/4/4 310/4/4 318/4/4
f 310/3/4 311/3/4 319/3/4
f 318/4/4 310/4/4 319/4/4
f 319/3/4 311/3/4 320/3/4
f 312/10/4 313/10/4 321/10/4
f 313/3/4 314/3/4 322/3/4
f 321/10/4 313/10/4 322/10/4
f 322/3/4 314/3/4 323/3/4
f 317/12/4 318/12/4 324/12/4
f 318/3/4 319/3/4 325/3/4
f 324/12/4 318/12/4 325/12/4
f 325/3/4 319/3/4 326/3/4
f 321/3/4 322/3/4 327/3/4
f 327/3/4 322/3/4 328/3/4
f 329/6/4 330/6/4 331/6/4
f 331/6/4 330/6/4 332/6/4
f 336/10/4 337/10/4 338/10/4
f 336/10/4 338/10/4 340/10/4
f 338/10/4 339/10/4 340/10/4
f 340/10/4 339/10/4 341/10/4
f 332/4/4 333/4/4 342/4/4
f 333/11/4 334/11/4 343/11/4
f 342/4/4 333/4/4 343/4/4
f 334/9/4 335/9/4 344/9/4
f 343/11/4 334/11/4 344/11/4
f 335/7/4 336/7/4 345/7/4
f 344/9/4 335/9/4 345/9/4
f 336/10/4 340/10/4 346/10/4
f 345/7/4 336/7/4 346/7/4
f 346/10/4 340/10/4 347/10/4
f 352/10/5 349/10/5 348/10/5
f 353/10/5 349/10/5 352/10/5
f 354/10/5 351/10/5 350/10/5
f 355/10/5 351/10/5 354/10/5
f 358/5/5 357/5/5 356/5/5
f 359/5/5 357/5/5 358/5/5
f 360/6/5 359/6/5 358/6/5
f 361/6/5 360/6/5 358/6/5
f 362/6/5 361/6/5 358/6/5
f 363/6/5 361/6/5 362/6/5
f 366/4/5 365/4/5 364/4/5
f 367/4/5 365/4/5 366/4/5
f 368/4/5 365/4/5 367/4/5
f 369/4/5 365/4/5 368/4/5
f 372/4/5 368/4/5 367/4/5
f 373/4/5 368/4/5 372/4/5
f 374/4/5 370/4/5 369/4/5
f 375/4/5 370/4/5 374/4/5
f 376/4/5 373/4/5 372/4/5
f 376/4/5 372/4/5 371/4/5
f 376/4/5 374/4/5 373/4/5
f 377/4/5 374/4/5 376/4/5
f 380/12/5 379/12/5 378/12/5
f 381/12/5 379/12/5 380/12/5
f 386/3/5 383/3/5 382/3/5
f 387/3/5 383/3/5 386/3/5
f 388/4/5 385/4/5 384/4/5
f 389/4/5 385/4/5 388/4/5
f 396/3/5 391/3/5 390/3/5
f 397/10/5 392/10/5 391/10/5
f 397/3/5 391/3/5 396/3/5
f 398/10/5 392/10/5 397/10/5
f 399/10/5 394/10/5 393/10/5
f 400/3/5 395/3/5 394/3/5
f 400/10/5 394/10/5 399/10/5
f 401/3/5 395/3/5 400/3/5
f 402/5/6 403/5/6 404/5/6
f 404/5/6 403/5/6 405/5/6
f 404/6/6 405/6/6 406/6/6
f 406/6/6 405/6/6 407/6/6
f 408/6/6 409/6/6 410/6/6
f 410/6/6 409/6/6 411/6/6
f 412/4/6 413/4/6 414/4/6
f 414/4/6 413/4/6 415/4/6
f 416/3/6 417/3/6 420/3/6
f 420/3/6 417/3/6 421/3/6
f 418/3/6 419/3/6 422/3/6
f 422/3/6 419/3/6 423/3/6
f 424/3/6 425/3/6 428/3/6
f 428/3/6 425/3/6 429/3/6
f 426/3/6 427/3/6 430/3/6
f 430/3/6 427/3/6 431/3/6
f 432/10/6 433/10/6 438/10/6
f 438/10/6 433/10/6 439/10/6
f 434/10/6 435/10/6 440/10/6
f 440/10/6 435/10/6 441/10/6
f 436/3/6 437/3/6 444/3/6
f 444/3/6 437/3/6 445/3/6
f 442/3/6 443/3/6 450/3/6
f 450/3/6 443/3/6 451/3/6
f 446/10/6 447/10/6 452/10/6
f 452/10/6 447/10/6 453/10/6
f 448/10/6 449/10/6 454/10/6
f 454/10/6 449/10/6 455/10/6
f 456/10/6 457/10/6 460/10/6
f 460/10/6 457/10/6 461/10/6
f 458/3/6 459/3/6 464/3/6
f 464/3/6 459/3/6 465/3/6
f 462/3/6 463/3/6 468/3/6
f 468/3/6 463/3/6 469/3/6
f 466/10/6 467/10/6 470/10/6
f 470/10/6 467/10/6 471/10/6
f 472/3/6 473/3/6 476/3/6
f 476/3/6 473/3/6 477/3/6
f 474/3/6 475/3/6 478/3/6
f 478/3/6 475/3/6 479/3/6
f 480/3/6 481/3/6 482/3/6
f 482/3/6 481/3/6 483/3/6
