# MagicaVoxel @ Ephtracy

# group
o 

# material
mtllib gentleman.mtl
usemtl palette

# normals
vn -1 0 0
vn 1 0 0
vn 0 0 1
vn 0 0 -1
vn 0 -1 0
vn 0 1 0

# texcoords
vt 0.00195313 0.5
vt 0.00585938 0.5
vt 0.0292969 0.5
vt 0.0683594 0.5
vt 0.0839844 0.5
vt 0.0878906 0.5
vt 0.103516 0.5
vt 0.123047 0.5
vt 0.158203 0.5
vt 0.162109 0.5
vt 0.166016 0.5

# verts
v -0.7 0.7 0.1
v -0.7 0.7 -2.98023e-008
v -0.7 0.8 0.1
v -0.7 0.8 -2.98023e-008
v -0.6 0.8 0.1
v -0.6 0.8 -2.98023e-008
v -0.6 0.9 0.1
v -0.6 0.9 -2.98023e-008
v -0.5 0.6 0.1
v -0.5 0.6 -2.98023e-008
v -0.5 0.7 0.1
v -0.5 0.7 -2.98023e-008
v -0.5 0.9 0.1
v -0.5 0.9 -2.98023e-008
v -0.5 1.1 0.1
v -0.5 1.1 -2.98023e-008
v -0.4 0.5 0.1
v -0.4 0.5 -2.98023e-008
v -0.4 0.6 0.1
v -0.4 0.6 -2.98023e-008
v -0.3 0.6 0.1
v -0.3 0.6 -2.98023e-008
v -0.3 0.7 0.1
v -0.3 0.7 -2.98023e-008
v -0.3 0.9 0.3
v -0.3 0.9 -0.2
v -0.3 1 0.3
v -0.3 1 -0.2
v -0.2 0 0.1
v -0.2 0 -2.98023e-008
v -0.2 0.1 0.1
v -0.2 0.1 -2.98023e-008
v -0.2 0.1 -0.1
v -0.2 0.3 0.2
v -0.2 0.3 0.1
v -0.2 0.3 -2.98023e-008
v -0.2 0.6 0.1
v -0.2 0.6 -2.98023e-008
v -0.2 0.7 0.2
v -0.2 0.7 0.1
v -0.2 0.7 -2.98023e-008
v -0.2 0.7 -0.1
v -0.2 0.8 0.2
v -0.2 0.8 0.1
v -0.2 0.8 -0.1
v -0.2 0.9 0.2
v -0.2 0.9 0.1
v -0.2 0.9 -0.1
v -0.2 1 0.2
v -0.2 1 -0.1
v -0.2 1.1 0.2
v -0.2 1.1 -0.1
v -0.2 1.3 0.2
v -0.2 1.3 -0.1
v 0.1 0 0.1
v 0.1 0 -2.98023e-008
v 0.1 0.1 0.1
v 0.1 0.1 -2.98023e-008
v 0.1 0.1 -0.1
v 0.1 0.2 -2.98023e-008
v 0.1 0.2 -0.1
v 0.1 0.3 0.1
v 0.1 0.3 -2.98023e-008
v 0.3 0.4 0.1
v 0.3 0.4 -2.98023e-008
v 0.3 0.6 0.1
v 0.3 0.6 -2.98023e-008
v -0.5 0.7 0.1
v -0.5 0.7 -2.98023e-008
v -0.5 0.8 0.1
v -0.5 0.8 -2.98023e-008
v -0.4 0.6 0.1
v -0.4 0.6 -2.98023e-008
v -0.4 0.7 0.1
v -0.4 0.7 -2.98023e-008
v -0.4 0.8 0.1
v -0.4 0.8 -2.98023e-008
v -0.4 1.1 0.1
v -0.4 1.1 -2.98023e-008
v -0.3 0.5 0.1
v -0.3 0.5 -2.98023e-008
v -0.3 0.6 0.1
v -0.3 0.6 -2.98023e-008
v -0.1 0 0.1
v -0.1 0 -2.98023e-008
v -0.1 0.1 0.1
v -0.1 0.1 -2.98023e-008
v -0.1 0.1 -0.1
v -0.1 0.2 -2.98023e-008
v -0.1 0.2 -0.1
v -0.1 0.3 0.1
v -0.1 0.3 -2.98023e-008
v 0.2 0 0.1
v 0.2 0 -2.98023e-008
v 0.2 0.1 0.1
v 0.2 0.1 -2.98023e-008
v 0.2 0.1 -0.1
v 0.2 0.3 0.2
v 0.2 0.3 0.1
v 0.2 0.3 -2.98023e-008
v 0.2 0.4 0.1
v 0.2 0.4 -2.98023e-008
v 0.2 0.6 0.1
v 0.2 0.6 -2.98023e-008
v 0.2 0.7 0.2
v 0.2 0.7 0.1
v 0.2 0.7 -2.98023e-008
v 0.2 0.7 -0.1
v 0.2 0.8 0.2
v 0.2 0.8 0.1
v 0.2 0.8 -0.1
v 0.2 0.9 0.2
v 0.2 0.9 0.1
v 0.2 0.9 -0.1
v 0.2 1 0.2
v 0.2 1 -0.1
v 0.2 1.1 0.2
v 0.2 1.1 -0.1
v 0.2 1.3 0.2
v 0.2 1.3 -0.1
v 0.3 0.3 0.1
v 0.3 0.3 -2.98023e-008
v 0.3 0.4 0.1
v 0.3 0.4 -2.98023e-008
v 0.3 0.6 0.1
v 0.3 0.6 -2.98023e-008
v 0.3 0.7 0.1
v 0.3 0.7 -2.98023e-008
v 0.3 0.9 0.3
v 0.3 0.9 -0.2
v 0.3 1 0.3
v 0.3 1 -0.2
v 0.4 0.4 0.1
v 0.4 0.4 -2.98023e-008
v 0.4 0.6 0.1
v 0.4 0.6 -2.98023e-008
v -0.3 0.9 0.3
v -0.3 1 0.3
v 0.3 0.9 0.3
v 0.3 1 0.3
v -0.2 0.3 0.2
v -0.2 0.7 0.2
v -0.2 0.8 0.2
v -0.2 0.9 0.2
v -0.2 1 0.2
v -0.2 1.1 0.2
v -0.2 1.3 0.2
v -0.1 0.3 0.2
v -0.1 0.4 0.2
v -0.1 0.6 0.2
v -0.1 0.7 0.2
v -0.1 0.8 0.2
v -0.1 0.9 0.2
v 0 0.5 0.2
v 0 0.6 0.2
v 0 0.7 0.2
v 0.1 0.3 0.2
v 0.1 0.4 0.2
v 0.1 0.5 0.2
v 0.1 0.6 0.2
v 0.1 0.7 0.2
v 0.1 0.8 0.2
v 0.1 0.9 0.2
v 0.2 0.3 0.2
v 0.2 0.7 0.2
v 0.2 0.8 0.2
v 0.2 0.9 0.2
v 0.2 1 0.2
v 0.2 1.1 0.2
v 0.2 1.3 0.2
v -0.7 0.7 0.1
v -0.7 0.8 0.1
v -0.6 0.7 0.1
v -0.6 0.8 0.1
v -0.6 0.9 0.1
v -0.5 0.6 0.1
v -0.5 0.7 0.1
v -0.5 0.8 0.1
v -0.5 0.9 0.1
v -0.5 1.1 0.1
v -0.4 0.5 0.1
v -0.4 0.6 0.1
v -0.4 0.7 0.1
v -0.4 0.8 0.1
v -0.4 1.1 0.1
v -0.3 0.5 0.1
v -0.3 0.6 0.1
v -0.3 0.7 0.1
v -0.2 0 0.1
v -0.2 0.1 0.1
v -0.2 0.3 0.1
v -0.2 0.6 0.1
v -0.2 0.7 0.1
v -0.1 0 0.1
v -0.1 0.1 0.1
v -0.1 0.3 0.1
v 0.1 0 0.1
v 0.1 0.1 0.1
v 0.1 0.3 0.1
v 0.2 0 0.1
v 0.2 0.1 0.1
v 0.2 0.3 0.1
v 0.2 0.4 0.1
v 0.2 0.6 0.1
v 0.2 0.7 0.1
v 0.3 0.3 0.1
v 0.3 0.4 0.1
v 0.3 0.6 0.1
v 0.3 0.7 0.1
v 0.4 0.4 0.1
v 0.4 0.6 0.1
v -0.1 0.2 -2.98023e-008
v -0.1 0.3 -2.98023e-008
v 0.1 0.2 -2.98023e-008
v 0.1 0.3 -2.98023e-008
v -0.7 0.7 -2.98023e-008
v -0.7 0.8 -2.98023e-008
v -0.6 0.7 -2.98023e-008
v -0.6 0.8 -2.98023e-008
v -0.6 0.9 -2.98023e-008
v -0.5 0.6 -2.98023e-008
v -0.5 0.7 -2.98023e-008
v -0.5 0.8 -2.98023e-008
v -0.5 0.9 -2.98023e-008
v -0.5 1.1 -2.98023e-008
v -0.4 0.5 -2.98023e-008
v -0.4 0.6 -2.98023e-008
v -0.4 0.7 -2.98023e-008
v -0.4 0.8 -2.98023e-008
v -0.4 1.1 -2.98023e-008
v -0.3 0.5 -2.98023e-008
v -0.3 0.6 -2.98023e-008
v -0.3 0.7 -2.98023e-008
v -0.2 0 -2.98023e-008
v -0.2 0.1 -2.98023e-008
v -0.2 0.6 -2.98023e-008
v -0.2 0.7 -2.98023e-008
v -0.1 0 -2.98023e-008
v -0.1 0.1 -2.98023e-008
v 0.1 0 -2.98023e-008
v 0.1 0.1 -2.98023e-008
v 0.2 0 -2.98023e-008
v 0.2 0.1 -2.98023e-008
v 0.2 0.3 -2.98023e-008
v 0.2 0.4 -2.98023e-008
v 0.2 0.6 -2.98023e-008
v 0.2 0.7 -2.98023e-008
v 0.3 0.3 -2.98023e-008
v 0.3 0.4 -2.98023e-008
v 0.3 0.6 -2.98023e-008
v 0.3 0.7 -2.98023e-008
v 0.4 0.4 -2.98023e-008
v 0.4 0.6 -2.98023e-008
v -0.2 0.1 -0.1
v -0.2 0.7 -0.1
v -0.2 0.8 -0.1
v -0.2 0.9 -0.1
v -0.2 1 -0.1
v -0.2 1.1 -0.1
v -0.2 1.3 -0.1
v -0.1 0.1 -0.1
v -0.1 0.2 -0.1
v 0.1 0.1 -0.1
v 0.1 0.2 -0.1
v 0.2 0.1 -0.1
v 0.2 0.7 -0.1
v 0.2 0.8 -0.1
v 0.2 0.9 -0.1
v 0.2 1 -0.1
v 0.2 1.1 -0.1
v 0.2 1.3 -0.1
v -0.3 0.9 -0.2
v -0.3 1 -0.2
v 0.3 0.9 -0.2
v 0.3 1 -0.2
v -0.2 0 0.1
v -0.1 0 0.1
v 0.1 0 0.1
v 0.2 0 0.1
v -0.2 0 -2.98023e-008
v -0.1 0 -2.98023e-008
v 0.1 0 -2.98023e-008
v 0.2 0 -2.98023e-008
v -0.2 0.1 -2.98023e-008
v -0.1 0.1 -2.98023e-008
v 0.1 0.1 -2.98023e-008
v 0.2 0.1 -2.98023e-008
v -0.2 0.1 -0.1
v -0.1 0.1 -0.1
v 0.1 0.1 -0.1
v 0.2 0.1 -0.1
v -0.1 0.2 -2.98023e-008
v 0.1 0.2 -2.98023e-008
v -0.1 0.2 -0.1
v 0.1 0.2 -0.1
v -0.2 0.3 0.2
v -0.1 0.3 0.2
v 0.1 0.3 0.2
v 0.2 0.3 0.2
v -0.2 0.3 0.1
v -0.1 0.3 0.1
v 0.1 0.3 0.1
v 0.2 0.3 0.1
v 0.3 0.3 0.1
v -0.1 0.3 -2.98023e-008
v 0.1 0.3 -2.98023e-008
v 0.2 0.3 -2.98023e-008
v 0.3 0.3 -2.98023e-008
v 0.3 0.4 0.1
v 0.4 0.4 0.1
v 0.3 0.4 -2.98023e-008
v 0.4 0.4 -2.98023e-008
v -0.4 0.5 0.1
v -0.3 0.5 0.1
v -0.4 0.5 -2.98023e-008
v -0.3 0.5 -2.98023e-008
v -0.5 0.6 0.1
v -0.4 0.6 0.1
v -0.3 0.6 0.1
v -0.2 0.6 0.1
v 0.2 0.6 0.1
v 0.3 0.6 0.1
v -0.5 0.6 -2.98023e-008
v -0.4 0.6 -2.98023e-008
v -0.3 0.6 -2.98023e-008
v -0.2 0.6 -2.98023e-008
v 0.2 0.6 -2.98023e-008
v 0.3 0.6 -2.98023e-008
v -0.7 0.7 0.1
v -0.6 0.7 0.1
v -0.5 0.7 0.1
v -0.7 0.7 -2.98023e-008
v -0.6 0.7 -2.98023e-008
v -0.5 0.7 -2.98023e-008
v -0.5 0.8 0.1
v -0.4 0.8 0.1
v -0.5 0.8 -2.98023e-008
v -0.4 0.8 -2.98023e-008
v -0.3 0.9 0.3
v 0.3 0.9 0.3
v -0.2 0.9 0.2
v -0.1 0.9 0.2
v 0.1 0.9 0.2
v 0.2 0.9 0.2
v -0.2 0.9 0.1
v 0.2 0.9 0.1
v -0.2 0.9 -0.1
v 0.2 0.9 -0.1
v -0.3 0.9 -0.2
v 0.3 0.9 -0.2
v 0.2 0.4 0.1
v 0.3 0.4 0.1
v 0.2 0.4 -2.98023e-008
v 0.3 0.4 -2.98023e-008
v -0.4 0.6 0.1
v -0.3 0.6 0.1
v 0.3 0.6 0.1
v 0.4 0.6 0.1
v -0.4 0.6 -2.98023e-008
v -0.3 0.6 -2.98023e-008
v 0.3 0.6 -2.98023e-008
v 0.4 0.6 -2.98023e-008
v -0.5 0.7 0.1
v -0.4 0.7 0.1
v -0.3 0.7 0.1
v -0.2 0.7 0.1
v 0.2 0.7 0.1
v 0.3 0.7 0.1
v -0.5 0.7 -2.98023e-008
v -0.4 0.7 -2.98023e-008
v -0.3 0.7 -2.98023e-008
v -0.2 0.7 -2.98023e-008
v 0.2 0.7 -2.98023e-008
v 0.3 0.7 -2.98023e-008
v -0.7 0.8 0.1
v -0.6 0.8 0.1
v -0.7 0.8 -2.98023e-008
v -0.6 0.8 -2.98023e-008
v -0.6 0.9 0.1
v -0.5 0.9 0.1
v -0.6 0.9 -2.98023e-008
v -0.5 0.9 -2.98023e-008
v -0.3 1 0.3
v 0.3 1 0.3
v -0.2 1 0.2
v 0.2 1 0.2
v -0.2 1 -0.1
v 0.2 1 -0.1
v -0.3 1 -0.2
v 0.3 1 -0.2
v -0.5 1.1 0.1
v -0.4 1.1 0.1
v -0.5 1.1 -2.98023e-008
v -0.4 1.1 -2.98023e-008
v -0.2 1.3 0.2
v 0.2 1.3 0.2
v -0.2 1.3 -0.1
v 0.2 1.3 -0.1

# faces
f 3/2/1 2/2/1 1/2/1
f 4/2/1 2/2/1 3/2/1
f 7/2/1 6/2/1 5/2/1
f 8/2/1 6/2/1 7/2/1
f 11/10/1 10/10/1 9/10/1
f 12/10/1 10/10/1 11/10/1
f 15/4/1 14/4/1 13/4/1
f 16/4/1 14/4/1 15/4/1
f 19/10/1 18/10/1 17/10/1
f 20/10/1 18/10/1 19/10/1
f 23/10/1 22/10/1 21/10/1
f 24/10/1 22/10/1 23/10/1
f 27/10/1 26/10/1 25/10/1
f 28/10/1 26/10/1 27/10/1
f 31/1/1 30/1/1 29/1/1
f 32/1/1 30/1/1 31/1/1
f 35/10/1 32/10/1 31/10/1
f 36/9/1 33/9/1 32/9/1
f 36/10/1 32/10/1 35/10/1
f 37/9/1 35/9/1 34/9/1
f 37/9/1 36/9/1 35/9/1
f 38/9/1 33/9/1 36/9/1
f 38/9/1 36/9/1 37/9/1
f 39/9/1 37/9/1 34/9/1
f 40/9/1 37/9/1 39/9/1
f 41/9/1 33/9/1 38/9/1
f 42/9/1 33/9/1 41/9/1
f 43/8/1 40/8/1 39/8/1
f 43/8/1 41/8/1 40/8/1
f 43/8/1 42/8/1 41/8/1
f 44/8/1 42/8/1 43/8/1
f 45/8/1 42/8/1 44/8/1
f 46/7/1 44/7/1 43/7/1
f 47/2/1 45/2/1 44/2/1
f 47/7/1 44/7/1 46/7/1
f 48/2/1 45/2/1 47/2/1
f 51/6/1 50/6/1 49/6/1
f 52/6/1 50/6/1 51/6/1
f 53/9/1 52/9/1 51/9/1
f 54/9/1 52/9/1 53/9/1
f 57/1/1 56/1/1 55/1/1
f 58/1/1 56/1/1 57/1/1
f 60/10/1 58/10/1 57/10/1
f 60/9/1 59/9/1 58/9/1
f 61/9/1 59/9/1 60/9/1
f 62/10/1 60/10/1 57/10/1
f 63/10/1 60/10/1 62/10/1
f 66/10/1 65/10/1 64/10/1
f 67/10/1 65/10/1 66/10/1
f 68/8/2 69/8/2 70/8/2
f 70/8/2 69/8/2 71/8/2
f 72/10/2 73/10/2 74/10/2
f 74/10/2 73/10/2 75/10/2
f 76/4/2 77/4/2 78/4/2
f 78/4/2 77/4/2 79/4/2
f 80/10/2 81/10/2 82/10/2
f 82/10/2 81/10/2 83/10/2
f 84/1/2 85/1/2 86/1/2
f 86/1/2 85/1/2 87/1/2
f 86/10/2 87/10/2 89/10/2
f 87/9/2 88/9/2 89/9/2
f 89/9/2 88/9/2 90/9/2
f 86/10/2 89/10/2 91/10/2
f 91/10/2 89/10/2 92/10/2
f 93/1/2 94/1/2 95/1/2
f 95/1/2 94/1/2 96/1/2
f 95/10/2 96/10/2 99/10/2
f 96/9/2 97/9/2 100/9/2
f 99/10/2 96/10/2 100/10/2
f 98/9/2 99/9/2 101/9/2
f 100/9/2 97/9/2 102/9/2
f 98/9/2 101/9/2 103/9/2
f 101/9/2 102/9/2 103/9/2
f 102/9/2 97/9/2 104/9/2
f 103/9/2 102/9/2 104/9/2
f 98/9/2 103/9/2 105/9/2
f 105/9/2 103/9/2 106/9/2
f 104/9/2 97/9/2 107/9/2
f 107/9/2 97/9/2 108/9/2
f 105/8/2 106/8/2 109/8/2
f 106/8/2 107/8/2 109/8/2
f 107/8/2 108/8/2 109/8/2
f 109/8/2 108/8/2 110/8/2
f 110/8/2 108/8/2 111/8/2
f 109/7/2 110/7/2 112/7/2
f 110/2/2 111/2/2 113/2/2
f 112/7/2 110/7/2 113/7/2
f 113/2/2 111/2/2 114/2/2
f 115/6/2 116/6/2 117/6/2
f 117/6/2 116/6/2 118/6/2
f 117/9/2 118/9/2 119/9/2
f 119/9/2 118/9/2 120/9/2
f 121/8/2 122/8/2 123/8/2
f 123/8/2 122/8/2 124/8/2
f 125/10/2 126/10/2 127/10/2
f 127/10/2 126/10/2 128/10/2
f 129/10/2 130/10/2 131/10/2
f 131/10/2 130/10/2 132/10/2
f 133/10/2 134/10/2 135/10/2
f 135/10/2 134/10/2 136/10/2
f 139/10/3 138/10/3 137/10/3
f 140/10/3 138/10/3 139/10/3
f 148/9/3 142/9/3 141/9/3
f 149/9/3 142/9/3 148/9/3
f 150/9/3 142/9/3 149/9/3
f 151/8/3 143/8/3 142/8/3
f 151/9/3 142/9/3 150/9/3
f 152/7/3 144/7/3 143/7/3
f 152/8/3 143/8/3 151/8/3
f 153/7/3 144/7/3 152/7/3
f 154/10/3 150/10/3 149/10/3
f 155/3/3 151/3/3 150/3/3
f 155/10/3 150/10/3 154/10/3
f 156/2/3 152/2/3 151/2/3
f 156/3/3 151/3/3 155/3/3
f 157/11/3 149/11/3 148/11/3
f 158/10/3 154/10/3 149/10/3
f 158/11/3 149/11/3 157/11/3
f 159/5/3 155/5/3 154/5/3
f 159/10/3 154/10/3 158/10/3
f 160/10/3 156/10/3 155/10/3
f 160/5/3 155/5/3 159/5/3
f 161/2/3 152/2/3 156/2/3
f 161/10/3 156/10/3 160/10/3
f 162/8/3 153/8/3 152/8/3
f 162/2/3 152/2/3 161/2/3
f 163/8/3 153/8/3 162/8/3
f 164/9/3 160/9/3 159/9/3
f 164/9/3 158/9/3 157/9/3
f 164/9/3 161/9/3 160/9/3
f 164/9/3 159/9/3 158/9/3
f 165/8/3 162/8/3 161/8/3
f 165/9/3 161/9/3 164/9/3
f 166/7/3 163/7/3 162/7/3
f 166/8/3 162/8/3 165/8/3
f 167/7/3 163/7/3 166/7/3
f 168/6/3 146/6/3 145/6/3
f 169/9/3 147/9/3 146/9/3
f 169/6/3 146/6/3 168/6/3
f 170/9/3 147/9/3 169/9/3
f 173/2/3 172/2/3 171/2/3
f 174/2/3 172/2/3 173/2/3
f 177/8/3 174/8/3 173/8/3
f 178/2/3 175/2/3 174/2/3
f 178/8/3 174/8/3 177/8/3
f 179/2/3 175/2/3 178/2/3
f 182/10/3 177/10/3 176/10/3
f 183/10/3 177/10/3 182/10/3
f 184/4/3 179/4/3 178/4/3
f 184/4/3 180/4/3 179/4/3
f 185/4/3 180/4/3 184/4/3
f 186/10/3 182/10/3 181/10/3
f 187/10/3 182/10/3 186/10/3
f 192/10/3 188/10/3 187/10/3
f 193/10/3 188/10/3 192/10/3
f 194/1/3 190/1/3 189/1/3
f 195/10/3 191/10/3 190/10/3
f 195/1/3 190/1/3 194/1/3
f 196/10/3 191/10/3 195/10/3
f 200/1/3 198/1/3 197/1/3
f 201/10/3 199/10/3 198/10/3
f 201/1/3 198/1/3 200/1/3
f 202/10/3 199/10/3 201/10/3
f 206/8/3 203/8/3 202/8/3
f 207/8/3 203/8/3 206/8/3
f 208/10/3 205/10/3 204/10/3
f 209/10/3 205/10/3 208/10/3
f 210/10/3 208/10/3 207/10/3
f 211/10/3 208/10/3 210/10/3
f 214/9/3 213/9/3 212/9/3
f 215/9/3 213/9/3 214/9/3
f 216/2/4 217/2/4 218/2/4
f 218/2/4 217/2/4 219/2/4
f 218/8/4 219/8/4 222/8/4
f 219/2/4 220/2/4 223/2/4
f 222/8/4 219/8/4 223/8/4
f 223/2/4 220/2/4 224/2/4
f 221/10/4 222/10/4 227/10/4
f 227/10/4 222/10/4 228/10/4
f 223/4/4 224/4/4 229/4/4
f 224/4/4 225/4/4 229/4/4
f 229/4/4 225/4/4 230/4/4
f 226/10/4 227/10/4 231/10/4
f 231/10/4 227/10/4 232/10/4
f 232/10/4 233/10/4 236/10/4
f 236/10/4 233/10/4 237/10/4
f 234/1/4 235/1/4 238/1/4
f 238/1/4 235/1/4 239/1/4
f 240/1/4 241/1/4 242/1/4
f 242/1/4 241/1/4 243/1/4
f 244/8/4 245/8/4 248/8/4
f 248/8/4 245/8/4 249/8/4
f 246/10/4 247/10/4 250/10/4
f 250/10/4 247/10/4 251/10/4
f 249/10/4 250/10/4 252/10/4
f 252/10/4 250/10/4 253/10/4
f 254/9/4 255/9/4 261/9/4
f 261/9/4 255/9/4 262/9/4
f 262/9/4 255/9/4 264/9/4
f 263/9/4 264/9/4 265/9/4
f 255/8/4 256/8/4 266/8/4
f 265/9/4 264/9/4 266/9/4
f 264/9/4 255/9/4 266/9/4
f 256/2/4 257/2/4 267/2/4
f 266/8/4 256/8/4 267/8/4
f 267/2/4 257/2/4 268/2/4
f 258/6/4 259/6/4 269/6/4
f 259/9/4 260/9/4 270/9/4
f 269/6/4 259/6/4 270/6/4
f 270/9/4 260/9/4 271/9/4
f 272/10/4 273/10/4 274/10/4
f 274/10/4 273/10/4 275/10/4
f 280/1/5 277/1/5 276/1/5
f 281/1/5 277/1/5 280/1/5
f 282/1/5 279/1/5 278/1/5
f 283/1/5 279/1/5 282/1/5
f 288/9/5 285/9/5 284/9/5
f 289/9/5 285/9/5 288/9/5
f 290/9/5 287/9/5 286/9/5
f 291/9/5 287/9/5 290/9/5
f 294/9/5 293/9/5 292/9/5
f 295/9/5 293/9/5 294/9/5
f 300/9/5 297/9/5 296/9/5
f 301/11/5 298/11/5 297/11/5
f 301/9/5 297/9/5 300/9/5
f 302/9/5 299/9/5 298/9/5
f 302/11/5 298/11/5 301/11/5
f 303/9/5 299/9/5 302/9/5
f 305/11/5 302/11/5 301/11/5
f 306/11/5 302/11/5 305/11/5
f 307/8/5 304/8/5 303/8/5
f 308/8/5 304/8/5 307/8/5
f 311/10/5 310/10/5 309/10/5
f 312/10/5 310/10/5 311/10/5
f 315/10/5 314/10/5 313/10/5
f 316/10/5 314/10/5 315/10/5
f 323/10/5 318/10/5 317/10/5
f 324/10/5 318/10/5 323/10/5
f 325/10/5 320/10/5 319/10/5
f 326/10/5 320/10/5 325/10/5
f 327/10/5 322/10/5 321/10/5
f 328/10/5 322/10/5 327/10/5
f 332/2/5 330/2/5 329/2/5
f 333/8/5 331/8/5 330/8/5
f 333/2/5 330/2/5 332/2/5
f 334/8/5 331/8/5 333/8/5
f 337/4/5 336/4/5 335/4/5
f 338/4/5 336/4/5 337/4/5
f 341/10/5 340/10/5 339/10/5
f 342/10/5 340/10/5 341/10/5
f 343/10/5 340/10/5 342/10/5
f 344/10/5 340/10/5 343/10/5
f 345/10/5 341/10/5 339/10/5
f 346/10/5 340/10/5 344/10/5
f 347/10/5 345/10/5 339/10/5
f 348/10/5 340/10/5 346/10/5
f 349/10/5 347/10/5 339/10/5
f 349/10/5 348/10/5 347/10/5
f 350/10/5 340/10/5 348/10/5
f 350/10/5 348/10/5 349/10/5
f 351/8/6 352/8/6 353/8/6
f 353/8/6 352/8/6 354/8/6
f 355/10/6 356/10/6 359/10/6
f 359/10/6 356/10/6 360/10/6
f 357/10/6 358/10/6 361/10/6
f 361/10/6 358/10/6 362/10/6
f 363/10/6 364/10/6 369/10/6
f 369/10/6 364/10/6 370/10/6
f 365/10/6 366/10/6 371/10/6
f 371/10/6 366/10/6 372/10/6
f 367/10/6 368/10/6 373/10/6
f 373/10/6 368/10/6 374/10/6
f 375/2/6 376/2/6 377/2/6
f 377/2/6 376/2/6 378/2/6
f 379/2/6 380/2/6 381/2/6
f 381/2/6 380/2/6 382/2/6
f 383/10/6 384/10/6 385/10/6
f 385/10/6 384/10/6 386/10/6
f 383/10/6 385/10/6 387/10/6
f 386/10/6 384/10/6 388/10/6
f 383/10/6 387/10/6 389/10/6
f 387/10/6 388/10/6 389/10/6
f 388/10/6 384/10/6 390/10/6
f 389/10/6 388/10/6 390/10/6
f 391/4/6 392/4/6 393/4/6
f 393/4/6 392/4/6 394/4/6
f 395/9/6 396/9/6 397/9/6
f 397/9/6 396/9/6 398/9/6
