# MagicaVoxel @ Ephtracy

# group
o 

# material
mtllib hero_standard.mtl
usemtl palette

# normals
vn -1 0 0
vn 1 0 0
vn 0 0 1
vn 0 0 -1
vn 0 -1 0
vn 0 1 0

# texcoords
vt 0.00585938 0.5
vt 0.0839844 0.5
vt 0.158203 0.5
vt 0.162109 0.5
vt 0.166016 0.5

# verts
v -0.5 2.7 -0.3
v -0.5 2.7 -0.4
v -0.5 2.8 -0.3
v -0.5 2.8 -0.4
v -0.2 1.3 -0.3
v -0.2 1.3 -0.4
v -0.2 2.7 -0.3
v -0.2 2.7 -0.4
v -0.1 1.2 -0.3
v -0.1 1.2 -0.4
v -0.1 1.3 -0.3
v -0.1 1.3 -0.4
v 0 1.1 -0.3
v 0 1.1 -0.4
v 0 1.2 -0.3
v 0 1.2 -0.4
v 0.1 1 -0.3
v 0.1 1 -0.4
v 0.1 1.1 -0.3
v 0.1 1.1 -0.4
v 0.2 0 -0.4
v 0.2 0 -0.5
v 0.2 0.9 -0.3
v 0.2 0.9 -0.4
v 0.2 1 -0.3
v 0.2 1 -0.4
v 0.2 1.1 -0.4
v 0.2 1.2 -0.4
v 0.2 1.4 -0.4
v 0.2 2.1 -0.4
v 0.2 2.2 -0.4
v 0.2 2.3 -0.4
v 0.2 2.4 -0.4
v 0.2 2.5 -0.4
v 0.2 2.6 -0.4
v 0.2 2.7 -0.4
v 0.2 2.8 -0.4
v 0.2 2.9 -0.4
v 0.2 2.9 -0.5
v 0.2 3.1 -0.4
v 0.2 3.1 -0.5
v 0.3 0 -0.4
v 0.3 0 -0.5
v 0.3 0.9 -0.3
v 0.3 0.9 -0.4
v 0.3 1 -0.3
v 0.3 1 -0.4
v 0.3 1.1 -0.4
v 0.3 1.2 -0.4
v 0.3 1.4 -0.4
v 0.3 2.1 -0.4
v 0.3 2.2 -0.4
v 0.3 2.3 -0.4
v 0.3 2.4 -0.4
v 0.3 2.5 -0.4
v 0.3 2.6 -0.4
v 0.3 2.7 -0.4
v 0.3 2.8 -0.4
v 0.3 2.9 -0.4
v 0.3 2.9 -0.5
v 0.3 3.1 -0.4
v 0.3 3.1 -0.5
v 0.4 1 -0.3
v 0.4 1 -0.4
v 0.4 1.1 -0.3
v 0.4 1.1 -0.4
v 0.5 1.1 -0.3
v 0.5 1.1 -0.4
v 0.5 1.2 -0.3
v 0.5 1.2 -0.4
v 0.6 1.2 -0.3
v 0.6 1.2 -0.4
v 0.6 1.3 -0.3
v 0.6 1.3 -0.4
v 0.7 1.3 -0.3
v 0.7 1.3 -0.4
v 0.7 2.7 -0.3
v 0.7 2.7 -0.4
v 1 2.7 -0.3
v 1 2.7 -0.4
v 1 2.8 -0.3
v 1 2.8 -0.4
v -0.5 2.7 -0.3
v -0.5 2.8 -0.3
v -0.4 2.7 -0.3
v -0.4 2.8 -0.3
v -0.2 1.3 -0.3
v -0.2 2.7 -0.3
v -0.1 1.2 -0.3
v -0.1 1.3 -0.3
v -0.1 2.7 -0.3
v 0 1.1 -0.3
v 0 1.2 -0.3
v 0 1.3 -0.3
v 0 2.3 -0.3
v 0 2.4 -0.3
v 0 2.6 -0.3
v 0.1 1 -0.3
v 0.1 1.1 -0.3
v 0.1 1.2 -0.3
v 0.1 1.3 -0.3
v 0.1 1.4 -0.3
v 0.1 2.1 -0.3
v 0.1 2.2 -0.3
v 0.1 2.3 -0.3
v 0.1 2.4 -0.3
v 0.1 2.5 -0.3
v 0.2 0.9 -0.3
v 0.2 1 -0.3
v 0.2 1.1 -0.3
v 0.2 1.2 -0.3
v 0.2 1.4 -0.3
v 0.2 2.1 -0.3
v 0.2 2.2 -0.3
v 0.2 2.3 -0.3
v 0.2 2.4 -0.3
v 0.2 2.5 -0.3
v 0.2 2.6 -0.3
v 0.3 0.9 -0.3
v 0.3 1 -0.3
v 0.3 1.1 -0.3
v 0.3 1.2 -0.3
v 0.3 1.4 -0.3
v 0.3 2.1 -0.3
v 0.3 2.2 -0.3
v 0.3 2.3 -0.3
v 0.3 2.4 -0.3
v 0.3 2.5 -0.3
v 0.3 2.6 -0.3
v 0.4 1 -0.3
v 0.4 1.1 -0.3
v 0.4 1.2 -0.3
v 0.4 1.3 -0.3
v 0.4 1.4 -0.3
v 0.4 2.1 -0.3
v 0.4 2.2 -0.3
v 0.4 2.3 -0.3
v 0.4 2.4 -0.3
v 0.4 2.5 -0.3
v 0.5 1.1 -0.3
v 0.5 1.2 -0.3
v 0.5 1.3 -0.3
v 0.5 2.3 -0.3
v 0.5 2.4 -0.3
v 0.5 2.6 -0.3
v 0.6 1.2 -0.3
v 0.6 1.3 -0.3
v 0.6 2.7 -0.3
v 0.7 1.3 -0.3
v 0.7 2.7 -0.3
v 0.9 2.7 -0.3
v 0.9 2.8 -0.3
v 1 2.7 -0.3
v 1 2.8 -0.3
v 0.2 0 -0.4
v 0.2 0.9 -0.4
v 0.2 2.8 -0.4
v 0.2 2.9 -0.4
v 0.2 3.1 -0.4
v 0.3 0 -0.4
v 0.3 0.9 -0.4
v 0.3 2.8 -0.4
v 0.3 2.9 -0.4
v 0.3 3.1 -0.4
v -0.5 2.7 -0.4
v -0.5 2.8 -0.4
v -0.4 2.7 -0.4
v -0.4 2.8 -0.4
v -0.2 1.3 -0.4
v -0.2 2.7 -0.4
v -0.1 1.2 -0.4
v -0.1 1.3 -0.4
v -0.1 2.7 -0.4
v 0 1.1 -0.4
v 0 1.2 -0.4
v 0 1.3 -0.4
v 0 2.3 -0.4
v 0 2.4 -0.4
v 0 2.6 -0.4
v 0.1 1 -0.4
v 0.1 1.1 -0.4
v 0.1 1.2 -0.4
v 0.1 1.3 -0.4
v 0.1 1.4 -0.4
v 0.1 2.1 -0.4
v 0.1 2.2 -0.4
v 0.1 2.3 -0.4
v 0.1 2.4 -0.4
v 0.1 2.5 -0.4
v 0.2 1 -0.4
v 0.2 1.1 -0.4
v 0.2 1.2 -0.4
v 0.2 1.4 -0.4
v 0.2 2.1 -0.4
v 0.2 2.2 -0.4
v 0.2 2.3 -0.4
v 0.2 2.4 -0.4
v 0.2 2.5 -0.4
v 0.2 2.6 -0.4
v 0.2 2.7 -0.4
v 0.2 2.8 -0.4
v 0.3 1 -0.4
v 0.3 1.1 -0.4
v 0.3 1.2 -0.4
v 0.3 1.4 -0.4
v 0.3 2.1 -0.4
v 0.3 2.2 -0.4
v 0.3 2.3 -0.4
v 0.3 2.4 -0.4
v 0.3 2.5 -0.4
v 0.3 2.6 -0.4
v 0.3 2.7 -0.4
v 0.3 2.8 -0.4
v 0.4 1 -0.4
v 0.4 1.1 -0.4
v 0.4 1.2 -0.4
v 0.4 1.3 -0.4
v 0.4 1.4 -0.4
v 0.4 2.1 -0.4
v 0.4 2.2 -0.4
v 0.4 2.3 -0.4
v 0.4 2.4 -0.4
v 0.4 2.5 -0.4
v 0.5 1.1 -0.4
v 0.5 1.2 -0.4
v 0.5 1.3 -0.4
v 0.5 2.3 -0.4
v 0.5 2.4 -0.4
v 0.5 2.6 -0.4
v 0.6 1.2 -0.4
v 0.6 1.3 -0.4
v 0.6 2.7 -0.4
v 0.7 1.3 -0.4
v 0.7 2.7 -0.4
v 0.9 2.7 -0.4
v 0.9 2.8 -0.4
v 1 2.7 -0.4
v 1 2.8 -0.4
v 0.2 0 -0.5
v 0.2 2.9 -0.5
v 0.2 3.1 -0.5
v 0.3 0 -0.5
v 0.3 2.9 -0.5
v 0.3 3.1 -0.5
v 0.2 0 -0.4
v 0.3 0 -0.4
v 0.2 0 -0.5
v 0.3 0 -0.5
v 0.2 0.9 -0.3
v 0.3 0.9 -0.3
v 0.2 0.9 -0.4
v 0.3 0.9 -0.4
v 0.1 1 -0.3
v 0.2 1 -0.3
v 0.3 1 -0.3
v 0.4 1 -0.3
v 0.1 1 -0.4
v 0.2 1 -0.4
v 0.3 1 -0.4
v 0.4 1 -0.4
v 0 1.1 -0.3
v 0.1 1.1 -0.3
v 0.4 1.1 -0.3
v 0.5 1.1 -0.3
v 0 1.1 -0.4
v 0.1 1.1 -0.4
v 0.4 1.1 -0.4
v 0.5 1.1 -0.4
v -0.1 1.2 -0.3
v 0 1.2 -0.3
v 0.5 1.2 -0.3
v 0.6 1.2 -0.3
v -0.1 1.2 -0.4
v 0 1.2 -0.4
v 0.5 1.2 -0.4
v 0.6 1.2 -0.4
v -0.2 1.3 -0.3
v -0.1 1.3 -0.3
v 0.6 1.3 -0.3
v 0.7 1.3 -0.3
v -0.2 1.3 -0.4
v -0.1 1.3 -0.4
v 0.6 1.3 -0.4
v 0.7 1.3 -0.4
v -0.5 2.7 -0.3
v -0.4 2.7 -0.3
v -0.2 2.7 -0.3
v 0.7 2.7 -0.3
v 0.9 2.7 -0.3
v 1 2.7 -0.3
v -0.5 2.7 -0.4
v -0.4 2.7 -0.4
v -0.2 2.7 -0.4
v 0.7 2.7 -0.4
v 0.9 2.7 -0.4
v 1 2.7 -0.4
v -0.5 2.8 -0.3
v -0.4 2.8 -0.3
v 0.9 2.8 -0.3
v 1 2.8 -0.3
v -0.5 2.8 -0.4
v -0.4 2.8 -0.4
v 0.2 2.8 -0.4
v 0.3 2.8 -0.4
v 0.9 2.8 -0.4
v 1 2.8 -0.4
v 0.2 3.1 -0.4
v 0.3 3.1 -0.4
v 0.2 3.1 -0.5
v 0.3 3.1 -0.5

# faces
f 3/3/1 2/3/1 1/3/1
f 4/3/1 2/3/1 3/3/1
f 7/3/1 6/3/1 5/3/1
f 8/3/1 6/3/1 7/3/1
f 11/3/1 10/3/1 9/3/1
f 12/3/1 10/3/1 11/3/1
f 15/3/1 14/3/1 13/3/1
f 16/3/1 14/3/1 15/3/1
f 19/3/1 18/3/1 17/3/1
f 20/3/1 18/3/1 19/3/1
f 24/1/1 22/1/1 21/1/1
f 25/3/1 24/3/1 23/3/1
f 26/1/1 22/1/1 24/1/1
f 26/3/1 24/3/1 25/3/1
f 27/1/1 22/1/1 26/1/1
f 28/1/1 22/1/1 27/1/1
f 29/1/1 22/1/1 28/1/1
f 30/1/1 22/1/1 29/1/1
f 31/1/1 22/1/1 30/1/1
f 32/1/1 22/1/1 31/1/1
f 33/1/1 22/1/1 32/1/1
f 34/1/1 22/1/1 33/1/1
f 35/1/1 22/1/1 34/1/1
f 36/1/1 22/1/1 35/1/1
f 37/1/1 22/1/1 36/1/1
f 38/1/1 22/1/1 37/1/1
f 39/1/1 22/1/1 38/1/1
f 40/3/1 39/3/1 38/3/1
f 41/3/1 39/3/1 40/3/1
f 42/1/2 43/1/2 45/1/2
f 44/3/2 45/3/2 46/3/2
f 45/1/2 43/1/2 47/1/2
f 46/3/2 45/3/2 47/3/2
f 47/1/2 43/1/2 48/1/2
f 48/1/2 43/1/2 49/1/2
f 49/1/2 43/1/2 50/1/2
f 50/1/2 43/1/2 51/1/2
f 51/1/2 43/1/2 52/1/2
f 52/1/2 43/1/2 53/1/2
f 53/1/2 43/1/2 54/1/2
f 54/1/2 43/1/2 55/1/2
f 55/1/2 43/1/2 56/1/2
f 56/1/2 43/1/2 57/1/2
f 57/1/2 43/1/2 58/1/2
f 58/1/2 43/1/2 59/1/2
f 59/1/2 43/1/2 60/1/2
f 59/3/2 60/3/2 61/3/2
f 61/3/2 60/3/2 62/3/2
f 63/3/2 64/3/2 65/3/2
f 65/3/2 64/3/2 66/3/2
f 67/3/2 68/3/2 69/3/2
f 69/3/2 68/3/2 70/3/2
f 71/3/2 72/3/2 73/3/2
f 73/3/2 72/3/2 74/3/2
f 75/3/2 76/3/2 77/3/2
f 77/3/2 76/3/2 78/3/2
f 79/3/2 80/3/2 81/3/2
f 81/3/2 80/3/2 82/3/2
f 85/3/3 84/3/3 83/3/3
f 86/3/3 84/3/3 85/3/3
f 88/2/3 86/2/3 85/2/3
f 90/3/3 88/3/3 87/3/3
f 91/2/3 86/2/3 88/2/3
f 91/3/3 88/3/3 90/3/3
f 93/3/3 90/3/3 89/3/3
f 94/4/3 91/4/3 90/4/3
f 94/3/3 90/3/3 93/3/3
f 95/4/3 91/4/3 94/4/3
f 96/4/3 91/4/3 95/4/3
f 97/4/3 91/4/3 96/4/3
f 99/3/3 93/3/3 92/3/3
f 100/4/3 94/4/3 93/4/3
f 100/3/3 93/3/3 99/3/3
f 101/5/3 95/5/3 94/5/3
f 101/4/3 94/4/3 100/4/3
f 102/5/3 95/5/3 101/5/3
f 103/5/3 95/5/3 102/5/3
f 104/5/3 95/5/3 103/5/3
f 105/3/3 96/3/3 95/3/3
f 105/5/3 95/5/3 104/5/3
f 106/5/3 97/5/3 96/5/3
f 106/3/3 96/3/3 105/3/3
f 107/5/3 97/5/3 106/5/3
f 109/3/3 99/3/3 98/3/3
f 110/4/3 100/4/3 99/4/3
f 110/3/3 99/3/3 109/3/3
f 111/5/3 101/5/3 100/5/3
f 111/4/3 100/4/3 110/4/3
f 111/5/3 102/5/3 101/5/3
f 112/3/3 103/3/3 102/3/3
f 112/5/3 102/5/3 111/5/3
f 113/5/3 104/5/3 103/5/3
f 113/3/3 103/3/3 112/3/3
f 114/3/3 105/3/3 104/3/3
f 114/5/3 104/5/3 113/5/3
f 115/4/3 106/4/3 105/4/3
f 115/3/3 105/3/3 114/3/3
f 116/3/3 107/3/3 106/3/3
f 116/4/3 106/4/3 115/4/3
f 117/5/3 97/5/3 107/5/3
f 117/3/3 107/3/3 116/3/3
f 118/4/3 91/4/3 97/4/3
f 118/5/3 97/5/3 117/5/3
f 119/3/3 109/3/3 108/3/3
f 120/4/3 110/4/3 109/4/3
f 120/3/3 109/3/3 119/3/3
f 121/5/3 112/5/3 111/5/3
f 121/4/3 110/4/3 120/4/3
f 121/5/3 113/5/3 112/5/3
f 121/5/3 111/5/3 110/5/3
f 122/5/3 113/5/3 121/5/3
f 123/5/3 113/5/3 122/5/3
f 124/3/3 114/3/3 113/3/3
f 124/5/3 113/5/3 123/5/3
f 125/4/3 117/4/3 116/4/3
f 125/3/3 114/3/3 124/3/3
f 125/4/3 116/4/3 115/4/3
f 125/4/3 115/4/3 114/4/3
f 126/4/3 117/4/3 125/4/3
f 127/4/3 117/4/3 126/4/3
f 128/3/3 118/3/3 117/3/3
f 128/4/3 117/4/3 127/4/3
f 129/4/3 91/4/3 118/4/3
f 129/3/3 118/3/3 128/3/3
f 130/3/3 121/3/3 120/3/3
f 131/4/3 122/4/3 121/4/3
f 131/3/3 121/3/3 130/3/3
f 132/5/3 123/5/3 122/5/3
f 132/4/3 122/4/3 131/4/3
f 133/5/3 123/5/3 132/5/3
f 134/3/3 124/3/3 123/3/3
f 134/5/3 123/5/3 133/5/3
f 135/5/3 125/5/3 124/5/3
f 135/3/3 124/3/3 134/3/3
f 136/3/3 126/3/3 125/3/3
f 136/5/3 125/5/3 135/5/3
f 137/4/3 127/4/3 126/4/3
f 137/3/3 126/3/3 136/3/3
f 138/3/3 128/3/3 127/3/3
f 138/4/3 127/4/3 137/4/3
f 139/5/3 129/5/3 128/5/3
f 139/3/3 128/3/3 138/3/3
f 140/3/3 132/3/3 131/3/3
f 141/4/3 133/4/3 132/4/3
f 141/3/3 132/3/3 140/3/3
f 142/5/3 137/5/3 136/5/3
f 142/4/3 133/4/3 141/4/3
f 142/5/3 136/5/3 135/5/3
f 142/5/3 134/5/3 133/5/3
f 142/5/3 135/5/3 134/5/3
f 143/3/3 138/3/3 137/3/3
f 143/5/3 137/5/3 142/5/3
f 144/5/3 139/5/3 138/5/3
f 144/3/3 138/3/3 143/3/3
f 145/4/3 91/4/3 129/4/3
f 145/5/3 139/5/3 144/5/3
f 145/5/3 129/5/3 139/5/3
f 146/3/3 142/3/3 141/3/3
f 147/4/3 144/4/3 143/4/3
f 147/3/3 142/3/3 146/3/3
f 147/4/3 143/4/3 142/4/3
f 147/4/3 145/4/3 144/4/3
f 148/2/3 86/2/3 91/2/3
f 148/4/3 145/4/3 147/4/3
f 148/4/3 91/4/3 145/4/3
f 149/3/3 148/3/3 147/3/3
f 150/2/3 86/2/3 148/2/3
f 150/3/3 148/3/3 149/3/3
f 151/2/3 86/2/3 150/2/3
f 152/2/3 86/2/3 151/2/3
f 153/3/3 152/3/3 151/3/3
f 154/3/3 152/3/3 153/3/3
f 160/1/3 156/1/3 155/1/3
f 161/1/3 156/1/3 160/1/3
f 162/1/3 158/1/3 157/1/3
f 163/3/3 159/3/3 158/3/3
f 163/1/3 158/1/3 162/1/3
f 164/3/3 159/3/3 163/3/3
f 165/3/4 166/3/4 167/3/4
f 167/3/4 166/3/4 168/3/4
f 167/2/4 168/2/4 170/2/4
f 169/3/4 170/3/4 172/3/4
f 170/2/4 168/2/4 173/2/4
f 172/3/4 170/3/4 173/3/4
f 171/3/4 172/3/4 175/3/4
f 172/4/4 173/4/4 176/4/4
f 175/3/4 172/3/4 176/3/4
f 176/4/4 173/4/4 177/4/4
f 177/4/4 173/4/4 178/4/4
f 178/4/4 173/4/4 179/4/4
f 174/3/4 175/3/4 181/3/4
f 175/4/4 176/4/4 182/4/4
f 181/3/4 175/3/4 182/3/4
f 176/5/4 177/5/4 183/5/4
f 182/4/4 176/4/4 183/4/4
f 183/5/4 177/5/4 184/5/4
f 184/5/4 177/5/4 185/5/4
f 185/5/4 177/5/4 186/5/4
f 177/3/4 178/3/4 187/3/4
f 186/5/4 177/5/4 187/5/4
f 178/5/4 179/5/4 188/5/4
f 187/3/4 178/3/4 188/3/4
f 188/5/4 179/5/4 189/5/4
f 180/3/4 181/3/4 190/3/4
f 181/4/4 182/4/4 191/4/4
f 190/3/4 181/3/4 191/3/4
f 182/5/4 183/5/4 192/5/4
f 191/4/4 182/4/4 192/4/4
f 183/5/4 184/5/4 192/5/4
f 184/3/4 185/3/4 193/3/4
f 192/5/4 184/5/4 193/5/4
f 185/5/4 186/5/4 194/5/4
f 193/3/4 185/3/4 194/3/4
f 186/3/4 187/3/4 195/3/4
f 194/5/4 186/5/4 195/5/4
f 187/4/4 188/4/4 196/4/4
f 195/3/4 187/3/4 196/3/4
f 188/3/4 189/3/4 197/3/4
f 196/4/4 188/4/4 197/4/4
f 189/5/4 179/5/4 198/5/4
f 197/3/4 189/3/4 198/3/4
f 179/4/4 173/4/4 199/4/4
f 198/5/4 179/5/4 199/5/4
f 173/2/4 168/2/4 200/2/4
f 199/4/4 173/4/4 200/4/4
f 200/2/4 168/2/4 201/2/4
f 202/3/4 203/3/4 214/3/4
f 203/4/4 204/4/4 215/4/4
f 214/3/4 203/3/4 215/3/4
f 204/5/4 205/5/4 216/5/4
f 215/4/4 204/4/4 216/4/4
f 216/5/4 205/5/4 217/5/4
f 205/3/4 206/3/4 218/3/4
f 217/5/4 205/5/4 218/5/4
f 206/5/4 207/5/4 219/5/4
f 218/3/4 206/3/4 219/3/4
f 207/3/4 208/3/4 220/3/4
f 219/5/4 207/5/4 220/5/4
f 208/4/4 209/4/4 221/4/4
f 220/3/4 208/3/4 221/3/4
f 209/3/4 210/3/4 222/3/4
f 221/4/4 209/4/4 222/4/4
f 210/5/4 211/5/4 223/5/4
f 222/3/4 210/3/4 223/3/4
f 215/3/4 216/3/4 224/3/4
f 216/4/4 217/4/4 225/4/4
f 224/3/4 216/3/4 225/3/4
f 217/5/4 218/5/4 226/5/4
f 225/4/4 217/4/4 226/4/4
f 218/5/4 219/5/4 226/5/4
f 219/5/4 220/5/4 226/5/4
f 220/5/4 221/5/4 226/5/4
f 221/3/4 222/3/4 227/3/4
f 226/5/4 221/5/4 227/5/4
f 222/5/4 223/5/4 228/5/4
f 227/3/4 222/3/4 228/3/4
f 223/5/4 211/5/4 229/5/4
f 228/5/4 223/5/4 229/5/4
f 211/4/4 212/4/4 229/4/4
f 225/3/4 226/3/4 230/3/4
f 227/4/4 228/4/4 231/4/4
f 230/3/4 226/3/4 231/3/4
f 226/4/4 227/4/4 231/4/4
f 228/4/4 229/4/4 231/4/4
f 212/2/4 213/2/4 232/2/4
f 231/4/4 229/4/4 232/4/4
f 229/4/4 212/4/4 232/4/4
f 231/3/4 232/3/4 233/3/4
f 232/2/4 213/2/4 234/2/4
f 233/3/4 232/3/4 234/3/4
f 234/2/4 213/2/4 235/2/4
f 235/2/4 213/2/4 236/2/4
f 235/3/4 236/3/4 237/3/4
f 237/3/4 236/3/4 238/3/4
f 239/1/4 240/1/4 242/1/4
f 240/3/4 241/3/4 243/3/4
f 242/1/4 240/1/4 243/1/4
f 243/3/4 241/3/4 244/3/4
f 247/1/5 246/1/5 245/1/5
f 248/1/5 246/1/5 247/1/5
f 251/3/5 250/3/5 249/3/5
f 252/3/5 250/3/5 251/3/5
f 257/3/5 254/3/5 253/3/5
f 258/3/5 254/3/5 257/3/5
f 259/3/5 256/3/5 255/3/5
f 260/3/5 256/3/5 259/3/5
f 265/3/5 262/3/5 261/3/5
f 266/3/5 262/3/5 265/3/5
f 267/3/5 264/3/5 263/3/5
f 268/3/5 264/3/5 267/3/5
f 273/3/5 270/3/5 269/3/5
f 274/3/5 270/3/5 273/3/5
f 275/3/5 272/3/5 271/3/5
f 276/3/5 272/3/5 275/3/5
f 281/3/5 278/3/5 277/3/5
f 282/3/5 278/3/5 281/3/5
f 283/3/5 280/3/5 279/3/5
f 284/3/5 280/3/5 283/3/5
f 291/3/5 286/3/5 285/3/5
f 292/2/5 287/2/5 286/2/5
f 292/3/5 286/3/5 291/3/5
f 293/2/5 287/2/5 292/2/5
f 294/2/5 289/2/5 288/2/5
f 295/3/5 290/3/5 289/3/5
f 295/2/5 289/2/5 294/2/5
f 296/3/5 290/3/5 295/3/5
f 297/3/6 298/3/6 301/3/6
f 298/2/6 299/2/6 302/2/6
f 301/3/6 298/3/6 302/3/6
f 302/2/6 299/2/6 303/2/6
f 303/2/6 299/2/6 304/2/6
f 299/3/6 300/3/6 305/3/6
f 304/2/6 299/2/6 305/2/6
f 305/3/6 300/3/6 306/3/6
f 307/3/6 308/3/6 309/3/6
f 309/3/6 308/3/6 310/3/6
