# MagicaVoxel @ Ephtracy

# group
o 

# material
mtllib warlord.mtl
usemtl palette

# normals
vn -1 0 0
vn 1 0 0
vn 0 0 1
vn 0 0 -1
vn 0 -1 0
vn 0 1 0

# texcoords
vt 0.00195313 0.5
vt 0.00585938 0.5
vt 0.0253906 0.5
vt 0.0292969 0.5
vt 0.0332031 0.5
vt 0.0683594 0.5
vt 0.0917969 0.5
vt 0.0957031 0.5
vt 0.119141 0.5
vt 0.123047 0.5
vt 0.158203 0.5
vt 0.162109 0.5

# verts
v -0.8 0.4 0.7
v -0.8 0.4 0.6
v -0.8 0.4 0.5
v -0.8 0.4 0.4
v -0.8 0.5 0.7
v -0.8 0.5 0.6
v -0.8 0.5 0.5
v -0.8 0.5 0.4
v -0.7 0.4 0.8
v -0.7 0.4 0.7
v -0.7 0.4 0.6
v -0.7 0.4 0.5
v -0.7 0.5 0.8
v -0.7 0.5 0.7
v -0.7 0.5 0.6
v -0.7 0.5 0.5
v -0.4 1 0.2
v -0.4 1 0.1
v -0.4 1.1 0.2
v -0.4 1.1 0.1
v -0.3 0.4 0.4
v -0.3 0.4 0.3
v -0.3 0.4 0.2
v -0.3 0.5 0.4
v -0.3 0.5 0.3
v -0.3 0.5 0.2
v -0.3 0.5 0.1
v -0.3 0.6 0.2
v -0.3 0.6 0.1
v -0.3 0.6 -5.96046e-008
v -0.3 0.7 0.2
v -0.3 0.7 0.1
v -0.3 0.7 -5.96046e-008
v -0.3 0.7 -0.1
v -0.3 0.9 0.2
v -0.3 0.9 0.1
v -0.3 0.9 -5.96046e-008
v -0.3 0.9 -0.1
v -0.3 1 0.2
v -0.3 1 0.1
v -0.3 1 -5.96046e-008
v -0.2 0 0.1
v -0.2 0 -5.96046e-008
v -0.2 0.1 0.1
v -0.2 0.1 -5.96046e-008
v -0.2 0.3 0.2
v -0.2 0.3 0.1
v -0.2 0.3 -5.96046e-008
v -0.2 0.3 -0.1
v -0.2 0.4 0.2
v -0.2 0.4 -0.1
v -0.2 0.5 0.2
v -0.2 0.5 0.1
v -0.2 0.6 0.2
v -0.2 0.6 0.1
v -0.2 0.6 -5.96046e-008
v -0.2 0.6 -0.1
v -0.2 0.7 0.2
v -0.2 0.7 0.1
v -0.2 0.7 -5.96046e-008
v -0.2 0.7 -0.1
v -0.2 0.7 -0.2
v -0.2 0.9 0.3
v -0.2 0.9 0.2
v -0.2 0.9 -5.96046e-008
v -0.2 0.9 -0.1
v -0.2 0.9 -0.2
v -0.2 1 0.3
v -0.2 1 0.2
v -0.2 1 0.1
v -0.2 1 -5.96046e-008
v -0.2 1 -0.1
v -0.2 1.1 0.2
v -0.2 1.1 0.1
v -0.2 1.3 0.1
v -0.2 1.3 -5.96046e-008
v -0.2 1.3 -0.1
v -0.2 1.4 -5.96046e-008
v -0.2 1.4 -0.1
v -0.2 1.4 -0.3
v -0.2 1.5 -0.1
v -0.2 1.5 -0.3
v -0.1 0.6 -0.1
v -0.1 0.6 -0.2
v -0.1 0.7 -0.1
v -0.1 0.7 -0.2
v -0.1 0.8 0.3
v -0.1 0.8 0.2
v -0.1 0.9 0.3
v -0.1 0.9 0.2
v -0.1 0.9 -0.1
v -0.1 0.9 -0.2
v -0.1 1 -5.96046e-008
v -0.1 1 -0.1
v -0.1 1 -0.2
v -0.1 1.1 -5.96046e-008
v -0.1 1.1 -0.1
v 0.1 0 0.1
v 0.1 0 -5.96046e-008
v 0.1 0.1 0.1
v 0.1 0.1 -5.96046e-008
v 0.1 0.3 0.1
v 0.1 0.3 -5.96046e-008
v 0.1 0.9 0.3
v 0.1 0.9 0.2
v 0.1 1 0.3
v 0.1 1 0.2
v 0.2 0.4 0.4
v 0.2 0.4 0.3
v 0.2 0.4 0.2
v 0.2 0.5 0.4
v 0.2 0.5 0.3
v 0.2 0.5 0.2
v 0.3 1 0.2
v 0.3 1 0.1
v 0.3 1.1 0.2
v 0.3 1.1 0.1
v -0.5 0.4 0.8
v -0.5 0.4 0.7
v -0.5 0.4 0.6
v -0.5 0.4 0.5
v -0.5 0.5 0.8
v -0.5 0.5 0.7
v -0.5 0.5 0.6
v -0.5 0.5 0.5
v -0.4 0.4 0.7
v -0.4 0.4 0.6
v -0.4 0.5 0.7
v -0.4 0.5 0.6
v -0.3 1 0.2
v -0.3 1 0.1
v -0.3 1.1 0.2
v -0.3 1.1 0.1
v -0.2 0.4 0.4
v -0.2 0.4 0.3
v -0.2 0.4 0.2
v -0.2 0.5 0.4
v -0.2 0.5 0.3
v -0.2 0.5 0.2
v -0.1 0 0.1
v -0.1 0 -5.96046e-008
v -0.1 0.1 0.1
v -0.1 0.1 -5.96046e-008
v -0.1 0.3 0.1
v -0.1 0.3 -5.96046e-008
v -0.1 0.9 0.3
v -0.1 0.9 0.2
v -0.1 1 0.3
v -0.1 1 0.2
v -0.1 1.1 0.1
v -0.1 1.1 -5.96046e-008
v -0.1 1.3 0.1
v -0.1 1.3 -5.96046e-008
v -0.1 1.3 -0.1
v -0.1 1.4 -5.96046e-008
v -0.1 1.4 -0.1
v -0.1 1.4 -0.3
v -0.1 1.5 -0.1
v -0.1 1.5 -0.3
v 0.1 0.6 -0.1
v 0.1 0.6 -0.2
v 0.1 0.7 -0.1
v 0.1 0.7 -0.2
v 0.1 0.8 0.3
v 0.1 0.8 0.2
v 0.1 0.9 0.3
v 0.1 0.9 0.2
v 0.1 0.9 -0.1
v 0.1 0.9 -0.2
v 0.1 1 -5.96046e-008
v 0.1 1 -0.1
v 0.1 1 -0.2
v 0.1 1.1 -5.96046e-008
v 0.1 1.1 -0.1
v 0.2 0 0.1
v 0.2 0 -5.96046e-008
v 0.2 0.1 0.1
v 0.2 0.1 -5.96046e-008
v 0.2 0.3 0.2
v 0.2 0.3 0.1
v 0.2 0.3 -5.96046e-008
v 0.2 0.3 -0.1
v 0.2 0.4 0.2
v 0.2 0.4 -0.1
v 0.2 0.5 0.2
v 0.2 0.5 0.1
v 0.2 0.6 0.2
v 0.2 0.6 0.1
v 0.2 0.6 -5.96046e-008
v 0.2 0.6 -0.1
v 0.2 0.7 0.2
v 0.2 0.7 0.1
v 0.2 0.7 -5.96046e-008
v 0.2 0.7 -0.1
v 0.2 0.7 -0.2
v 0.2 0.9 0.3
v 0.2 0.9 0.2
v 0.2 0.9 -5.96046e-008
v 0.2 0.9 -0.1
v 0.2 0.9 -0.2
v 0.2 1 0.3
v 0.2 1 0.2
v 0.2 1 0.1
v 0.2 1 -5.96046e-008
v 0.2 1 -0.1
v 0.2 1.1 0.2
v 0.2 1.1 -5.96046e-008
v 0.3 0.4 0.4
v 0.3 0.4 0.3
v 0.3 0.4 0.2
v 0.3 0.5 0.4
v 0.3 0.5 0.3
v 0.3 0.5 0.2
v 0.3 0.5 0.1
v 0.3 0.6 0.2
v 0.3 0.6 0.1
v 0.3 0.6 -5.96046e-008
v 0.3 0.7 0.2
v 0.3 0.7 0.1
v 0.3 0.7 -5.96046e-008
v 0.3 0.7 -0.1
v 0.3 0.9 0.2
v 0.3 0.9 0.1
v 0.3 0.9 -5.96046e-008
v 0.3 0.9 -0.1
v 0.3 1 0.2
v 0.3 1 0.1
v 0.3 1 -5.96046e-008
v 0.4 1 0.2
v 0.4 1 0.1
v 0.4 1.1 0.2
v 0.4 1.1 0.1
v 0.7 0.4 0.5
v 0.7 0.4 0.4
v 0.7 0.5 0.5
v 0.7 0.5 0.4
v -0.7 0.4 0.8
v -0.7 0.5 0.8
v -0.5 0.4 0.8
v -0.5 0.5 0.8
v -0.8 0.4 0.7
v -0.8 0.5 0.7
v -0.7 0.4 0.7
v -0.7 0.5 0.7
v -0.5 0.4 0.7
v -0.5 0.5 0.7
v -0.4 0.4 0.7
v -0.4 0.5 0.7
v -0.8 0.4 0.5
v -0.8 0.5 0.5
v -0.7 0.4 0.5
v -0.7 0.5 0.5
v -0.5 0.4 0.5
v -0.5 0.5 0.5
v 0.6 0.4 0.5
v 0.6 0.5 0.5
v 0.7 0.4 0.5
v 0.7 0.5 0.5
v -0.2 0.9 0.3
v -0.2 1 0.3
v -0.1 0.8 0.3
v -0.1 0.9 0.3
v -0.1 1 0.3
v 0.1 0.8 0.3
v 0.1 0.9 0.3
v 0.1 1 0.3
v 0.2 0.9 0.3
v 0.2 1 0.3
v -0.4 1 0.2
v -0.4 1.1 0.2
v -0.3 0.5 0.2
v -0.3 0.6 0.2
v -0.3 0.7 0.2
v -0.3 0.9 0.2
v -0.3 1 0.2
v -0.3 1.1 0.2
v -0.2 0.3 0.2
v -0.2 0.4 0.2
v -0.2 0.5 0.2
v -0.2 0.6 0.2
v -0.2 0.7 0.2
v -0.2 0.8 0.2
v -0.2 0.9 0.2
v -0.2 1 0.2
v -0.2 1.1 0.2
v -0.1 0.5 0.2
v -0.1 0.6 0.2
v -0.1 0.7 0.2
v -0.1 0.8 0.2
v -0.1 0.9 0.2
v -0.1 1 0.2
v 0.1 0.5 0.2
v 0.1 0.6 0.2
v 0.1 0.7 0.2
v 0.1 0.8 0.2
v 0.1 0.9 0.2
v 0.1 1 0.2
v 0.2 0.3 0.2
v 0.2 0.4 0.2
v 0.2 0.5 0.2
v 0.2 0.6 0.2
v 0.2 0.7 0.2
v 0.2 0.8 0.2
v 0.2 0.9 0.2
v 0.2 1 0.2
v 0.2 1.1 0.2
v 0.3 0.5 0.2
v 0.3 0.6 0.2
v 0.3 0.7 0.2
v 0.3 0.9 0.2
v 0.3 1 0.2
v 0.3 1.1 0.2
v 0.4 1 0.2
v 0.4 1.1 0.2
v -0.3 0.6 0.1
v -0.3 0.7 0.1
v -0.2 0 0.1
v -0.2 0.1 0.1
v -0.2 0.3 0.1
v -0.2 0.6 0.1
v -0.2 0.7 0.1
v -0.2 1.1 0.1
v -0.2 1.3 0.1
v -0.1 0 0.1
v -0.1 0.1 0.1
v -0.1 0.3 0.1
v -0.1 1.1 0.1
v -0.1 1.3 0.1
v 0.1 0 0.1
v 0.1 0.1 0.1
v 0.1 0.3 0.1
v 0.2 0 0.1
v 0.2 0.1 0.1
v 0.2 0.3 0.1
v 0.2 0.6 0.1
v 0.2 0.7 0.1
v 0.3 0.6 0.1
v 0.3 0.7 0.1
v -0.2 1.3 -5.96046e-008
v -0.2 1.4 -5.96046e-008
v -0.1 1.3 -5.96046e-008
v -0.1 1.4 -5.96046e-008
v -0.2 1.4 -0.1
v -0.2 1.5 -0.1
v -0.1 1.4 -0.1
v -0.1 1.5 -0.1
v -0.8 0.4 0.6
v -0.8 0.5 0.6
v -0.7 0.4 0.6
v -0.7 0.5 0.6
v -0.5 0.4 0.6
v -0.5 0.5 0.6
v -0.4 0.4 0.6
v -0.4 0.5 0.6
v -0.8 0.4 0.4
v -0.8 0.5 0.4
v -0.7 0.4 0.4
v -0.7 0.5 0.4
v -0.3 0.4 0.4
v -0.3 0.5 0.4
v -0.2 0.4 0.4
v -0.2 0.5 0.4
v 0.2 0.4 0.4
v 0.2 0.5 0.4
v 0.3 0.4 0.4
v 0.3 0.5 0.4
v 0.6 0.4 0.4
v 0.6 0.5 0.4
v 0.7 0.4 0.4
v 0.7 0.5 0.4
v -0.3 0.4 0.2
v -0.3 0.5 0.2
v -0.2 0.4 0.2
v -0.2 0.5 0.2
v 0.2 0.4 0.2
v 0.2 0.5 0.2
v 0.3 0.4 0.2
v 0.3 0.5 0.2
v -0.4 1 0.1
v -0.4 1.1 0.1
v -0.3 0.5 0.1
v -0.3 0.6 0.1
v -0.3 1 0.1
v -0.3 1.1 0.1
v -0.2 0.5 0.1
v -0.2 0.6 0.1
v 0.2 0.5 0.1
v 0.2 0.6 0.1
v 0.3 0.5 0.1
v 0.3 0.6 0.1
v 0.3 1 0.1
v 0.3 1.1 0.1
v 0.4 1 0.1
v 0.4 1.1 0.1
v -0.3 0.6 -5.96046e-008
v -0.3 0.7 -5.96046e-008
v -0.3 0.9 -5.96046e-008
v -0.3 1 -5.96046e-008
v -0.2 0 -5.96046e-008
v -0.2 0.1 -5.96046e-008
v -0.2 0.3 -5.96046e-008
v -0.2 0.6 -5.96046e-008
v -0.2 0.7 -5.96046e-008
v -0.2 0.9 -5.96046e-008
v -0.2 1 -5.96046e-008
v -0.2 1.3 -5.96046e-008
v -0.1 0 -5.96046e-008
v -0.1 0.1 -5.96046e-008
v -0.1 0.3 -5.96046e-008
v -0.1 1 -5.96046e-008
v -0.1 1.1 -5.96046e-008
v -0.1 1.3 -5.96046e-008
v 0.1 0 -5.96046e-008
v 0.1 0.1 -5.96046e-008
v 0.1 0.3 -5.96046e-008
v 0.1 1 -5.96046e-008
v 0.1 1.1 -5.96046e-008
v 0.2 0 -5.96046e-008
v 0.2 0.1 -5.96046e-008
v 0.2 0.3 -5.96046e-008
v 0.2 0.6 -5.96046e-008
v 0.2 0.7 -5.96046e-008
v 0.2 0.9 -5.96046e-008
v 0.2 1 -5.96046e-008
v 0.2 1.1 -5.96046e-008
v 0.3 0.6 -5.96046e-008
v 0.3 0.7 -5.96046e-008
v 0.3 0.9 -5.96046e-008
v 0.3 1 -5.96046e-008
v -0.3 0.7 -0.1
v -0.3 0.9 -0.1
v -0.2 0.3 -0.1
v -0.2 0.4 -0.1
v -0.2 0.6 -0.1
v -0.2 0.7 -0.1
v -0.2 0.9 -0.1
v -0.2 1 -0.1
v -0.2 1.3 -0.1
v -0.2 1.4 -0.1
v -0.1 0.6 -0.1
v -0.1 0.7 -0.1
v -0.1 0.9 -0.1
v -0.1 1 -0.1
v -0.1 1.1 -0.1
v -0.1 1.3 -0.1
v -0.1 1.4 -0.1
v 0.1 0.6 -0.1
v 0.1 0.7 -0.1
v 0.1 0.9 -0.1
v 0.1 1 -0.1
v 0.1 1.1 -0.1
v 0.2 0.3 -0.1
v 0.2 0.4 -0.1
v 0.2 0.6 -0.1
v 0.2 0.7 -0.1
v 0.2 0.9 -0.1
v 0.2 1 -0.1
v 0.3 0.7 -0.1
v 0.3 0.9 -0.1
v -0.2 0.7 -0.2
v -0.2 0.9 -0.2
v -0.1 0.6 -0.2
v -0.1 0.7 -0.2
v -0.1 0.9 -0.2
v -0.1 1 -0.2
v 0.1 0.6 -0.2
v 0.1 0.7 -0.2
v 0.1 0.9 -0.2
v 0.1 1 -0.2
v 0.2 0.7 -0.2
v 0.2 0.9 -0.2
v -0.2 1.4 -0.3
v -0.2 1.5 -0.3
v -0.1 1.4 -0.3
v -0.1 1.5 -0.3
v -0.2 0 0.1
v -0.1 0 0.1
v 0.1 0 0.1
v 0.2 0 0.1
v -0.2 0 -5.96046e-008
v -0.1 0 -5.96046e-008
v 0.1 0 -5.96046e-008
v 0.2 0 -5.96046e-008
v -0.2 0.3 0.2
v 0.2 0.3 0.2
v -0.2 0.3 0.1
v -0.1 0.3 0.1
v 0.1 0.3 0.1
v 0.2 0.3 0.1
v -0.2 0.3 -5.96046e-008
v -0.1 0.3 -5.96046e-008
v 0.1 0.3 -5.96046e-008
v 0.2 0.3 -5.96046e-008
v -0.2 0.3 -0.1
v 0.2 0.3 -0.1
v -0.7 0.4 0.8
v -0.5 0.4 0.8
v -0.8 0.4 0.7
v -0.7 0.4 0.7
v -0.5 0.4 0.7
v -0.4 0.4 0.7
v -0.8 0.4 0.6
v -0.7 0.4 0.6
v -0.5 0.4 0.6
v -0.4 0.4 0.6
v -0.8 0.4 0.5
v -0.7 0.4 0.5
v -0.5 0.4 0.5
v 0.6 0.4 0.5
v 0.7 0.4 0.5
v -0.8 0.4 0.4
v -0.7 0.4 0.4
v -0.3 0.4 0.4
v -0.2 0.4 0.4
v 0.2 0.4 0.4
v 0.3 0.4 0.4
v 0.6 0.4 0.4
v 0.7 0.4 0.4
v -0.3 0.4 0.3
v -0.2 0.4 0.3
v 0.2 0.4 0.3
v 0.3 0.4 0.3
v -0.3 0.4 0.2
v -0.2 0.4 0.2
v 0.2 0.4 0.2
v 0.3 0.4 0.2
v -0.3 0.5 0.2
v -0.2 0.5 0.2
v 0.2 0.5 0.2
v 0.3 0.5 0.2
v -0.3 0.5 0.1
v -0.2 0.5 0.1
v 0.2 0.5 0.1
v 0.3 0.5 0.1
v -0.3 0.6 0.1
v -0.2 0.6 0.1
v 0.2 0.6 0.1
v 0.3 0.6 0.1
v -0.3 0.6 -5.96046e-008
v -0.2 0.6 -5.96046e-008
v 0.2 0.6 -5.96046e-008
v 0.3 0.6 -5.96046e-008
v -0.1 0.6 -0.1
v 0.1 0.6 -0.1
v -0.1 0.6 -0.2
v 0.1 0.6 -0.2
v -0.3 0.7 0.2
v -0.2 0.7 0.2
v 0.2 0.7 0.2
v 0.3 0.7 0.2
v -0.3 0.7 0.1
v -0.2 0.7 0.1
v 0.2 0.7 0.1
v 0.3 0.7 0.1
v -0.3 0.7 -5.96046e-008
v -0.2 0.7 -5.96046e-008
v 0.2 0.7 -5.96046e-008
v 0.3 0.7 -5.96046e-008
v -0.3 0.7 -0.1
v -0.2 0.7 -0.1
v -0.1 0.7 -0.1
v 0.1 0.7 -0.1
v 0.2 0.7 -0.1
v 0.3 0.7 -0.1
v -0.2 0.7 -0.2
v -0.1 0.7 -0.2
v 0.1 0.7 -0.2
v 0.2 0.7 -0.2
v -0.1 0.8 0.3
v 0.1 0.8 0.3
v -0.1 0.8 0.2
v 0.1 0.8 0.2
v -0.2 0.9 0.3
v -0.1 0.9 0.3
v 0.1 0.9 0.3
v 0.2 0.9 0.3
v -0.2 0.9 0.2
v -0.1 0.9 0.2
v 0.1 0.9 0.2
v 0.2 0.9 0.2
v -0.4 1 0.2
v -0.3 1 0.2
v 0.3 1 0.2
v 0.4 1 0.2
v -0.4 1 0.1
v -0.3 1 0.1
v 0.3 1 0.1
v 0.4 1 0.1
v -0.2 1.3 -5.96046e-008
v -0.1 1.3 -5.96046e-008
v -0.2 1.3 -0.1
v -0.1 1.3 -0.1
v -0.2 1.4 -0.1
v -0.1 1.4 -0.1
v -0.2 1.4 -0.3
v -0.1 1.4 -0.3
v -0.7 0.5 0.8
v -0.5 0.5 0.8
v -0.8 0.5 0.7
v -0.7 0.5 0.7
v -0.5 0.5 0.7
v -0.4 0.5 0.7
v -0.8 0.5 0.6
v -0.7 0.5 0.6
v -0.5 0.5 0.6
v -0.4 0.5 0.6
v -0.8 0.5 0.5
v -0.7 0.5 0.5
v -0.5 0.5 0.5
v 0.6 0.5 0.5
v 0.7 0.5 0.5
v -0.8 0.5 0.4
v -0.7 0.5 0.4
v -0.3 0.5 0.4
v -0.2 0.5 0.4
v 0.2 0.5 0.4
v 0.3 0.5 0.4
v 0.6 0.5 0.4
v 0.7 0.5 0.4
v -0.3 0.5 0.3
v -0.2 0.5 0.3
v 0.2 0.5 0.3
v 0.3 0.5 0.3
v -0.3 0.5 0.2
v -0.2 0.5 0.2
v 0.2 0.5 0.2
v 0.3 0.5 0.2
v -0.3 0.6 0.2
v -0.2 0.6 0.2
v 0.2 0.6 0.2
v 0.3 0.6 0.2
v -0.3 0.6 0.1
v -0.2 0.6 0.1
v 0.2 0.6 0.1
v 0.3 0.6 0.1
v -0.1 0.9 0.3
v 0.1 0.9 0.3
v -0.1 0.9 0.2
v 0.1 0.9 0.2
v -0.3 0.9 -5.96046e-008
v -0.2 0.9 -5.96046e-008
v 0.2 0.9 -5.96046e-008
v 0.3 0.9 -5.96046e-008
v -0.3 0.9 -0.1
v -0.2 0.9 -0.1
v -0.1 0.9 -0.1
v 0.1 0.9 -0.1
v 0.2 0.9 -0.1
v 0.3 0.9 -0.1
v -0.2 0.9 -0.2
v -0.1 0.9 -0.2
v 0.1 0.9 -0.2
v 0.2 0.9 -0.2
v -0.2 1 0.3
v -0.1 1 0.3
v 0.1 1 0.3
v 0.2 1 0.3
v -0.3 1 0.2
v -0.2 1 0.2
v -0.1 1 0.2
v 0.1 1 0.2
v 0.2 1 0.2
v 0.3 1 0.2
v -0.3 1 0.1
v -0.2 1 0.1
v 0.2 1 0.1
v 0.3 1 0.1
v -0.3 1 -5.96046e-008
v -0.2 1 -5.96046e-008
v -0.1 1 -5.96046e-008
v 0.1 1 -5.96046e-008
v 0.2 1 -5.96046e-008
v 0.3 1 -5.96046e-008
v -0.2 1 -0.1
v -0.1 1 -0.1
v 0.1 1 -0.1
v 0.2 1 -0.1
v -0.1 1 -0.2
v 0.1 1 -0.2
v -0.4 1.1 0.2
v -0.3 1.1 0.2
v -0.2 1.1 0.2
v 0.2 1.1 0.2
v 0.3 1.1 0.2
v 0.4 1.1 0.2
v -0.4 1.1 0.1
v -0.3 1.1 0.1
v -0.2 1.1 0.1
v -0.1 1.1 0.1
v 0.3 1.1 0.1
v 0.4 1.1 0.1
v -0.1 1.1 -5.96046e-008
v 0.1 1.1 -5.96046e-008
v 0.2 1.1 -5.96046e-008
v -0.1 1.1 -0.1
v 0.1 1.1 -0.1
v -0.2 1.3 0.1
v -0.1 1.3 0.1
v -0.2 1.3 -5.96046e-008
v -0.1 1.3 -5.96046e-008
v -0.2 1.4 -5.96046e-008
v -0.1 1.4 -5.96046e-008
v -0.2 1.4 -0.1
v -0.1 1.4 -0.1
v -0.2 1.5 -0.1
v -0.1 1.5 -0.1
v -0.2 1.5 -0.3
v -0.1 1.5 -0.3

# faces
f 5/5/1 2/5/1 1/5/1
f 6/5/1 2/5/1 5/5/1
f 7/8/1 4/8/1 3/8/1
f 8/8/1 4/8/1 7/8/1
f 13/5/1 10/5/1 9/5/1
f 14/5/1 10/5/1 13/5/1
f 15/6/1 12/6/1 11/6/1
f 16/6/1 12/6/1 15/6/1
f 19/8/1 18/8/1 17/8/1
f 20/8/1 18/8/1 19/8/1
f 24/10/1 22/10/1 21/10/1
f 25/6/1 23/6/1 22/6/1
f 25/10/1 22/10/1 24/10/1
f 26/6/1 23/6/1 25/6/1
f 28/6/1 27/6/1 26/6/1
f 29/6/1 27/6/1 28/6/1
f 32/6/1 30/6/1 29/6/1
f 33/6/1 30/6/1 32/6/1
f 35/1/1 32/1/1 31/1/1
f 35/1/1 34/1/1 33/1/1
f 35/1/1 33/1/1 32/1/1
f 36/1/1 34/1/1 35/1/1
f 37/1/1 34/1/1 36/1/1
f 38/1/1 34/1/1 37/1/1
f 39/8/1 36/8/1 35/8/1
f 40/1/1 37/1/1 36/1/1
f 40/8/1 36/8/1 39/8/1
f 41/1/1 37/1/1 40/1/1
f 44/11/1 43/11/1 42/11/1
f 45/11/1 43/11/1 44/11/1
f 47/1/1 45/1/1 44/1/1
f 48/1/1 45/1/1 47/1/1
f 50/12/1 48/12/1 47/12/1
f 50/12/1 49/12/1 48/12/1
f 50/12/1 47/12/1 46/12/1
f 51/12/1 49/12/1 50/12/1
f 52/11/1 51/11/1 50/11/1
f 53/11/1 51/11/1 52/11/1
f 55/11/1 51/11/1 53/11/1
f 56/11/1 51/11/1 55/11/1
f 57/11/1 51/11/1 56/11/1
f 58/1/1 55/1/1 54/1/1
f 59/1/1 55/1/1 58/1/1
f 60/6/1 57/6/1 56/6/1
f 61/6/1 57/6/1 60/6/1
f 66/1/1 62/1/1 61/1/1
f 67/1/1 62/1/1 66/1/1
f 68/1/1 64/1/1 63/1/1
f 69/1/1 64/1/1 68/1/1
f 71/1/1 66/1/1 65/1/1
f 72/1/1 66/1/1 71/1/1
f 73/1/1 70/1/1 69/1/1
f 74/4/1 71/4/1 70/4/1
f 74/1/1 70/1/1 73/1/1
f 75/4/1 71/4/1 74/4/1
f 76/4/1 71/4/1 75/4/1
f 78/11/1 77/11/1 76/11/1
f 79/11/1 77/11/1 78/11/1
f 81/11/1 80/11/1 79/11/1
f 82/11/1 80/11/1 81/11/1
f 85/1/1 84/1/1 83/1/1
f 86/1/1 84/1/1 85/1/1
f 89/1/1 88/1/1 87/1/1
f 90/1/1 88/1/1 89/1/1
f 94/1/1 92/1/1 91/1/1
f 95/1/1 92/1/1 94/1/1
f 96/1/1 94/1/1 93/1/1
f 97/1/1 94/1/1 96/1/1
f 100/11/1 99/11/1 98/11/1
f 101/11/1 99/11/1 100/11/1
f 102/1/1 101/1/1 100/1/1
f 103/1/1 101/1/1 102/1/1
f 106/1/1 105/1/1 104/1/1
f 107/1/1 105/1/1 106/1/1
f 111/10/1 109/10/1 108/10/1
f 112/6/1 110/6/1 109/6/1
f 112/10/1 109/10/1 111/10/1
f 113/6/1 110/6/1 112/6/1
f 116/8/1 115/8/1 114/8/1
f 117/8/1 115/8/1 116/8/1
f 118/5/2 119/5/2 122/5/2
f 122/5/2 119/5/2 123/5/2
f 120/6/2 121/6/2 124/6/2
f 124/6/2 121/6/2 125/6/2
f 126/5/2 127/5/2 128/5/2
f 128/5/2 127/5/2 129/5/2
f 130/8/2 131/8/2 132/8/2
f 132/8/2 131/8/2 133/8/2
f 134/10/2 135/10/2 137/10/2
f 135/6/2 136/6/2 138/6/2
f 137/10/2 135/10/2 138/10/2
f 138/6/2 136/6/2 139/6/2
f 140/11/2 141/11/2 142/11/2
f 142/11/2 141/11/2 143/11/2
f 142/1/2 143/1/2 144/1/2
f 144/1/2 143/1/2 145/1/2
f 146/1/2 147/1/2 148/1/2
f 148/1/2 147/1/2 149/1/2
f 150/4/2 151/4/2 152/4/2
f 152/4/2 151/4/2 153/4/2
f 153/11/2 154/11/2 155/11/2
f 155/11/2 154/11/2 156/11/2
f 156/11/2 157/11/2 158/11/2
f 158/11/2 157/11/2 159/11/2
f 160/1/2 161/1/2 162/1/2
f 162/1/2 161/1/2 163/1/2
f 164/1/2 165/1/2 166/1/2
f 166/1/2 165/1/2 167/1/2
f 168/1/2 169/1/2 171/1/2
f 171/1/2 169/1/2 172/1/2
f 170/1/2 171/1/2 173/1/2
f 173/1/2 171/1/2 174/1/2
f 175/11/2 176/11/2 177/11/2
f 177/11/2 176/11/2 178/11/2
f 177/1/2 178/1/2 180/1/2
f 180/1/2 178/1/2 181/1/2
f 180/12/2 181/12/2 183/12/2
f 181/12/2 182/12/2 183/12/2
f 179/12/2 180/12/2 183/12/2
f 183/12/2 182/12/2 184/12/2
f 183/11/2 184/11/2 185/11/2
f 185/11/2 184/11/2 186/11/2
f 186/11/2 184/11/2 188/11/2
f 188/11/2 184/11/2 189/11/2
f 189/11/2 184/11/2 190/11/2
f 187/1/2 188/1/2 191/1/2
f 191/1/2 188/1/2 192/1/2
f 189/6/2 190/6/2 193/6/2
f 193/6/2 190/6/2 194/6/2
f 194/1/2 195/1/2 199/1/2
f 199/1/2 195/1/2 200/1/2
f 196/1/2 197/1/2 201/1/2
f 201/1/2 197/1/2 202/1/2
f 198/1/2 199/1/2 204/1/2
f 204/1/2 199/1/2 205/1/2
f 202/1/2 203/1/2 206/1/2
f 203/1/2 204/1/2 206/1/2
f 206/1/2 204/1/2 207/1/2
f 208/10/2 209/10/2 211/10/2
f 209/6/2 210/6/2 212/6/2
f 211/10/2 209/10/2 212/10/2
f 212/6/2 210/6/2 213/6/2
f 213/6/2 214/6/2 215/6/2
f 215/6/2 214/6/2 216/6/2
f 216/6/2 217/6/2 219/6/2
f 219/6/2 217/6/2 220/6/2
f 218/1/2 219/1/2 222/1/2
f 220/1/2 221/1/2 222/1/2
f 219/1/2 220/1/2 222/1/2
f 222/1/2 221/1/2 223/1/2
f 223/1/2 221/1/2 224/1/2
f 224/1/2 221/1/2 225/1/2
f 222/8/2 223/8/2 226/8/2
f 223/1/2 224/1/2 227/1/2
f 226/8/2 223/8/2 227/8/2
f 227/1/2 224/1/2 228/1/2
f 229/8/2 230/8/2 231/8/2
f 231/8/2 230/8/2 232/8/2
f 233/8/2 234/8/2 235/8/2
f 235/8/2 234/8/2 236/8/2
f 239/5/3 238/5/3 237/5/3
f 240/5/3 238/5/3 239/5/3
f 243/5/3 242/5/3 241/5/3
f 244/5/3 242/5/3 243/5/3
f 247/5/3 246/5/3 245/5/3
f 248/5/3 246/5/3 247/5/3
f 251/8/3 250/8/3 249/8/3
f 252/8/3 250/8/3 251/8/3
f 255/2/3 254/2/3 253/2/3
f 256/2/3 254/2/3 255/2/3
f 257/8/3 256/8/3 255/8/3
f 258/8/3 256/8/3 257/8/3
f 262/1/3 260/1/3 259/1/3
f 263/1/3 260/1/3 262/1/3
f 264/1/3 262/1/3 261/1/3
f 265/1/3 262/1/3 264/1/3
f 267/1/3 266/1/3 265/1/3
f 268/1/3 266/1/3 267/1/3
f 275/8/3 270/8/3 269/8/3
f 276/8/3 270/8/3 275/8/3
f 279/6/3 272/6/3 271/6/3
f 280/6/3 272/6/3 279/6/3
f 281/1/3 274/1/3 273/1/3
f 282/1/3 274/1/3 281/1/3
f 283/8/3 275/8/3 274/8/3
f 283/1/3 274/1/3 282/1/3
f 284/8/3 275/8/3 283/8/3
f 286/11/3 280/11/3 279/11/3
f 286/11/3 279/11/3 278/11/3
f 287/1/3 281/1/3 280/1/3
f 287/11/3 280/11/3 286/11/3
f 288/10/3 282/10/3 281/10/3
f 288/1/3 281/1/3 287/1/3
f 289/7/3 283/7/3 282/7/3
f 289/10/3 282/10/3 288/10/3
f 290/7/3 283/7/3 289/7/3
f 291/1/3 285/1/3 284/1/3
f 292/6/3 287/6/3 286/6/3
f 292/11/3 286/11/3 278/11/3
f 293/1/3 288/1/3 287/1/3
f 293/6/3 287/6/3 292/6/3
f 294/9/3 289/9/3 288/9/3
f 294/1/3 288/1/3 293/1/3
f 295/9/3 289/9/3 294/9/3
f 296/8/3 291/8/3 290/8/3
f 297/1/3 285/1/3 291/1/3
f 297/8/3 291/8/3 296/8/3
f 298/12/3 278/12/3 277/12/3
f 299/11/3 292/11/3 278/11/3
f 299/12/3 278/12/3 298/12/3
f 299/11/3 293/11/3 292/11/3
f 300/11/3 293/11/3 299/11/3
f 301/1/3 294/1/3 293/1/3
f 301/11/3 293/11/3 300/11/3
f 302/10/3 295/10/3 294/10/3
f 302/1/3 294/1/3 301/1/3
f 303/7/3 296/7/3 295/7/3
f 303/10/3 295/10/3 302/10/3
f 304/7/3 296/7/3 303/7/3
f 305/1/3 285/1/3 297/1/3
f 306/1/3 285/1/3 305/1/3
f 307/6/3 301/6/3 300/6/3
f 308/6/3 301/6/3 307/6/3
f 309/1/3 304/1/3 303/1/3
f 309/1/3 303/1/3 302/1/3
f 310/8/3 305/8/3 304/8/3
f 310/1/3 304/1/3 309/1/3
f 311/8/3 305/8/3 310/8/3
f 313/8/3 312/8/3 311/8/3
f 314/8/3 312/8/3 313/8/3
f 320/6/3 316/6/3 315/6/3
f 321/6/3 316/6/3 320/6/3
f 324/11/3 318/11/3 317/11/3
f 325/1/3 319/1/3 318/1/3
f 325/11/3 318/11/3 324/11/3
f 326/1/3 319/1/3 325/1/3
f 327/4/3 323/4/3 322/4/3
f 328/4/3 323/4/3 327/4/3
f 332/11/3 330/11/3 329/11/3
f 333/1/3 331/1/3 330/1/3
f 333/11/3 330/11/3 332/11/3
f 334/1/3 331/1/3 333/1/3
f 337/6/3 336/6/3 335/6/3
f 338/6/3 336/6/3 337/6/3
f 341/11/3 340/11/3 339/11/3
f 342/11/3 340/11/3 341/11/3
f 345/11/3 344/11/3 343/11/3
f 346/11/3 344/11/3 345/11/3
f 347/5/4 348/5/4 349/5/4
f 349/5/4 348/5/4 350/5/4
f 351/5/4 352/5/4 353/5/4
f 353/5/4 352/5/4 354/5/4
f 355/8/4 356/8/4 357/8/4
f 357/8/4 356/8/4 358/8/4
f 357/2/4 358/2/4 359/2/4
f 359/2/4 358/2/4 360/2/4
f 361/2/4 362/2/4 363/2/4
f 363/2/4 362/2/4 364/2/4
f 365/2/4 366/2/4 367/2/4
f 367/2/4 366/2/4 368/2/4
f 367/8/4 368/8/4 369/8/4
f 369/8/4 368/8/4 370/8/4
f 371/6/4 372/6/4 373/6/4
f 373/6/4 372/6/4 374/6/4
f 375/6/4 376/6/4 377/6/4
f 377/6/4 376/6/4 378/6/4
f 379/8/4 380/8/4 383/8/4
f 383/8/4 380/8/4 384/8/4
f 381/6/4 382/6/4 385/6/4
f 385/6/4 382/6/4 386/6/4
f 387/6/4 388/6/4 389/6/4
f 389/6/4 388/6/4 390/6/4
f 391/8/4 392/8/4 393/8/4
f 393/8/4 392/8/4 394/8/4
f 395/6/4 396/6/4 402/6/4
f 402/6/4 396/6/4 403/6/4
f 397/1/4 398/1/4 404/1/4
f 404/1/4 398/1/4 405/1/4
f 399/11/4 400/11/4 407/11/4
f 400/1/4 401/1/4 408/1/4
f 407/11/4 400/11/4 408/11/4
f 408/1/4 401/1/4 409/1/4
f 405/4/4 406/4/4 410/4/4
f 410/4/4 406/4/4 411/4/4
f 411/4/4 406/4/4 412/4/4
f 413/11/4 414/11/4 418/11/4
f 414/1/4 415/1/4 419/1/4
f 418/11/4 414/11/4 419/11/4
f 419/1/4 415/1/4 420/1/4
f 416/1/4 417/1/4 424/1/4
f 424/1/4 417/1/4 425/1/4
f 421/6/4 422/6/4 426/6/4
f 426/6/4 422/6/4 427/6/4
f 423/1/4 424/1/4 428/1/4
f 428/1/4 424/1/4 429/1/4
f 430/1/4 431/1/4 435/1/4
f 435/1/4 431/1/4 436/1/4
f 433/11/4 434/11/4 440/11/4
f 434/6/4 435/6/4 440/6/4
f 440/6/4 435/6/4 441/6/4
f 436/1/4 437/1/4 442/1/4
f 442/1/4 437/1/4 443/1/4
f 438/11/4 439/11/4 445/11/4
f 445/11/4 439/11/4 446/11/4
f 433/11/4 440/11/4 447/11/4
f 443/1/4 444/1/4 450/1/4
f 450/1/4 444/1/4 451/1/4
f 432/12/4 433/12/4 452/12/4
f 433/11/4 447/11/4 453/11/4
f 452/12/4 433/12/4 453/12/4
f 447/6/4 448/6/4 454/6/4
f 453/11/4 447/11/4 454/11/4
f 454/6/4 448/6/4 455/6/4
f 449/1/4 450/1/4 456/1/4
f 456/1/4 450/1/4 457/1/4
f 455/1/4 456/1/4 458/1/4
f 458/1/4 456/1/4 459/1/4
f 460/1/4 461/1/4 463/1/4
f 463/1/4 461/1/4 464/1/4
f 462/1/4 463/1/4 466/1/4
f 464/1/4 465/1/4 466/1/4
f 463/1/4 464/1/4 466/1/4
f 466/1/4 465/1/4 467/1/4
f 467/1/4 465/1/4 468/1/4
f 468/1/4 465/1/4 469/1/4
f 467/1/4 468/1/4 470/1/4
f 470/1/4 468/1/4 471/1/4
f 472/11/4 473/11/4 474/11/4
f 474/11/4 473/11/4 475/11/4
f 480/11/5 477/11/5 476/11/5
f 481/11/5 477/11/5 480/11/5
f 482/11/5 479/11/5 478/11/5
f 483/11/5 479/11/5 482/11/5
f 486/12/5 485/12/5 484/12/5
f 487/12/5 485/12/5 486/12/5
f 488/12/5 485/12/5 487/12/5
f 489/12/5 485/12/5 488/12/5
f 491/12/5 488/12/5 487/12/5
f 492/12/5 488/12/5 491/12/5
f 494/12/5 491/12/5 490/12/5
f 494/12/5 493/12/5 492/12/5
f 494/12/5 492/12/5 491/12/5
f 495/12/5 493/12/5 494/12/5
f 499/5/5 497/5/5 496/5/5
f 500/5/5 497/5/5 499/5/5
f 502/5/5 499/5/5 498/5/5
f 503/6/5 500/6/5 499/6/5
f 503/5/5 499/5/5 502/5/5
f 504/5/5 501/5/5 500/5/5
f 504/6/5 500/6/5 503/6/5
f 505/5/5 501/5/5 504/5/5
f 507/6/5 504/6/5 503/6/5
f 508/6/5 504/6/5 507/6/5
f 511/8/5 507/8/5 506/8/5
f 512/2/5 508/2/5 507/2/5
f 512/8/5 507/8/5 511/8/5
f 512/2/5 509/2/5 508/2/5
f 513/2/5 509/2/5 512/2/5
f 514/2/5 509/2/5 513/2/5
f 515/2/5 509/2/5 514/2/5
f 516/2/5 509/2/5 515/2/5
f 517/8/5 510/8/5 509/8/5
f 517/2/5 509/2/5 516/2/5
f 518/8/5 510/8/5 517/8/5
f 519/10/5 514/10/5 513/10/5
f 520/10/5 514/10/5 519/10/5
f 521/10/5 516/10/5 515/10/5
f 522/10/5 516/10/5 521/10/5
f 523/6/5 520/6/5 519/6/5
f 524/6/5 520/6/5 523/6/5
f 525/6/5 522/6/5 521/6/5
f 526/6/5 522/6/5 525/6/5
f 531/6/5 528/6/5 527/6/5
f 532/6/5 528/6/5 531/6/5
f 533/6/5 530/6/5 529/6/5
f 534/6/5 530/6/5 533/6/5
f 539/6/5 536/6/5 535/6/5
f 540/6/5 536/6/5 539/6/5
f 541/6/5 538/6/5 537/6/5
f 542/6/5 538/6/5 541/6/5
f 545/1/5 544/1/5 543/1/5
f 546/1/5 544/1/5 545/1/5
f 551/1/5 548/1/5 547/1/5
f 552/1/5 548/1/5 551/1/5
f 553/1/5 550/1/5 549/1/5
f 554/1/5 550/1/5 553/1/5
f 559/1/5 556/1/5 555/1/5
f 560/1/5 556/1/5 559/1/5
f 563/1/5 558/1/5 557/1/5
f 564/1/5 558/1/5 563/1/5
f 565/1/5 561/1/5 560/1/5
f 566/1/5 561/1/5 565/1/5
f 567/1/5 563/1/5 562/1/5
f 568/1/5 563/1/5 567/1/5
f 571/1/5 570/1/5 569/1/5
f 572/1/5 570/1/5 571/1/5
f 577/1/5 574/1/5 573/1/5
f 578/1/5 574/1/5 577/1/5
f 579/1/5 576/1/5 575/1/5
f 580/1/5 576/1/5 579/1/5
f 585/8/5 582/8/5 581/8/5
f 586/8/5 582/8/5 585/8/5
f 587/8/5 584/8/5 583/8/5
f 588/8/5 584/8/5 587/8/5
f 591/11/5 590/11/5 589/11/5
f 592/11/5 590/11/5 591/11/5
f 595/11/5 594/11/5 593/11/5
f 596/11/5 594/11/5 595/11/5
f 597/5/6 598/5/6 600/5/6
f 600/5/6 598/5/6 601/5/6
f 599/5/6 600/5/6 603/5/6
f 600/6/6 601/6/6 604/6/6
f 603/5/6 600/5/6 604/5/6
f 601/5/6 602/5/6 605/5/6
f 604/6/6 601/6/6 605/6/6
f 605/5/6 602/5/6 606/5/6
f 604/6/6 605/6/6 608/6/6
f 608/6/6 605/6/6 609/6/6
f 607/8/6 608/8/6 612/8/6
f 608/2/6 609/2/6 613/2/6
f 612/8/6 608/8/6 613/8/6
f 609/2/6 610/2/6 613/2/6
f 613/2/6 610/2/6 614/2/6
f 614/2/6 610/2/6 615/2/6
f 615/2/6 610/2/6 616/2/6
f 616/2/6 610/2/6 617/2/6
f 610/8/6 611/8/6 618/8/6
f 617/2/6 610/2/6 618/2/6
f 618/8/6 611/8/6 619/8/6
f 614/10/6 615/10/6 620/10/6
f 620/10/6 615/10/6 621/10/6
f 616/10/6 617/10/6 622/10/6
f 622/10/6 617/10/6 623/10/6
f 620/6/6 621/6/6 624/6/6
f 624/6/6 621/6/6 625/6/6
f 622/6/6 623/6/6 626/6/6
f 626/6/6 623/6/6 627/6/6
f 628/6/6 629/6/6 632/6/6
f 632/6/6 629/6/6 633/6/6
f 630/6/6 631/6/6 634/6/6
f 634/6/6 631/6/6 635/6/6
f 636/1/6 637/1/6 638/1/6
f 638/1/6 637/1/6 639/1/6
f 640/1/6 641/1/6 644/1/6
f 644/1/6 641/1/6 645/1/6
f 642/1/6 643/1/6 648/1/6
f 648/1/6 643/1/6 649/1/6
f 645/1/6 646/1/6 650/1/6
f 650/1/6 646/1/6 651/1/6
f 647/1/6 648/1/6 652/1/6
f 652/1/6 648/1/6 653/1/6
f 654/1/6 655/1/6 659/1/6
f 659/1/6 655/1/6 660/1/6
f 656/1/6 657/1/6 661/1/6
f 661/1/6 657/1/6 662/1/6
f 658/8/6 659/8/6 664/8/6
f 664/8/6 659/8/6 665/8/6
f 662/8/6 663/8/6 666/8/6
f 666/8/6 663/8/6 667/8/6
f 664/1/6 665/1/6 668/1/6
f 668/1/6 665/1/6 669/1/6
f 666/1/6 667/1/6 672/1/6
f 672/1/6 667/1/6 673/1/6
f 669/1/6 670/1/6 674/1/6
f 674/1/6 670/1/6 675/1/6
f 671/1/6 672/1/6 676/1/6
f 676/1/6 672/1/6 677/1/6
f 675/1/6 676/1/6 678/1/6
f 678/1/6 676/1/6 679/1/6
f 680/8/6 681/8/6 686/8/6
f 686/8/6 681/8/6 687/8/6
f 682/1/6 683/1/6 688/1/6
f 688/1/6 683/1/6 689/1/6
f 684/8/6 685/8/6 690/8/6
f 690/8/6 685/8/6 691/8/6
f 689/1/6 683/1/6 692/1/6
f 692/1/6 683/1/6 693/1/6
f 693/1/6 683/1/6 694/1/6
f 692/1/6 693/1/6 695/1/6
f 695/1/6 693/1/6 696/1/6
f 697/4/6 698/4/6 699/4/6
f 699/4/6 698/4/6 700/4/6
f 701/11/6 702/11/6 703/11/6
f 703/11/6 702/11/6 704/11/6
f 705/11/6 706/11/6 707/11/6
f 707/11/6 706/11/6 708/11/6
