# MagicaVoxel @ Ephtracy

# group
o 

# material
mtllib flowers_6_overtile.mtl
usemtl palette

# normals
vn -1 0 0
vn 1 0 0
vn 0 0 1
vn 0 0 -1
vn 0 -1 0
vn 0 1 0

# texcoords
vt 0.0449219 0.5
vt 0.0722656 0.5
vt 0.107422 0.5

# verts
v -2.1 0.2 0.5
v -2.1 0.2 0.4
v -2.1 0.3 0.5
v -2.1 0.3 0.4
v -2 0 0.5
v -2 0 0.4
v -2 0.2 0.6
v -2 0.2 0.5
v -2 0.2 0.4
v -2 0.2 0.3
v -2 0.3 0.6
v -2 0.3 0.5
v -2 0.3 0.4
v -2 0.3 0.3
v -1.7 0.2 -1.19209e-007
v -1.7 0.2 -0.1
v -1.7 0.3 -1.19209e-007
v -1.7 0.3 -0.1
v -1.6 0 -1.19209e-007
v -1.6 0 -0.1
v -1.6 0.2 0.0999998
v -1.6 0.2 -1.19209e-007
v -1.6 0.2 -0.1
v -1.6 0.2 -0.2
v -1.6 0.3 0.0999998
v -1.6 0.3 -1.19209e-007
v -1.6 0.3 -0.1
v -1.6 0.3 -0.2
v -1.3 0.2 1
v -1.3 0.2 0.9
v -1.3 0.3 1
v -1.3 0.3 0.9
v -1.2 0 1
v -1.2 0 0.9
v -1.2 0.2 1.1
v -1.2 0.2 1
v -1.2 0.2 0.9
v -1.2 0.2 0.8
v -1.2 0.3 1.1
v -1.2 0.3 1
v -1.2 0.3 0.9
v -1.2 0.3 0.8
v -0.8 0.2 1.7
v -0.8 0.2 1.6
v -0.8 0.3 1.7
v -0.8 0.3 1.6
v -0.7 0 1.7
v -0.7 0 1.6
v -0.7 0.2 1.8
v -0.7 0.2 1.7
v -0.7 0.2 1.6
v -0.7 0.2 1.5
v -0.7 0.3 1.8
v -0.7 0.3 1.7
v -0.7 0.3 1.6
v -0.7 0.3 1.5
v 0.2 0.2 -2
v 0.2 0.2 -2.1
v 0.2 0.3 -2
v 0.2 0.3 -2.1
v 0.3 0 -2
v 0.3 0 -2.1
v 0.3 0.2 -1.9
v 0.3 0.2 -2
v 0.3 0.2 -2.1
v 0.3 0.2 -2.2
v 0.3 0.3 -1.9
v 0.3 0.3 -2
v 0.3 0.3 -2.1
v 0.3 0.3 -2.2
v 1.2 0.2 0.2
v 1.2 0.2 0.0999998
v 1.2 0.3 0.2
v 1.2 0.3 0.0999998
v 1.3 0 0.2
v 1.3 0 0.0999998
v 1.3 0.2 0.3
v 1.3 0.2 0.2
v 1.3 0.2 0.0999998
v 1.3 0.2 -1.19209e-007
v 1.3 0.3 0.3
v 1.3 0.3 0.2
v 1.3 0.3 0.0999998
v 1.3 0.3 -1.19209e-007
v 1.7 0.2 1.4
v 1.7 0.2 1.3
v 1.7 0.3 1.4
v 1.7 0.3 1.3
v 1.8 0 1.4
v 1.8 0 1.3
v 1.8 0.2 1.5
v 1.8 0.2 1.4
v 1.8 0.2 1.3
v 1.8 0.2 1.2
v 1.8 0.3 1.5
v 1.8 0.3 1.4
v 1.8 0.3 1.3
v 1.8 0.3 1.2
v -1.9 0 0.5
v -1.9 0 0.4
v -1.9 0.2 0.6
v -1.9 0.2 0.5
v -1.9 0.2 0.4
v -1.9 0.2 0.3
v -1.9 0.3 0.6
v -1.9 0.3 0.5
v -1.9 0.3 0.4
v -1.9 0.3 0.3
v -1.8 0.2 0.5
v -1.8 0.2 0.4
v -1.8 0.3 0.5
v -1.8 0.3 0.4
v -1.5 0 -1.19209e-007
v -1.5 0 -0.1
v -1.5 0.2 0.0999998
v -1.5 0.2 -1.19209e-007
v -1.5 0.2 -0.1
v -1.5 0.2 -0.2
v -1.5 0.3 0.0999998
v -1.5 0.3 -1.19209e-007
v -1.5 0.3 -0.1
v -1.5 0.3 -0.2
v -1.4 0.2 -1.19209e-007
v -1.4 0.2 -0.1
v -1.4 0.3 -1.19209e-007
v -1.4 0.3 -0.1
v -1.1 0 1
v -1.1 0 0.9
v -1.1 0.2 1.1
v -1.1 0.2 1
v -1.1 0.2 0.9
v -1.1 0.2 0.8
v -1.1 0.3 1.1
v -1.1 0.3 1
v -1.1 0.3 0.9
v -1.1 0.3 0.8
v -1 0.2 1
v -1 0.2 0.9
v -1 0.3 1
v -1 0.3 0.9
v -0.6 0 1.7
v -0.6 0 1.6
v -0.6 0.2 1.8
v -0.6 0.2 1.7
v -0.6 0.2 1.6
v -0.6 0.2 1.5
v -0.6 0.3 1.8
v -0.6 0.3 1.7
v -0.6 0.3 1.6
v -0.6 0.3 1.5
v -0.5 0.2 1.7
v -0.5 0.2 1.6
v -0.5 0.3 1.7
v -0.5 0.3 1.6
v 0.4 0 -2
v 0.4 0 -2.1
v 0.4 0.2 -1.9
v 0.4 0.2 -2
v 0.4 0.2 -2.1
v 0.4 0.2 -2.2
v 0.4 0.3 -1.9
v 0.4 0.3 -2
v 0.4 0.3 -2.1
v 0.4 0.3 -2.2
v 0.5 0.2 -2
v 0.5 0.2 -2.1
v 0.5 0.3 -2
v 0.5 0.3 -2.1
v 1.4 0 0.2
v 1.4 0 0.0999998
v 1.4 0.2 0.3
v 1.4 0.2 0.2
v 1.4 0.2 0.0999998
v 1.4 0.2 -1.19209e-007
v 1.4 0.3 0.3
v 1.4 0.3 0.2
v 1.4 0.3 0.0999998
v 1.4 0.3 -1.19209e-007
v 1.5 0.2 0.2
v 1.5 0.2 0.0999998
v 1.5 0.3 0.2
v 1.5 0.3 0.0999998
v 1.9 0 1.4
v 1.9 0 1.3
v 1.9 0.2 1.5
v 1.9 0.2 1.4
v 1.9 0.2 1.3
v 1.9 0.2 1.2
v 1.9 0.3 1.5
v 1.9 0.3 1.4
v 1.9 0.3 1.3
v 1.9 0.3 1.2
v 2 0.2 1.4
v 2 0.2 1.3
v 2 0.3 1.4
v 2 0.3 1.3
v -0.7 0.2 1.8
v -0.7 0.3 1.8
v -0.6 0.2 1.8
v -0.6 0.3 1.8
v -0.8 0.2 1.7
v -0.8 0.3 1.7
v -0.7 0 1.7
v -0.7 0.2 1.7
v -0.7 0.3 1.7
v -0.6 0 1.7
v -0.6 0.2 1.7
v -0.6 0.3 1.7
v -0.5 0.2 1.7
v -0.5 0.3 1.7
v 1.8 0.2 1.5
v 1.8 0.3 1.5
v 1.9 0.2 1.5
v 1.9 0.3 1.5
v 1.7 0.2 1.4
v 1.7 0.3 1.4
v 1.8 0 1.4
v 1.8 0.2 1.4
v 1.8 0.3 1.4
v 1.9 0 1.4
v 1.9 0.2 1.4
v 1.9 0.3 1.4
v 2 0.2 1.4
v 2 0.3 1.4
v -1.2 0.2 1.1
v -1.2 0.3 1.1
v -1.1 0.2 1.1
v -1.1 0.3 1.1
v -1.3 0.2 1
v -1.3 0.3 1
v -1.2 0 1
v -1.2 0.2 1
v -1.2 0.3 1
v -1.1 0 1
v -1.1 0.2 1
v -1.1 0.3 1
v -1 0.2 1
v -1 0.3 1
v -2 0.2 0.6
v -2 0.3 0.6
v -1.9 0.2 0.6
v -1.9 0.3 0.6
v -2.1 0.2 0.5
v -2.1 0.3 0.5
v -2 0 0.5
v -2 0.2 0.5
v -2 0.3 0.5
v -1.9 0 0.5
v -1.9 0.2 0.5
v -1.9 0.3 0.5
v -1.8 0.2 0.5
v -1.8 0.3 0.5
v 1.3 0.2 0.3
v 1.3 0.3 0.3
v 1.4 0.2 0.3
v 1.4 0.3 0.3
v 1.2 0.2 0.2
v 1.2 0.3 0.2
v 1.3 0 0.2
v 1.3 0.2 0.2
v 1.3 0.3 0.2
v 1.4 0 0.2
v 1.4 0.2 0.2
v 1.4 0.3 0.2
v 1.5 0.2 0.2
v 1.5 0.3 0.2
v -1.6 0.2 0.0999998
v -1.6 0.3 0.0999998
v -1.5 0.2 0.0999998
v -1.5 0.3 0.0999998
v -1.7 0.2 -1.19209e-007
v -1.7 0.3 -1.19209e-007
v -1.6 0 -1.19209e-007
v -1.6 0.2 -1.19209e-007
v -1.6 0.3 -1.19209e-007
v -1.5 0 -1.19209e-007
v -1.5 0.2 -1.19209e-007
v -1.5 0.3 -1.19209e-007
v -1.4 0.2 -1.19209e-007
v -1.4 0.3 -1.19209e-007
v 0.3 0.2 -1.9
v 0.3 0.3 -1.9
v 0.4 0.2 -1.9
v 0.4 0.3 -1.9
v 0.2 0.2 -2
v 0.2 0.3 -2
v 0.3 0 -2
v 0.3 0.2 -2
v 0.3 0.3 -2
v 0.4 0 -2
v 0.4 0.2 -2
v 0.4 0.3 -2
v 0.5 0.2 -2
v 0.5 0.3 -2
v -0.8 0.2 1.6
v -0.8 0.3 1.6
v -0.7 0 1.6
v -0.7 0.2 1.6
v -0.7 0.3 1.6
v -0.6 0 1.6
v -0.6 0.2 1.6
v -0.6 0.3 1.6
v -0.5 0.2 1.6
v -0.5 0.3 1.6
v -0.7 0.2 1.5
v -0.7 0.3 1.5
v -0.6 0.2 1.5
v -0.6 0.3 1.5
v 1.7 0.2 1.3
v 1.7 0.3 1.3
v 1.8 0 1.3
v 1.8 0.2 1.3
v 1.8 0.3 1.3
v 1.9 0 1.3
v 1.9 0.2 1.3
v 1.9 0.3 1.3
v 2 0.2 1.3
v 2 0.3 1.3
v 1.8 0.2 1.2
v 1.8 0.3 1.2
v 1.9 0.2 1.2
v 1.9 0.3 1.2
v -1.3 0.2 0.9
v -1.3 0.3 0.9
v -1.2 0 0.9
v -1.2 0.2 0.9
v -1.2 0.3 0.9
v -1.1 0 0.9
v -1.1 0.2 0.9
v -1.1 0.3 0.9
v -1 0.2 0.9
v -1 0.3 0.9
v -1.2 0.2 0.8
v -1.2 0.3 0.8
v -1.1 0.2 0.8
v -1.1 0.3 0.8
v -2.1 0.2 0.4
v -2.1 0.3 0.4
v -2 0 0.4
v -2 0.2 0.4
v -2 0.3 0.4
v -1.9 0 0.4
v -1.9 0.2 0.4
v -1.9 0.3 0.4
v -1.8 0.2 0.4
v -1.8 0.3 0.4
v -2 0.2 0.3
v -2 0.3 0.3
v -1.9 0.2 0.3
v -1.9 0.3 0.3
v 1.2 0.2 0.0999998
v 1.2 0.3 0.0999998
v 1.3 0 0.0999998
v 1.3 0.2 0.0999998
v 1.3 0.3 0.0999998
v 1.4 0 0.0999998
v 1.4 0.2 0.0999998
v 1.4 0.3 0.0999998
v 1.5 0.2 0.0999998
v 1.5 0.3 0.0999998
v 1.3 0.2 -1.19209e-007
v 1.3 0.3 -1.19209e-007
v 1.4 0.2 -1.19209e-007
v 1.4 0.3 -1.19209e-007
v -1.7 0.2 -0.1
v -1.7 0.3 -0.1
v -1.6 0 -0.1
v -1.6 0.2 -0.1
v -1.6 0.3 -0.1
v -1.5 0 -0.1
v -1.5 0.2 -0.1
v -1.5 0.3 -0.1
v -1.4 0.2 -0.1
v -1.4 0.3 -0.1
v -1.6 0.2 -0.2
v -1.6 0.3 -0.2
v -1.5 0.2 -0.2
v -1.5 0.3 -0.2
v 0.2 0.2 -2.1
v 0.2 0.3 -2.1
v 0.3 0 -2.1
v 0.3 0.2 -2.1
v 0.3 0.3 -2.1
v 0.4 0 -2.1
v 0.4 0.2 -2.1
v 0.4 0.3 -2.1
v 0.5 0.2 -2.1
v 0.5 0.3 -2.1
v 0.3 0.2 -2.2
v 0.3 0.3 -2.2
v 0.4 0.2 -2.2
v 0.4 0.3 -2.2
v -0.7 0 1.7
v -0.6 0 1.7
v -0.7 0 1.6
v -0.6 0 1.6
v 1.8 0 1.4
v 1.9 0 1.4
v 1.8 0 1.3
v 1.9 0 1.3
v -1.2 0 1
v -1.1 0 1
v -1.2 0 0.9
v -1.1 0 0.9
v -2 0 0.5
v -1.9 0 0.5
v -2 0 0.4
v -1.9 0 0.4
v 1.3 0 0.2
v 1.4 0 0.2
v 1.3 0 0.0999998
v 1.4 0 0.0999998
v -1.6 0 -1.19209e-007
v -1.5 0 -1.19209e-007
v -1.6 0 -0.1
v -1.5 0 -0.1
v 0.3 0 -2
v 0.4 0 -2
v 0.3 0 -2.1
v 0.4 0 -2.1
v -0.7 0.2 1.8
v -0.6 0.2 1.8
v -0.8 0.2 1.7
v -0.7 0.2 1.7
v -0.6 0.2 1.7
v -0.5 0.2 1.7
v -0.8 0.2 1.6
v -0.7 0.2 1.6
v -0.6 0.2 1.6
v -0.5 0.2 1.6
v -0.7 0.2 1.5
v -0.6 0.2 1.5
v 1.8 0.2 1.5
v 1.9 0.2 1.5
v 1.7 0.2 1.4
v 1.8 0.2 1.4
v 1.9 0.2 1.4
v 2 0.2 1.4
v 1.7 0.2 1.3
v 1.8 0.2 1.3
v 1.9 0.2 1.3
v 2 0.2 1.3
v 1.8 0.2 1.2
v 1.9 0.2 1.2
v -1.2 0.2 1.1
v -1.1 0.2 1.1
v -1.3 0.2 1
v -1.2 0.2 1
v -1.1 0.2 1
v -1 0.2 1
v -1.3 0.2 0.9
v -1.2 0.2 0.9
v -1.1 0.2 0.9
v -1 0.2 0.9
v -1.2 0.2 0.8
v -1.1 0.2 0.8
v -2 0.2 0.6
v -1.9 0.2 0.6
v -2.1 0.2 0.5
v -2 0.2 0.5
v -1.9 0.2 0.5
v -1.8 0.2 0.5
v -2.1 0.2 0.4
v -2 0.2 0.4
v -1.9 0.2 0.4
v -1.8 0.2 0.4
v -2 0.2 0.3
v -1.9 0.2 0.3
v 1.3 0.2 0.3
v 1.4 0.2 0.3
v 1.2 0.2 0.2
v 1.3 0.2 0.2
v 1.4 0.2 0.2
v 1.5 0.2 0.2
v -1.6 0.2 0.0999998
v -1.5 0.2 0.0999998
v 1.2 0.2 0.0999998
v 1.3 0.2 0.0999998
v 1.4 0.2 0.0999998
v 1.5 0.2 0.0999998
v -1.7 0.2 -1.19209e-007
v -1.6 0.2 -1.19209e-007
v -1.5 0.2 -1.19209e-007
v -1.4 0.2 -1.19209e-007
v 1.3 0.2 -1.19209e-007
v 1.4 0.2 -1.19209e-007
v -1.7 0.2 -0.1
v -1.6 0.2 -0.1
v -1.5 0.2 -0.1
v -1.4 0.2 -0.1
v -1.6 0.2 -0.2
v -1.5 0.2 -0.2
v 0.3 0.2 -1.9
v 0.4 0.2 -1.9
v 0.2 0.2 -2
v 0.3 0.2 -2
v 0.4 0.2 -2
v 0.5 0.2 -2
v 0.2 0.2 -2.1
v 0.3 0.2 -2.1
v 0.4 0.2 -2.1
v 0.5 0.2 -2.1
v 0.3 0.2 -2.2
v 0.4 0.2 -2.2
v -0.7 0.3 1.8
v -0.6 0.3 1.8
v -0.8 0.3 1.7
v -0.7 0.3 1.7
v -0.6 0.3 1.7
v -0.5 0.3 1.7
v -0.8 0.3 1.6
v -0.7 0.3 1.6
v -0.6 0.3 1.6
v -0.5 0.3 1.6
v -0.7 0.3 1.5
v -0.6 0.3 1.5
v 1.8 0.3 1.5
v 1.9 0.3 1.5
v 1.7 0.3 1.4
v 1.8 0.3 1.4
v 1.9 0.3 1.4
v 2 0.3 1.4
v 1.7 0.3 1.3
v 1.8 0.3 1.3
v 1.9 0.3 1.3
v 2 0.3 1.3
v 1.8 0.3 1.2
v 1.9 0.3 1.2
v -1.2 0.3 1.1
v -1.1 0.3 1.1
v -1.3 0.3 1
v -1.2 0.3 1
v -1.1 0.3 1
v -1 0.3 1
v -1.3 0.3 0.9
v -1.2 0.3 0.9
v -1.1 0.3 0.9
v -1 0.3 0.9
v -1.2 0.3 0.8
v -1.1 0.3 0.8
v -2 0.3 0.6
v -1.9 0.3 0.6
v -2.1 0.3 0.5
v -2 0.3 0.5
v -1.9 0.3 0.5
v -1.8 0.3 0.5
v -2.1 0.3 0.4
v -2 0.3 0.4
v -1.9 0.3 0.4
v -1.8 0.3 0.4
v -2 0.3 0.3
v -1.9 0.3 0.3
v 1.3 0.3 0.3
v 1.4 0.3 0.3
v 1.2 0.3 0.2
v 1.3 0.3 0.2
v 1.4 0.3 0.2
v 1.5 0.3 0.2
v -1.6 0.3 0.0999998
v -1.5 0.3 0.0999998
v 1.2 0.3 0.0999998
v 1.3 0.3 0.0999998
v 1.4 0.3 0.0999998
v 1.5 0.3 0.0999998
v -1.7 0.3 -1.19209e-007
v -1.6 0.3 -1.19209e-007
v -1.5 0.3 -1.19209e-007
v -1.4 0.3 -1.19209e-007
v 1.3 0.3 -1.19209e-007
v 1.4 0.3 -1.19209e-007
v -1.7 0.3 -0.1
v -1.6 0.3 -0.1
v -1.5 0.3 -0.1
v -1.4 0.3 -0.1
v -1.6 0.3 -0.2
v -1.5 0.3 -0.2
v 0.3 0.3 -1.9
v 0.4 0.3 -1.9
v 0.2 0.3 -2
v 0.3 0.3 -2
v 0.4 0.3 -2
v 0.5 0.3 -2
v 0.2 0.3 -2.1
v 0.3 0.3 -2.1
v 0.4 0.3 -2.1
v 0.5 0.3 -2.1
v 0.3 0.3 -2.2
v 0.4 0.3 -2.2

# faces
f 3/3/1 2/3/1 1/3/1
f 4/3/1 2/3/1 3/3/1
f 8/1/1 6/1/1 5/1/1
f 9/1/1 6/1/1 8/1/1
f 11/3/1 8/3/1 7/3/1
f 12/3/1 8/3/1 11/3/1
f 13/3/1 10/3/1 9/3/1
f 14/3/1 10/3/1 13/3/1
f 17/3/1 16/3/1 15/3/1
f 18/3/1 16/3/1 17/3/1
f 22/1/1 20/1/1 19/1/1
f 23/1/1 20/1/1 22/1/1
f 25/3/1 22/3/1 21/3/1
f 26/3/1 22/3/1 25/3/1
f 27/3/1 24/3/1 23/3/1
f 28/3/1 24/3/1 27/3/1
f 31/3/1 30/3/1 29/3/1
f 32/3/1 30/3/1 31/3/1
f 36/1/1 34/1/1 33/1/1
f 37/1/1 34/1/1 36/1/1
f 39/3/1 36/3/1 35/3/1
f 40/3/1 36/3/1 39/3/1
f 41/3/1 38/3/1 37/3/1
f 42/3/1 38/3/1 41/3/1
f 45/3/1 44/3/1 43/3/1
f 46/3/1 44/3/1 45/3/1
f 50/1/1 48/1/1 47/1/1
f 51/1/1 48/1/1 50/1/1
f 53/3/1 50/3/1 49/3/1
f 54/3/1 50/3/1 53/3/1
f 55/3/1 52/3/1 51/3/1
f 56/3/1 52/3/1 55/3/1
f 59/3/1 58/3/1 57/3/1
f 60/3/1 58/3/1 59/3/1
f 64/1/1 62/1/1 61/1/1
f 65/1/1 62/1/1 64/1/1
f 67/3/1 64/3/1 63/3/1
f 68/3/1 64/3/1 67/3/1
f 69/3/1 66/3/1 65/3/1
f 70/3/1 66/3/1 69/3/1
f 73/3/1 72/3/1 71/3/1
f 74/3/1 72/3/1 73/3/1
f 78/1/1 76/1/1 75/1/1
f 79/1/1 76/1/1 78/1/1
f 81/3/1 78/3/1 77/3/1
f 82/3/1 78/3/1 81/3/1
f 83/3/1 80/3/1 79/3/1
f 84/3/1 80/3/1 83/3/1
f 87/3/1 86/3/1 85/3/1
f 88/3/1 86/3/1 87/3/1
f 92/1/1 90/1/1 89/1/1
f 93/1/1 90/1/1 92/1/1
f 95/3/1 92/3/1 91/3/1
f 96/3/1 92/3/1 95/3/1
f 97/3/1 94/3/1 93/3/1
f 98/3/1 94/3/1 97/3/1
f 99/1/2 100/1/2 102/1/2
f 102/1/2 100/1/2 103/1/2
f 101/3/2 102/3/2 105/3/2
f 105/3/2 102/3/2 106/3/2
f 103/3/2 104/3/2 107/3/2
f 107/3/2 104/3/2 108/3/2
f 109/3/2 110/3/2 111/3/2
f 111/3/2 110/3/2 112/3/2
f 113/1/2 114/1/2 116/1/2
f 116/1/2 114/1/2 117/1/2
f 115/3/2 116/3/2 119/3/2
f 119/3/2 116/3/2 120/3/2
f 117/3/2 118/3/2 121/3/2
f 121/3/2 118/3/2 122/3/2
f 123/3/2 124/3/2 125/3/2
f 125/3/2 124/3/2 126/3/2
f 127/1/2 128/1/2 130/1/2
f 130/1/2 128/1/2 131/1/2
f 129/3/2 130/3/2 133/3/2
f 133/3/2 130/3/2 134/3/2
f 131/3/2 132/3/2 135/3/2
f 135/3/2 132/3/2 136/3/2
f 137/3/2 138/3/2 139/3/2
f 139/3/2 138/3/2 140/3/2
f 141/1/2 142/1/2 144/1/2
f 144/1/2 142/1/2 145/1/2
f 143/3/2 144/3/2 147/3/2
f 147/3/2 144/3/2 148/3/2
f 145/3/2 146/3/2 149/3/2
f 149/3/2 146/3/2 150/3/2
f 151/3/2 152/3/2 153/3/2
f 153/3/2 152/3/2 154/3/2
f 155/1/2 156/1/2 158/1/2
f 158/1/2 156/1/2 159/1/2
f 157/3/2 158/3/2 161/3/2
f 161/3/2 158/3/2 162/3/2
f 159/3/2 160/3/2 163/3/2
f 163/3/2 160/3/2 164/3/2
f 165/3/2 166/3/2 167/3/2
f 167/3/2 166/3/2 168/3/2
f 169/1/2 170/1/2 172/1/2
f 172/1/2 170/1/2 173/1/2
f 171/3/2 172/3/2 175/3/2
f 175/3/2 172/3/2 176/3/2
f 173/3/2 174/3/2 177/3/2
f 177/3/2 174/3/2 178/3/2
f 179/3/2 180/3/2 181/3/2
f 181/3/2 180/3/2 182/3/2
f 183/1/2 184/1/2 186/1/2
f 186/1/2 184/1/2 187/1/2
f 185/3/2 186/3/2 189/3/2
f 189/3/2 186/3/2 190/3/2
f 187/3/2 188/3/2 191/3/2
f 191/3/2 188/3/2 192/3/2
f 193/3/2 194/3/2 195/3/2
f 195/3/2 194/3/2 196/3/2
f 199/3/3 198/3/3 197/3/3
f 200/3/3 198/3/3 199/3/3
f 204/3/3 202/3/3 201/3/3
f 205/3/3 202/3/3 204/3/3
f 206/1/3 204/1/3 203/1/3
f 207/1/3 204/1/3 206/1/3
f 209/3/3 208/3/3 207/3/3
f 210/3/3 208/3/3 209/3/3
f 213/3/3 212/3/3 211/3/3
f 214/3/3 212/3/3 213/3/3
f 218/3/3 216/3/3 215/3/3
f 219/3/3 216/3/3 218/3/3
f 220/1/3 218/1/3 217/1/3
f 221/1/3 218/1/3 220/1/3
f 223/3/3 222/3/3 221/3/3
f 224/3/3 222/3/3 223/3/3
f 227/3/3 226/3/3 225/3/3
f 228/3/3 226/3/3 227/3/3
f 232/3/3 230/3/3 229/3/3
f 233/3/3 230/3/3 232/3/3
f 234/1/3 232/1/3 231/1/3
f 235/1/3 232/1/3 234/1/3
f 237/3/3 236/3/3 235/3/3
f 238/3/3 236/3/3 237/3/3
f 241/3/3 240/3/3 239/3/3
f 242/3/3 240/3/3 241/3/3
f 246/3/3 244/3/3 243/3/3
f 247/3/3 244/3/3 246/3/3
f 248/1/3 246/1/3 245/1/3
f 249/1/3 246/1/3 248/1/3
f 251/3/3 250/3/3 249/3/3
f 252/3/3 250/3/3 251/3/3
f 255/3/3 254/3/3 253/3/3
f 256/3/3 254/3/3 255/3/3
f 260/3/3 258/3/3 257/3/3
f 261/3/3 258/3/3 260/3/3
f 262/1/3 260/1/3 259/1/3
f 263/1/3 260/1/3 262/1/3
f 265/3/3 264/3/3 263/3/3
f 266/3/3 264/3/3 265/3/3
f 269/3/3 268/3/3 267/3/3
f 270/3/3 268/3/3 269/3/3
f 274/3/3 272/3/3 271/3/3
f 275/3/3 272/3/3 274/3/3
f 276/1/3 274/1/3 273/1/3
f 277/1/3 274/1/3 276/1/3
f 279/3/3 278/3/3 277/3/3
f 280/3/3 278/3/3 279/3/3
f 283/3/3 282/3/3 281/3/3
f 284/3/3 282/3/3 283/3/3
f 288/3/3 286/3/3 285/3/3
f 289/3/3 286/3/3 288/3/3
f 290/1/3 288/1/3 287/1/3
f 291/1/3 288/1/3 290/1/3
f 293/3/3 292/3/3 291/3/3
f 294/3/3 292/3/3 293/3/3
f 295/3/4 296/3/4 298/3/4
f 298/3/4 296/3/4 299/3/4
f 297/1/4 298/1/4 300/1/4
f 300/1/4 298/1/4 301/1/4
f 301/3/4 302/3/4 303/3/4
f 303/3/4 302/3/4 304/3/4
f 305/3/4 306/3/4 307/3/4
f 307/3/4 306/3/4 308/3/4
f 309/3/4 310/3/4 312/3/4
f 312/3/4 310/3/4 313/3/4
f 311/1/4 312/1/4 314/1/4
f 314/1/4 312/1/4 315/1/4
f 315/3/4 316/3/4 317/3/4
f 317/3/4 316/3/4 318/3/4
f 319/3/4 320/3/4 321/3/4
f 321/3/4 320/3/4 322/3/4
f 323/3/4 324/3/4 326/3/4
f 326/3/4 324/3/4 327/3/4
f 325/1/4 326/1/4 328/1/4
f 328/1/4 326/1/4 329/1/4
f 329/3/4 330/3/4 331/3/4
f 331/3/4 330/3/4 332/3/4
f 333/3/4 334/3/4 335/3/4
f 335/3/4 334/3/4 336/3/4
f 337/3/4 338/3/4 340/3/4
f 340/3/4 338/3/4 341/3/4
f 339/1/4 340/1/4 342/1/4
f 342/1/4 340/1/4 343/1/4
f 343/3/4 344/3/4 345/3/4
f 345/3/4 344/3/4 346/3/4
f 347/3/4 348/3/4 349/3/4
f 349/3/4 348/3/4 350/3/4
f 351/3/4 352/3/4 354/3/4
f 354/3/4 352/3/4 355/3/4
f 353/1/4 354/1/4 356/1/4
f 356/1/4 354/1/4 357/1/4
f 357/3/4 358/3/4 359/3/4
f 359/3/4 358/3/4 360/3/4
f 361/3/4 362/3/4 363/3/4
f 363/3/4 362/3/4 364/3/4
f 365/3/4 366/3/4 368/3/4
f 368/3/4 366/3/4 369/3/4
f 367/1/4 368/1/4 370/1/4
f 370/1/4 368/1/4 371/1/4
f 371/3/4 372/3/4 373/3/4
f 373/3/4 372/3/4 374/3/4
f 375/3/4 376/3/4 377/3/4
f 377/3/4 376/3/4 378/3/4
f 379/3/4 380/3/4 382/3/4
f 382/3/4 380/3/4 383/3/4
f 381/1/4 382/1/4 384/1/4
f 384/1/4 382/1/4 385/1/4
f 385/3/4 386/3/4 387/3/4
f 387/3/4 386/3/4 388/3/4
f 389/3/4 390/3/4 391/3/4
f 391/3/4 390/3/4 392/3/4
f 395/1/5 394/1/5 393/1/5
f 396/1/5 394/1/5 395/1/5
f 399/1/5 398/1/5 397/1/5
f 400/1/5 398/1/5 399/1/5
f 403/1/5 402/1/5 401/1/5
f 404/1/5 402/1/5 403/1/5
f 407/1/5 406/1/5 405/1/5
f 408/1/5 406/1/5 407/1/5
f 411/1/5 410/1/5 409/1/5
f 412/1/5 410/1/5 411/1/5
f 415/1/5 414/1/5 413/1/5
f 416/1/5 414/1/5 415/1/5
f 419/1/5 418/1/5 417/1/5
f 420/1/5 418/1/5 419/1/5
f 424/3/5 422/3/5 421/3/5
f 425/3/5 422/3/5 424/3/5
f 427/3/5 424/3/5 423/3/5
f 428/3/5 424/3/5 427/3/5
f 429/3/5 426/3/5 425/3/5
f 430/3/5 426/3/5 429/3/5
f 431/3/5 429/3/5 428/3/5
f 432/3/5 429/3/5 431/3/5
f 436/3/5 434/3/5 433/3/5
f 437/3/5 434/3/5 436/3/5
f 439/3/5 436/3/5 435/3/5
f 440/3/5 436/3/5 439/3/5
f 441/3/5 438/3/5 437/3/5
f 442/3/5 438/3/5 441/3/5
f 443/3/5 441/3/5 440/3/5
f 444/3/5 441/3/5 443/3/5
f 448/3/5 446/3/5 445/3/5
f 449/3/5 446/3/5 448/3/5
f 451/3/5 448/3/5 447/3/5
f 452/3/5 448/3/5 451/3/5
f 453/3/5 450/3/5 449/3/5
f 454/3/5 450/3/5 453/3/5
f 455/3/5 453/3/5 452/3/5
f 456/3/5 453/3/5 455/3/5
f 460/3/5 458/3/5 457/3/5
f 461/3/5 458/3/5 460/3/5
f 463/3/5 460/3/5 459/3/5
f 464/3/5 460/3/5 463/3/5
f 465/3/5 462/3/5 461/3/5
f 466/3/5 462/3/5 465/3/5
f 467/3/5 465/3/5 464/3/5
f 468/3/5 465/3/5 467/3/5
f 472/3/5 470/3/5 469/3/5
f 473/3/5 470/3/5 472/3/5
f 477/3/5 472/3/5 471/3/5
f 478/3/5 472/3/5 477/3/5
f 479/3/5 474/3/5 473/3/5
f 480/3/5 474/3/5 479/3/5
f 482/3/5 476/3/5 475/3/5
f 483/3/5 476/3/5 482/3/5
f 485/3/5 479/3/5 478/3/5
f 486/3/5 479/3/5 485/3/5
f 487/3/5 482/3/5 481/3/5
f 488/3/5 482/3/5 487/3/5
f 489/3/5 484/3/5 483/3/5
f 490/3/5 484/3/5 489/3/5
f 491/3/5 489/3/5 488/3/5
f 492/3/5 489/3/5 491/3/5
f 496/3/5 494/3/5 493/3/5
f 497/3/5 494/3/5 496/3/5
f 499/3/5 496/3/5 495/3/5
f 500/3/5 496/3/5 499/3/5
f 501/3/5 498/3/5 497/3/5
f 502/3/5 498/3/5 501/3/5
f 503/3/5 501/3/5 500/3/5
f 504/3/5 501/3/5 503/3/5
f 505/3/6 506/3/6 508/3/6
f 508/3/6 506/3/6 509/3/6
f 507/3/6 508/3/6 511/3/6
f 508/2/6 509/2/6 512/2/6
f 511/3/6 508/3/6 512/3/6
f 509/3/6 510/3/6 513/3/6
f 512/2/6 509/2/6 513/2/6
f 513/3/6 510/3/6 514/3/6
f 512/3/6 513/3/6 515/3/6
f 515/3/6 513/3/6 516/3/6
f 517/3/6 518/3/6 520/3/6
f 520/3/6 518/3/6 521/3/6
f 519/3/6 520/3/6 523/3/6
f 520/2/6 521/2/6 524/2/6
f 523/3/6 520/3/6 524/3/6
f 521/3/6 522/3/6 525/3/6
f 524/2/6 521/2/6 525/2/6
f 525/3/6 522/3/6 526/3/6
f 524/3/6 525/3/6 527/3/6
f 527/3/6 525/3/6 528/3/6
f 529/3/6 530/3/6 532/3/6
f 532/3/6 530/3/6 533/3/6
f 531/3/6 532/3/6 535/3/6
f 532/2/6 533/2/6 536/2/6
f 535/3/6 532/3/6 536/3/6
f 533/3/6 534/3/6 537/3/6
f 536/2/6 533/2/6 537/2/6
f 537/3/6 534/3/6 538/3/6
f 536/3/6 537/3/6 539/3/6
f 539/3/6 537/3/6 540/3/6
f 541/3/6 542/3/6 544/3/6
f 544/3/6 542/3/6 545/3/6
f 543/3/6 544/3/6 547/3/6
f 544/2/6 545/2/6 548/2/6
f 547/3/6 544/3/6 548/3/6
f 545/3/6 546/3/6 549/3/6
f 548/2/6 545/2/6 549/2/6
f 549/3/6 546/3/6 550/3/6
f 548/3/6 549/3/6 551/3/6
f 551/3/6 549/3/6 552/3/6
f 553/3/6 554/3/6 556/3/6
f 556/3/6 554/3/6 557/3/6
f 555/3/6 556/3/6 561/3/6
f 556/2/6 557/2/6 562/2/6
f 561/3/6 556/3/6 562/3/6
f 557/3/6 558/3/6 563/3/6
f 562/2/6 557/2/6 563/2/6
f 563/3/6 558/3/6 564/3/6
f 559/3/6 560/3/6 566/3/6
f 566/3/6 560/3/6 567/3/6
f 562/3/6 563/3/6 569/3/6
f 569/3/6 563/3/6 570/3/6
f 565/3/6 566/3/6 571/3/6
f 566/2/6 567/2/6 572/2/6
f 571/3/6 566/3/6 572/3/6
f 567/3/6 568/3/6 573/3/6
f 572/2/6 567/2/6 573/2/6
f 573/3/6 568/3/6 574/3/6
f 572/3/6 573/3/6 575/3/6
f 575/3/6 573/3/6 576/3/6
f 577/3/6 578/3/6 580/3/6
f 580/3/6 578/3/6 581/3/6
f 579/3/6 580/3/6 583/3/6
f 580/2/6 581/2/6 584/2/6
f 583/3/6 580/3/6 584/3/6
f 581/3/6 582/3/6 585/3/6
f 584/2/6 581/2/6 585/2/6
f 585/3/6 582/3/6 586/3/6
f 584/3/6 585/3/6 587/3/6
f 587/3/6 585/3/6 588/3/6
