# MagicaVoxel @ Ephtracy

# group
o 

# material
mtllib grass_tile.mtl
usemtl palette

# normals
vn -1 0 0
vn 1 0 0
vn 0 0 1
vn 0 0 -1
vn 0 -1 0
vn 0 1 0

# texcoords
vt 0.341797 0.5
vt 0.513672 0.5
vt 0.626953 0.5
vt 0.630859 0.5
vt 0.654297 0.5
vt 0.771484 0.5
vt 0.794922 0.5

# verts
v -4 0 4
v -4 0 -4
v -4 2 4
v -4 2 -4
v -4 3 4
v -4 3 -4
v -4 3.9 4
v -4 3.9 -4
v -4 4 4
v -4 4 -4
v 4 0 4
v 4 0 -4
v 4 2 4
v 4 2 -4
v 4 3 4
v 4 3 -4
v 4 3.9 4
v 4 3.9 -4
v 4 4 4
v 4 4 -4
v -4 0 4
v -4 2 4
v -4 3 4
v -4 3.9 4
v -4 4 4
v 4 0 4
v 4 2 4
v 4 3 4
v 4 3.9 4
v 4 4 4
v -4 0 -4
v -4 2 -4
v -4 3 -4
v -4 3.9 -4
v -4 4 -4
v 4 0 -4
v 4 2 -4
v 4 3 -4
v 4 3.9 -4
v 4 4 -4
v -4 0 4
v 4 0 4
v -4 0 -4
v 4 0 -4
v -4 4 4
v 4 4 4
v -3.9 4 3.9
v 3.9 4 3.9
v 1 4 2.9
v 1.3 4 2.9
v 1 4 2.6
v 1.3 4 2.6
v 2.3 4 2.6
v 2.6 4 2.6
v 2.3 4 2.3
v 2.6 4 2.3
v -1.1 4 2
v -0.7 4 2
v 0.1 4 2
v 0.3 4 2
v 0.1 4 1.8
v 0.3 4 1.8
v -2.3 4 1.7
v -2 4 1.7
v -1.1 4 1.6
v -0.7 4 1.6
v -2.3 4 1.4
v -2 4 1.4
v 0.9 4 0.3
v 1.2 4 0.3
v -1.9 4 0
v -1.7 4 0
v 0.9 4 0
v 1.2 4 0
v -1.9 4 -0.2
v -1.7 4 -0.2
v -3.5 4 -0.3
v -3.3 4 -0.3
v -0.3 4 -0.4
v -0.0999999 4 -0.4
v -3.5 4 -0.5
v -3.3 4 -0.5
v -0.3 4 -0.6
v -0.0999999 4 -0.6
v 3.1 4 -1.2
v 3.4 4 -1.2
v 1.5 4 -1.4
v 1.7 4 -1.4
v 1.8 4 -1.4
v 2.1 4 -1.4
v 3.1 4 -1.5
v 3.4 4 -1.5
v 1.5 4 -1.6
v 1.7 4 -1.6
v 1.8 4 -1.7
v 2.1 4 -1.7
v -2.6 4 -2.3
v -2.3 4 -2.3
v -0.7 4 -2.3
v -0.5 4 -2.3
v -0.7 4 -2.5
v -0.5 4 -2.5
v -2.6 4 -2.6
v -2.3 4 -2.6
v 2.7 4 -2.9
v 3 4 -2.9
v 1 4 -3.2
v 1.2 4 -3.2
v 2.7 4 -3.2
v 3 4 -3.2
v -3.4 4 -3.3
v -3.2 4 -3.3
v 1 4 -3.4
v 1.2 4 -3.4
v -3.4 4 -3.5
v -3.2 4 -3.5
v -3.9 4 -3.9
v 3.9 4 -3.9
v -4 4 -4
v 4 4 -4

# faces
f 3/1/1 2/1/1 1/1/1
f 4/1/1 2/1/1 3/1/1
f 5/5/1 4/5/1 3/5/1
f 6/5/1 4/5/1 5/5/1
f 7/3/1 6/3/1 5/3/1
f 8/3/1 6/3/1 7/3/1
f 9/7/1 8/7/1 7/7/1
f 10/7/1 8/7/1 9/7/1
f 11/1/2 12/1/2 13/1/2
f 13/1/2 12/1/2 14/1/2
f 13/5/2 14/5/2 15/5/2
f 15/5/2 14/5/2 16/5/2
f 15/3/2 16/3/2 17/3/2
f 17/3/2 16/3/2 18/3/2
f 17/7/2 18/7/2 19/7/2
f 19/7/2 18/7/2 20/7/2
f 26/1/3 22/1/3 21/1/3
f 27/5/3 23/5/3 22/5/3
f 27/1/3 22/1/3 26/1/3
f 28/3/3 24/3/3 23/3/3
f 28/5/3 23/5/3 27/5/3
f 29/7/3 25/7/3 24/7/3
f 29/3/3 24/3/3 28/3/3
f 30/7/3 25/7/3 29/7/3
f 31/1/4 32/1/4 36/1/4
f 32/5/4 33/5/4 37/5/4
f 36/1/4 32/1/4 37/1/4
f 33/3/4 34/3/4 38/3/4
f 37/5/4 33/5/4 38/5/4
f 34/7/4 35/7/4 39/7/4
f 38/3/4 34/3/4 39/3/4
f 39/7/4 35/7/4 40/7/4
f 43/1/5 42/1/5 41/1/5
f 44/1/5 42/1/5 43/1/5
f 45/7/6 46/7/6 47/7/6
f 47/7/6 46/7/6 48/7/6
f 47/3/6 48/3/6 49/3/6
f 49/3/6 48/3/6 50/3/6
f 47/3/6 49/3/6 51/3/6
f 49/2/6 50/2/6 51/2/6
f 50/3/6 48/3/6 52/3/6
f 51/2/6 50/2/6 52/2/6
f 52/3/6 48/3/6 53/3/6
f 53/3/6 48/3/6 54/3/6
f 51/3/6 52/3/6 55/3/6
f 52/3/6 53/3/6 55/3/6
f 53/5/6 54/5/6 55/5/6
f 54/3/6 48/3/6 56/3/6
f 55/5/6 54/5/6 56/5/6
f 47/3/6 51/3/6 57/3/6
f 51/3/6 55/3/6 57/3/6
f 55/3/6 56/3/6 57/3/6
f 57/3/6 56/3/6 58/3/6
f 58/3/6 56/3/6 59/3/6
f 59/3/6 56/3/6 60/3/6
f 58/3/6 59/3/6 61/3/6
f 59/2/6 60/2/6 61/2/6
f 60/3/6 56/3/6 62/3/6
f 61/2/6 60/2/6 62/2/6
f 47/3/6 57/3/6 63/3/6
f 63/3/6 57/3/6 64/3/6
f 57/6/6 58/6/6 65/6/6
f 64/3/6 57/3/6 65/3/6
f 58/3/6 61/3/6 66/3/6
f 65/6/6 58/6/6 66/6/6
f 61/3/6 62/3/6 66/3/6
f 63/5/6 64/5/6 67/5/6
f 47/3/6 63/3/6 67/3/6
f 64/3/6 65/3/6 68/3/6
f 67/5/6 64/5/6 68/5/6
f 65/3/6 66/3/6 68/3/6
f 62/3/6 56/3/6 69/3/6
f 68/3/6 66/3/6 69/3/6
f 67/3/6 68/3/6 69/3/6
f 66/3/6 62/3/6 69/3/6
f 69/3/6 56/3/6 70/3/6
f 67/3/6 69/3/6 71/3/6
f 71/3/6 69/3/6 72/3/6
f 69/5/6 70/5/6 73/5/6
f 72/3/6 69/3/6 73/3/6
f 70/3/6 56/3/6 74/3/6
f 73/5/6 70/5/6 74/5/6
f 71/6/6 72/6/6 75/6/6
f 67/3/6 71/3/6 75/3/6
f 72/3/6 73/3/6 76/3/6
f 75/6/6 72/6/6 76/6/6
f 73/3/6 74/3/6 76/3/6
f 47/3/6 67/3/6 77/3/6
f 67/3/6 75/3/6 77/3/6
f 75/3/6 76/3/6 77/3/6
f 77/3/6 76/3/6 78/3/6
f 76/3/6 74/3/6 79/3/6
f 78/3/6 76/3/6 79/3/6
f 79/3/6 74/3/6 80/3/6
f 77/2/6 78/2/6 81/2/6
f 47/3/6 77/3/6 81/3/6
f 78/3/6 79/3/6 82/3/6
f 81/2/6 78/2/6 82/2/6
f 79/4/6 80/4/6 83/4/6
f 82/3/6 79/3/6 83/3/6
f 81/3/6 82/3/6 83/3/6
f 80/3/6 74/3/6 84/3/6
f 83/4/6 80/4/6 84/4/6
f 56/3/6 48/3/6 85/3/6
f 84/3/6 74/3/6 85/3/6
f 83/3/6 84/3/6 85/3/6
f 74/3/6 56/3/6 85/3/6
f 85/3/6 48/3/6 86/3/6
f 83/3/6 85/3/6 87/3/6
f 87/3/6 85/3/6 88/3/6
f 88/3/6 85/3/6 89/3/6
f 89/3/6 85/3/6 90/3/6
f 85/2/6 86/2/6 91/2/6
f 90/3/6 85/3/6 91/3/6
f 86/3/6 48/3/6 92/3/6
f 91/2/6 86/2/6 92/2/6
f 83/3/6 87/3/6 93/3/6
f 87/6/6 88/6/6 93/6/6
f 88/3/6 89/3/6 94/3/6
f 93/6/6 88/6/6 94/6/6
f 89/6/6 90/6/6 95/6/6
f 94/3/6 89/3/6 95/3/6
f 93/3/6 94/3/6 95/3/6
f 90/3/6 91/3/6 96/3/6
f 95/6/6 90/6/6 96/6/6
f 91/3/6 92/3/6 96/3/6
f 81/3/6 83/3/6 97/3/6
f 93/3/6 95/3/6 97/3/6
f 95/3/6 96/3/6 97/3/6
f 83/3/6 93/3/6 97/3/6
f 97/3/6 96/3/6 98/3/6
f 98/3/6 96/3/6 99/3/6
f 99/3/6 96/3/6 100/3/6
f 98/3/6 99/3/6 101/3/6
f 99/6/6 100/6/6 101/6/6
f 100/3/6 96/3/6 102/3/6
f 101/6/6 100/6/6 102/6/6
f 81/3/6 97/3/6 103/3/6
f 97/5/6 98/5/6 103/5/6
f 101/3/6 102/3/6 104/3/6
f 103/5/6 98/5/6 104/5/6
f 98/3/6 101/3/6 104/3/6
f 96/3/6 92/3/6 105/3/6
f 104/3/6 102/3/6 105/3/6
f 103/3/6 104/3/6 105/3/6
f 102/3/6 96/3/6 105/3/6
f 105/3/6 92/3/6 106/3/6
f 103/3/6 105/3/6 107/3/6
f 107/3/6 105/3/6 108/3/6
f 105/5/6 106/5/6 109/5/6
f 108/3/6 105/3/6 109/3/6
f 106/3/6 92/3/6 110/3/6
f 109/5/6 106/5/6 110/5/6
f 81/3/6 103/3/6 111/3/6
f 103/3/6 107/3/6 111/3/6
f 111/3/6 107/3/6 112/3/6
f 107/2/6 108/2/6 113/2/6
f 112/3/6 107/3/6 113/3/6
f 108/3/6 109/3/6 114/3/6
f 113/2/6 108/2/6 114/2/6
f 109/3/6 110/3/6 114/3/6
f 111/2/6 112/2/6 115/2/6
f 81/3/6 111/3/6 115/3/6
f 112/3/6 113/3/6 116/3/6
f 115/2/6 112/2/6 116/2/6
f 113/3/6 114/3/6 116/3/6
f 45/7/6 47/7/6 117/7/6
f 47/3/6 81/3/6 117/3/6
f 115/3/6 116/3/6 117/3/6
f 81/3/6 115/3/6 117/3/6
f 116/3/6 114/3/6 118/3/6
f 117/3/6 116/3/6 118/3/6
f 48/7/6 46/7/6 118/7/6
f 92/3/6 48/3/6 118/3/6
f 110/3/6 92/3/6 118/3/6
f 114/3/6 110/3/6 118/3/6
f 45/7/6 117/7/6 119/7/6
f 117/7/6 118/7/6 119/7/6
f 118/7/6 46/7/6 120/7/6
f 119/7/6 118/7/6 120/7/6
