# MagicaVoxel @ Ephtracy

# group
o 

# material
mtllib projectile.mtl
usemtl palette

# normals
vn -1 0 0
vn 1 0 0
vn 0 0 1
vn 0 0 -1
vn 0 -1 0
vn 0 1 0

# texcoords
vt 0.0371094 0.5
vt 0.0410156 0.5
vt 0.0761719 0.5
vt 0.0917969 0.5

# verts
v -0.2 -0.1 0.4
v -0.2 -0.1 0.3
v -0.2 -0.1 0.2
v -0.2 -0.1 -0.5
v -0.2 0.1 0.4
v -0.2 0.1 0.3
v -0.2 0.1 0.2
v -0.2 0.1 -0.5
v -0.1 -0.2 0.4
v -0.1 -0.2 0.3
v -0.1 -0.2 0.2
v -0.1 -0.2 -0.5
v -0.1 -0.1 0.6
v -0.1 -0.1 0.5
v -0.1 -0.1 0.4
v -0.1 -0.1 0.3
v -0.1 -0.1 0.2
v -0.1 -0.1 -0.5
v -0.1 -0.1 -0.6
v -0.1 0.1 0.6
v -0.1 0.1 0.5
v -0.1 0.1 0.4
v -0.1 0.1 0.3
v -0.1 0.1 0.2
v -0.1 0.1 -0.5
v -0.1 0.1 -0.6
v -0.1 0.2 0.4
v -0.1 0.2 0.3
v -0.1 0.2 0.2
v -0.1 0.2 -0.5
v 0.1 -0.2 0.4
v 0.1 -0.2 0.3
v 0.1 -0.2 0.2
v 0.1 -0.2 -0.5
v 0.1 -0.1 0.6
v 0.1 -0.1 0.5
v 0.1 -0.1 0.4
v 0.1 -0.1 0.3
v 0.1 -0.1 0.2
v 0.1 -0.1 -0.5
v 0.1 -0.1 -0.6
v 0.1 0.1 0.6
v 0.1 0.1 0.5
v 0.1 0.1 0.4
v 0.1 0.1 0.3
v 0.1 0.1 0.2
v 0.1 0.1 -0.5
v 0.1 0.1 -0.6
v 0.1 0.2 0.4
v 0.1 0.2 0.3
v 0.1 0.2 0.2
v 0.1 0.2 -0.5
v 0.2 -0.1 0.4
v 0.2 -0.1 0.3
v 0.2 -0.1 0.2
v 0.2 -0.1 -0.5
v 0.2 0.1 0.4
v 0.2 0.1 0.3
v 0.2 0.1 0.2
v 0.2 0.1 -0.5
v -0.1 -0.1 0.6
v -0.1 0.1 0.6
v 0.1 -0.1 0.6
v 0.1 0.1 0.6
v -0.2 -0.1 0.4
v -0.2 0.1 0.4
v -0.1 -0.2 0.4
v -0.1 -0.1 0.4
v -0.1 0.1 0.4
v -0.1 0.2 0.4
v 0.1 -0.2 0.4
v 0.1 -0.1 0.4
v 0.1 0.1 0.4
v 0.1 0.2 0.4
v 0.2 -0.1 0.4
v 0.2 0.1 0.4
v -0.2 -0.1 -0.5
v -0.2 0.1 -0.5
v -0.1 -0.2 -0.5
v -0.1 -0.1 -0.5
v -0.1 0.1 -0.5
v -0.1 0.2 -0.5
v 0.1 -0.2 -0.5
v 0.1 -0.1 -0.5
v 0.1 0.1 -0.5
v 0.1 0.2 -0.5
v 0.2 -0.1 -0.5
v 0.2 0.1 -0.5
v -0.1 -0.1 -0.6
v -0.1 0.1 -0.6
v 0.1 -0.1 -0.6
v 0.1 0.1 -0.6
v -0.1 -0.2 0.4
v 0.1 -0.2 0.4
v -0.1 -0.2 0.3
v 0.1 -0.2 0.3
v -0.1 -0.2 0.2
v 0.1 -0.2 0.2
v -0.1 -0.2 -0.5
v 0.1 -0.2 -0.5
v -0.1 -0.1 0.6
v 0.1 -0.1 0.6
v -0.1 -0.1 0.5
v 0.1 -0.1 0.5
v -0.2 -0.1 0.4
v -0.1 -0.1 0.4
v 0.1 -0.1 0.4
v 0.2 -0.1 0.4
v -0.2 -0.1 0.3
v -0.1 -0.1 0.3
v 0.1 -0.1 0.3
v 0.2 -0.1 0.3
v -0.2 -0.1 0.2
v -0.1 -0.1 0.2
v 0.1 -0.1 0.2
v 0.2 -0.1 0.2
v -0.2 -0.1 -0.5
v -0.1 -0.1 -0.5
v 0.1 -0.1 -0.5
v 0.2 -0.1 -0.5
v -0.1 -0.1 -0.6
v 0.1 -0.1 -0.6
v -0.1 0.1 0.6
v 0.1 0.1 0.6
v -0.1 0.1 0.5
v 0.1 0.1 0.5
v -0.2 0.1 0.4
v -0.1 0.1 0.4
v 0.1 0.1 0.4
v 0.2 0.1 0.4
v -0.2 0.1 0.3
v -0.1 0.1 0.3
v 0.1 0.1 0.3
v 0.2 0.1 0.3
v -0.2 0.1 0.2
v -0.1 0.1 0.2
v 0.1 0.1 0.2
v 0.2 0.1 0.2
v -0.2 0.1 -0.5
v -0.1 0.1 -0.5
v 0.1 0.1 -0.5
v 0.2 0.1 -0.5
v -0.1 0.1 -0.6
v 0.1 0.1 -0.6
v -0.1 0.2 0.4
v 0.1 0.2 0.4
v -0.1 0.2 0.3
v 0.1 0.2 0.3
v -0.1 0.2 0.2
v 0.1 0.2 0.2
v -0.1 0.2 -0.5
v 0.1 0.2 -0.5

# faces
f 5/3/1 2/3/1 1/3/1
f 6/1/1 3/1/1 2/1/1
f 6/3/1 2/3/1 5/3/1
f 7/2/1 4/2/1 3/2/1
f 7/1/1 3/1/1 6/1/1
f 8/2/1 4/2/1 7/2/1
f 15/3/1 10/3/1 9/3/1
f 16/1/1 11/1/1 10/1/1
f 16/3/1 10/3/1 15/3/1
f 17/2/1 12/2/1 11/2/1
f 17/1/1 11/1/1 16/1/1
f 18/2/1 12/2/1 17/2/1
f 20/3/1 14/3/1 13/3/1
f 21/1/1 15/1/1 14/1/1
f 21/3/1 14/3/1 20/3/1
f 22/1/1 15/1/1 21/1/1
f 25/4/1 19/4/1 18/4/1
f 26/4/1 19/4/1 25/4/1
f 27/3/1 23/3/1 22/3/1
f 28/1/1 24/1/1 23/1/1
f 28/3/1 23/3/1 27/3/1
f 29/2/1 25/2/1 24/2/1
f 29/1/1 24/1/1 28/1/1
f 30/2/1 25/2/1 29/2/1
f 31/3/2 32/3/2 37/3/2
f 32/1/2 33/1/2 38/1/2
f 37/3/2 32/3/2 38/3/2
f 33/2/2 34/2/2 39/2/2
f 38/1/2 33/1/2 39/1/2
f 39/2/2 34/2/2 40/2/2
f 35/3/2 36/3/2 42/3/2
f 36/1/2 37/1/2 43/1/2
f 42/3/2 36/3/2 43/3/2
f 43/1/2 37/1/2 44/1/2
f 40/4/2 41/4/2 47/4/2
f 47/4/2 41/4/2 48/4/2
f 44/3/2 45/3/2 49/3/2
f 45/1/2 46/1/2 50/1/2
f 49/3/2 45/3/2 50/3/2
f 46/2/2 47/2/2 51/2/2
f 50/1/2 46/1/2 51/1/2
f 51/2/2 47/2/2 52/2/2
f 53/3/2 54/3/2 57/3/2
f 54/1/2 55/1/2 58/1/2
f 57/3/2 54/3/2 58/3/2
f 55/2/2 56/2/2 59/2/2
f 58/1/2 55/1/2 59/1/2
f 59/2/2 56/2/2 60/2/2
f 63/3/3 62/3/3 61/3/3
f 64/3/3 62/3/3 63/3/3
f 68/3/3 66/3/3 65/3/3
f 69/3/3 66/3/3 68/3/3
f 71/3/3 68/3/3 67/3/3
f 72/3/3 68/3/3 71/3/3
f 73/3/3 70/3/3 69/3/3
f 74/3/3 70/3/3 73/3/3
f 75/3/3 73/3/3 72/3/3
f 76/3/3 73/3/3 75/3/3
f 77/2/4 78/2/4 80/2/4
f 80/2/4 78/2/4 81/2/4
f 79/2/4 80/2/4 83/2/4
f 83/2/4 80/2/4 84/2/4
f 81/2/4 82/2/4 85/2/4
f 85/2/4 82/2/4 86/2/4
f 84/2/4 85/2/4 87/2/4
f 87/2/4 85/2/4 88/2/4
f 89/4/4 90/4/4 91/4/4
f 91/4/4 90/4/4 92/4/4
f 95/3/5 94/3/5 93/3/5
f 96/3/5 94/3/5 95/3/5
f 97/1/5 96/1/5 95/1/5
f 98/1/5 96/1/5 97/1/5
f 99/2/5 98/2/5 97/2/5
f 100/2/5 98/2/5 99/2/5
f 103/3/5 102/3/5 101/3/5
f 104/3/5 102/3/5 103/3/5
f 106/1/5 104/1/5 103/1/5
f 107/1/5 104/1/5 106/1/5
f 109/3/5 106/3/5 105/3/5
f 110/3/5 106/3/5 109/3/5
f 111/3/5 108/3/5 107/3/5
f 112/3/5 108/3/5 111/3/5
f 113/1/5 110/1/5 109/1/5
f 114/1/5 110/1/5 113/1/5
f 115/1/5 112/1/5 111/1/5
f 116/1/5 112/1/5 115/1/5
f 117/2/5 114/2/5 113/2/5
f 118/2/5 114/2/5 117/2/5
f 119/2/5 116/2/5 115/2/5
f 120/2/5 116/2/5 119/2/5
f 121/4/5 119/4/5 118/4/5
f 122/4/5 119/4/5 121/4/5
f 123/3/6 124/3/6 125/3/6
f 125/3/6 124/3/6 126/3/6
f 125/1/6 126/1/6 128/1/6
f 128/1/6 126/1/6 129/1/6
f 127/3/6 128/3/6 131/3/6
f 131/3/6 128/3/6 132/3/6
f 129/3/6 130/3/6 133/3/6
f 133/3/6 130/3/6 134/3/6
f 131/1/6 132/1/6 135/1/6
f 135/1/6 132/1/6 136/1/6
f 133/1/6 134/1/6 137/1/6
f 137/1/6 134/1/6 138/1/6
f 135/2/6 136/2/6 139/2/6
f 139/2/6 136/2/6 140/2/6
f 137/2/6 138/2/6 141/2/6
f 141/2/6 138/2/6 142/2/6
f 140/4/6 141/4/6 143/4/6
f 143/4/6 141/4/6 144/4/6
f 145/3/6 146/3/6 147/3/6
f 147/3/6 146/3/6 148/3/6
f 147/1/6 148/1/6 149/1/6
f 149/1/6 148/1/6 150/1/6
f 149/2/6 150/2/6 151/2/6
f 151/2/6 150/2/6 152/2/6
